<svg version="1.2" xmlns="http://www.w3.org/2000/svg" viewBox="0 0 377 243" width="377" height="243">
	<title>Compliance (1)-svg</title>
	<style>
		.s0 { fill: #ddf1fc } 
		.s1 { fill: #fefefe } 
		.s2 { fill: #def1fc } 
		.s3 { fill: #0b0c0d } 
		.s4 { fill: #fe582a } 
		.s5 { fill: #fefdfd } 
		.s6 { fill: #f85c32 } 
		.s7 { fill: #131414 } 
		.s8 { fill: #dcf0fb } 
		.s9 { fill: #fdfdfd } 
		.s10 { fill: #ddf0fb } 
		.s11 { fill: #92d2fd } 
		.s12 { fill: #121415 } 
		.s13 { fill: #ff582a } 
		.s14 { fill: #fffefe } 
		.s15 { fill: #4163fe } 
		.s16 { fill: #3b5dfd } 
		.s17 { fill: #fbfdfe } 
		.s18 { fill: #fcfcfc } 
		.s19 { fill: #1a1c1d } 
		.s20 { fill: #395bf7 } 
		.s21 { fill: #93d4fe } 
		.s22 { fill: #395af7 } 
		.s23 { fill: #def2fd } 
		.s24 { fill: #151719 } 
		.s25 { fill: #151819 } 
		.s26 { fill: #fbfcfd } 
		.s27 { fill: #fefdfc } 
		.s28 { fill: #101112 } 
		.s29 { fill: #fe6237 } 
		.s30 { fill: #fefeff } 
		.s31 { fill: #395cfb } 
		.s32 { fill: #161818 } 
		.s33 { fill: #0d0f0f } 
		.s34 { fill: #1f2123 } 
		.s35 { fill: #92d4fe } 
		.s36 { fill: #99d7ff } 
		.s37 { fill: #95d6ff } 
		.s38 { fill: #141718 } 
		.s39 { fill: #131618 } 
		.s40 { fill: #4465f9 } 
		.s41 { fill: #4264fe } 
		.s42 { fill: #95d5fe } 
		.s43 { fill: #90d1fb } 
		.s44 { fill: #deeef8 } 
		.s45 { fill: #eeeeee } 
		.s46 { fill: #ffece7 } 
		.s47 { fill: #daeef9 } 
		.s48 { fill: #141618 } 
		.s49 { fill: #fe5d30 } 
		.s50 { fill: #4164fe } 
		.s51 { fill: #161718 } 
		.s52 { fill: #171819 } 
		.s53 { fill: #202224 } 
		.s54 { fill: #f7f7f8 } 
		.s55 { fill: #15171a } 
		.s56 { fill: #fbfcfe } 
		.s57 { fill: #161819 } 
		.s58 { fill: #18191a } 
		.s59 { fill: #17191a } 
		.s60 { fill: #8ecdf5 } 
		.s61 { fill: #131617 } 
		.s62 { fill: #fafafb } 
		.s63 { fill: #1f1310 } 
		.s64 { fill: #fbfdff } 
		.s65 { fill: #151718 } 
		.s66 { fill: #222324 } 
		.s67 { fill: #1f2021 } 
		.s68 { fill: #1e1f20 } 
		.s69 { fill: #191a1b } 
		.s70 { fill: #2d2f30 } 
		.s71 { fill: #1c1d1e } 
		.s72 { fill: #18100f } 
		.s73 { fill: #252627 } 
		.s74 { fill: #16181a } 
		.s75 { fill: #1a1b1c } 
		.s76 { fill: #91d3fc } 
		.s77 { fill: #d6e9f4 } 
		.s78 { fill: #0a0b0c } 
		.s79 { fill: #f9fafd } 
		.s80 { fill: #17100f } 
		.s81 { fill: #93d2fb } 
		.s82 { fill: #130f0e } 
		.s83 { fill: #0b0b0b } 
		.s84 { fill: #1b1c1c } 
		.s85 { fill: #1d1c1d } 
		.s86 { fill: #e2f3fc } 
		.s87 { fill: #e1f3fd } 
		.s88 { fill: #e8613d } 
		.s89 { fill: #201512 } 
		.s90 { fill: #fc6136 } 
		.s91 { fill: #e7562e } 
		.s92 { fill: #171a1b } 
		.s93 { fill: #e1f2fc } 
		.s94 { fill: #e0f0fa } 
		.s95 { fill: #191c1e } 
		.s96 { fill: #d4e8fd } 
		.s97 { fill: #ededec } 
		.s98 { fill: #deeffa } 
		.s99 { fill: #dcdddd } 
		.s100 { fill: #81bade } 
		.s101 { fill: #82badf } 
		.s102 { fill: #e1eef6 } 
		.s103 { fill: #121414 } 
		.s104 { fill: #0c0e0f } 
		.s105 { fill: #0d0f10 } 
		.s106 { fill: #181a1b } 
		.s107 { fill: #322f30 } 
		.s108 { fill: #fff2ee } 
		.s109 { fill: #1f1b1a } 
		.s110 { fill: #292c2d } 
		.s111 { fill: #232627 } 
		.s112 { fill: #1b1b1c } 
		.s113 { fill: #e7e1e3 } 
		.s114 { fill: #e1ecf4 } 
		.s115 { fill: #181b1d } 
		.s116 { fill: #8dcbf3 } 
		.s117 { fill: #fbd3c8 } 
		.s118 { fill: #f9a892 } 
		.s119 { fill: #fb9b82 } 
		.s120 { fill: #fe8b6c } 
		.s121 { fill: #ff714b } 
		.s122 { fill: #000000 } 
	</style>
	<path class="s0" d="m103 55.5q0.2 0 0.5 0 0.3 0 0.6 0 0.4 0 0.7 0 1.1 0 2.1 0 0.8 0 1.5 0 1.6 0 3.2 0 1.8 0 3.6 0 1.7-0.1 3.5-0.1 0.7 0 1.4 0 1.1 0 2.1 0 0.3 0 0.6 0c1.2 0 1.9 0.1 2.8 0.9 0.8 1 0.9 1.8 0.9 3.1q0 0.2 0 0.5 0 0.9 0 1.8 0 0.7 0 1.3 0 1.6 0 3.3 0 1.7 0 3.4 0 3.3 0 6.6 0.4-0.2 0.7-0.3c1.4-0.9 1.4-0.9 2.2-0.8q0.3 0.1 0.5 0.1-0.1 0.3-0.2 0.6c-0.5 0.3-0.5 0.3-1.1 0.5-1.3 0.5-2.3 1.1-3.1 2.3-0.2 0.5-0.1 0.7 0.1 1.2 0.2 0.3 0.2 0.3 0.6 0.5 1.2 1.2 2.1 2.8 2.7 4.4 0.2-0.1 0.2-0.1 0.3-0.1 2.8-0.9 5.4-1.4 8.3-1.3q0 0.4 0 0.8-0.2 0-0.3 0c-2.5 0.3-4.8 0.6-7.1 1.3q-0.4 0.2-0.8 0.2 0 0.4 0.1 0.7-0.1 0.3-0.1 0.7c-0.6 0.4-0.6 0.4-1 0.6-0.7 0.4-1.3 0.9-1.8 1.6-0.4 1.8-0.2 3.7-0.2 5.5q0 1.2 0.1 2.3 0 0.7 0 1.4c0 0.9 0 1.6-0.4 2.5-0.8 0.8-1.4 1.3-2.6 1.3q-0.6 0-1.2 0c-0.3 0-0.3 0-0.7 0q-1 0-2.1 0-0.8 0-1.5 0-1.6 0-3.1 0-2 0-4.1 0-1.9 0-3.8 0-0.4 0-0.7 0-1.1 0-2.1 0-0.3 0-0.6 0-0.3 0-0.6 0-0.2 0-0.5 0c-0.4-0.1-0.4-0.1-0.8-0.3q0.1 0.2 0.1 0.4 0.2 0.7 0.3 1.5 0.1 0.2 0.1 0.5 0.1 0.2 0.1 0.5 0.1 0.2 0.1 0.5c0.1 0.4 0.1 0.4 0.1 0.7 42.3 0 84.6 0 128.1 0q0.1 0.4 0.2 0.8c-0.2 0.2-0.2 0.2-0.5 0.3q-0.3 0-0.5 0c-0.3 0-0.3 0-0.6 0-0.3 0-0.3 0-0.6 0q-0.3 0-0.7 0-1.1 0-2.2 0-0.8 0-1.5 0-1.8 0-3.5 0-2.6 0-5.1 0-4.4 0-8.7 0-4.3-0.1-8.6-0.1-0.2 0-0.5 0-1.3 0-2.7 0-9.6 0-19.1 0-9.3 0-18.7 0-0.2 0-0.5 0-2.9 0-5.8 0-5.9 0-11.7 0-0.3 0-0.6 0-18 0-36 0 0.3 0.8 0.6 1.5 0.1 0.2 0.1 0.5 0.6 1.5 1.2 3 0.2 0.5 0.4 1 0.2 0.7 0.5 1.5 0.3 0.7 0.6 1.4c0.1 0.2 0.1 0.2 0.1 0.4 0.3 0.6 0.4 1.1 0.4 1.7q0.4 0 0.8 0 8.5 0 17 0 1 0 2.1 0 0.2 0 0.4 0 3.4 0 6.7 0 3.5-0.1 7-0.1 1.9 0 3.9 0 1.8 0 3.6 0 0.7 0 1.4 0 0.9 0 1.8 0 0.3 0 0.5 0c1.8 0 3.3 0.6 4.6 1.8 1.1 1.6 1.2 2.8 1.1 4.7q0 0.4 0.1 0.8 0 1 0 2.1 0 0.9 0 1.8 0 2.1 0 4.2 0 2.2 0 4.4 0 1.9 0 3.7 0 1.1 0 2.3 0 1 0 2.1 0 0.5 0 1.1c0 1.6-0.3 2.8-1.4 4-1.8 1.7-4 1.8-6.3 1.7q-0.5 0-1 0-1.3 0-2.7 0-1.4 0-2.7 0-2.7 0-5.3 0-3 0-6 0-6.1 0-12.2-0.1 0.6 1.6 1.1 3.2c12 0 24 0.1 36.3 0.2q0 0.4 0 0.8c-0.3 0.3-0.7 0.2-1.1 0.2q-0.2 0-0.4 0-0.2 0-0.5 0-0.7 0-1.5 0-0.5 0-1 0-1.4 0-2.9 0-1.5 0-3 0-2.8 0-5.7 0-3.2 0-6.4 0-6.7 0-13.4 0c0.1 0.1 0.1 0.1 0.2 0.3q0.7 1.8 1.4 3.6 0.1 0.2 0.2 0.5c0.2 0.5 0.2 0.5 0.2 1.1q16 0 32 0c0.3 0 0.3 0 0.5 0q5.2 0 10.3-0.1 2.6 0 5.1 0 0.2 0 0.5 0 8.1 0 16.3 0 8.4 0 16.7 0 1.2 0 2.4 0c0.2 0 0.2 0 0.5 0q3.7 0 7.5 0 3.7 0 7.5 0 2 0 4.1 0 1.9 0 3.7 0 0.7 0 1.4 0c2.7 0.1 5 0 7.2-2 1.3-1.3 2-2.8 2-4.7 0-0.3 0-0.3 0-0.6q0.1-0.3 0.1-0.7 0-0.3 0-0.7 0-1 0-2 0-0.9 0-1.7 0-3.1 0-6.2 0-0.3 0-0.5 0.1-4.9 0.1-9.8 0-1.1 0-2.2 0-0.2 0-0.5 0-4.3 0.1-8.6 0-4.4 0-8.9 0-2.5 0-4.9c0.2-9.8 0.2-9.8-1.5-19.3-0.3-1.2-0.5-2.5-0.7-3.7q-0.2-0.5-0.3-1.1c-0.2-1-0.3-1.9 0.2-2.9 0.7-0.9 1.4-1.2 2.5-1.3q0.6 0 1.1 0 0.3-0.1 0.5-0.1 0.6 0 1.2 0 0.9-0.1 1.8-0.2c5.9-0.3 5.9-0.3 7.2 0.5 1 1.1 1.1 2.6 1.4 4q0.1 0.4 0.1 0.7 0.2 1 0.4 2 0.2 1 0.4 2 0.3 1.6 0.6 3.2 0.4 1.7 0.7 3.5 0.2 0.8 0.3 1.6 0.1 0.3 0.2 0.7c0.5 2.6 0.5 2.6-0.1 3.7-0.5 0.6-0.9 0.9-1.7 1-0.2 0-0.2 0-0.5 0q-0.3 0.1-0.5 0.1c-0.2 0-0.2 0-0.4 0 0.2 1.2 0.6 1.7 1.5 2.6q0.6 0.5 1.1 1.1 1.2 1.4 2.5 2.8 0.6 0.7 1.3 1.5 0.4 0.5 0.9 1 1.9 2 3.6 4.2 4.1-1.4 8-3 0.6-0.2 1.1-0.4 0.5-0.2 1-0.4 0.2-0.1 0.5-0.2 1.1-0.4 2.2-0.9c1.4-0.6 2.8-1 4.2-1.4 1.8-0.3 1.8-0.3 3.2-1.4 0.1-0.2 0.1-0.2 0.2-0.5q0.1-0.2 0.2-0.4c0.4-0.9 0.7-1.9 0.4-2.8-0.3-0.5-0.3-0.5-0.7-0.9-1.4-1.4-1.5-3-1.5-4.9 0-1.1 0.2-2 0.5-3 0.2-0.9 0.2-1.7 0.2-2.6 0.1-2.5 0.9-4.1 2.7-5.8 2.5-1.9 5.1-2.4 8.1-2 1.7 0.4 2.9 1.4 3.9 2.9 1 1.9 1.3 3.9 1.6 6 0.6 3.6 1.7 6.3 4.7 8.5 1.5 1.1 3.3 1.9 5 2.6 2.5 1.1 5 2.3 7.1 4.1q0.2 0.1 0.4 0.3c1.9 1.7 3 4.3 3.2 6.8 0.1 2.8-0.9 5.2-2.7 7.3-1.5 1.6-3.5 2.5-5.6 3q-0.4 0-0.8 0 0.1 0.2 0.2 0.4c0 1.3-0.3 2.2-1 3.3q-0.1 0.2-0.3 0.4c-0.9 1.4-2 2.7-3.1 4q-0.7 0.9-1.4 1.8-1.3 1.6-2.7 3.2-0.9 1.1-1.9 2.2c-0.2 0.3-0.2 0.3-0.4 0.6q-0.3 0.4-0.7 0.8c-0.9 1.2-1.9 1.8-3.4 2q0.4 1.2 0.9 2.3c2.6 6 2 11.8 0.2 18q-0.2 0.8-0.4 1.7c-0.6 2-1.2 3.9-2.1 5.8q-0.3 0.8-0.6 1.6-0.1 0.4-0.3 0.7-0.1 0.3-0.2 0.7-0.2 0.5-0.4 1-0.2 0-0.4 0c-0.7 3.9-0.5 7.6 0.1 11.4 0.8 4.2 0.4 7.8-0.7 11.9-1.6 6-2.6 11.5 0.4 17.2 1.1 2 0.5 4.3 0.1 6.4q-0.2 1.1-0.4 2.2-0.1 0.2-0.1 0.5-0.3 1.9-0.5 3.8c-0.1 0.9-0.1 0.9-0.3 1.1q-0.9 0-1.8 0c0-2.2 0-4.4 0-6.7-1 1.9-1 1.9-1.6 3.8q-0.2 0.7-0.5 1.4c0 0.2 0 0.2-0.1 0.4-0.6 0.7-1.3 1-2.2 1.2q-0.9 0-1.8 0-0.4 0-0.7 0-0.7 0-1.4 0-1.1 0-2.2 0-0.7 0-1.4 0-0.3 0-0.7 0c-1.4 0-2.6-0.1-3.7-1.1-0.5-0.8-0.5-1.5-0.3-2.3 0.2-0.8 0.6-1.3 1.2-1.7 0.7-0.7 1-1.4 1.4-2.2 0.1-0.3 0.1-0.3 0.3-0.5 1-2.3 1.6-4.8 1.6-7.4q0-0.2 0-0.4 0-0.6 0-1.3c0-0.2 0-0.2 0-0.4 0-3.5-0.2-7-0.4-10.5q-0.1-2.4-0.2-4.8c0-0.3 0-0.3 0-0.5q-0.4-7.4-0.6-14.7-0.1-1.9-0.2-3.8 0-0.9 0-1.9-0.1-0.5-0.1-1 0-0.3 0-0.5c0-0.7 0-0.7-0.4-1.3-0.4-0.4-0.4-0.6-0.4-1.1 0-0.2 0-0.2 0-0.4q-0.1-1.5-0.2-2.9c0-0.3 0-0.3 0-0.6q0-0.7-0.1-1.4 0-1.1 0-2.1c-0.2-3.9-0.2-7.7 0-11.5 0-0.3 0-0.3 0-0.5q0.2-3.6 0.6-7.1c0.7-5.5 0.8-11-1.3-16.1-1.5-3.7-1.3-6.2-0.1-10q-0.2 0.1-0.4 0.2c-2.7 0.6-5.3 1.2-7.9 1.7-0.3 0-0.3 0-0.6 0.1-2.8 0.5-2.8 0.5-4-0.1q-0.2-0.1-0.4-0.3-0.2-0.2-0.4-0.4-0.7-0.6-1.2-1.4c0 1.9 0.2 3.7 0.3 5.5q0.1 0.3 0.1 0.5c0.4 3.8 1 7.6 1.6 11.4 0.6 3.1 1.1 6.2 1.4 9.3q0 0.4 0 0.7c0.7 8-0.2 16.3-2.8 23.8q0 0.2-0.1 0.4c-2.2 6.7-5.6 12.6-10.5 17.7q-0.1 0.1-0.3 0.3c-6.7 7.1-16.4 11.5-26.2 11.9q-1.2 0-2.3 0-0.2 0-0.4 0c-12.7 0-24.7-4.9-36.1-10q-4.7-2-9.4-3.8-0.4-0.1-0.7-0.2c-3.1-1.2-6.3-2-9.5-2.8q-0.7-0.1-1.4-0.3c-4.6-1.1-9.5-1-14.1-0.4-0.2 0-0.2 0-0.4 0-1.9 0.3-3.7 0.8-5.5 1.4q-0.3 0.1-0.6 0.1c-1.6 0.6-3.2 1.3-4.7 2.1q-0.3 0.1-0.7 0.3-0.8 0.4-1.7 0.8 0 0.3 0 0.6 0 7.7 0 15.4 0 3.7-0.1 7.4 0 3.2 0 6.4 0 1.7 0 3.4 0 1.6 0 3.2 0 0.6 0 1.2 0 0.8 0 1.6 0 0.3 0 0.5c0 1.1 0 1.1-0.2 1.3q-0.5 0-0.9 0c-0.3 0-0.3 0-0.6 0q-0.3 0-0.6 0c-0.3 0-0.3 0-0.6 0q-1.1 0-2.2 0-0.8 0-1.6 0-1.9 0-3.9 0-1.5 0-3.1 0c-0.2 0-0.2 0-0.4 0q-0.5 0-0.9 0-4.2 0-8.4 0-3.7 0-7.3 0-4.2 0-8.4 0-0.4 0-0.9 0-0.2 0-0.4 0-1.6 0-3.2 0-1.8 0-3.7 0-1 0-2 0-1 0-2.1 0-0.3 0-0.6 0-0.3 0-0.6 0-0.2 0-0.4 0c-0.4 0-0.4 0-0.6-0.2q0-0.6 0-1.2c0-0.4 0-0.4 0-0.7q0-0.5 0-0.9 0-0.5 0-0.9 0-1.2 0-2.4 0-1.3 0-2.6 0-2.4 0-4.8 0-2.8 0-5.6 0-5.6 0-11.3-0.2-0.1-0.4-0.1-0.2-0.1-0.4-0.2-0.3 0-0.5-0.1c-0.7-0.3-1.4-0.6-2-1q-0.2-0.2-0.4-0.3c-2.9-1.7-5.4-3.7-7.8-6q-0.4-0.4-0.8-0.8c-4.3-4.1-7.5-9.8-9.3-15.4q-0.2-0.6-0.5-1.2c-1.1-3.4-1.7-7.1-1.7-10.7q0-0.2 0-0.5 0-0.9 0-1.8c0-0.4 0-0.4 0-0.7 0-3.2 0.1-6.3 0.6-9.5 0.1-0.2 0.1-0.2 0.1-0.5q0.3-1.5 0.6-3 0.2-0.9 0.4-1.8 0.3-1.8 0.7-3.7 0.1-0.3 0.1-0.6 0.8-3.5 1.6-7.1 0-0.2 0.1-0.4 0.4-2 0.9-4c0.6-2.9 1.1-5.8 1.5-8.7q0.2-0.9 0.3-1.9c1.1-7.1 1-14.5 0.4-21.6q0-0.3 0-0.7-0.4-4.4-1.2-8.7c0-0.3 0-0.3-0.1-0.6-0.4-2.3-0.4-2.3-1.8-4.1q-0.5-0.3-1-0.6c-1.3-1-2.3-2.3-3-3.8-0.4-3.6 3.1-7.7 5.1-10.6q0.2-0.2 0.4-0.4c3.7-5.2 3.7-5.2 5.1-6.6q0.6 0 1.2 0c0.1-0.3 0.1-0.3 0.1-0.5 0.6-1.3 1.5-2.4 2.8-2.9 1.3-0.4 2.7-0.4 3.9 0.2q0.4 0.2 0.7 0.4-0.2 0.2-0.4 0.4-0.8 0-1.6-0.1c-1.4-0.1-2.2-0.1-3.3 0.7-0.6 0.6-0.9 1.2-1.2 2q0.2 0 0.4 0c0.7 0.2 1.2 0.5 1.8 0.8q0 0.4 0 0.9 0 0.3 0 0.5c0 0.5 0 0.5-0.1 0.9-0.4 1.7-0.2 3.4 0.5 4.9-0.1 0.7-0.4 1.1-0.8 1.6q-0.2 0.2-0.3 0.4-0.2 0.2-0.4 0.5c-1 1.2-1 1.2-1.9 2.6q0.2 0.1 0.4 0.1c1.3 0.2 2.4 0.6 3.7 1q0.2 0.1 0.5 0.2 0.7 0.3 1.3 0.5-0.1-0.3-0.2-0.6c-0.1-0.6-0.1-1.1 0-1.8 0.8-1.1 1.9-1.7 3.3-2 2-0.3 4-0.3 5.9 0.3 0.2-0.7 0.2-1.2 0.2-1.9q0-0.3 0-0.6 0-0.3 0-0.6c0-0.3 0-0.3 0-0.7q0-0.7 0-1.5-0.2-0.1-0.3-0.1c-0.5-0.1-0.5-0.1-1-0.6-0.6-0.6-0.6-0.6-1.2-0.5q-0.2 0.1-0.4 0.2c-0.2 0.6-0.3 1 0 1.6 0.4 0.7 0.7 1.1 1.4 1.5 0.4 0.1 0.4 0.1 0.8 0.1q0.3-0.1 0.7-0.1-0.1 0.4-0.2 0.8c-0.8 0.2-1.2 0.3-2.1-0.1-0.9-0.6-1.5-1.4-1.8-2.4-0.1-0.9-0.1-1.3 0.4-2 0.5-0.5 0.6-0.6 1.3-0.6 0.6 0 1 0.1 1.4 0.2q0.4 0 0.8 0 0.3 0.6 0.5 1.1c0.1 0.4 0.1 0.4 0.3 0.7 0.4 1.1 0.4 2.1 0.4 3.3q0 0.3 0 0.5 0 0.3 0 0.6 0 0.2 0.1 0.4c-0.1 0.5-0.2 0.8-0.5 1.3 0.3 0 0.3 0 0.5 0.1 0.7 0.3 0.7 0.3 1.1 0.7 0.5 0.4 0.5 0.4 1.1 0.3q0.4 0 0.7-0.1c3-0.5 5.4-0.3 8.1 0.9q0.4 0.2 0.7 0.4 0.3 0.1 0.6 0.2 0-0.4 0-0.7 0-3.5 0-7 0-1.8 0-3.6 0-1.8 0-3.5 0-0.7 0-1.3 0-1 0-1.9 0-0.3 0-0.6c0-1.1 0.2-1.7 1-2.5 0.7-0.6 1.2-0.7 2.1-0.7z"/>
	<path class="s1" d="m98.8 35.1q0.3 0 0.6 0 0.3 0 0.7 0c0.3 0 0.3 0 0.6 0q1 0 2 0 1 0 2 0 2.1 0 4.1 0 2.5 0 5 0 5.9 0 11.9 0 2.8 0 5.6 0 9.7 0 19.3 0 0.6 0 1.2 0c0.3 0 0.3 0 0.6 0q1.5 0 3 0 0.3 0 0.7 0 9.7 0 19.5 0 10.4-0.1 20.7-0.1 1.2 0 2.3 0 0.3 0 0.6 0 4.5 0 9 0 4.5 0 9 0 2.7 0 5.4 0 1.8 0 3.6 0 1 0 2 0 1.1 0 2.2 0 0.3 0 0.7 0c1.2 0 1.9 0.1 2.8 0.9 0.7 0.9 1 1.3 1 2.5q0 0.3 0 0.7 0 0.4 0 0.8 0 0.4 0 0.8 0 1.1 0 2.3 0 1.2 0 2.5 0 2.9 0 5.9 0 1.4 0 2.8 0 4.7 0 9.3 0 1.2 0 2.4 0 0.3 0 0.6 0 4.9 0 9.8 0 4.9 0 9.9 0 2.8 0 5.6 0 2.4 0 4.8 0 1.2 0 2.5 0 1.1 0 2.2 0 0.6 0 1.2c0 2.1 0 2.1-0.8 3.1q-0.3 0.2-0.6 0.5c-0.7 0.6-1.4 0.5-2.3 0.5-0.5-0.1-0.5-0.1-0.7-0.3q-0.4 0-0.8 0-0.3 0-0.6 0-0.3 0-0.6 0c-0.3 0-0.3 0-0.7 0q-1.1 0-2.2 0-0.8 0-1.6 0-1.7 0-3.4 0-2.6 0-5.2 0-4.3 0-8.6 0-4.3 0-8.6 0-0.3 0-0.5 0-1.4 0-2.7 0-9.6 0-19.2-0.1-9.3 0-18.7 0-0.3 0-0.5 0-2.9 0-5.8 0-5.9 0-11.8 0-0.2 0-0.5 0-18 0-36.1-0.1-0.1-0.6-0.3-1.2-0.1-0.3-0.1-0.7-0.3-1.1-0.4-2.2 0.2 0 0.4 0 4.2 0.1 8.5 0.1 2 0 4.1 0 2 0 3.9 0 0.8 0 1.5 0 1.1 0 2.2 0c0.3 0 0.3 0 0.6 0 1.1 0 1.9 0 2.8-0.9 0.5-0.7 0.6-1.2 0.6-2 0-0.4 0-0.4 0-0.7q0-0.3 0-0.7 0-0.7 0-1.4 0-1.2-0.1-2.4c-0.1-4.5-0.1-4.5 0.7-5.4 0.6-0.5 1.1-0.8 1.7-1.1q0.3-0.2 0.6-0.4c0.1-0.7 0.1-0.7 0.2-1.4 2.7-1 5.3-1.6 8.2-1.5q0-0.4 0-0.8c-2.7 0.2-5.2 0.6-7.8 1.4q-0.4 0.1-0.8 0.2c-0.1-0.3-0.1-0.3-0.3-0.6-0.7-1.5-1.5-2.8-2.8-4-0.2-0.2-0.2-0.2-0.6-0.7 0-1 0.5-1.5 1.1-2.2 1-0.8 2.2-1.4 3.4-1.8q0-0.2 0-0.4c-1.2 0.1-2 0.5-3 1q-0.2 0.1-0.4 0.2c0-0.3 0-0.3 0-0.7q0-3.3 0-6.7 0-1.7 0-3.4 0-1.6 0-3.3 0-0.6 0-1.3 0-0.8 0-1.7 0-0.3 0-0.6c-0.1-1-0.2-1.7-0.9-2.5-0.9-0.8-2-0.7-3.2-0.6-0.3-0.1-0.3-0.1-0.6-0.1q-1.1 0-2.2 0-0.7 0-1.5 0-1.5 0-3.1 0-1.8 0-3.6 0-1.7 0-3.5 0-0.7 0-1.4 0-1.1 0-2.1 0-0.3 0-0.6 0c-1.2 0-1.9 0.1-2.8 0.9q-0.1 0.2-0.3 0.3c-0.4 0.8-0.3 1.6-0.3 2.4q0 0.3 0 0.6 0 1 0 2-0.1 0.7-0.1 1.4 0 1.7 0 3.5 0 1.8 0 3.7 0 3.5 0 7.1-0.4-0.1-0.7-0.3-0.4-0.2-0.8-0.4-0.2 0-0.4-0.1-0.2-0.1-0.4-0.2-0.2-0.1-0.4-0.2c-0.7-0.2-1.4-0.4-2-0.6q0-7.4 0-14.8 0-3.4 0-6.9 0-3 0-6 0-1.5 0-3.1 0-1.5 0-3 0-0.6 0-1.1 0-0.8 0-1.5 0-0.2 0-0.4c0.1-1.2 0.4-2.1 1.3-2.9 0.7-0.6 1.1-0.9 2.1-0.9z"/>
	<path class="s2" d="m97.7 29q0.3 0 0.7 0 1 0 2 0 1.1 0 2.1 0 1.9 0 3.8 0 2.8 0 5.6 0 5.3 0 10.7 0 4.1 0 8.2 0 1.1 0 2.3 0 0.3 0 0.6 0 8.3 0 16.5 0c0.3 0 0.3 0 0.6 0q1.6 0 3.2 0 0.3 0 0.6 0 0.7 0 1.3 0 9.9 0 19.7 0 11.1 0 22.1 0 1.2 0 2.4 0 0.3 0 0.6 0 4.7 0 9.4 0 4.7-0.1 9.4 0 2.7 0 5.5-0.1 1.9 0 3.8 0 1 0.1 2.1 0 1.1 0 2.3 0.1 0.3-0.1 0.7-0.1c2.1 0.1 3.9 0.8 5.4 2.3 1.5 1.7 2.1 3.3 2.1 5.5q0 0.2 0 0.5 0 1 0 1.9 0 0.7 0 1.3 0 1.9 0 3.7 0 1.9 0 3.8 0 3.2 0 6.4-0.1 3.3-0.1 6.6 0 0.2 0 0.4 0 1 0 2 0 8.5 0 17-0.2 0-0.4 0.1-0.2 0.1-0.4 0.2-0.3 0.1-0.5 0.2c-0.6 0.3-0.8 0.6-1 1.2-0.2 1.4 0.2 2.7 0.5 4.1q0 0.3 0.1 0.7 0.2 1 0.4 2.1 0.4 1.6 0.7 3.2 0.1 0.6 0.2 1.1 0.1 0.4 0.2 0.7 0 0.3 0.1 0.7c0.3 1.5 0.3 2.9 0.3 4.4q0 0.3 0 0.7 0 1 0 2.1 0 1.1 0 2.2 0 2.6 0 5.3 0 1.2 0 2.5 0 4.1 0 8.3 0 1.1 0 2.2 0 0.2 0 0.5 0 4.4 0 8.7 0 4.5-0.1 8.9 0 2.5 0 5 0 2.2 0 4.3 0 1.1 0 2.2 0 1.2 0 2.3 0 0.4 0 0.7c0 2.3-0.7 4-2.2 5.6-1.6 1.4-3.2 2.1-5.4 2q-0.2 0-0.5 0.1-1 0-2-0.1-0.7 0-1.4 0-1.5 0.1-3 0-2.2 0-4.5 0-3.8 0-7.6 0-3.7 0-7.5 0-0.2 0-0.5 0-1.2 0-2.3 0-8.4 0-16.8 0-8.2 0-16.4 0-0.2 0-0.5 0-2.5 0-5 0-5.2 0-10.3 0c-0.3 0-0.3 0-0.5 0q-15.8 0-31.6 0-0.4-1.1-0.8-2.2-0.2-0.6-0.5-1.1-0.1-0.3-0.2-0.7-0.2-0.3-0.3-0.6c-0.2-0.5-0.2-0.5-0.2-0.9 11.8-0.1 23.6-0.2 35.7-0.2q0.1-0.3 0.2-0.6c-11.9-0.1-23.9-0.2-36.3-0.2-0.9-2.4-0.9-2.4-1.1-3.4 0.2 0 0.2 0 0.5 0q6.2 0 12.3 0 3 0 6 0 2.6 0 5.2 0 1.4 0 2.8 0 1.3 0 2.6 0 0.5 0 0.9 0c2.3 0 4.1-0.3 5.9-1.7 1.1-1.5 1.2-2.8 1.1-4.6q0.1-0.4 0.1-0.8 0-1.1 0-2.2 0-1.1 0-2.2 0-1.9-0.1-3.8 0-2.2 0.1-4.3 0-1.9 0-3.8 0-1.1 0-2.2 0-1.1 0-2.1-0.1-0.6 0-1.2c-0.1-1.5-0.3-2.6-1.3-3.9q-0.2-0.1-0.4-0.3-0.2-0.1-0.3-0.3c-1.3-0.8-2.5-1-4-1q-0.3 0-0.6 0-1 0-1.9 0-0.7 0-1.4 0-1.9 0-3.8 0-1.7 0-3.5 0-3.5 0-6.9 0-3.4 0-6.8 0-0.2 0-0.4 0-1.1 0-2.1 0-8.7-0.1-17.4-0.1-0.8-2-1.5-4.1-0.3-0.7-0.6-1.4-0.4-1-0.8-2c-0.1-0.3-0.1-0.3-0.2-0.7q-0.1-0.3-0.2-0.6-0.1-0.2-0.2-0.5c-0.2-0.5-0.2-0.5-0.4-1.7 42.2 0 84.4-0.1 127.9-0.2q0.1-0.2 0.2-0.4 0.5 0 1 0c1-0.1 1.6-0.3 2.3-1 0.6-0.7 0.7-1.3 0.7-2.3q0-0.3 0-0.7 0-0.4 0-0.8 0-0.4 0-0.8 0-1.1 0-2.3 0-1.2 0-2.4 0-2.4 0-4.8 0-2 0-4 0-5.5 0-11.1 0-0.3 0-0.6 0-0.3 0-0.6 0-4.8 0-9.7 0-5 0-10 0-2.8 0-5.6 0-2.4 0-4.8 0-1.2 0-2.4 0-1.1 0-2.2 0-0.6 0-1.2c0-1.7 0-1.7-0.8-3.1-1.1-0.9-2.1-0.9-3.5-0.9q-0.3 0-0.7 0-0.9 0-1.9 0-1 0-2 0-1.9 0-3.7 0-2.7 0-5.4 0-4.8 0-9.6 0-4.3 0-8.5 0-0.3 0-0.5 0-1.2 0-2.3 0-10.7 0-21.3 0-9.5 0-19 0-10.6 0-21.3 0-1.1 0-2.2 0-0.3 0-0.6 0-4.2 0-8.5 0-4.7 0-9.5 0-2.7 0-5.4 0-1.8 0-3.6 0-1 0-2.1 0-1.1 0-2.2 0-0.3 0-0.6 0c-1.2 0-1.9 0.1-2.8 0.9-0.9 1-1 1.8-1 3.1q0 0.2 0 0.5 0 0.7 0 1.5 0 0.6 0 1.1 0 1.6 0 3.1 0 1.6 0 3.2 0 3-0.1 6 0 3.4 0 6.8 0 7.1-0.1 14.1-0.3 0.1-0.6 0.1-2.6 0.1-5.2 0.3-0.1-8-0.1-16 0-3.7 0-7.4 0-3.2 0-6.5 0-1.7 0-3.4-0.1-1.6 0-3.2 0-0.6-0.1-1.2c0-2.8 0.2-5.1 2.3-7.2 1.8-1.6 3.5-2 5.9-2z"/>
	<path class="s3" d="m103 55.5q0.2 0 0.5 0 0.3 0 0.6 0 0.4 0 0.7 0 1.1 0 2.1 0 0.8 0 1.5 0 1.6 0 3.2 0 1.8 0 3.6 0 1.7-0.1 3.5-0.1 0.7 0 1.4 0 1.1 0 2.1 0 0.3 0 0.6 0c1.2 0 1.9 0.1 2.8 0.9 0.8 1 0.9 1.8 0.9 3.1q0 0.2 0 0.5 0 0.9 0 1.8 0 0.7 0 1.3 0 1.6 0 3.3 0 1.7 0 3.4 0 3.3 0 6.6 0.4-0.2 0.7-0.3c1.4-0.9 1.4-0.9 2.2-0.8q0.3 0.1 0.5 0.1-0.1 0.3-0.2 0.6c-0.5 0.3-0.5 0.3-1.1 0.5-1.3 0.5-2.3 1.1-3.1 2.3-0.2 0.5-0.1 0.7 0.1 1.2 0.2 0.3 0.2 0.3 0.6 0.5 1.2 1.2 2.1 2.8 2.7 4.4 0.2-0.1 0.2-0.1 0.3-0.1 2.8-0.9 5.4-1.4 8.3-1.3q0 0.4 0 0.8-0.2 0-0.3 0c-2.5 0.3-4.8 0.6-7.1 1.3q-0.4 0.2-0.8 0.2 0 0.4 0.1 0.7-0.1 0.3-0.1 0.7c-0.6 0.4-0.6 0.4-1 0.6-0.7 0.4-1.3 0.9-1.8 1.6-0.4 1.8-0.2 3.7-0.2 5.5q0 1.2 0.1 2.3 0 0.7 0 1.4c0 0.9 0 1.6-0.4 2.5-0.8 0.8-1.4 1.3-2.6 1.3q-0.6 0-1.2 0c-0.3 0-0.3 0-0.7 0q-1 0-2.1 0-0.8 0-1.5 0-1.6 0-3.1 0-2 0-4.1 0-1.9 0-3.8 0-0.4 0-0.7 0-1.1 0-2.1 0-0.3 0-0.6 0-0.3 0-0.6 0-0.2 0-0.5 0c-0.4-0.1-0.4-0.1-0.8-0.3q0.1 0.2 0.1 0.4 0.2 0.7 0.3 1.5 0.1 0.2 0.1 0.5 0.1 0.2 0.1 0.5 0.1 0.2 0.1 0.5c0.1 0.4 0.1 0.4 0.1 0.7 42.3 0 84.6 0 128.1 0q0.1 0.4 0.2 0.8c-0.2 0.2-0.2 0.2-0.5 0.3q-0.3 0-0.5 0c-0.3 0-0.3 0-0.6 0-0.3 0-0.3 0-0.6 0q-0.3 0-0.7 0-1.1 0-2.2 0-0.8 0-1.5 0-1.8 0-3.5 0-2.6 0-5.1 0-4.4 0-8.7 0-4.3-0.1-8.6-0.1-0.2 0-0.5 0-1.3 0-2.7 0-9.6 0-19.1 0-9.3 0-18.7 0-0.2 0-0.5 0-2.9 0-5.8 0-5.9 0-11.7 0-0.3 0-0.6 0-18 0-36 0 0.3 0.8 0.6 1.5 0.1 0.2 0.1 0.5 0.6 1.5 1.2 3 0.2 0.5 0.4 1 0.2 0.7 0.5 1.5 0.3 0.7 0.6 1.4c0.1 0.2 0.1 0.2 0.1 0.4 0.3 0.6 0.4 1.1 0.4 1.7q0.4 0 0.8 0 8.5 0 17 0 1 0 2.1 0 0.2 0 0.4 0 3.4 0 6.7 0 3.5-0.1 7-0.1 1.9 0 3.9 0 1.8 0 3.6 0 0.7 0 1.4 0 0.9 0 1.8 0 0.3 0 0.5 0c1.8 0 3.3 0.6 4.6 1.8 1.1 1.6 1.2 2.8 1.1 4.7q0 0.4 0.1 0.8 0 1 0 2.1 0 0.9 0 1.8 0 2.1 0 4.2 0 2.2 0 4.4 0 1.9 0 3.7 0 1.1 0 2.3 0 1 0 2.1 0 0.5 0 1.1c0 1.6-0.3 2.8-1.4 4-1.8 1.7-4 1.8-6.3 1.7q-0.5 0-1 0-1.3 0-2.7 0-1.4 0-2.7 0-2.7 0-5.3 0-3 0-6 0-6.1 0-12.2-0.1 0.6 1.6 1.1 3.2c12 0 24 0.1 36.3 0.2q0 0.4 0 0.8c-0.3 0.3-0.7 0.2-1.1 0.2q-0.2 0-0.4 0-0.2 0-0.5 0-0.7 0-1.5 0-0.5 0-1 0-1.4 0-2.9 0-1.5 0-3 0-2.8 0-5.7 0-3.2 0-6.4 0-6.7 0-13.4 0 0.1 0.1 0.2 0.3 0.3 0.8 0.6 1.5 0.1 0.3 0.2 0.6c1.4 3.4 1.4 3.4 1.4 4q15.9 0 31.8 0 0.2 0 0.5 0 5.1 0 10.2 0 2.5 0 5 0 0.3 0 0.5 0 8.1 0 16.2 0 8.3 0 16.6 0 1.2 0 2.4 0 0.2 0 0.4 0 3.8 0 7.5 0 3.7 0 7.5-0.1 2 0 4 0 1.9 0 3.7 0 0.7 0 1.4 0c4.3 0.1 4.3 0.1 8.2-1.6q0.3-0.1 0.6-0.2c0.3-0.4 0.3-0.4 0.4-0.8q0.1-0.2 0.2-0.5 0.2-0.4 0.4-0.9c0.2-0.4 0.2-0.4 0.6-1 0.1 2.1 0 3.6-1.4 5.2-1.1 1.1-2.3 1.8-3.9 1.9q-0.2 0-0.4 0-0.3 0-0.5 0c-0.3 0-0.3 0-0.6 0q-0.2 0-0.5 0-1 0-2 0-0.7 0-1.4 0-1.5 0-3 0-2.2 0-4.5 0-3.8 0-7.6 0-3.7 0-7.5 0-0.2 0-0.5 0-1.1 0-2.3 0-8.4 0-16.8 0-8.2 0-16.3 0-0.3 0-0.5 0-2.6 0-5.1 0-5.1 0-10.3 0-0.2 0-0.4 0-15.8 0-31.6 0 0.1 0.2 0.2 0.5 0.3 0.9 0.6 1.9 0.2 0.4 0.3 0.8 1 2.7 2 5.4-0.4 0.3-0.8 0.6c1.5 2.1 3.2 3.6 5.4 5 0.9 0.6 1.6 1.1 2.3 2.1 0.1 0.7 0.1 0.7 0 1.4-0.4 0.3-0.8 0.2-1.2 0.2q-0.2 0-0.5 0-0.2 0-0.4 0-0.8 0-1.6 0-0.5 0-1 0-1.1 0-2.2 0-1.4 0-2.8 0-1.1 0-2.2 0-0.5 0-1.1 0-0.7 0-1.4 0-0.2 0-0.5 0c-1 0-1 0-1.4-0.4-0.1-0.4-0.1-0.4-0.3-0.9q0-0.3-0.1-0.6 0-0.2-0.1-0.5-0.1-0.3-0.2-0.6-0.1-0.7-0.3-1.4-0.6 0.1-1.2 0.2c-0.1-0.3-0.1-0.3-0.3-0.7-2.3-5.6-2.3-5.6-4.7-11.2q-0.1-0.3-0.3-0.7-0.9-2.1-1.8-4.2-0.2-0.4-0.3-0.8-0.3-0.7-0.7-1.4-0.1-0.3-0.2-0.7-0.1-0.2-0.3-0.5c-0.2-0.6-0.4-1.3-0.6-1.9-2.3 0-4.6 0-7 0q-0.1-0.5-0.2-1c2.2 0 4.4 0 6.6 0-0.6-2.1-0.6-2.1-1.9-3.5q-0.7-0.2-1.4-0.3c-1.1-0.3-1.8-0.8-2.5-1.8-1-1.7-0.9-3.3-0.8-5.3 0.1-4.6-1.1-8.1-3.1-12.1-0.7-1.3-1.2-2.7-1.8-4q-0.4-0.9-0.8-1.8-0.1-0.3-0.2-0.6-0.1-0.2-0.2-0.4-0.1 11.1 0.1 22.3 0 0.3 0 0.6 0.1 8.3 0.2 16.7 0.1 5 0.1 10-0.3 0-0.6 0c0.9 1.9 2 2.5 3.8 3.5 1.2 0.6 2 1.1 2.7 2.2q0 0.9 0 1.7c-5.8 0-11.6 0-17.5 0q0-2.9 0-6-0.3 0-0.6 0c-0.2-1.4-0.2-2.7-0.3-4q0-0.3 0-0.7-0.1-1-0.1-2 0-1-0.1-2.1-0.1-2.1-0.2-4.2-0.1-2.4-0.1-4.8-0.2-4.4-0.4-8.7-0.2-4.2-0.3-8.4 0-0.3-0.1-0.6 0-0.5 0-1 0-0.3 0-0.5c0-0.3 0-0.3 0-0.5q-0.2-4.1-0.4-8.1 0-1.4-0.1-2.9-0.1-2.3-0.2-4.6 0-1 0-2.1-0.1-0.8-0.1-1.6 0-0.7-0.1-1.4 0-2-0.1-3.9 0-0.6 0-1.2 0-0.6 0-1.1c-0.1-1.7-0.3-3.2-0.7-4.9q-0.1-0.2-0.1-0.4-0.2-0.5-0.3-1c-0.5-1.7-0.8-3.4-1.2-5.1q-0.2-0.8-0.3-1.6-0.4-1.8-0.8-3.6-0.2-1-0.5-1.9 0-0.3-0.1-0.5-0.1-0.6-0.3-1.2-0.1-0.1-0.3-0.2 0-0.3 0-0.6-0.3-0.1-0.5-0.1c-4.1-1.7-8.3-4.1-11.7-6.9-0.2-0.2-0.2-0.2-0.5-0.4-1.2-1-2.5-2.5-2.7-4.1 0.1-3.7 3.1-7.2 5.2-10.1q0.1-0.2 0.3-0.4c3.7-5.2 3.7-5.2 5.1-6.6q0.6 0 1.2 0c0.1-0.3 0.1-0.3 0.1-0.5 0.6-1.3 1.5-2.4 2.8-2.9 1.3-0.4 2.7-0.4 3.9 0.2q0.4 0.2 0.7 0.4-0.2 0.2-0.4 0.4-0.8 0-1.6-0.1c-1.4-0.1-2.2-0.1-3.3 0.7-0.6 0.6-0.9 1.2-1.2 2q0.2 0 0.4 0c0.7 0.2 1.2 0.5 1.8 0.8q0 0.4 0 0.9 0 0.3 0 0.5c0 0.5 0 0.5-0.1 0.9-0.4 1.7-0.2 3.4 0.5 4.9-0.1 0.7-0.4 1.1-0.8 1.6q-0.2 0.2-0.3 0.4-0.2 0.2-0.4 0.5c-1 1.2-1 1.2-1.9 2.6q0.2 0.1 0.4 0.1c1.3 0.2 2.4 0.6 3.7 1q0.2 0.1 0.5 0.2 0.7 0.3 1.3 0.5-0.1-0.3-0.2-0.6c-0.1-0.6-0.1-1.1 0-1.8 0.8-1.1 1.9-1.7 3.3-2 2-0.3 4-0.3 5.9 0.3 0.2-0.7 0.2-1.2 0.2-1.9q0-0.3 0-0.6 0-0.3 0-0.6c0-0.3 0-0.3 0-0.7q0-0.7 0-1.5-0.2-0.1-0.3-0.1c-0.5-0.1-0.5-0.1-1-0.6-0.6-0.6-0.6-0.6-1.2-0.5q-0.2 0.1-0.4 0.2c-0.2 0.6-0.3 1 0 1.6 0.4 0.7 0.7 1.1 1.4 1.5 0.4 0.1 0.4 0.1 0.8 0.1q0.3-0.1 0.7-0.1-0.1 0.4-0.2 0.8c-0.8 0.2-1.2 0.3-2.1-0.1-0.9-0.6-1.5-1.4-1.8-2.4-0.1-0.9-0.1-1.3 0.4-2 0.5-0.5 0.6-0.6 1.3-0.6 0.6 0 1 0.1 1.4 0.2q0.4 0 0.8 0 0.3 0.6 0.5 1.1c0.1 0.4 0.1 0.4 0.3 0.7 0.4 1.1 0.4 2.1 0.4 3.3q0 0.3 0 0.5 0 0.3 0 0.6 0 0.2 0.1 0.4c-0.1 0.5-0.2 0.8-0.5 1.3 0.3 0 0.3 0 0.5 0.1 0.7 0.3 0.7 0.3 1.1 0.7 0.5 0.4 0.5 0.4 1.1 0.3q0.4 0 0.7-0.1c3-0.5 5.4-0.3 8.1 0.9q0.4 0.2 0.7 0.4 0.3 0.1 0.6 0.2 0-0.4 0-0.7 0-3.5 0-7 0-1.8 0-3.6 0-1.8 0-3.5 0-0.7 0-1.3 0-1 0-1.9 0-0.3 0-0.6c0-1.1 0.2-1.7 1-2.5 0.7-0.6 1.2-0.7 2.1-0.7z"/>
	<path class="s4" d="m253.4 80.3c1 1.1 1.1 2.6 1.4 4q0.1 0.4 0.1 0.7 0.2 1 0.4 2 0.2 1 0.4 2 0.3 1.6 0.6 3.2 0.4 1.7 0.7 3.5 0.2 0.8 0.3 1.6 0.1 0.3 0.2 0.7c0.5 2.6 0.5 2.6-0.1 3.7-0.5 0.6-0.9 0.9-1.7 1q-0.2 0-0.5 0c-0.3 0.1-0.3 0.1-0.5 0.1q-0.2 0-0.4 0c0.2 1.2 0.6 1.7 1.5 2.6q0.6 0.5 1.1 1.1 1.2 1.4 2.5 2.8 0.6 0.7 1.3 1.5 0.4 0.5 0.9 1 1.9 2 3.6 4.2 4.1-1.4 8-3 0.6-0.2 1.1-0.4 0.5-0.2 1-0.4 0.2-0.1 0.5-0.2 1.1-0.4 2.2-0.9c1.4-0.6 2.8-1 4.2-1.4 1.8-0.3 1.8-0.3 3.2-1.4q0.1-0.2 0.2-0.5 0.1-0.2 0.2-0.4c0.4-0.9 0.7-1.9 0.4-2.8-0.3-0.5-0.3-0.5-0.7-0.9-1.4-1.4-1.5-3-1.5-4.9 0-1.1 0.2-2 0.5-3 0.2-0.9 0.2-1.7 0.2-2.6 0.1-2.5 0.9-4.1 2.7-5.8 2.5-1.9 5.1-2.4 8.1-2 1.7 0.4 2.9 1.4 3.9 2.9 1 1.9 1.3 3.9 1.6 6 0.6 3.6 1.7 6.3 4.7 8.5 1.5 1.1 3.3 1.9 5 2.6 2.5 1.1 5 2.3 7.1 4.1q0.2 0.1 0.4 0.3c1.9 1.7 3 4.3 3.2 6.8 0.1 2.8-0.9 5.2-2.7 7.3-1.5 1.6-3.5 2.5-5.6 3q-0.4 0-0.8 0 0.1 0.2 0.2 0.4c0 1.3-0.3 2.2-1 3.3-0.1 0.2-0.1 0.2-0.3 0.4-0.9 1.4-2 2.7-3.1 4q-0.7 0.9-1.4 1.8-1.3 1.6-2.7 3.2-0.9 1.1-1.9 2.2c-0.2 0.3-0.2 0.3-0.4 0.6q-0.3 0.4-0.7 0.8c-0.9 1.2-1.9 1.8-3.4 2q0.4 1.2 0.9 2.3c2.6 6 2 11.8 0.2 18q-0.2 0.8-0.4 1.7c-0.6 2-1.2 3.9-2.1 5.8q-0.3 0.8-0.6 1.6-0.1 0.4-0.3 0.7-0.1 0.3-0.2 0.7-0.2 0.5-0.4 1-0.2 0-0.4 0c-0.7 3.9-0.5 7.6 0.1 11.4 0.8 4.2 0.4 7.8-0.7 11.9-1.6 6-2.6 11.5 0.4 17.2 1.1 2 0.5 4.3 0.1 6.4q-0.2 1.1-0.4 2.2-0.1 0.2-0.1 0.5-0.3 1.9-0.5 3.8c-0.1 0.9-0.1 0.9-0.3 1.1q-0.9 0-1.8 0c0-2.2 0-4.4 0-6.7-1 1.9-1 1.9-1.6 3.8q-0.2 0.7-0.5 1.4 0 0.2-0.1 0.4c-0.6 0.7-1.3 1-2.2 1.2q-0.9 0-1.8 0c-0.4 0-0.4 0-0.7 0q-0.7 0-1.4 0-1.1 0-2.2 0-0.7 0-1.4 0c-0.3 0-0.3 0-0.7 0-1.4 0-2.6-0.1-3.7-1.1-0.5-0.8-0.5-1.5-0.3-2.3 0.2-0.8 0.6-1.3 1.2-1.7 0.7-0.7 1-1.4 1.4-2.2q0.1-0.3 0.3-0.5c1-2.3 1.6-4.8 1.6-7.4q0-0.2 0-0.4 0-0.6 0-1.3 0-0.2 0-0.4c0-3.5-0.2-7-0.4-10.5q-0.1-2.4-0.2-4.8 0-0.3 0-0.5-0.4-7.4-0.6-14.7-0.1-1.9-0.2-3.8 0-0.9 0-1.9-0.1-0.5-0.1-1 0-0.3 0-0.5c0-0.7 0-0.7-0.4-1.3-0.4-0.4-0.4-0.6-0.4-1.1 0-0.2 0-0.2 0-0.4q-0.1-1.5-0.2-2.9 0-0.3 0-0.6 0-0.7-0.1-1.4 0-1.1 0-2.1c-0.2-3.9-0.2-7.7 0-11.5q0-0.3 0-0.5 0.2-3.6 0.6-7.1c0.7-5.5 0.8-11-1.3-16.1-1.5-3.7-1.3-6.2-0.1-10q-0.2 0.1-0.4 0.2c-2.7 0.6-5.3 1.2-7.9 1.7q-0.3 0-0.6 0.1c-2.8 0.5-2.8 0.5-3.9 0-3.9-3.2-6.5-8.1-9.2-12.4q-0.1-0.2-0.3-0.5-0.3-0.4-0.6-0.9c-1.1-1.9-1.1-1.9-2.7-3.4-1.2-0.8-2.2-2.1-2.8-3.4q-0.3 0-0.6 0c-2.5 0.1-2.5 0.1-3.5-0.8-0.9-1.2-1.1-2.6-1.4-4.2q-0.1-0.4-0.2-0.8-0.2-1.1-0.4-2.2-0.2-1.1-0.4-2.1-0.3-1.3-0.5-2.6-0.4-1.9-0.8-3.9c0-0.3 0-0.3-0.1-0.6q-0.1-0.7-0.3-1.3c-0.5-2.4-0.5-2.4 0.1-3.5 0.7-0.9 1.4-1.2 2.5-1.3q0.6 0 1.1 0c0.3-0.1 0.3-0.1 0.5-0.1q0.6 0 1.2 0 0.9-0.1 1.8-0.2c5.9-0.3 5.9-0.3 7.2 0.5z"/>
	<path class="s0" d="m255 14.8c0.9 0.2 1.4 0 2.2-0.3 1.5-0.4 3.2-0.4 4.6 0.2 1.6 1 2.7 2.4 3.2 4.2 0.1 0.7 0.1 1.3 0 1.9q0.2 0.1 0.4 0.2c5.4 2.9 8.8 11.8 10.4 17.3 0.8 2.6 1.3 5.3 1.6 8q0 0.2 0.1 0.4c0.2 1.7 0.2 3.3 0.2 4.9q0 0.2 0 0.4c-0.1 10.6-3 20.7-6.4 30.6q-0.1 0.3-0.2 0.6-1.1 3.4-2.4 6.7-0.5 1.2-0.9 2.4-0.5 1.5-1.1 3c-2.2 5.2-4.3 10.9-5.2 16.5q-1.2-1.1-2.3-2.4-0.2-0.2-0.4-0.4-1-1.1-2.1-2.3-0.8-0.9-1.7-1.9c-0.6-0.7-0.8-1.1-0.7-2q0.2 0 0.4-0.1 0.4-0.1 0.7-0.1 0.3-0.1 0.6-0.2c0.8-0.2 1.2-0.6 1.6-1.4 0-0.9 0-1.7-0.2-2.6q-0.1-0.4-0.2-0.7-0.1-0.4-0.1-0.8-0.1-0.4-0.2-0.8-0.2-1.1-0.4-2.2-0.3-1.1-0.5-2.2-0.2-1.3-0.5-2.6-0.4-1.9-0.7-3.8-0.1-0.4-0.2-0.7-0.1-0.6-0.2-1.3c-0.2-1.2-0.5-2.4-1.6-3.2-2.2-0.7-4.8-0.2-7 0q-0.5 0-1.1 0-1.2 0.1-2.4 0.2 0-0.4 0-0.7 0-8.3 0-16.6 0-1-0.1-2 0-0.2 0-0.4 0-3.3 0-6.5 0-3.4 0-6.8 0-1.9 0-3.7 0-1.8 0-3.6 0-0.7 0-1.3c0-2.7-0.1-4.9-1.6-7.1-0.3-0.4-0.3-0.4-0.4-0.8-0.3-0.5-0.6-0.6-1-0.8q-0.4-0.2-0.7-0.4c-2.2-1.3-4.2-1.5-6.6-1.4q-0.5 0-1 0-1.4-0.1-2.9-0.1-1.4 0-2.9 0-2.8 0-5.6 0-3.2 0-6.4 0-6.6 0-13.2 0c0.5-0.5 0.9-0.8 1.5-1.1q0.3-0.1 0.5-0.3 0.3-0.1 0.6-0.3 2.1-1 4.1-2.1 7-3.9 14.5-7 0.6-0.3 1.2-0.5c2.6-1.1 5.1-1.8 7.8-2.5 0.2 0 0.2 0 0.4-0.1 2.3-0.6 4.5-1 6.9-1.2q0.2-0.1 0.5-0.1c5.7-0.6 11.7-0.2 17.1 1.9z"/>
	<path class="s0" d="m166 39.6q0.2 0.4 0.4 0.8 0.1 0.3 0.3 0.6c0.3 0.6 0.3 0.6 0.4 1.4 0.2 0.8 0.4 1.5 1 2.1 1.3 0.6 2.8 0.8 4.2 1 0.5 0 0.5 0 1.3 0.2 0.7 0 0.8 0 1.3-0.5q0.3-0.3 0.6-0.7c0.8-0.9 1.6-1.6 2.6-2.3q1.1 0.6 2.2 1.2 0.3 0.2 0.7 0.4 0.5 0.3 1 0.6 0.3 0.2 0.7 0.4 0.7 0.5 1.5 0.9c-0.2 1.5-0.4 3-0.9 4.4-0.1 0.6-0.1 0.8 0.1 1.3 0.3 0.4 0.3 0.4 0.6 0.7 0.2 0.2 0.2 0.2 0.4 0.4 0.2 0.3 0.2 0.3 0.4 0.5q0.5 0.5 1 1 0.2 0.3 0.4 0.5c0.4 0.4 0.4 0.4 0.8 1q2.7-0.2 5.5-0.4c0.7 1.5 1.4 2.9 2 4.4q0.1 0.2 0.2 0.4 0.1 0.3 0.2 0.5 0.1 0.2 0.2 0.4c0.1 0.4 0.1 0.4 0.1 1.2-0.4 0.4-0.4 0.4-1 0.9q-0.4 0.3-0.8 0.6c-0.4 0.3-0.4 0.3-0.8 0.5-0.4 0.4-0.8 0.7-1.1 1.1-0.2 0.9 0 1.7 0.1 2.5q0.1 0.6 0.1 1.3 0.1 0.3 0.1 0.6c0.1 0.6 0.1 1.3 0.1 1.9q0.2 0.1 0.4 0.2 0.8 0.3 1.5 0.7 0.2 0.1 0.5 0.2 0.2 0.2 0.5 0.3c0.2 0.2 0.2 0.2 0.5 0.3q0.6 0.3 1.3 0.7c-0.2 1.5-0.5 3-0.8 4.5q-0.1 0.4-0.2 0.7-0.2 0.9-0.4 1.8c-1.2 0.5-2.3 0.5-3.6 0.6q-0.3 0-0.6 0-0.7 0-1.5 0-0.1 0.2-0.1 0.5c-0.3 0.5-0.5 1-0.8 1.5q-0.2 0.2-0.4 0.5-0.3 0.6-0.6 1.1-0.2 0.3-0.3 0.6c-0.2 0.2-0.2 0.2-0.3 0.5-0.3 0.7-0.1 1.2 0.2 1.9q0.1 0.2 0.2 0.4c0.1 0.2 0.1 0.2 0.2 0.5q0.3 0.5 0.5 1 0.1 0.2 0.3 0.5 0.1 0.2 0.2 0.4c0.2 0.5 0.1 0.7-0.1 1.2q-0.5 0.6-1.1 1.1-0.1 0.1-0.3 0.3-0.4 0.4-0.9 0.8-0.2 0.2-0.5 0.4-0.4 0.3-0.8 0.7-0.4 0.4-0.8 0.7c-0.5 0.3-0.5 0.3-0.8 0.3-0.5-0.2-0.9-0.4-1.3-0.6q-0.2-0.2-0.4-0.3-0.5-0.3-1-0.7c-1.1-0.7-1.1-0.7-2.5-0.7q-1 0.4-1.9 0.8-0.6 0.3-1.1 0.5-0.2 0.1-0.4 0.2c-0.5 0.3-0.5 0.3-1 0.4q-0.2 0.1-0.5 0.2c-0.2 0.6-0.2 0.6-0.2 1.2q0 0.3-0.1 0.7 0 0.3-0.1 0.7-0.1 0.7-0.2 1.4-0.1 0.3-0.1 0.6c-0.2 0.5-0.2 0.5-0.7 0.8q-1.3 0.2-2.6 0.4-0.3 0-0.5 0-2 0.2-3.9 0.1-0.4-0.9-0.8-1.9-0.1-0.2-0.2-0.5-0.1-0.3-0.2-0.5c-0.1-0.3-0.1-0.3-0.2-0.5-0.2-0.5-0.3-1-0.4-1.5-0.2 0-0.2 0-0.4 0-1.4-0.2-2.6-0.5-3.9-0.8-1.1-0.3-1.1-0.3-2.1-0.2-0.6 0.5-1.1 1-1.6 1.5q-0.3 0.4-0.7 0.8-0.2 0.2-0.4 0.4c-0.3 0.3-0.6 0.5-1.1 0.7-0.4-0.2-0.4-0.2-1-0.5q-0.3-0.2-0.6-0.3-0.3-0.2-0.6-0.4c-0.3-0.2-0.3-0.2-0.6-0.4q-1.6-0.9-3.3-2c0.3-1.5 0.5-2.9 0.9-4.4 0.1-0.5 0.2-0.7-0.1-1.2q-0.4-0.6-1-1.2c-0.7-0.8-1.5-1.6-2.1-2.5-1.1-0.7-2.9-0.2-4.1-0.1-0.3 0.1-0.3 0.1-0.6 0.1q-0.6 0.1-1.2 0.1c-1.2-2.3-1.2-2.3-1-3.5q0.3-0.7 0.6-1.4-1.1 0.1-2.3 0.1-0.3 0-0.7 0-1.9 0.1-3.8 0.3-0.1-0.4-0.2-0.8c1.7-0.6 3.5-0.6 5.4-0.6q0.2 0 0.4 0c1.2 0 1.2 0 1.6 0.2q0-0.7 0-1.5c-2.5-0.1-5-0.1-7.4 0.2 0.1-0.4 0.1-0.4 0.2-0.8 1.5-0.4 3-0.5 4.6-0.4q0.3 0 0.7 0 0.9 0 1.7 0 0.1-0.2 0.1-0.5c0.1-0.6 0.4-0.9 0.9-1.3q0.2 0 0.4 0-0.1-0.2-0.1-0.4c-0.1-0.6-0.1-1.2-0.1-1.9q0-0.3 0-0.7 0-0.2 0-0.5c-0.7-0.1-1.3-0.1-2 0.2-0.5 0.7-0.8 1.5-1.1 2.3q0.9 0.2 1.9 0.4 0 0.4 0 0.8-0.2 0-0.3 0c-3.1-0.1-5.8 0.1-8.7 1q-0.1-0.4-0.2-0.8c0.9-0.5 1.7-0.7 2.7-0.9q0.2 0 0.4-0.1c0.9-0.2 0.9-0.2 1.4-0.2q0.1-0.2 0.1-0.4c0.3-0.9 0.8-1.6 1.2-2.4 0.3-0.5 0.3-0.5 0.2-0.9-0.1-0.4-0.1-0.4-0.5-0.9-1.1-1.7-0.9-3.6-0.6-5.5 0.9-3.9 3.1-7.5 6.4-9.6 1.3-0.7 2.4-0.7 3.8-0.7-0.1-1.2-0.7-2.2-1.2-3.3-0.1-0.3-0.1-0.3-0.3-0.6q-0.3-0.7-0.7-1.4c0.3-0.2 0.3-0.2 0.5-0.4q0.4-0.5 0.9-0.9 1-1.1 2.2-2.1 0.4-0.3 0.7-0.7 0.2-0.1 0.4-0.3c0.1-0.1 0.1-0.1 0.3-0.3 0.3-0.2 0.3-0.2 0.9-0.1 1 0.5 1.8 1.1 2.7 1.8q0.2 0.1 0.5 0.2 0.2 0.2 0.4 0.3c0.6 0.3 1.2 0 1.9-0.2 0.2-0.1 0.2-0.1 0.5-0.3q0.3-0.1 0.6-0.2 0.3-0.2 0.6-0.3 0.6-0.3 1.3-0.6 0.2-0.1 0.5-0.2c0.4-0.2 0.4-0.2 0.8-0.2q0.1-0.2 0.1-0.4 0.4-2.6 0.9-5.1 1.2-0.1 2.4-0.2 0.4-0.1 0.8-0.1c1.3-0.2 2.7-0.3 4.1-0.3z"/>
	<path class="s4" d="m103 55.5q0.2 0 0.5 0 0.3 0 0.6 0 0.4 0 0.7 0 1.1 0 2.1 0 0.8 0 1.5 0 1.6 0 3.2 0 1.8 0 3.6 0 1.7-0.1 3.5-0.1 0.7 0 1.4 0 1.1 0 2.1 0 0.3 0 0.6 0c1.2 0 1.9 0.1 2.8 0.9 0.8 1 0.9 1.8 0.9 3.1q0 0.2 0 0.5 0 0.9 0 1.8 0 0.7 0 1.3 0 1.6 0 3.3 0 1.7 0 3.4 0 3.3 0 6.6 0.4-0.2 0.7-0.3c1.4-0.9 1.4-0.9 2.2-0.8q0.3 0.1 0.5 0.1-0.1 0.3-0.2 0.6c-0.5 0.3-0.5 0.3-1.1 0.5-1.3 0.5-2.3 1.1-3.1 2.3-0.2 0.5-0.1 0.7 0.1 1.2 0.2 0.3 0.2 0.3 0.6 0.5 1.2 1.2 2.1 2.8 2.7 4.4 0.2-0.1 0.2-0.1 0.3-0.1 2.8-0.9 5.4-1.4 8.3-1.3q0 0.4 0 0.8-0.2 0-0.3 0c-2.5 0.3-4.8 0.6-7.1 1.3q-0.4 0.2-0.8 0.2 0 0.4 0.1 0.7-0.1 0.3-0.1 0.7c-0.6 0.4-0.6 0.4-1 0.6-0.7 0.4-1.3 0.9-1.8 1.6-0.4 1.8-0.2 3.7-0.2 5.5q0 1.2 0.1 2.3 0 0.7 0 1.4c0 0.9 0 1.6-0.4 2.5-0.8 0.8-1.4 1.3-2.6 1.3q-0.6 0-1.2 0c-0.3 0-0.3 0-0.7 0q-1 0-2.1 0-0.8 0-1.5 0-1.6 0-3.1 0-2 0-4.1 0-1.9 0-3.8 0-0.4 0-0.7 0-1.1 0-2.1 0-0.3 0-0.6 0-0.3 0-0.6 0-0.2 0-0.5 0c-0.4-0.1-0.4-0.1-0.8-0.3q0.1 0.2 0.1 0.4 0.2 0.7 0.3 1.5 0.1 0.2 0.1 0.5 0.1 0.2 0.1 0.5 0.1 0.2 0.1 0.5c0.1 0.4 0.1 0.4 0.1 0.7 42.3 0 84.6 0 128.1 0q0.1 0.4 0.2 0.8c-0.2 0.2-0.2 0.2-0.5 0.3q-0.3 0-0.5 0c-0.3 0-0.3 0-0.6 0-0.3 0-0.3 0-0.6 0q-0.3 0-0.7 0-1.1 0-2.2 0-0.8 0-1.5 0-1.8 0-3.5 0-2.6 0-5.1 0-4.4 0-8.7 0-4.3-0.1-8.6-0.1-0.2 0-0.5 0-1.3 0-2.7 0-9.6 0-19.1 0-9.3 0-18.7 0-0.2 0-0.5 0-2.9 0-5.8 0-5.9 0-11.7 0-0.3 0-0.6 0-18 0-36 0 0.1 0.5 0.2 1c-6.8 3.5-14 5.3-21.6 3.5q-0.5-0.1-0.9-0.2-0.4-0.1-0.8-0.2c-0.7-2.3-1.2-4.7-1.8-7.1q-0.8-3.8-1.6-7.6-0.1-0.5-0.3-1-0.1-0.7-0.3-1.5 0-0.2-0.1-0.4-0.1-0.5-0.3-1-0.1-0.1-0.3-0.2 0-0.3 0-0.6-0.3-0.1-0.5-0.1c-4.1-1.7-8.3-4.1-11.7-6.9-0.2-0.2-0.2-0.2-0.5-0.4-1.2-1-2.5-2.5-2.7-4.1 0.1-3.7 3.1-7.2 5.2-10.1q0.1-0.2 0.3-0.4c3.7-5.2 3.7-5.2 5.1-6.6q0.6 0 1.2 0c0.1-0.3 0.1-0.3 0.1-0.5 0.6-1.3 1.5-2.4 2.8-2.9 1.3-0.4 2.7-0.4 3.9 0.2q0.4 0.2 0.7 0.4-0.2 0.2-0.4 0.4-0.8 0-1.6-0.1c-1.4-0.1-2.2-0.1-3.3 0.7-0.6 0.6-0.9 1.2-1.2 2q0.2 0 0.4 0c0.7 0.2 1.2 0.5 1.8 0.8q0 0.4 0 0.9 0 0.3 0 0.5c0 0.5 0 0.5-0.1 0.9-0.4 1.7-0.2 3.4 0.5 4.9-0.1 0.7-0.4 1.1-0.8 1.6q-0.2 0.2-0.3 0.4-0.2 0.2-0.4 0.5c-1 1.2-1 1.2-1.9 2.6q0.2 0.1 0.4 0.1c1.3 0.2 2.4 0.6 3.7 1q0.2 0.1 0.5 0.2 0.7 0.3 1.3 0.5-0.1-0.3-0.2-0.6c-0.1-0.6-0.1-1.1 0-1.8 0.8-1.1 1.9-1.7 3.3-2 2-0.3 4-0.3 5.9 0.3 0.2-0.7 0.2-1.2 0.2-1.9q0-0.3 0-0.6 0-0.3 0-0.6c0-0.3 0-0.3 0-0.7q0-0.7 0-1.5-0.2-0.1-0.3-0.1c-0.5-0.1-0.5-0.1-1-0.6-0.6-0.6-0.6-0.6-1.2-0.5q-0.2 0.1-0.4 0.2c-0.2 0.6-0.3 1 0 1.6 0.4 0.7 0.7 1.1 1.4 1.5 0.4 0.1 0.4 0.1 0.8 0.1q0.3-0.1 0.7-0.1-0.1 0.4-0.2 0.8c-0.8 0.2-1.2 0.3-2.1-0.1-0.9-0.6-1.5-1.4-1.8-2.4-0.1-0.9-0.1-1.3 0.4-2 0.5-0.5 0.6-0.6 1.3-0.6 0.6 0 1 0.1 1.4 0.2q0.4 0 0.8 0 0.3 0.6 0.5 1.1c0.1 0.4 0.1 0.4 0.3 0.7 0.4 1.1 0.4 2.1 0.4 3.3q0 0.3 0 0.5 0 0.3 0 0.6 0 0.2 0.1 0.4c-0.1 0.5-0.2 0.8-0.5 1.3 0.3 0 0.3 0 0.5 0.1 0.7 0.3 0.7 0.3 1.1 0.7 0.5 0.4 0.5 0.4 1.1 0.3q0.4 0 0.7-0.1c3-0.5 5.4-0.3 8.1 0.9q0.4 0.2 0.7 0.4 0.3 0.1 0.6 0.2 0-0.4 0-0.7 0-3.5 0-7 0-1.8 0-3.6 0-1.8 0-3.5 0-0.7 0-1.3 0-1 0-1.9 0-0.3 0-0.6c0-1.1 0.2-1.7 1-2.5 0.7-0.6 1.2-0.7 2.1-0.7z"/>
	<path class="s1" d="m172.1 119.1q0.3 0 0.6 0c0.4 0 0.4 0 0.8 0 0.3 0 0.3 0 0.7 0q1.1 0 2.1 0 1.1 0 2.3 0 2.7 0 5.4 0 1.3-0.1 2.6-0.1 4.3 0 8.5 0 1.2 0 2.3 0 0.2 0 0.5 0 4.5 0 8.9 0 4.6 0 9.2 0 2.6 0 5.2 0 2.1 0 4.3 0 1.2 0 2.3 0 1.2 0 2.4 0 0.4 0 0.7 0c1.3 0 2 0 3 0.9 0.8 0.9 1 1.4 1 2.6q0 0.2 0 0.5 0 0.6 0 1.3 0 0.5 0 1 0 1.3 0 2.6 0 0.8 0 1.7 0 2.5 0 5.1 0 3 0 6 0 2.3 0 4.6 0 1.3 0 2.7 0 1.3 0 2.6 0 0.5 0 0.9 0 0.7 0 1.3 0 0.4 0 0.8c-0.1 1-0.6 1.6-1.4 2.2-0.6 0.5-1.1 0.6-1.9 0.6-0.3 0-0.3 0-0.5 0-0.4 0-0.4 0-0.6-0.2q-0.4-0.1-0.9-0.1-0.3 0-0.6 0c-0.3 0-0.3 0-0.7 0q-0.3 0-0.7 0-1 0-1.9 0-1.1 0-2.2 0-2 0-4.1 0-1.7 0-3.3 0-0.3 0-0.5 0-0.5 0-1 0-4.5 0-9.1 0-3.9 0-7.8 0-4.5 0-9 0-0.5 0-1 0c-0.2 0-0.2 0-0.5 0q-1.7 0-3.3 0-2.1 0-4.1 0-1.1 0-2.1 0-1.1 0-2.3 0c-0.3 0-0.3 0-0.6 0q-0.3 0-0.6 0c-0.3 0-0.3 0-0.6 0-0.4 0-0.4 0-0.6 0.3-0.9 0.1-1.7 0.1-2.6-0.4-0.6-0.5-1.1-1-1.5-1.8q0-0.6 0-1.3 0-0.2 0-0.4 0-0.7 0-1.3 0-0.5 0-1 0-1.3 0-2.6 0-0.9 0-1.7 0-2.6 0-5.1 0-3-0.1-6 0-2.3 0-4.6 0-1.4 0-2.7 0-1.3 0-2.6 0-0.5 0-1 0-0.6 0-1.3 0-0.3 0-0.7c0.2-1 0.7-1.6 1.4-2.3 0.7-0.5 1.1-0.5 1.9-0.5z"/>
	<path class="s5" d="m84.2 185c13.2 0 26.5 0 40.2 0 0 15 0 29.9 0 45.3-13.3 0-26.6 0-40.2 0 0-14.9 0-29.9 0-45.3z"/>
	<path class="s0" d="m125.6 28.1q-0.3 0-0.5 0-5.6 0-11.2 0-2.7 0-5.4 0-2.3 0-4.7 0-1.2 0-2.5 0-1.1 0-2.3 0.1-0.4 0-0.9 0c-2.6-0.1-4.8 0.5-6.8 2.3-2.3 2.6-2.5 4.9-2.5 8.2q0 0.6 0 1.2 0 1.7 0 3.3 0 1.7-0.1 3.4 0 3.2 0 6.5 0 3.6 0 7.3 0 7.6 0 15.1c-0.8-0.3-0.8-0.3-1.6-0.7q0.1-0.4 0.2-0.8c0.2-2.6 0-4.8-1.2-7.1q-0.2 0.1-0.4 0.1c-0.6 0.1-0.6 0.1-0.9-0.1-0.8-0.1-1.1-0.1-1.8 0.4-0.5 0.8-0.5 1.1-0.4 2 0.4 1 0.8 1.8 1.8 2.3 1 0.3 1 0.3 1.9 0q0.1-0.3 0.2-0.6c-0.3 0.1-0.3 0.1-0.7 0.2-0.7 0.1-0.8 0-1.5-0.4-0.5-0.6-0.9-1-1.1-1.7 0-0.8 0.1-1.1 0.6-1.6 0.8 0 1.1 0.1 1.7 0.7q0.2 0.2 0.4 0.5 0.3 0.1 0.6 0.2c0.4 0.7 0.3 1.6 0.3 2.4q0 0.3 0 0.6c0 1.7 0 1.7-0.5 2.5q-0.1-0.1-0.3-0.1c-2.4-0.6-5.4-0.7-7.6 0.5-0.6 0.5-1 0.8-1.2 1.6 0 0.7 0.1 1.4 0.3 2.1q-1.7-0.5-3.3-1.1c-0.9-0.4-1.8-0.7-2.8-0.9 0.3-0.7 0.6-1.2 1.1-1.8q0.1-0.2 0.3-0.4 0.4-0.5 0.8-1c0.8-0.8 0.8-0.8 1-1.9q-0.2-0.5-0.4-1c-0.7-1.9-0.2-4.4 0.2-6.2q-0.3-0.1-0.6-0.2-0.8-0.3-1.6-0.6c0.1-1.1 0.6-1.7 1.4-2.4 1.4-0.8 2.8-0.6 4.3-0.4q0.2 0 0.4 0 0.1-0.1 0.2-0.2c-1.3-0.7-2.5-0.7-3.9-0.6-1.3 0.5-2.1 1.2-2.8 2.2q-0.1 0.3-0.3 0.6-0.1 0.3-0.3 0.6-0.3 0.1-0.6 0.1c-1 0.4-1.3 0.8-2 1.6q-0.1 0.3-0.3 0.5-0.5 0.6-1 1.3-0.2 0.2-0.3 0.4-1.9 2.6-3.7 5.3-0.2 0.3-0.4 0.5-1 1.6-1.9 3.2c-0.4-0.5-0.7-0.9-0.9-1.5q-0.1-0.2-0.1-0.4-0.1-0.2-0.2-0.5-0.1-0.2-0.2-0.5-0.7-1.9-1.3-3.9-0.1-0.2-0.1-0.5c-0.9-2.8-1.2-5.6-1.2-8.5q0-0.3 0-0.5c0-3 0.3-5.9 0.9-8.8 0-0.3 0-0.3 0.1-0.6 1.8-8.4 5.7-16.3 11.7-22.5 0.2-0.3 0.2-0.3 0.4-0.5 3.2-3.4 7.5-5.9 11.9-7.4q0.3-0.1 0.6-0.2c1.3-0.4 2.6-0.7 3.9-1q0.3 0 0.5-0.1c11.5-2.2 29.2 2.1 38.6 9.4z"/>
	<path class="s3" d="m297.3 86.2c2.7 2 3.2 4.9 3.7 8.1 0.6 3.6 1.7 6.3 4.7 8.5 1.5 1.1 3.3 1.9 5 2.6 2.5 1.1 5 2.3 7.1 4.1q0.2 0.1 0.4 0.3c1.9 1.7 3 4.3 3.2 6.8 0.1 2.8-0.9 5.2-2.7 7.3-1.5 1.6-3.5 2.5-5.6 3q-0.4 0-0.8 0 0.1 0.2 0.2 0.4c0 1.3-0.3 2.2-1 3.3q-0.1 0.2-0.3 0.4c-0.9 1.4-2 2.7-3.1 4q-0.7 0.9-1.4 1.8-1.3 1.6-2.7 3.2-0.9 1.1-1.9 2.2c-0.2 0.3-0.2 0.3-0.4 0.6q-0.3 0.4-0.7 0.8c-0.7 0.9-1.4 1.4-2.4 1.8-0.6 0-1.3 0-1.9 0-1.1-0.1-1.1-0.1-2.1 0.4-0.6 0.7-0.9 1.5-1.1 2.3q-0.3 0-0.6 0c0.1-0.9 0.4-1.6 0.9-2.5q0.2-0.3 0.4-0.7c0.1-0.2 0.1-0.2 0.3-0.5 0.4 0 0.4 0 0.7 0q0.5 0 1.1 0 0.2 0 0.5 0.1c1.1 0 1.8-0.1 2.8-0.7 0.4-0.4 0.4-0.4 0.8-1q0.9-1.1 1.8-2.1 1.1-1.3 2.2-2.5 0.5-0.7 1.1-1.4c4-4.2 4-4.2 6-9.1-0.8-2.8-3.8-5-5.8-7-2.3 1.2-3.6 4-4.4 6.4q0.2 0.1 0.4 0.2c0.8 0.3 1.4 0.7 2.1 1.1 0.1 0.2 0.1 0.2 0.3 0.3q0.5 0.3 1 0.6c-0.2 0.6-0.3 1-0.6 1.5q-0.2 0.2-0.3 0.4-0.1 0.2-0.3 0.4c-0.1 0.3-0.1 0.3-0.3 0.5-1.5 2.4-3.1 4.7-4.6 7q-0.4 0.6-0.8 1.2c-0.8 0.2-1.7 0.2-2.5 0.3-2.1 0-2.1 0-3.9 0.9-0.9 1.1-1.6 2.4-2.2 3.7q-0.3 0-0.6 0c0.1-1.9 1-3.3 2.3-4.6 1.7-1.4 4.4-1.2 6.5-1.1q0.1-0.2 0.1-0.4c0.4-0.8 0.8-1.4 1.3-2.1 0.1-0.2 0.1-0.2 0.3-0.5q0.4-0.7 0.9-1.4 0.6-0.9 1.2-1.8 0.2-0.2 0.3-0.4 1.1-1.6 2-3.2-0.6-0.4-1.2-0.8-0.2-0.1-0.3-0.2c-0.8-0.5-1.5-0.7-2.4-1-0.6-0.3-0.6-0.3-1.1-0.6q-0.3-0.2-0.6-0.4c-0.5-0.3-0.5-0.3-0.9-0.7-0.6-0.6-1.3-1.1-2.1-1.5-0.3-0.3-0.3-0.3-0.8-0.7q0-0.4 0-0.8c0.6 0.1 1 0.3 1.4 0.7q0.2 0.1 0.4 0.2 0.2 0.2 0.4 0.3 0.5 0.3 0.9 0.6 0.2 0.2 0.4 0.3 1.3 0.9 2.6 1.6 0-0.1 0-0.3c0.7-2.7 2.5-5.2 4.7-6.9q0.2-0.1 0.4-0.2c-0.4-0.8-1-1.3-1.7-1.9q-0.1-0.1-0.3-0.3-1.5-1.2-3-2.3-1.2-1-2.4-2.2c-1.4-1.2-2.8-2.3-4.6-2.7q0 0.2-0.1 0.5c-0.5 2.9-2.3 6.3-4.8 8-1.3 0.8-2.4 1.1-3.9 0.9-1.1-0.4-1.5-1.2-2-2.2-0.5-1.5-0.7-2.9-0.6-4.5q0-0.3 0-0.6 0-0.3 0-0.6 0-0.2 0-0.5c0-0.5 0.1-0.8 0.4-1.2 0.4-0.2 0.4-0.2 0.8-0.3 0.9-0.3 1.4-0.5 1.9-1.3 0.6-1 1-2 1-3.1-0.3-0.7-0.8-1.2-1.3-1.7-1.3-1.5-1.2-3.6-1.1-5.4 0.1-0.7 0.3-1.4 0.5-2.1 0.2-0.9 0.2-1.7 0.2-2.6 0.1-2.5 0.9-4.1 2.7-5.8 2.7-2.1 6.8-3.1 9.9-1.2z"/>
	<path class="s6" d="m115.7 187.5c0.3 0 0.3 0 0.5 0q0.5 0 1.1 0 0.8 0 1.6 0 0.5 0 1 0 0.3 0 0.5 0c0.7 0 1.1 0 1.7 0.3 0.5 0.8 0.4 1.5 0.4 2.3q0 0.3 0 0.6 0 0.5 0 1.1 0 0.8 0.1 1.7 0 0.5 0 1.1 0 0.2 0 0.5c0 1.1 0 1.1-0.4 1.6-0.6 0.5-0.9 0.7-1.7 0.7-0.8-0.3-1-0.5-1.4-1.2q-0.1-0.6-0.2-1.2c-1.2 1.4-1.6 2.5-1.5 4.4-0.1 0.3-0.1 0.3-0.1 0.7q0 1.1 0.1 2.2 0 0.8 0 1.6-0.1 1.8 0 3.7 0 3.3 0 6.6 0 1.4 0 2.7 0 0.7 0 1.4 0 0.4 0 0.7 0 0.3 0 0.6 0 0.2 0 0.5c-0.1 0.4-0.1 0.4-0.5 0.8-0.4 0.1-0.4 0.1-1 0.1q-0.3 0-0.6-0.1c-0.4 0-0.4 0-0.8 0q-0.5 0-1.1 0-0.6 0-1.2 0-1.3 0-2.6 0c-0.2 0-0.2 0-0.4 0q-0.5 0-0.9 0-3 0-6 0-2 0-4 0-1.1 0-2.2 0-1.2-0.1-2.4 0-0.3-0.1-0.7-0.1c-0.6 0-1.1 0.1-1.8 0.3-0.6 0.7-0.9 1.4-1.3 2.2q-0.4 0.4-0.7 0.9-0.1 0.2-0.3 0.4c-0.4 0.4-0.6 0.4-1.3 0.5-0.7-0.1-0.7-0.1-1.3-0.4-0.4-0.5-0.5-0.9-0.4-1.6 0.1-0.8 0.6-1.4 1.1-2.1q0.2-0.2 0.4-0.4 0.3-0.4 0.6-0.8 0.1-0.2 0.3-0.5 0.2-0.2 0.5-0.5c0.7-1 0.6-2.1 0.6-3.2q0-0.4 0-0.8 0-0.7 0-1.5 0-1.2 0-2.5 0-1.9 0-3.8 0-3.5 0-7 0-1.2 0-2.4 0-0.9 0-1.9c0-0.3 0-0.3 0-0.7q0-0.3 0-0.6 0-0.3 0-0.5c0.1-0.5 0.1-0.5 0.5-0.8 0.4-0.1 0.4-0.1 1-0.1 0.3 0 0.3 0 0.7 0q0.3 0 0.7 0 0.6 0 1.2 0 0.6 0 1.2 0 1.3 0 2.7 0 0.4 0 0.9 0 0.2 0 0.4 0 3.1 0 6.1 0.1 2.1 0 4.2 0 1.1 0 2.2 0 1.2 0 2.4 0 0.4 0 0.7 0c1.3 0 1.3 0 2.3-0.6 0.3-0.5 0.5-0.9 0.7-1.4q-0.3 0-0.6 0-0.4 0-0.8-0.1-0.2 0-0.4 0c-0.8 0-1.4-0.2-2.1-0.7-0.4-0.5-0.4-0.7-0.4-1.4 0.5-1.4 1.4-1.5 2.7-1.4z"/>
	<path class="s7" d="m277 174.8c0.7 0.2 1.3 0.4 1.9 0.7 4.2 1.7 8.4 2 13 1.3 0.9-0.2 1.8-0.3 2.8-0.2q0 0.4 0 0.8-0.2 0-0.4 0c-0.7 3.8-0.5 7.6 0.1 11.4 0.8 4.2 0.4 7.8-0.7 11.9-1.6 6-2.6 11.5 0.4 17.2 1.1 2 0.5 4.3 0.1 6.4q-0.2 1.1-0.4 2.2-0.1 0.2-0.1 0.5-0.3 1.9-0.5 3.8c-0.1 0.9-0.1 0.9-0.3 1.1q-0.9 0-1.8 0c0-2.2 0-4.4 0-6.7-1 1.9-1 1.9-1.6 3.8q-0.2 0.7-0.5 1.4 0 0.2-0.1 0.4c-0.6 0.7-1.3 1-2.2 1.2q-0.9 0-1.8 0c-0.4 0-0.4 0-0.7 0q-0.7 0-1.4 0-1.1 0-2.2 0-0.7 0-1.4 0c-0.3 0-0.3 0-0.7 0-1.4 0-2.6-0.1-3.7-1.1-0.5-0.8-0.5-1.5-0.3-2.3 0.2-0.8 0.6-1.3 1.2-1.7 0.7-0.7 1-1.4 1.4-2.2q0.1-0.3 0.3-0.5c1-2.3 1.6-4.8 1.6-7.4q0-0.2 0-0.4 0-0.6 0-1.3 0-0.2 0-0.4c0-3.5-0.2-7-0.4-10.5q-0.1-2.4-0.2-4.8 0-0.3 0-0.5-0.4-7.4-0.6-14.7-0.1-1.9-0.2-3.8 0-0.9 0-1.9-0.1-0.5-0.1-1 0-0.3 0-0.5c0-0.6 0-0.9-0.4-1.4q-0.1-0.1-0.3-0.2 0.1-0.3 0.2-0.6z"/>
	<path fill-rule="evenodd" class="s8" d="m84.3 183.6q0.2 0 0.5 0c0.3 0 0.3 0 0.6 0q0.4 0 0.7 0 1.1 0 2.2 0 0.7 0 1.5 0 1.9 0 3.8 0 1.6 0 3.1 0c0.2 0 0.2 0 0.5 0q0.4 0 0.8 0 4.2 0 8.4 0 3.6 0 7.2 0 4.2 0 8.3 0 0.5 0 0.9 0c0.2 0 0.2 0 0.5 0q1.5 0 3.1 0 1.8 0 3.7 0 1 0 1.9 0 1.1 0 2.1 0 0.3 0 0.6 0c0.3 0 0.3 0 0.6 0q0.2 0 0.5 0c0.4 0 0.4 0 0.7 0.4 0.1 0.4 0.1 0.4 0.1 0.8 0 0.3 0 0.3 0 0.5 0 0.3 0 0.3 0 0.6q0 0.3 0 0.6 0 0.9 0 1.9 0 0.7 0 1.4 0 1.7 0 3.4 0 2 0 4 0 3.5 0 7.1 0 3.4 0 6.8 0 0.2 0 0.4 0 0.3 0 0.5 0 3.9 0 7.8 0 1.4 0 2.7 0 1.9 0 3.8 0 0.7 0 1.3 0 1 0 1.9 0 0.3 0 0.6c0 1.2 0 1.2-0.2 1.4q-0.5 0-0.9 0-0.3 0-0.6 0-0.3 0-0.6 0-0.3 0-0.6 0-1.1 0-2.2 0-0.8 0-1.6 0-1.9 0-3.9 0-1.5 0-3.1 0c-0.2 0-0.2 0-0.4 0q-0.5 0-0.9 0-4.2 0-8.4 0-3.7 0-7.3 0-4.2 0-8.4 0-0.4 0-0.9 0-0.2 0-0.4 0-1.6 0-3.2 0-1.8 0-3.7 0-1 0-2 0-1 0-2.1 0c-0.3 0-0.3 0-0.6 0q-0.3 0-0.6 0-0.2 0-0.4 0c-0.4 0-0.4 0-0.6-0.2q0-0.9 0-1.8 0-0.3 0-0.6 0-1 0-1.9 0-0.7 0-1.4 0-1.7 0-3.4 0-1.4 0-2.8 0-3.9 0-7.9 0-0.2 0-0.4 0-0.2 0-0.4 0-3.4 0-6.9-0.1-3.5-0.1-7 0-2 0-4 0-1.8 0-3.7 0-0.7 0-1.4 0-0.9 0-1.8 0-0.3 0-0.6 0-0.2 0-0.5 0-0.2 0-0.4c0.2-0.8 0.7-0.8 1.4-0.8zm-0.1 1.4c0 15 0 29.9 0 45.3 13.2 0 26.5 0 40.2 0 0-14.9 0-29.9 0-45.3-13.3 0-26.6 0-40.2 0z"/>
	<path class="s9" d="m208.4 39.6c0.3 0 0.3 0 0.6 0q1.1 0 2.2 0 0.7 0 1.5 0 1.6 0 3.2 0 1.8 0 3.6 0 1.8 0 3.5 0 0.8 0 1.5 0 1 0 2.1 0 0.3 0 0.6 0c1.8 0 1.8 0 2.5 0.6 0.7 0.8 1 1.3 1 2.3 0 0.3 0 0.3 0 0.6q0 0.3 0 0.6 0.1 0.3 0.1 0.6 0 1.1 0 2.2 0 0.4 0 0.7 0 1.8 0 3.5 0 2 0 4 0 1.8 0 3.5 0 0.8 0 1.5 0 1.1 0 2.1c0 0.3 0 0.3 0 0.6 0 1.2-0.1 1.8-0.9 2.7-0.7 0.7-1.3 0.9-2.2 0.9-0.3 0-0.3 0-0.6 0q-0.3 0-0.6 0-0.3 0-0.7 0-1 0-2.1 0-0.4 0-0.7 0-1.8 0-3.5 0-2 0-4 0-1.7 0-3.4 0-0.7 0-1.5 0-1 0-2 0c-0.3 0-0.3 0-0.6 0-1.3 0-2-0.1-3-0.9-0.8-0.8-0.7-2-0.7-3.1q0-0.3 0-0.7 0-1.1 0-2.2 0-0.7 0-1.5 0-1.6 0-3.2 0-1.8 0-3.6 0-1.8 0-3.6 0-0.7 0-1.5 0-1 0-2.1 0-0.3 0-0.6c0-1.2 0.1-1.9 0.9-2.8 0.9-0.8 2-0.6 3.2-0.6z"/>
	<path class="s10" d="m226.3 76.6c2.9 2.3 4.9 5.6 5.4 9.3 0.3 4.1-0.7 7.7-3.3 10.8q-0.2 0.3-0.4 0.5c-2.4 2.9-6.1 4.1-9.7 4.5-3.8 0.1-7.5-1.4-10.3-4-2.9-3.1-4.1-6.8-4-11 0.1-3.7 1.8-6.9 4.5-9.4 5.2-4.4 12.2-4.7 17.8-0.7z"/>
	<path class="s1" d="m104.1 56.4q0.4 0 0.7 0 1.1 0 2.1 0 0.8 0 1.5 0 1.6 0 3.1 0 1.8 0 3.6 0 1.7 0 3.4 0 0.8 0 1.5 0 1 0 2 0c0.3 0 0.3 0 0.6 0 0.9 0 1.6 0 2.3 0.5 0.7 0.8 0.6 1.5 0.6 2.5q0 0.3 0 0.6 0 1 0 1.9 0 0.7 0 1.4 0 1.3 0 2.7 0 1.8 0 3.6 0 1.4 0 2.8 0 0.6 0 1.3 0 0.9 0 1.8 0 0.3 0 0.6c0 1.1-0.3 1.8-0.9 2.8-0.2-0.1-0.2-0.1-0.4-0.2-0.8-0.3-0.8-0.3-1.6-0.4-0.4 0.2-0.8 0.5-1.2 0.8q-0.4 0.2-0.8 0.5-0.2 0.2-0.4 0.3-1.5 1-3 1.9c-1.7 1.1-1.7 1.1-3.5 2.3q-0.2 0.1-0.4 0.3-0.4 0.3-0.9 0.6c-0.9 0.6-0.9 0.6-1.4 0.5-0.5-0.2-0.8-0.6-1.3-1q-1.2-1.1-2.5-2-0.1-0.2-0.3-0.3 0-0.1 0-0.2c2.3 0 4.6-0.1 6.9-0.2q0-0.2 0-0.4c-2.5 0-4.9-0.1-7.5-0.2q-0.1 0.2-0.2 0.4c-0.1-0.1-0.1-0.1-0.2-0.2q-0.7-0.4-1.3-0.9-0.2-0.1-0.5-0.3-0.2-0.1-0.4-0.3-0.2-0.1-0.4-0.3c-0.5-0.3-0.5-0.3-0.9-0.6-1.3-0.6-1.3-0.6-1.5-1.3-0.1-0.6-0.1-1.1-0.1-1.6 0-0.3 0-0.3 0-0.6q0-1 0-2 0-0.7 0-1.4 0-1.4 0.1-2.8 0-1.9 0-3.7 0-1.4 0-2.9 0-0.6 0-1.3 0-1 0-1.9 0-0.3 0-0.6c0-0.8 0.1-1.3 0.5-2 0.9-0.6 1.7-0.5 2.7-0.5z"/>
	<path class="s9" d="m293.3 177.6q0 0.1 0 0.3c-0.4 4-0.4 7.8 0.4 11.7 0.8 3.9 0.1 7.3-0.9 11.1-1.2 4.6-2.4 9.6-0.9 14.3 0.2 0.6 0.3 1.2 0.4 1.8-0.3 0.2-0.3 0.2-0.6 0.3-2 1.5-2.9 4.2-3.7 6.4q-0.1 0.2-0.2 0.5-0.2 0.5-0.4 1-0.1 0.3-0.2 0.5-0.1 0.3-0.2 0.5c-0.2 0.5-0.4 0.6-1 0.8-0.6 0.1-0.6 0.1-1.4 0q-0.3 0.1-0.7 0.1c-0.6-0.1-0.6-0.1-1-0.5 0.1-0.2 0.1-0.2 0.2-0.5 2.1-4.6 2.4-9.3 2.4-14.2q0-0.6 0-1.2 0-1.8 0-3.7 0-0.3 0-0.6c0-6.1-0.1-12.1-0.6-18.2q-0.1-0.7-0.1-1.4-0.2-2.2-0.4-4.3-0.2-2.2-0.3-4.3 0.3 0 0.6 0 1 0 2.1 0 0.5 0 0.9 0c1.9 0 3.8-0.4 5.6-0.4z"/>
	<path fill-rule="evenodd" class="s11" d="m179.9 54.4c4 3.5 6.6 8.6 7.3 13.9 0.4 6.7-1.4 12.4-5.7 17.4-3.6 4.1-9.1 6.8-14.5 7.1-6.4 0.4-12.1-1.7-16.9-6-4.7-4.4-6.2-9.9-7.1-16-0.2 0.2-0.2 0.2-0.4 0.4q-0.2 0.2-0.5 0.4-0.3 0.2-0.5 0.4c-1 0.7-1.6 1-2.8 1.1-0.8 0.1-1.2 0.1-1.7 0.8q-0.4 0.9-0.7 1.8 0.9 0.2 1.9 0.4 0 0.4 0 0.8-0.2 0-0.3 0c-3.1-0.1-5.8 0.1-8.7 1q-0.1-0.4-0.2-0.8c0.9-0.5 1.7-0.7 2.7-0.9q0.2 0 0.4-0.1c0.9-0.2 0.9-0.2 1.4-0.2q0.1-0.2 0.1-0.4c0.3-0.9 0.8-1.6 1.2-2.4 0.3-0.5 0.3-0.5 0.2-0.9-0.1-0.4-0.1-0.4-0.5-0.9-1.1-1.7-0.9-3.6-0.6-5.5 0.9-3.9 3.1-7.4 6.4-9.6 1.1-0.6 2-0.8 3.2-0.7 1.2 0.4 2.1 0.9 3 1.8 0.2 0.6 0.2 0.6 0.3 1.2q0.2 0 0.4 0 0.1-0.2 0.2-0.4c0.3-0.7 0.8-1.3 1.3-1.8 0.1-0.2 0.1-0.2 0.3-0.4 8.5-8.8 21.5-9.1 30.8-1.5zm-30 2.1c-2 2.1-2 2.1-2.7 4.9-0.2 2.2-0.9 4.4-2.2 6.2-1.4 2.2-0.8 5.7-0.2 8.2 1.5 5.4 4.7 10.2 9.6 13.1 5.3 3 11 3.7 16.9 2.1 4.7-1.4 8.8-4.4 11.5-8.6q0.2-0.3 0.4-0.5c2.9-4.7 3.8-10.7 2.6-16-0.4-1.6-1.1-3-1.8-4.5q-0.1-0.3-0.3-0.6c-0.6-1.3-1.5-2.4-2.4-3.5-0.2-0.2-0.2-0.2-0.4-0.5-3.3-3.8-7.9-6-12.8-6.8-0.2 0-0.2 0-0.4 0-6.6-1.1-13.2 1.8-17.8 6.5z"/>
	<path fill-rule="evenodd" class="s12" d="m84.3 183.6q0.2 0 0.5 0c0.3 0 0.3 0 0.6 0q0.4 0 0.7 0 1.1 0 2.2 0 0.7 0 1.5 0 1.9 0 3.8 0 1.6 0 3.1 0c0.2 0 0.2 0 0.5 0q0.4 0 0.8 0 4.2 0 8.4 0 3.6 0 7.2 0 4.2 0 8.3 0 0.5 0 0.9 0c0.2 0 0.2 0 0.5 0q1.5 0 3.1 0 1.8 0 3.7 0 1 0 1.9 0 1.1 0 2.1 0 0.3 0 0.6 0c0.3 0 0.3 0 0.6 0q0.2 0 0.5 0c0.4 0 0.4 0 0.7 0.4 0.1 0.4 0.1 0.4 0.1 0.8 0 0.3 0 0.3 0 0.5 0 0.3 0 0.3 0 0.6q0 0.3 0 0.6 0 0.9 0 1.9 0 0.7 0 1.4 0 1.7 0 3.4 0 2 0 4 0 3.5 0 7.1 0 3.4 0 6.8 0 0.2 0 0.4 0 0.3 0 0.5 0 3.9 0 7.8 0 1.4 0 2.7 0 1.9 0 3.8 0 0.7 0 1.3 0 1 0 1.9 0 0.3 0 0.6c0 1.2 0 1.2-0.2 1.4q-0.5 0-0.9 0-0.3 0-0.6 0-0.3 0-0.6 0-0.3 0-0.6 0-1.1 0-2.2 0-0.8 0-1.6 0-1.9 0-3.9 0-1.5 0-3.1 0c-0.2 0-0.2 0-0.4 0q-0.5 0-0.9 0-4.2 0-8.4 0-3.7 0-7.3 0-4.2 0-8.4 0-0.4 0-0.9 0-0.2 0-0.4 0-1.6 0-3.2 0-1.8 0-3.7 0-1 0-2 0-1 0-2.1 0c-0.3 0-0.3 0-0.6 0q-0.3 0-0.6 0-0.2 0-0.4 0c-0.4 0-0.4 0-0.6-0.2q0-0.9 0-1.8 0-0.3 0-0.6 0-1 0-1.9 0-0.7 0-1.4 0-1.7 0-3.4 0-1.4 0-2.8 0-3.9 0-7.9 0-0.2 0-0.4 0-0.2 0-0.4 0-3.4 0-6.9-0.1-3.5-0.1-7 0-2 0-4 0-1.8 0-3.7 0-0.7 0-1.4 0-0.9 0-1.8 0-0.3 0-0.6 0-0.2 0-0.5 0-0.2 0-0.4c0.2-0.8 0.7-0.8 1.4-0.8zm-0.1 1.4c0 15 0 29.9 0 45.3 13.2 0 26.5 0 40.2 0 0-14.9 0-29.9 0-45.3-13.3 0-26.6 0-40.2 0zm41.4 0c0 15 0 29.9 0 45.3 3.2 0 6.4 0 9.8 0 0-14.9 0-29.9 0-45.3-3.3 0-6.5 0-9.8 0z"/>
	<path class="s13" d="m103.7 39.9q0.3 0 0.7 0 1.1 0 2.2 0 0.8 0 1.6 0 1.6 0 3.2 0 1.9 0.1 3.8 0.1 1.8 0 3.7 0 0.7 0 1.5 0 1.1 0 2.2 0c0.3 0 0.3 0 0.6 0q0.3 0 0.6 0c0.3 0 0.3 0 0.5 0 0.5 0 0.8 0.2 1.3 0.4 0.4 0.7 0.4 0.8 0.4 1.5q0 0.3 0 0.6c0 0.3 0 0.3 0 0.6q0 0.3 0 0.6 0 0.7 0 1.3 0 1 0 2 0 0.7 0 1.3 0 0.3 0 0.6c0 0.3 0 0.3 0 0.6q0 0.2 0 0.5c-0.1 0.5-0.2 0.8-0.4 1.2-0.7 0.4-0.9 0.5-1.6 0.5q-0.3 0-0.6 0-0.3 0-0.6 0-0.4 0-0.7 0-1.2 0-2.3 0-0.6 0-1.2 0-1.8 0-3.7 0-1.9 0-3.8 0-1.6 0-3.3 0-1 0-1.9 0-1.1 0-2.2 0-0.4 0-0.7 0c-0.3 0-0.3 0-0.6 0q-0.2 0-0.5 0c-0.6-0.1-0.9-0.4-1.3-0.9-0.2-0.4-0.2-0.7-0.2-1.3q0-0.2 0-0.5 0-1.3 0-2.6 0-0.6 0-1.3 0-1-0.1-1.9 0-0.3 0-0.6 0-0.3 0-0.6 0-0.3 0-0.5c0.5-1.7 1.9-1.6 3.4-1.6z"/>
	<path class="s14" d="m90.8 194.2c8.1 0 16.1 0 24.4 0-0.6 1.1-1.2 2.1-1.9 3q-1.2 1.7-2.3 3.4-0.2 0.2-0.4 0.5-0.3 0.4-0.6 0.9-0.7 1-1.4 2.1c-0.2 0.2-0.2 0.2-0.3 0.4q-0.3 0.3-0.5 0.7-0.8 1.1-1.5 2.2-0.3 0.4-0.5 0.8c-0.2 0.3-0.2 0.3-0.4 0.6-1.1-0.9-2-1.8-2.9-2.7q-0.3-0.4-0.7-0.8-0.1-0.2-0.3-0.4c-0.5-0.5-0.7-0.7-1.5-0.8-0.8 0.1-0.9 0.1-1.5 0.7q-0.2 0.3-0.5 0.7-0.1 0.2-0.2 0.4-0.3 0.4-0.6 0.9-0.5 0.7-1 1.5-0.4 0.6-0.8 1.1-1.2 1.7-2.3 3.3-0.2 0.3-0.4 0.6-0.2 0.3-0.4 0.6-0.2 0.2-0.3 0.5c-0.4 0.4-0.4 0.4-1.2 1.2 0-7 0-14.1 0-21.4z"/>
	<path class="s9" d="m278.4 176.4q0.3 0.1 0.7 0.2c1 0.4 2 0.6 3 0.9 1 0.2 1 0.2 1.2 0.5q0.1 0.5 0.1 1.1c0.1 0.3 0.1 0.3 0.1 0.7q0 0.4 0.1 0.8 0 0.4 0 0.8 0.1 1.1 0.2 2.2 0.1 0.6 0.2 1.3 0.2 2.9 0.4 5.7 0.1 0.5 0.1 0.9c0.4 5.1 0.4 10.3 0.4 15.4q0 0.8 0 1.6 0 1.3 0 2.6 0 0.5 0 1c0 1.7 0 3.4-0.2 5q0 0.2 0 0.5c-0.2 1.3-0.7 2.3-1.3 3.4-0.6 1.1-1 2.1-1.5 3.2q-0.1 0.3-0.2 0.6-0.2 0.5-0.4 1c-0.2 0.4-0.2 0.4-0.4 0.8-0.7 0.2-1.2 0.2-1.9 0.2q-0.4 0-0.8 0c-0.6 0-0.6 0-1-0.2q0.4-1 0.9-2c1.1-2.5 1.7-5.1 1.7-7.9q0-0.3 0-0.6 0-0.6 0-1.2 0-0.9 0-1.8 0-3.7-0.2-7.3-0.3-4.7-0.5-9.5 0-0.2 0-0.4-0.1-2.4-0.2-4.9-0.1-1.7-0.1-3.3-0.1-1.9-0.2-3.7 0-0.8 0-1.6-0.1-1.1-0.1-2.1 0-0.4-0.1-0.7 0-1.6 0-3.2z"/>
	<path class="s9" d="m250.6 80.6q0.2-0.1 0.5-0.1 0.2 0 0.4 0 0.2 0 0.4 0c0.6 0.2 0.9 0.6 1.4 1.1 0.2 0.6 0.2 0.6 0.3 1.2q0.1 0.4 0.2 0.8 0 0.3 0.1 0.7 0.1 0.4 0.2 0.9 0.2 1 0.4 2.1 0.2 1.1 0.4 2.2 0.2 1.2 0.5 2.5 0.3 1.9 0.7 3.8 0.1 0.4 0.2 0.7 0.1 0.6 0.2 1.2c0.5 2.3 0.5 2.3 0.3 3.3-0.3 0.4-0.5 0.6-1 0.8q-0.7 0-1.3 0-0.1-0.2-0.1-0.5 0-1 0-2 0-0.4 0-0.9 0-0.6-0.1-1.2 0-0.4 0-0.8c-0.1-1.3-0.5-1.9-1.4-2.8q0-0.2 0-0.4 0.2 0 0.4 0 0-0.4 0-0.8c-2.9 0.2-5.9 0.4-8.9 0.6q0 0.3-0.1 0.6 3.1-0.1 6.4-0.2c0.1 1.1 0.1 1.1 0.2 2.2-0.5 0.1-0.5 0.1-1 0.2q-0.1-0.3-0.2-0.6c-0.3-0.7-0.3-0.7-0.9-0.8 0.1 0.7 0.1 0.7 0.2 1.4-2 0.1-2 0.1-4 0.3q-0.1 0.4-0.2 0.8 0.3 0 0.6-0.1c1.3-0.1 2.7-0.1 4-0.1 0.4 1.6 0.4 3.1 0.3 4.7q-0.3-0.1-0.6-0.3-0.8-0.5-1.7-0.8c-0.5 0.5-0.8 0.8-0.8 1.6q0 0.3 0 0.5-0.5 0.1-1 0.1-0.3 0-0.6 0c-0.8-0.1-1.2-0.4-1.7-1.1-0.3-0.7-0.4-1.4-0.6-2.1q0-0.3-0.1-0.7-0.2-1-0.4-2.1-0.1-0.7-0.3-1.4-0.3-1.4-0.5-2.9-0.4-1.8-0.7-3.6-0.2-0.8-0.3-1.5-0.1-0.4-0.2-0.9c-0.7-3.7-0.7-3.7-0.2-4.7 2.4-1.4 7.8-0.9 10.6-0.9z"/>
	<path class="s15" d="m241.7 158.3q0.1 0 0.2 0c0.1 2.1 0 3.6-1.4 5.2-1.1 1.1-2.3 1.8-3.9 1.9-0.2 0-0.2 0-0.4 0-0.3 0-0.3 0-0.5 0-0.3 0-0.3 0-0.6 0q-0.2 0-0.5 0-1 0-2 0-0.7 0-1.4 0-1.5 0-3 0-2.3 0-4.5 0-3.8 0-7.6 0.1-3.8 0-7.5 0c-0.3 0-0.3 0-0.5 0q-1.2 0-2.4 0-8.4 0-16.8 0-8.2 0-16.3 0c-0.3 0-0.3 0-0.5 0q-2.6 0-5.1 0-5.1 0-10.3 0-0.2 0-0.5 0-15.8 0.1-31.6 0.1-0.2-0.4-0.3-0.8-0.1-0.2-0.2-0.4c-0.1-0.4-0.1-0.4-0.1-1q0.3 0 0.7 0 15.5 0 31 0 0.3 0 0.5 0 5.1 0 10.2 0 2.5 0 5 0 0.3 0 0.5 0 8.1 0 16.2 0 8.3 0 16.6 0 1.2 0 2.3 0 0.3 0 0.5 0 3.7 0 7.4 0 3.7 0 7.5-0.1 2 0 4 0 1.9 0 3.7 0 0.7 0 1.4 0c4.3 0.1 4.3 0.1 8.2-1.6q0.3-0.1 0.6-0.2c0.3-0.4 0.3-0.4 0.4-0.8q0.1-0.2 0.2-0.5 0.1-0.2 0.2-0.4 0.1-0.2 0.2-0.5c0.2-0.4 0.2-0.4 0.4-1z"/>
	<path class="s14" d="m115.8 199.3q0.1 0 0.1 0c0 6.8 0 13.5 0 20.4-7.8 0-15.6 0-23.7 0 0.9-1.3 1.7-2.6 2.6-3.9q0.4-0.5 0.8-1.1 0.1-0.2 0.3-0.5 1.3-1.8 2.5-3.6 0.2-0.3 0.4-0.5 0.2-0.3 0.4-0.5 0.4-0.6 0.9-1.2c0.6 0.2 0.9 0.5 1.3 1q1 1.1 2 2.2 0.1 0.1 0.2 0.3c0.5 0.6 0.5 0.6 1.2 1 0.7 0 1.2 0 1.9-0.2q0.2-0.5 0.4-1 0.3-0.5 0.7-0.9 1.1-1.5 2.1-3.1 0.2-0.2 0.4-0.5 0.3-0.4 0.6-0.9 1.9-2.8 3.8-5.5 0.2-0.2 0.3-0.4 0.4-0.6 0.8-1.1z"/>
	<path class="s16" d="m82.8 57.7c0.8 0.9 1 1.7 1 2.9q0 0.3 0 0.6 0 0.2 0 0.4c0.2-0.1 0.2-0.1 0.3-0.2q0.3-0.1 0.5-0.2 0.2-0.1 0.5-0.2c0.4-0.2 0.4-0.2 1.2-0.2 0.4 0.9 0.5 1.6 0.5 2.5 0 0.2 0 0.2 0 0.5 0 1-0.1 2-0.7 2.9-0.5 0.3-0.5 0.3-1 0.4q-0.1-0.1-0.3-0.2c-0.8-0.1-1.1-0.1-1.8 0.4-0.5 0.8-0.5 1.1-0.4 2 0.4 1 0.8 1.8 1.8 2.3 1 0.3 1 0.3 1.9 0 0.1-0.3 0.1-0.3 0.2-0.6q-0.3 0.1-0.7 0.2c-0.7 0.1-0.8 0-1.5-0.4-0.5-0.6-0.9-1-1.1-1.7 0-0.8 0.1-1.1 0.6-1.6 0.8 0 1.1 0.1 1.7 0.7 0.2 0.2 0.2 0.2 0.4 0.5 0.3 0.1 0.3 0.1 0.6 0.2 0.4 0.7 0.3 1.6 0.3 2.4q0 0.3 0 0.6c0 1.7 0 1.7-0.5 2.5q-0.1-0.1-0.3-0.1c-2.4-0.6-5.4-0.7-7.6 0.5-0.6 0.5-1 0.8-1.2 1.6 0 0.7 0.1 1.4 0.3 2.1q-1.7-0.5-3.3-1.1c-0.9-0.4-1.8-0.7-2.8-0.9 0.3-0.7 0.6-1.2 1.1-1.8q0.1-0.2 0.3-0.4 0.4-0.5 0.8-1c0.8-0.8 0.8-0.8 1-1.9q-0.2-0.5-0.4-1c-0.7-1.9-0.2-4.4 0.2-6.2q-0.3-0.1-0.6-0.2-0.8-0.3-1.6-0.6c0.1-1.1 0.6-1.7 1.4-2.4 1.1-0.6 2.1-0.7 3.3-0.5 1.2 0.2 2 0 3.1-0.6q0.2 0 0.4-0.1c1.1-0.6 1.7-1.2 2.4-2.1z"/>
	<path class="s17" d="m241.3 96.5c1.5 2.8 1.1 6.4 1.1 9.4q0 0.8 0 1.6 0 2 0 4 0 1.6 0 3.2 0 0.5 0 0.9c0 0.3 0 0.3 0 0.5q0 4.4 0 8.8 0 4 0 8 0 4.1 0 8.2 0 2.3 0 4.6 0 2 0 3.9 0 1 0 2c0 7.2 0 7.2-2.1 9.9-2.4 2.3-6.4 2-9.5 2q-0.7 0-1.4 0-1.7 0-3.4 0-2 0-4.1 0-3.7 0-7.5 0-3.7 0-7.4 0c-0.3 0-0.3 0-0.5 0q-1.2 0-2.3 0-8.4 0-16.7 0-8.1 0-16.2 0-0.2 0-0.5 0-2.5 0-5 0-5.1 0-10.2 0-0.2 0-0.5 0-15.6 0-31.3-0.1-0.1-0.5-0.2-0.9c0.4 0 0.4 0 0.7 0q15.6 0 31.3 0c0.2 0 0.2 0 0.5 0q5.1 0 10.2-0.1 2.6 0 5.1 0 0.2 0 0.5 0 8.1 0 16.3 0 8.3 0 16.7 0 1.2 0 2.4 0 0.2 0 0.4 0 3.8 0 7.5 0 3.8 0 7.5 0 2.1 0 4.1 0 1.9 0 3.7 0 0.7 0 1.4 0c2.8 0.1 5 0 7.2-2 1.3-1.3 2-2.8 2-4.7 0-0.3 0-0.3 0-0.6q0-0.4 0-0.7c0-0.4 0-0.4 0-0.8q0.1-1 0.1-2 0-1.1 0-2.2 0-2 0-3.9 0-2.7 0-5.5 0-4.5 0-9 0-4.4 0-8.8c0-0.2 0-0.2 0-0.5q0-1.4 0-2.7 0.1-11.2 0.1-22.5z"/>
	<path class="s18" d="m251.5 94q0.4 0.1 0.8 0.2c0.4 2 0.4 3.9 0.4 5.9q0.3 0.1 0.6 0.2 0-2.6 0-5.1c0.4 0.8 0.4 0.8 0.4 1.6q0 0.2 0 0.4c0 0.3 0 0.3-0.1 0.6q0 0.5 0 1 0 0.9 0 1.8c-0.2 2.6-0.2 2.6 0.9 4.8q0.5 0.4 0.9 0.7 0.4 0.4 0.7 0.8 1.1 1.3 2.2 2.5 0.6 0.6 1.1 1.2 0.9 1 1.8 2 0.9 1 1.8 2 0.2 0.2 0.4 0.4c0.3 0.4 0.3 0.4 0.6 0.8q0.1 0.2 0.2 0.4 0.2 0.1 0.3 0.3c0.5 0.3 0.9 0.3 1.4 0.2 1-0.3 1.9-0.7 2.8-1q0.6-0.3 1.2-0.5 0.3-0.1 0.6-0.3c0.4-0.1 0.4-0.1 1-0.1 0.1 0.2 0.1 0.2 0.1 0.5q0.1 1 0.2 1.9 0.1 0.4 0.2 0.9 0 0.6 0.1 1.2c0.1 0.3 0.1 0.3 0.1 0.7q0.1 0.9 0.3 1.8c-2 0.6-4.1 1-6.2 1.4q-0.2 0-0.4 0.1c-2.2 0.3-2.2 0.3-3-0.3-1.2-1-2-2.3-3-3.5q-0.1-0.2-0.3-0.4c-1.7-2.3-3.2-4.7-4.8-7.1-0.1-0.2-0.1-0.2-0.3-0.5q-0.5-0.7-0.9-1.5-0.2-0.2-0.3-0.4-0.7-1-1.2-2.1c-0.4-0.6-0.6-0.8-1.2-1.1-1.5-0.9-2.9-2.7-3.5-4.4 0.1-0.5 0.1-0.5 0.2-1q0.2 0.2 0.4 0.3c0.3 0.2 0.3 0.2 0.6 0.4 0.3 0.2 0.3 0.2 0.6 0.4 0.5 0.3 0.5 0.3 1.1 0.5q0-1.1 0-2.1 0-0.3 0.1-0.7c0-1.1-0.1-2.2-0.3-3.3q0.5 0 1 0c0.3 0.7 0.3 1.4 0.3 2.1q0 0.2 0 0.4 0.1 0.9 0.1 1.9 0.3 0 0.6 0c0.1-2.4-0.1-4.6-0.6-6.9z"/>
	<path class="s18" d="m305.5 120.5c2.1 1.8 4.4 3.8 5.8 6.2q0.2 0.2 0.3 0.4c0.2 0.6 0.1 1-0.1 1.6-0.8 1.8-2.1 3.4-3.3 4.9q-0.1 0.2-0.3 0.4-1 1.2-2 2.4-0.3 0.5-0.7 0.9-1.4 1.8-2.9 3.5-0.8 0.8-1.5 1.7-0.2 0.3-0.4 0.6c-0.2 0.2-0.2 0.2-0.4 0.5-0.8 0.8-1.6 1-2.7 1.1q-0.5 0-1-0.1c-0.9 0-0.9 0-1.8 0q-0.8 1.6-1.6 3.3-0.5 0-1 0 0.1-0.1 0.1-0.3 0.3-0.7 0.6-1.4 0.1-0.2 0.2-0.5 0.1-0.2 0.2-0.4 0.1-0.3 0.1-0.5 0.3-0.6 0.4-1.2-0.4 0-0.8 0 0 0.2-0.1 0.4c-0.1 0.7-0.4 1.4-0.7 2q-0.1 0.2-0.2 0.4-0.2 0.5-0.4 0.9-0.4-0.1-0.7-0.1c0.1-1.1 0.4-1.9 0.7-2.8 0.5-1 0.5-1 0.6-2q-0.3-0.1-0.6-0.2 0 0.2-0.1 0.4-0.6 1.8-1.2 3.6-0.3-0.4-0.6-0.8 0.3-0.8 0.7-1.5 0.1-0.2 0.2-0.5c0.7-1.4 1.3-2.2 2.8-2.7 1-0.3 2-0.3 3-0.3q0.5-0.1 1.1-0.1 0.3 0 0.6 0c0.6-0.3 0.9-0.9 1.2-1.5q0.3-0.4 0.5-0.8c0.2-0.3 0.2-0.3 0.3-0.5 0.7-1.1 1.4-2.2 2.2-3.3q0.2-0.3 0.4-0.7 0.1-0.1 0.3-0.3 0.3-0.5 0.6-1 0.4-0.5 0.8-1.1 0.1-0.2 0.3-0.5 0.1-0.2 0.3-0.4c0.2-0.3 0.2-0.3 0.2-0.9-0.4-0.3-0.4-0.3-0.8-0.5q-0.2-0.2-0.5-0.3-0.2-0.2-0.5-0.3c-0.2-0.2-0.2-0.2-0.5-0.3q-0.6-0.4-1.3-0.8c0.3-2.3 1.9-4.8 3.7-6.3q0.2-0.2 0.5-0.3z"/>
	<path class="s1" d="m125.4 90.1q0 2.1 0 4.2 0 0.7 0 1.4 0 1 0 2.1 0 0.3 0.1 0.6c0 1.5 0 1.5-0.5 2.3-0.6 0.5-0.9 0.6-1.7 0.6q-0.3 0-0.6 0-0.3 0-0.6 0-0.3 0-0.6 0-1.1 0-2.2 0-0.3 0-0.7 0-1.5 0-3.1 0-2.2 0-4.4 0-1.7 0.1-3.4 0.1-0.7 0-1.5 0-1 0-2 0-0.3 0-0.7 0c-1.3 0-1.3 0-1.8-0.4-0.5-0.5-0.8-1.1-0.8-1.8q0-0.2 0-0.5c0-0.2 0-0.2 0-0.5 0-0.2 0-0.2 0-0.5q0.1-0.8 0.1-1.6 0-0.6 0-1.1 0-1.4 0-2.8c0.6 0.3 1.1 0.7 1.7 1.1 1.6 1.3 3.3 2.3 5.2 3.2q0.2 0.1 0.5 0.3c1.9 0.7 3.9 0.6 5.8-0.1q1.2-0.6 2.3-1.1 0.2-0.1 0.5-0.3c2.7-1.4 5.3-3.2 7.8-5 0.4-0.2 0.4-0.2 0.6-0.2z"/>
	<path fill-rule="evenodd" class="s19" d="m253.4 80.3c1 1.1 1.1 2.6 1.4 4q0.1 0.4 0.1 0.7 0.2 1 0.4 2 0.2 1 0.4 2 0.3 1.6 0.6 3.2 0.4 1.7 0.7 3.5 0.2 0.8 0.3 1.6 0.1 0.3 0.2 0.7c0.5 2.6 0.5 2.6-0.1 3.7-0.5 0.6-0.9 0.9-1.7 1q-0.2 0-0.5 0c-0.3 0.1-0.3 0.1-0.5 0.1q-0.2 0-0.4 0c0.2 1.2 0.6 1.7 1.5 2.6q0.6 0.5 1.1 1.1 1.2 1.4 2.5 2.8 0.6 0.7 1.3 1.5 0.4 0.5 0.9 1 1.9 2 3.6 4.2c2.8-1 2.8-1 5.6-2.1 0.3-0.1 0.3-0.1 0.7-0.1 0 0.5 0 0.5-0.2 1-0.5 0.3-0.5 0.3-1.2 0.5q-0.1 0.1-0.3 0.2-0.4 0.1-0.8 0.3-0.6 0.2-1.1 0.4c-2.2 0.9-2.2 0.9-3 0.7-0.4-0.2-0.4-0.2-0.7-0.5-0.1-0.2-0.1-0.2-0.3-0.4q-0.1-0.1-0.3-0.3-0.2-0.2-0.3-0.4-0.5-0.6-1-1.1-0.2-0.2-0.4-0.5-0.3-0.3-0.6-0.7-0.7-0.8-1.5-1.6-1-1.1-2.1-2.3-1.2-1.5-2.6-2.9-0.2-0.3-0.4-0.5-0.3-0.3-0.5-0.5c-0.6-0.7-0.8-1.1-0.8-2q0-0.3 0-0.6c0-0.3 0-0.3 0-0.6q0.1-0.3 0.1-0.6 0-0.8 0-1.5-0.1 0.2-0.2 0.4c-0.4-0.1-0.4-0.1-0.8-0.2q0-0.4 0-0.7c0-1.8 0-3.5-0.4-5.2q-0.2 0-0.4 0 0.1 0.3 0.1 0.6c0.4 2 0.6 4 0.5 6.1q-0.4 0-0.8 0.1c-0.1-0.5-0.2-1-0.2-1.6-0.1-0.3-0.1-0.3-0.1-0.5q0-0.3 0-0.5 0-0.3 0-0.6-0.1-0.6-0.1-1.3-0.5 0-1 0 0.1 0.4 0.2 0.7c0.3 1 0.3 1.9 0.3 2.9q0 0.3 0 0.6c0 1.2 0 1.2-0.3 1.9-0.7-0.1-1.2-0.3-1.9-0.8q-0.2-0.1-0.5-0.3-0.1-0.1-0.3-0.3c0.1 1.4 0.8 2.3 1.6 3.4 0.1 0.2 0.1 0.2 0.2 0.3 0.5 0.6 0.9 1 1.6 1.4 0.9 0.6 1.4 1.3 1.9 2.3 1.1 1.9 2.3 3.7 3.5 5.5q0.1 0.2 0.3 0.4c2.9 4.8 2.9 4.8 6.8 8.7 2.6 0.1 5.4-0.7 7.9-1.3 0.5-0.1 0.8 0 1.3 0.1q-0.1 0.4-0.2 0.8-1.2 0.3-2.4 0.5-0.5 0.1-0.9 0.2-0.6 0.1-1.2 0.2-0.3 0.1-0.7 0.2c-3.4 0.6-3.4 0.6-4.5 0.1-3.9-2.8-6.6-8.3-9.2-12.4q-0.1-0.2-0.3-0.5-0.3-0.4-0.6-0.9c-1.1-1.9-1.1-1.9-2.7-3.4-1.2-0.8-2.2-2.1-2.8-3.4q-0.3 0-0.6 0c-2.5 0.1-2.5 0.1-3.5-0.8-0.9-1.2-1.1-2.6-1.4-4.2q-0.1-0.4-0.2-0.8-0.2-1.1-0.4-2.2-0.2-1.1-0.4-2.1-0.3-1.3-0.5-2.6-0.4-1.9-0.8-3.9c0-0.3 0-0.3-0.1-0.6q-0.1-0.7-0.3-1.3c-0.5-2.4-0.5-2.4 0.1-3.5 0.7-0.9 1.4-1.2 2.5-1.3q0.6 0 1.1 0c0.3-0.1 0.3-0.1 0.5-0.1q0.6 0 1.2 0 0.9-0.1 1.8-0.2c5.9-0.3 5.9-0.3 7.2 0.5zm-6 0.4q-1.2 0-2.4 0.1-0.4 0-0.8 0.1c-2.1 0.1-2.1 0.1-4.1 0.5-0.7 1.2-0.3 2.6-0.1 3.9q0.1 0.3 0.2 0.6 0 0.3 0.1 0.7 0.2 1.1 0.4 2.1 0.3 1.2 0.5 2.3 0.1 0.7 0.3 1.5 0.4 2.1 0.8 4.3 0.1 0.7 0.3 1.4 0 0.4 0.1 0.9c0.2 1.6 0.2 1.6 1.1 3 0.7 0.3 1.1 0.4 1.8 0.4 0.3 0 0.3 0 0.6 0q0.2-0.1 0.4-0.1 0-0.2 0-0.5c0-0.8 0.3-1.1 0.8-1.6 0.8 0.3 1.6 0.7 2.3 1.1 0.1-1.6 0.1-3.1-0.3-4.7-2.3 0-2.3 0-4.6 0.2q0.1-0.4 0.2-0.8c2-0.2 2-0.2 4-0.3-0.1-0.7-0.1-0.7-0.2-1.4 0.6 0.2 0.6 0.2 0.9 0.8q0.1 0.3 0.2 0.6c0.5-0.1 0.5-0.1 1-0.2q-0.1-1.1-0.2-2.2c-3.2 0.1-3.2 0.1-6.4 0.2 0-0.3 0-0.3 0.1-0.6 3-0.2 5.9-0.4 8.9-0.6q0 0.4 0 0.8-0.2 0-0.4 0 0 0.2 0 0.4 0.2 0.2 0.4 0.4c0.9 1 1 1.9 1 3.2q0 0.2 0 0.4 0.1 0.6 0.1 1.3 0 0.4 0 0.8 0 1.1 0.1 2.1c1.1 0.1 1.1 0.1 2.1-0.4 0.7-1.3 0-3.3-0.3-4.7q0-0.3-0.1-0.7-0.2-1-0.4-2-0.3-1.3-0.6-2.6-0.1-0.8-0.3-1.6-0.3-1.7-0.7-3.5-0.1-0.8-0.3-1.7-0.1-0.5-0.2-1.1c-0.2-1.4-0.2-1.4-0.9-2.5-0.5-0.3-0.7-0.5-1.3-0.5q-0.2 0-0.4 0-0.3 0-0.5 0.1c-0.3 0-0.3 0-0.6 0q-1.3 0-2.6 0.1z"/>
	<path class="s20" d="m119.7 119.1c5.9 0 11.8 0 17.8 0 0 2.5 0 4.9 0 7.5-5.9 0-11.8 0-17.8 0 0-2.5 0-5 0-7.5z"/>
	<path class="s21" d="m262.3 15c1.1 0.9 2.2 2 2.6 3.5 0.1 2-0.1 3.7-1.3 5.4-1.4 1.4-2.7 1.6-4.6 1.8q0 2.1 0 4.3c-0.9 0.3-1 0.2-1.7-0.2-0.3-0.2-0.3-0.2-0.6-0.3q-0.3-0.2-0.5-0.3-0.6-0.4-1.2-0.7c-0.3-0.2-0.3-0.2-0.6-0.3q-1.1-0.7-2.3-1.3-0.3-0.1-0.7-0.3-0.2-0.2-0.5-0.3c0.1-0.5 0.1-0.7 0.5-1.1q0.2-0.1 0.4-0.2 0.2-0.1 0.5-0.2 0.2-0.2 0.4-0.3c0.2-0.1 0.2-0.1 0.5-0.3q0.5-0.3 1.1-0.6-0.1-0.2-0.2-0.4-0.1-0.5-0.3-1c-0.1-0.4-0.1-0.4-0.3-0.8-0.2-2.1-0.1-3.6 1.3-5.2 1.9-2.1 5-2.6 7.5-1.2z"/>
	<path class="s22" d="m138.5 119.1c3.6 0 3.6 0 5.2-0.1q1.5 0 3.1 0 1.3 0 2.5 0 0.5 0 1 0c3.3-0.1 3.3-0.1 4.7 1.1 0.4 0.4 0.4 0.4 0.7 0.8 0.1 0.2 0.1 0.2 0.3 0.4 0.9 1.6 0.4 3.1 0.4 5.3-5.9 0-11.8 0-17.9 0 0-2.5 0-5 0-7.5z"/>
	<path class="s23" d="m119.9 144.2c5.8 0 11.6 0 17.6 0 0 2.4 0 4.8 0 7.3-5.8 0-11.6 0-17.6 0 0-2.4 0-4.8 0-7.3z"/>
	<path class="s23" d="m138.7 136c5.8 0 11.7 0 17.7 0 0 2.4 0 4.8 0 7.2-5.9 0-11.7 0-17.7 0 0-2.4 0-4.8 0-7.2z"/>
	<path class="s23" d="m119.9 136c5.8 0 11.6 0 17.6 0 0 2.4 0 4.8 0 7.2-5.8 0-11.6 0-17.6 0 0-2.4 0-4.8 0-7.2z"/>
	<path class="s23" d="m138.7 127.5c5.8 0 11.7 0 17.7 0 0 2.4 0 4.8 0 7.3-5.9 0-11.7 0-17.7 0 0-2.4 0-4.8 0-7.3z"/>
	<path class="s23" d="m119.9 127.5c5.8 0 11.6 0 17.6 0 0 2.4 0 4.8 0 7.3-5.8 0-11.6 0-17.6 0 0-2.4 0-4.8 0-7.3z"/>
	<path class="s24" d="m102.4 106.1c42.3 0 84.6 0 128.1 0q0.1 0.4 0.2 0.8c-0.2 0.2-0.2 0.2-0.5 0.3q-0.3 0-0.5 0-0.3 0-0.6 0c-0.3 0-0.3 0-0.6 0q-0.3 0-0.7 0-1.1 0-2.2 0-0.8 0-1.5 0-1.8 0-3.5 0-2.6 0-5.1 0-4.4 0-8.7 0-4.3-0.1-8.6-0.1-0.2 0-0.5 0-1.3 0-2.7 0-9.6 0-19.1 0-9.3 0-18.7 0-0.2 0-0.5 0-2.9 0-5.8 0-5.9 0-11.7 0-0.3 0-0.6 0-18 0-36 0-0.1-0.5-0.2-1z"/>
	<path class="s0" d="m138.7 144.2c5.8 0 11.7 0 17.7 0 0 4.8 0 4.8-1 5.9q-0.2 0.2-0.4 0.4-0.2 0.1-0.4 0.3c-0.9 0.6-1.7 0.7-2.8 0.7q-0.2 0-0.4 0-0.7 0-1.4 0-0.5 0-1 0-1.3 0-2.6 0-1.5 0-3 0-2.4 0-4.7 0c0-2.4 0-4.8 0-7.3z"/>
	<path class="s25" d="m164.5 48.8c6.3-0.1 11.9 2.3 16.5 6.6 4.2 4.3 6.3 10.1 6.2 16.1-0.1 5.8-2.6 10.9-6.6 15.2-4.3 4.1-10 6.2-15.8 6.2-6-0.2-11.4-2.8-15.6-7-2.7-2.8-4.5-6.4-5.4-10.2q-0.1-0.2-0.1-0.5c-0.3-1.1-0.3-2.3-0.4-3.5q0-0.2 0-0.5c0-0.4 0-0.4 0.1-1.2 0.4-0.3 0.4-0.3 0.8-0.5q0 0.2 0 0.4c0.6 6.1 1.9 11.2 6.3 15.6q0.1 0.2 0.3 0.4c3.2 3.5 8.5 5.6 13.1 5.8 6 0.2 11.4-1.8 15.9-5.8 1.1-1.1 2-2.2 2.9-3.5 0.1-0.3 0.1-0.3 0.3-0.5 2.9-4.7 3.8-10.7 2.6-16-0.4-1.6-1.1-3-1.8-4.5q-0.1-0.3-0.3-0.6c-0.6-1.3-1.5-2.4-2.4-3.5q-0.2-0.2-0.4-0.4c-3.1-3.8-7.8-5.9-12.6-6.7q-0.2 0-0.4 0c-4.9-0.8-10.4 0.7-14.5 3.5q-0.5 0.4-1 0.9-0.2 0.2-0.5 0.4c-1.4 1.2-2.5 2.5-3.5 3.9-0.4 0.4-0.7 0.8-1.1 1.1-0.1-1.1 0-1.6 0.7-2.6 3.7-4.6 8.8-7.4 14.6-8.4 0.7-0.1 1.4-0.1 2.1-0.2z"/>
	<path fill-rule="evenodd" class="s13" d="m169.8 78h-9.6q-0.6 0-1.1-0.3-0.5-0.3-0.8-0.7-0.3-0.5-0.3-1.1 0-0.5 0.2-1l4.9-9.7q0.2-0.5 0.8-0.9 0.5-0.3 1.1-0.3 0.6 0 1.1 0.3 0.6 0.4 0.8 0.9l4.9 9.7q0.2 0.5 0.2 1 0 0.6-0.3 1.1-0.3 0.4-0.8 0.7-0.5 0.3-1.1 0.3zm-4.8-13q-0.3 0-0.6 0.2-0.3 0.1-0.5 0.4l-4.8 9.7q-0.1 0.3-0.1 0.6 0 0.3 0.2 0.5 0.1 0.3 0.4 0.5 0.3 0.1 0.6 0.1h9.6q0.3 0 0.6-0.1 0.3-0.2 0.4-0.5 0.2-0.2 0.2-0.5 0-0.3-0.1-0.6l-4.9-9.7q-0.1-0.3-0.4-0.4-0.3-0.2-0.6-0.2z"/>
	<path class="s13" d="m165 74q-0.2 0-0.4-0.1-0.1-0.2-0.1-0.4v-5q0-0.2 0.1-0.4 0.2-0.1 0.4-0.1 0.2 0 0.4 0.1 0.1 0.2 0.1 0.4v5q0 0.2-0.1 0.4-0.2 0.1-0.4 0.1z"/>
	<path class="s13" d="m165 76q-0.1 0-0.2 0-0.1-0.1-0.2-0.1 0-0.1-0.1-0.2 0-0.1 0-0.2 0-0.1 0-0.2 0.1-0.1 0.1-0.2 0.2-0.1 0.4-0.1 0.2 0 0.4 0.1 0 0.1 0.1 0.2 0 0.1 0 0.2 0 0.1 0 0.2-0.1 0.1-0.1 0.2-0.1 0-0.2 0.1-0.1 0-0.2 0z"/>
	<path class="s26" d="m221 79.8c1.1 1 2 2 2.1 3.6q0.1 0.4 0.1 0.8-0.1 0.2-0.1 0.4c0 1.9-0.9 2.9-2.2 4.3-0.8 1.1-1 2-1.4 3.3q-1.7 0-3.5 0c-0.1-0.4-0.1-0.4-0.1-0.9-0.3-1.5-1.2-2.5-2.2-3.6-1-1.1-1.3-2.4-1.3-3.9 0.2-1.6 0.9-2.6 2-3.7 2.1-1.7 4.3-1.5 6.6-0.3z"/>
	<path class="s9" d="m291.5 89.3q0 0.3 0 0.6c0.1 2.7 0.6 5 2.6 7q0.4 0.3 0.8 0.6c-0.3 2.2-1.6 4-3.2 5.5-1.2 1-2.3 1.3-3.9 1.3-1-0.2-1.5-0.7-2.2-1.5-1.1-1.8-1-4.3-0.5-6.3 0.8-3 2.6-5.5 5.3-7 0.5-0.2 0.5-0.2 1.1-0.2z"/>
	<path class="s27" d="m297.2 126.2c0.9 0.1 1.4 0.4 2.1 0.8 0.6 0.4 1 0.7 1.7 0.9 1.2 0.4 2.1 1.1 3.1 1.8-1.2 2.1-2.5 4-3.8 6q-0.5 0.7-1 1.4-0.3 0.5-0.6 0.9-0.1 0.2-0.3 0.5-0.1 0.1-0.2 0.3c-0.2 0.3-0.2 0.3-0.4 0.7q-1.9 0.1-3.9 0.2c-2.1-3.3-2.1-3.3-1.8-4.9 1-3.2 3.2-6 5.1-8.6z"/>
	<path class="s9" d="m292.5 103.2c0.3 0.6 0.1 0.8-0.1 1.4-0.4 1.5-0.7 3.5 0 4.9 0.4 0.8 0.3 1.4 0 2.3q-0.2 0.6-0.5 1.2-0.1 0.2-0.2 0.4c-0.9 2-2.2 4-4.3 4.9-1 0.3-1.9 0.4-2.9-0.1-1.2-1.5-1.4-3.5-1.4-5.4q0-0.2 0-0.4c0-1.5 0-1.5 0.2-1.9 0.4-0.3 0.4-0.3 0.8-0.4 1.2-0.5 1.9-1.2 2.5-2.3 0.4-0.9 0.6-1.9 0.8-2.8q0.3 0 0.7 0c1.7 0 3.1-0.8 4.4-1.8z"/>
	<path fill-rule="evenodd" class="s28" d="m208.4 39.6c0.3 0 0.3 0 0.6 0q1.1 0 2.2 0 0.7 0 1.5 0 1.6 0 3.2 0 1.8 0 3.6 0 1.8 0 3.5 0 0.8 0 1.5 0 1 0 2.1 0 0.3 0 0.6 0c1.8 0 1.8 0 2.5 0.6 0.7 0.8 1 1.3 1 2.3 0 0.3 0 0.3 0 0.6q0 0.3 0 0.6 0.1 0.3 0.1 0.6 0 1.1 0 2.2 0 0.4 0 0.7 0 1.8 0 3.5 0 2 0 4 0 1.8 0 3.5 0 0.8 0 1.5 0 1.1 0 2.1c0 0.3 0 0.3 0 0.6 0 1.2-0.1 1.8-0.9 2.7-0.7 0.7-1.3 0.9-2.2 0.9-0.3 0-0.3 0-0.6 0q-0.3 0-0.6 0-0.3 0-0.7 0-1 0-2.1 0-0.4 0-0.7 0-1.8 0-3.5 0-2 0-4 0-1.7 0-3.4 0-0.7 0-1.5 0-1 0-2 0c-0.3 0-0.3 0-0.6 0-1.3 0-2-0.1-3-0.9-0.8-0.8-0.7-2-0.7-3.1q0-0.3 0-0.7 0-1.1 0-2.2 0-0.7 0-1.5 0-1.6 0-3.2 0-1.8 0-3.6 0-1.8 0-3.6 0-0.7 0-1.5 0-1 0-2.1 0-0.3 0-0.6c0-1.2 0.1-1.9 0.9-2.8 0.9-0.8 2-0.6 3.2-0.6zm-2.8 1.6c-0.4 0.6-0.4 0.8-0.4 1.5q0 0.3 0 0.5 0 0.3 0 0.6 0 0.4 0 0.7-0.1 1-0.1 2.1 0 0.7 0 1.4 0 1.6 0 3.1 0 1.9 0 3.9 0 1.5 0 3 0 0.7 0 1.4 0 1 0 2.1 0 0.2 0 0.6c0 1.1 0.1 1.8 0.9 2.7 0.5 0.2 0.7 0.2 1.3 0.2 0.2 0 0.2 0 0.5 0q0.3 0 0.7 0c0.3 0 0.3 0 0.6 0q1.1 0 2.1 0 0.4 0 0.8 0 1.7 0 3.4 0 2 0 4 0 1.8 0 3.5 0 0.7 0 1.5 0 1 0 2 0c0.3 0 0.3 0 0.6 0 0.9 0 1.4 0 2.2-0.4 0.5-0.6 0.6-0.9 0.6-1.7q0-0.3 0-0.6 0-0.3 0-0.6 0-0.3 0-0.6 0-1.1 0-2.2c0-0.3 0-0.3 0-0.7q0-1.5 0-3.1 0-2.2 0-4.4 0-1.7 0-3.4 0-0.8 0-1.5 0.1-1 0-2.1 0.1-0.3 0.1-0.6c-0.1-0.9-0.1-1.3-0.6-2.1-0.7-0.5-1.2-0.6-2-0.6-0.3 0-0.3 0-0.6 0q-0.3 0-0.6 0-0.3 0-0.6 0-1 0-2.1 0-0.3 0-0.7 0-1.9 0-3.7 0-2 0-3.9 0-1.5-0.1-3-0.1-0.7 0-1.4 0-1 0-2 0c-0.3 0-0.3 0-0.6 0-1.1 0-1.7 0.1-2.5 0.9z"/>
	<path class="s29" d="m198.3 129.1c2.1 0.9 3 3.5 3.9 5.4 0.7 1.5 1.4 3 2.3 4.4 0.3 0.4 0.3 0.4 0.5 1q0.4 0.1 0.7 0.2 0.2 0 0.4 0c0.8 0 1.2-0.5 1.7-1q0.5-0.7 0.9-1.5 0.3-0.4 0.5-0.8c0.2-0.2 0.2-0.2 0.3-0.4 1-1.8 2.1-3.4 3.9-4.5 0.9-0.1 1.6-0.1 2.4 0.4 2 1.6 3 4.1 4 6.3 1 2.4 1 2.4 2.7 4.2 0.6 0.2 0.6 0.2 1.2 0 1.6-1.2 2-3.9 2.5-5.7 0.6-2.2 0.6-2.2 1.6-3.1 0.5-0.1 0.5-0.1 1 0q0 0.4 0 0.8-0.3 0.1-0.6 0.2c-0.9 1.3-1.2 3-1.5 4.5-0.5 1.7-1.1 3.3-2.7 4.3-0.8 0.3-1.2 0.3-2-0.1-1.8-1.1-2.6-3.3-3.4-5.2-1.4-3.1-1.4-3.1-3.6-5.5-1.1-0.1-1.1-0.1-2.1 0.4-0.6 0.6-1 1.2-1.5 1.9q-0.1 0.1-0.2 0.3-0.3 0.6-0.7 1.2c-2.3 3.6-2.3 3.6-3.5 4.3-0.9 0.1-1.6 0.1-2.4-0.4-1.8-1.7-2.7-4.3-3.8-6.6-0.5-1.1-1-2.2-1.8-3.1-0.3-0.3-0.3-0.3-0.3-0.7-0.6-0.2-0.6-0.2-1.3-0.2-2.5 2.1-3.7 6.6-4.9 9.6q-0.1 0.3-0.3 0.7-0.2 0.7-0.5 1.4c-0.6 1.5-1.3 2.7-2.4 3.8-1 0-1.6-0.5-2.3-1.1-0.6-0.7-1.1-1.4-1.6-2.1-1.7-2.2-1.7-2.2-3.9-3.7-0.6 0-0.9-0.1-1.3 0.2-2.5 2.9-3.6 6.8-4.6 10.4q-0.4 0-0.8 0c-0.1-1.1 0.2-1.9 0.5-3q0.1-0.2 0.2-0.5c1-2.9 2.1-5.7 4.4-7.9 0.6-0.3 1.1-0.2 1.8-0.2 1.4 0.5 2.2 1.3 3.2 2.4 0.2 0.3 0.2 0.3 0.4 0.6q0.3 0.3 0.5 0.6 0.5 0.5 0.9 1.1 0.2 0.3 0.4 0.5c0.7 0.8 0.7 0.8 1.4 1.5 0.4 0 0.4 0 0.8-0.2 0.3-0.5 0.6-1 0.8-1.5 0.1-0.3 0.1-0.3 0.2-0.5 0.8-1.7 1.5-3.5 2.2-5.2 3.1-8.2 3.1-8.2 5.8-7.9z"/>
	<path class="s0" d="m144.4 57.3c1 1.1 0.9 2.6 0.8 4-0.4 3.5-2.2 7-4.9 9.1q-0.9 0.6-1.8 1c-0.2 0.1-0.2 0.1-0.4 0.2-1 0.1-1 0.1-1.5-0.2-1-1.4-0.8-3.3-0.5-4.9 0.9-3.8 2.9-6.9 6.1-9 0.7-0.3 1.5-0.3 2.2-0.2z"/>
	<path class="s30" d="m64.2 161.9c6.3-0.3 6.3-0.3 7.6 0.7q0.6 0.7 1.2 1.4 0.2 0.1 0.4 0.2c0 2.3 0 4.5 0 6.9-3.1 0-6.1 0-9.2 0 0-3.1 0-6.1 0-9.2z"/>
	<path class="s31" d="m107.1 119.1c3.8 0 7.7 0 11.6 0 0 2.4 0 4.8 0 7.3-3 0-6 0-9 0q-0.7-1.7-1.3-3.3c-0.2-0.6-0.2-0.6-0.4-1.1q-0.2-0.4-0.3-0.8c-0.1-0.2-0.1-0.2-0.2-0.4-0.2-0.6-0.4-1.1-0.4-1.7z"/>
	<path class="s32" d="m103 55.5q0.2 0 0.5 0 0.3 0 0.6 0 0.4 0 0.7 0 1.1 0 2.1 0 0.8 0 1.5 0 1.6 0 3.2 0 1.8 0 3.6 0 1.7-0.1 3.5-0.1 0.7 0 1.4 0 1.1 0 2.1 0 0.3 0 0.6 0c1.2 0 1.9 0.1 2.8 0.9 0.8 1 0.9 1.8 0.9 3.1q0 0.2 0 0.5 0 0.9 0 1.8 0 0.7 0 1.3 0 1.6 0 3.3 0 1.7 0 3.4 0 3.3 0 6.6 0.4-0.2 0.7-0.3c1.4-0.9 1.4-0.9 2.2-0.8q0.3 0.1 0.5 0.1-0.1 0.3-0.2 0.6c-0.5 0.3-0.5 0.3-1.1 0.5-1.4 0.5-2.5 1.2-3.2 2.6q-0.1 0.2-0.2 0.5c-0.3-0.2-0.3-0.2-0.6-0.4 0.1-0.7 0.2-1 0.6-1.6 0-0.4 0-0.4 0-0.8 0-0.3 0-0.3 0-0.5q0-0.3 0-0.6c0-0.3 0-0.3 0-0.6q0-0.9 0-1.9 0-0.7 0-1.3 0.1-1.4 0.1-2.8 0-1.8 0-3.6 0-1.4 0-2.8 0-0.7 0-1.3 0-1 0-1.9 0-0.3 0-0.5c0-0.8 0-1.3-0.5-1.9-0.9-0.4-1.8-0.4-2.7-0.4-0.4 0-0.4 0-0.7 0q-1.1 0-2.1 0-0.8 0-1.5 0-1.6 0-3.1 0-2 0.1-4 0.1-1.9 0-3.8 0c-0.4 0-0.4 0-0.7 0q-1.1 0-2.1 0-0.3 0-0.6 0-0.3 0-0.6 0c-0.2 0-0.2 0-0.5 0-0.4 0-0.4 0-1 0.2-0.1 0.6-0.2 0.9-0.2 1.4q0 0.3 0 0.6 0 0.3 0 0.6 0 0.3 0 0.6 0 1 0 2 0 0.7 0 1.3-0.1 1.9-0.1 3.7 0 1.8 0 3.7 0 3.6-0.1 7.3-0.4-0.2-0.9-0.4-0.1-4-0.1-7.9 0-1.8 0-3.7 0-1.8-0.1-3.5 0-0.7 0-1.4 0-0.9 0-1.9 0-0.2 0-0.5c0-1.2 0.2-1.8 1-2.6 0.7-0.5 1.2-0.7 2.1-0.7z"/>
	<path class="s17" d="m97.9 31.6q0.4 0 0.8 0 0.4 0 0.8 0 0.4 0 0.8 0 1.1 0 2.3 0 1.2 0 2.4 0 2.2 0 4.5 0 2.5 0 5.1 0 5.3 0 10.6 0c0.1 0.4 0.1 0.4 0.2 0.8-0.2 0.2-0.2 0.2-0.7 0.2q-0.3 0-0.6 0-0.4 0-0.8 0-0.4 0-0.8 0-0.4 0-0.8 0-0.9 0-1.8 0-1.4 0-2.9 0-0.2 0-0.5 0-0.4 0-0.9 0-3.4 0-6.7 0-2.3 0-4.5 0-1.2 0-2.4 0-1.1 0-2.2 0-0.4 0.1-0.8 0c-1.7 0-2.9 0.1-4.2 1.2-1.1 1-1.5 2.1-1.5 3.5q0 0.3 0 0.5 0 0.7 0 1.4 0 0.5 0 1 0 1.3 0 2.7 0 1.4 0 2.8 0 2.7 0 5.4-0.1 3.1-0.1 6.1 0 6.4 0 12.7c-0.4 0.1-0.4 0.1-0.8 0.2-0.4-0.4-0.2-1-0.2-1.5q0-0.2 0-0.5 0-0.6 0-1.3 0-0.5 0-1 0-1.4 0-2.7 0-0.9 0-1.7 0-2.6 0-5.3 0-3-0.1-6 0-2.4 0-4.7 0-1.4 0-2.8 0-1.4 0-2.7 0-0.5 0-0.9c0-2.3 0.2-4.2 1.8-5.9 1.1-1.1 2.5-1.6 4-1.5z"/>
	<path class="s33" d="m90.3 193c0.3 0 0.3 0 0.6 0 0.3 0 0.3 0 0.6 0q0.4 0 0.8 0c0.4 0 0.4 0 0.7 0q1.1 0 2.1 0 1.1 0 2.2 0 2.1 0 4.2 0 2.4 0 4.7 0 4.9 0 9.7 0.1c-0.3 0.9-0.3 0.9-0.5 1.1q-0.5 0.1-1 0.1-0.3 0-0.6 0c-0.4 0-0.4 0-0.7 0-0.4 0-0.4 0-0.7 0q-1 0-2 0-1 0-2.1 0-1.9 0-3.9-0.1-2.2 0-4.4 0-4.6 0-9.2 0 0 0.2 0 0.4 0.1 4 0.1 8.1 0 1.9 0 3.9 0 1.9 0 3.8 0 0.7 0 1.4 0.1 1 0 2.1 0.1 0.3 0.1 0.6c0 1.3-0.3 1.9-1.1 2.9q-0.1 0-0.2 0 0-4.7 0-9.4-0.1-2.2-0.1-4.4 0-1.9 0-3.8 0-1 0-2.1 0-1.1 0-2.2 0-0.3 0-0.7 0-0.3 0-0.6 0-0.3 0-0.5c0.1-0.6 0.1-0.6 0.7-0.7z"/>
	<path class="s24" d="m173.6 156q0.3 0 0.6 0 0.3 0 0.6 0 0.3 0 0.6 0 0.4 0 0.7 0 1 0 2 0 1.1 0 2.1 0 1.8 0 3.7 0 2.6 0 5.2 0 4.3 0 8.6 0 4.2 0 8.4 0 0.2 0 0.5 0 1.3 0 2.5 0 10.7 0 21.4 0c0.1 0.4 0.1 0.4 0.2 0.8-0.2 0.2-0.2 0.2-0.6 0.2q-0.2 0-0.5 0-0.3 0-0.6 0-0.3 0-0.7 0-0.3 0-0.7 0-1 0-1.9 0-1.1 0-2.2 0-1.8 0-3.6 0-2.7 0-5.3 0-4.3 0-8.6 0-4.1 0-8.3 0-0.3 0-0.5 0-1.3 0-2.6 0-10.7 0-21.4 0c-0.1-0.4-0.1-0.4-0.2-0.8 0.2-0.2 0.2-0.2 0.6-0.2z"/>
	<path fill-rule="evenodd" class="s34" d="m226.3 76.6c2.9 2.3 4.9 5.6 5.4 9.3 0.3 4.1-0.7 7.7-3.3 10.8q-0.2 0.3-0.4 0.5c-2.4 2.9-6.1 4.1-9.7 4.5-3.8 0.1-7.5-1.4-10.3-4-2.9-3.1-4.1-6.8-4-11 0.1-3.7 1.8-6.9 4.5-9.4 5.2-4.4 12.2-4.7 17.8-0.7zm-18 1.9c-0.2 0.2-0.2 0.2-0.4 0.4-2.3 2.3-3.2 5.5-3.3 8.7 0 3.8 1.4 6.9 4 9.7 2.7 2.5 5.8 3.6 9.5 3.6 3.6-0.1 6.7-1.5 9.3-4 2.5-2.6 3.8-6 3.7-9.6-0.2-3.7-1.7-7-4.4-9.5-5.3-4.6-13.4-4.4-18.4 0.7z"/>
	<path class="s35" d="m110.3 127.5c2.7 0 5.5 0 8.4 0 0 2.4 0 4.8 0 7.3q-2.8 0-5.7 0-1-2.4-1.9-4.7-0.1-0.3-0.3-0.7-0.1-0.2-0.2-0.5-0.1-0.3-0.2-0.6c-0.1-0.4-0.1-0.4-0.1-0.8z"/>
	<path class="s3" d="m117.1 197.6q0 4.5 0 9 0 2.1 0 4.2 0 2 0 4.1 0 0.7 0 1.5 0 1.1 0 2.2 0 0.3 0.1 0.6 0 0.3 0 0.6c0 0.3 0 0.3 0 0.5-0.1 0.4-0.1 0.4-0.3 0.6q-0.5 0-1 0c-0.3 0-0.3 0-0.6 0q-0.4 0-0.7 0c-0.4 0-0.4 0-0.8 0q-1 0-2 0-1.1 0-2.2 0-2 0-4 0-2.4 0-4.7 0-4.7 0-9.5 0 0.3-0.6 0.6-1.2c8 0 15.9 0 24.1 0 0-6.9 0-6.9 0-13.8 0-1.4 0-1.4 0-2q0-0.6 0-1.3 0-1 0-2 0-0.3-0.1-0.6c0.1-0.9 0.1-1.3 0.5-2.1 0.4-0.3 0.4-0.3 0.6-0.3z"/>
	<path class="s36" d="m93.2 15.3c0.1 0.4 0.1 0.4 0.2 0.8-0.4 0.4-1 0.3-1.5 0.3q-0.4 0-0.8 0-0.6 0.1-1.2 0.1c-7.6 0.4-14.3 3-20.1 8q-0.2 0.2-0.4 0.4c-1 0.9-1.9 1.8-2.7 2.8q-0.2 0.2-0.4 0.5c-5.1 5.8-8.7 13.3-10.4 20.9q-0.4 0.1-0.8 0.2c-0.3-1 0-1.6 0.3-2.5 0-0.2 0-0.2 0.1-0.4q0.1-0.5 0.3-0.9 0.2-0.5 0.3-1c1.6-5 4-9.8 7.1-14.1q0.1-0.2 0.2-0.3c1.2-1.6 2.5-3.1 3.8-4.5q0.4-0.4 0.7-0.7c4.7-5 11.5-8.1 18.2-9.2q0.4-0.1 0.7-0.1c2.2-0.3 4.3-0.3 6.4-0.3z"/>
	<path class="s10" d="m191.9 94.6c3.1 0 6.2 0 9.4 0q0 2.6 0 5.3c-3.1 0-6.2 0-9.4 0q0-2.6 0-5.3z"/>
	<path class="s37" d="m218.2 80.1c0.6 0 0.6 0 1.3 0.2q0.2 0.3 0.3 0.6c0.2 0.7 0.2 0.7 0.7 0.9q0.2 0.1 0.4 0.1c0.4 0.2 0.4 0.2 0.8 0.3 0.2 0.6 0.2 0.6 0.2 1.2q-0.2 0.2-0.4 0.4c-0.1 0.6-0.1 0.6 0 1.2q0.2 0.2 0.4 0.4c0 0.5 0 0.5-0.2 1.1-0.5 0.3-1 0.5-1.6 0.6-0.4 0.2-0.4 0.2-0.6 0.8-0.1 0.3-0.1 0.3-0.2 0.6-0.6 0-0.6 0-1.3 0q-0.2-0.3-0.4-0.6c-0.7 0-0.7 0-1.4 0-0.8 0-1-0.1-1.6-0.6q0.1-0.3 0.1-0.6c0.2-0.7 0.2-0.7-0.1-1.3q-0.5-0.1-1-0.2c0-1.1 0-1.1 0-1.6 0.5-0.4 0.5-0.4 1-0.6 0.2-0.5 0.2-0.8 0.2-1.3 0-0.5 0-0.5 0.4-0.8 0.6-0.4 1.2-0.2 1.9 0q0.2-0.1 0.5-0.1c0.3-0.3 0.3-0.3 0.6-0.7z"/>
	<path fill-rule="evenodd" class="s38" d="m220.7 78.8c1.5 0.9 2.3 2 3 3.6 0.4 1.7 0.3 3.4-0.6 4.9q-0.7 0.8-1.4 1.6c-1.1 1.5-1.3 2.7-1.2 4.6q0 0.6 0 1.2 0.1 0.3 0.1 0.6c-0.1 0.5-0.1 0.5-0.3 0.8-0.4 0.2-0.4 0.2-1.2 0.2q-0.1 0.3-0.1 0.5c-0.3 0.5-0.3 0.5-0.4 0.7-1.3 0.1-1.3 0.1-1.8-0.2-0.2-0.4-0.2-0.4-0.2-1q-0.2 0.1-0.5 0.1c-0.5-0.1-0.5-0.1-0.9-0.5 0-0.4 0-0.4 0-1 0-0.3 0-0.3 0-0.6q0.1-0.6 0.1-1.2c0-1.8-0.4-3-1.5-4.3q-0.2-0.2-0.4-0.4c-1.3-1.5-1.7-2.9-1.6-4.9 0.2-1.7 1-3 2.2-4 2.1-1.4 4.4-1.7 6.7-0.7zm-7.2 2.2c-1 1.3-1.2 2.6-1 4.2 0.2 1.4 0.9 2.2 1.9 3.2 1 1.2 1.4 2.3 1.6 3.8q1.7 0 3.5 0 0.1-0.5 0.3-1c0.3-1.1 0.7-1.8 1.5-2.7q0.4-0.5 0.7-0.9c0.2-0.2 0.2-0.2 0.4-0.4 0.9-1.4 0.8-3 0.7-4.6-0.5-1.5-1.6-2.5-3-3.3-2.5-1-4.8-0.2-6.6 1.7z"/>
	<path class="s39" d="m258.6 21.2c0.2 0.6 0.2 1.1 0.2 1.7 0 0.3 0 0.3 0.1 0.7q0 0.3 0 0.7 0 0.3 0 0.7 0.1 2.5 0.1 5c-0.5 0.2-0.8 0.3-1.3 0.1q-0.2-0.2-0.4-0.3-0.3-0.2-0.6-0.3-0.3-0.2-0.5-0.3-0.6-0.4-1.2-0.7-0.3-0.2-0.6-0.3-1.1-0.7-2.3-1.3-0.3-0.1-0.7-0.3-0.2-0.2-0.5-0.3c0.1-0.5 0.2-0.7 0.5-1.1 0.2-0.1 0.2-0.1 0.4-0.2 0.3-0.1 0.3-0.1 0.5-0.3q0.2-0.1 0.5-0.3 0.5-0.3 1-0.6 0.3-0.2 0.5-0.3 0.8-0.5 1.5-0.9 0.2-0.2 0.4-0.3 0.4-0.3 0.8-0.5c0.9-0.6 0.9-0.6 1.6-0.6z"/>
	<path class="s18" d="m126.3 175c0.6 0.7 0.6 0.7 0.6 1.2q-1 0.6-2.1 1.2 0 0.3 0 0.5 0.7-0.2 1.3-0.6 0.2-0.1 0.5-0.2 0.1-0.1 0.3-0.2c0.4-0.1 0.4-0.1 0.8 0 0.4 0.3 0.7 0.5 1 0.9 0.8 0.8 1.7 1.4 2.7 2q0.2 0.1 0.4 0.3 0 0.1 0 0.2c-4.2 0-8.5 0-12.9 0-0.6-1.6-0.6-1.6-0.4-2.2 0.5-0.2 0.5-0.2 1.1-0.5q0.3-0.1 0.6-0.3c0.4-0.1 0.4-0.1 0.7-0.3 0.4-0.2 0.4-0.2 0.7-0.3q0.7-0.3 1.4-0.6 0.6-0.3 1.2-0.6 0.3-0.1 0.6-0.3 0.3-0.1 0.5-0.2c0.5-0.2 0.5-0.2 1 0z"/>
	<path class="s9" d="m92.8 176.2c0.1 0.4 0.1 0.4 0.2 0.8q-1.6 0.2-3.1 0.4c0.1 0.3 0.1 0.3 0.2 0.5q0.3 0 0.7 0 0.5-0.1 1.1-0.1 0.2 0 0.5-0.1c1.2-0.1 1.2-0.1 1.9 0.5q0.2 0.3 0.5 0.5c0.5 0.4 0.5 0.4 1 0.7 0.5 0.3 0.9 0.5 1.3 0.9-4.5 0-9 0-13.7 0q0-1.6 0-3.3 1.8-0.2 3.5-0.5 0.6 0 1.2-0.1 0.9-0.1 1.8-0.2c0.2 0 0.2 0 0.5-0.1 0.9-0.1 1.6-0.2 2.4 0.1z"/>
	<path class="s40" d="m145.2 56.3c1 0.5 1.6 1.1 1.9 2.2 0.6 3.2-0.1 6.7-2 9.4-0.7 1.2-0.7 2.4-0.7 3.7q-0.1 0-0.2 0-0.1-0.9-0.2-1.9c-0.4 0.4-0.5 0.5-0.5 1.2 0 0.3 0 0.3-0.1 0.7q-0.2-0.4-0.4-0.8c-0.2 0.2-0.2 0.2-0.4 0.4q-0.2 0.2-0.5 0.4-0.3 0.2-0.5 0.4c-1 0.7-1.6 1-2.8 1.1-0.8 0.1-1.2 0.1-1.7 0.8q-0.4 0.9-0.7 1.8 0.9 0.2 1.9 0.4 0 0.4 0 0.8-0.2 0-0.3 0c-3.1-0.1-5.8 0.1-8.7 1q-0.1-0.4-0.2-0.8c0.9-0.5 1.7-0.7 2.7-0.9q0.2 0 0.4-0.1c0.9-0.2 0.9-0.2 1.4-0.2 0.1-0.2 0.1-0.2 0.2-0.5 0.2-0.7 0.5-1.3 0.9-2q0.2-0.3 0.4-0.7 0.1-0.2 0.3-0.5 0.2 0.1 0.4 0.2c1.1 0.4 2 0.4 3.1 0 3.5-1.6 5.4-4.7 6.7-8.2 0.5-1.3 0.6-2.4 0.6-3.7q0-0.3 0-0.5c0-1.4-0.4-2.5-1-3.7z"/>
	<path class="s36" d="m83.8 13.4q0.1 0.3 0.2 0.7-1.2 0.4-2.3 0.6c-6.2 1.4-11.4 4.5-16 8.9q-0.2 0.2-0.5 0.4c-3.3 3.2-5.8 7.4-7.9 11.5q-0.4-0.1-0.8-0.2c1.9-7.1 8.9-14.1 15.1-17.7q1-0.6 2-1.1 0.2-0.1 0.4-0.2c2.9-1.5 6.5-3 9.8-2.9z"/>
	<path class="s7" d="m126.3 89.3q0.1 2.3 0.1 4.6 0 0.8 0 1.6 0 1.1 0 2.2 0 0.4 0 0.8c0 2 0 2-0.8 2.9-1.1 1-2 0.9-3.4 0.9-0.3 0-0.3 0-0.6 0q-1.1 0-2.2 0-0.7 0-1.5 0-1.6 0-3.1 0-1.8 0-3.6 0-1.8 0-3.5 0-0.8 0-1.5 0-1 0-2.1 0c-0.3 0-0.3 0-0.6 0-1.4 0-1.4 0-2-0.4-0.3-0.5-0.3-0.9-0.3-1.4 0.2 0.1 0.2 0.1 0.4 0.2 0.5 0.4 0.7 0.4 1.4 0.4q0.2 0 0.5 0 0.3 0 0.6 0c0.4 0 0.4 0 0.7 0q1 0 2.1 0 0.8 0 1.5 0 1.5 0 3.1 0 1.8 0 3.6 0.1 1.7 0 3.4 0 0.8 0 1.5 0 1 0 2.1 0 0.3 0 0.6 0c1.1 0 1.1 0 2.1-0.6q0.2-0.3 0.4-0.5 0.1-0.1 0.2-0.2 0-0.5 0-1 0-0.3 0-0.6 0-0.3 0-0.7 0-0.7 0-1.4 0-1.1 0-2.2 0.1-1 0.1-2.1 0-0.3 0-0.6c0-0.3 0-0.3 0-0.7q0-0.2 0-0.5c0-0.2 0-0.2 0.1-0.4 0.6-0.4 0.6-0.4 0.7-0.4z"/>
	<path class="s41" d="m94 163q0.4 0.1 0.9 0.1c1.5 0.2 2.9 0.2 4.5 0.2q0.4 0 0.9 0 1.2 0 2.3-0.1 1.3 0 2.5 0 2.4 0 4.8 0 0.4 1.1 0.8 2.2c-5.5 0-11.1 0-16.7 0q0-1.2 0-2.4z"/>
	<path class="s42" d="m76.3 157.7c0 1.8-0.3 3.5-0.6 5.3q0 0.3-0.1 0.6c-0.2 1.5-0.2 1.5-0.5 2-0.7-0.3-1.3-0.8-2-1.4q-0.2-0.1-0.3-0.2-0.6-0.5-1.2-1-0.4-0.3-0.8-0.6-1.1-0.9-2.1-1.7c0.6-0.6 1.3-0.8 2.1-1.1q0.1-0.1 0.3-0.2 0.6-0.2 1.2-0.4 0.6-0.2 1.2-0.4 0.6-0.2 1.1-0.4c1.1-0.5 1.1-0.5 1.7-0.5z"/>
	<path class="s43" d="m113.4 135.8q2.6 0 5.3 0c0 2.4 0 4.9 0 7.4q-1.3 0-2.6 0-0.4-1.2-0.9-2.5-0.2-0.4-0.4-0.9-0.2-0.6-0.5-1.2 0-0.2-0.1-0.4c-0.3-0.8-0.6-1.6-0.8-2.4z"/>
	<path class="s17" d="m130.6 31.6q0.3 0 0.6 0c0.4 0 0.4 0 0.8 0q0.4 0 0.8 0 0.4 0 0.9 0 1.2 0 2.3 0 1.3 0 2.5 0 2.4 0 4.7 0 2.7 0 5.3 0 5.5 0 11 0 0.1 0.5 0.2 1c-9.8 0-19.6 0-29.6 0q-0.1-0.4-0.2-0.8c0.2-0.2 0.2-0.2 0.7-0.2z"/>
	<path class="s44" d="m74.8 71.8q0.1 0.2 0.3 0.4c0.7 0.7 1.4 1.2 2.2 1.8 0.4 0.4 0.6 0.6 0.8 1.2q-0.2 0.1-0.4 0.2c-0.6 0.8-0.5 1.4-0.4 2.3q0.1 0.4 0.2 0.8-1.7-0.5-3.3-1.1c-0.9-0.4-1.8-0.7-2.8-0.9 0.3-0.7 0.6-1.2 1-1.8q0.2-0.2 0.4-0.5 0.2-0.2 0.4-0.5 0.2-0.2 0.4-0.5c0.9-1.1 0.9-1.1 1.2-1.4z"/>
	<path class="s45" d="m83.4 181.3q3 0 6 0 1.4 0 2.8-0.1 1.4 0 2.7 0 0.6 0 1.1 0 0.7 0 1.4 0 0.2 0 0.4 0c0.4 0 0.4 0 1.1 0.1 0.4 0.6 0.4 0.6 0.4 1.2-5.3 0-10.5 0-15.9 0q0-0.6 0-1.2z"/>
	<path class="s46" d="m105.5 45.3q0.2 0 0.5 0c0.3 0 0.3 0 0.5 0q0.9 0 1.7 0 0.6 0 1.2 0 1.5 0 3.1 0 1.6 0 3.1 0 3.1 0 6.2 0c0.1 0.4 0.1 0.4 0.2 0.8-0.3 0.4-0.8 0.2-1.3 0.2q-0.2 0-0.5 0c-0.2 0-0.2 0-0.5 0q-0.9 0-1.7 0-0.6 0-1.2 0-1.5 0-3.1 0-1.6 0-3.1 0-3.1 0-6.2 0c-0.1-0.4-0.1-0.4-0.2-0.8 0.3-0.3 0.8-0.2 1.3-0.2z"/>
	<path class="s47" d="m257.8 22.6q0.1 3.1 0.2 6.3-2.8-1.4-5.5-2.8 0-0.2 0-0.4 0.5-0.4 1.1-0.7c0.2-0.1 0.2-0.1 0.3-0.2q0.4-0.2 0.8-0.5 0.5-0.3 1.1-0.6c1.8-1.1 1.8-1.1 2-1.1z"/>
	<path class="s45" d="m119.1 181.3q2.8 0 5.6-0.1 1.3 0 2.5 0 1.3 0 2.5 0 0.5 0 1 0 0.7 0 1.3 0c0.4 0 0.4 0 0.8 0 0.6 0.1 0.6 0.1 1 0.5 0.2 0.4 0.2 0.4 0.2 0.8-4.9 0-9.7 0-14.7 0q-0.1-0.6-0.2-1.2z"/>
	<path class="s48" d="m77.7 39.3c0.7 0.4 1.1 0.8 1.4 1.5 0 1-0.1 1.6-0.7 2.4-0.8 0.6-1.5 0.7-2.5 0.6-0.7-0.3-0.9-0.5-1.3-1.2-0.3-0.7-0.3-1.1-0.2-1.8 0.8-1.5 1.6-1.8 3.3-1.5z"/>
	<path class="s49" d="m135.4 72.2c0.7 0.3 1.4 0.6 2.1 1q-0.6 1.2-1.1 2.5c0.9 0.2 0.9 0.2 1.9 0.4q0 0.4 0 0.8-0.2 0-0.3 0c-3.1-0.1-5.8 0.1-8.7 1q-0.1-0.4-0.2-0.8c0.9-0.5 1.7-0.7 2.7-0.9 0.2 0 0.2 0 0.4-0.1 0.9-0.2 0.9-0.2 1.4-0.2q0.1-0.2 0.2-0.5c0.2-0.7 0.5-1.3 0.9-2q0.2-0.3 0.4-0.7 0.1-0.2 0.3-0.5z"/>
	<path class="s50" d="m142.9 56.7q0.3 0 0.7 0c0.1 0.2 0.1 0.2 0.2 0.4-0.2 0.1-0.2 0.1-0.4 0.1-2.8 1-4.6 3.1-5.9 5.8-1 2.3-1.9 5-1.2 7.5 0.2 0.4 0.2 0.4 0.4 0.9-0.6-0.3-1-0.5-1.3-1.2-0.9-2.3-0.2-5 0.8-7.2q0.7-1.3 1.5-2.6 0.2-0.2 0.4-0.5c1.1-1.4 2.8-3.3 4.8-3.2z"/>
	<path class="s51" d="m209.5 57.5c5.2 0 10.4 0 15.7 0q-0.1 0.5-0.2 1c-5 0-10.1 0-15.3 0q-0.1-0.5-0.2-1z"/>
	<path class="s52" d="m209.7 48.9c5.1 0 10.1 0 15.3 0 0.1 0.4 0.1 0.4 0.2 0.9-5.2 0-10.3 0-15.7 0q0.1-0.4 0.2-0.9z"/>
	<path class="s52" d="m209.7 44.9c5.1 0 10.1 0 15.3 0 0.1 0.5 0.1 0.5 0.2 1-5.2 0-10.3 0-15.7 0q0.1-0.5 0.2-1z"/>
	<path class="s17" d="m94 162.1q0.2 0 0.5 0.1c0.7 0.1 1.4 0.1 2.1 0.1q0.2 0 0.4 0 0.7 0 1.4 0 0.5 0 1 0 1.2 0 2.5 0.1 1.3 0 2.5 0 2.6 0 5.1 0.1c0.1 0.4 0.1 0.4 0.2 0.9q-2.6 0-5.2 0.1-1.2 0-2.4 0-1.2 0-2.3 0-0.5 0-0.9 0c-1.7 0-3.3-0.1-4.9-0.5q0-0.4 0-0.9z"/>
	<path class="s53" d="m220.7 78.8c1.5 0.9 2.3 2 3 3.6 0.4 1.8 0.3 3.3-0.6 4.9-1.5 2.2-1.5 2.2-2.8 2.6 0.3-1 0.9-1.6 1.6-2.3 0.8-1 1.1-2.1 1.1-3.4q0-0.2 0-0.4c-0.1-1.4-0.5-2.3-1.4-3.3-1.3-1.1-2.7-1.5-4.3-1.5-1.6 0.2-2.8 1.1-3.8 2.2-0.5 0.7-0.7 1.4-0.8 2.2-0.3-0.2-0.3-0.2-0.6-0.6-0.1-1 0.5-1.7 1.1-2.5 2-2.1 4.8-2.7 7.5-1.5z"/>
	<path class="s54" d="m83.8 67.5c0.8 0 1.1 0.1 1.7 0.7q0.2 0.2 0.4 0.5 0.3 0.1 0.6 0.2c0.4 0.7 0.3 1.6 0.3 2.4q0 0.3 0 0.6c0 0.2 0 0.2 0 0.5q0 0.2 0 0.5c-0.1 0.5-0.1 0.5-0.5 1.5q-1.3-0.3-2.7-0.6c0.7-1.4 0.7-1.4 1.2-2 0.6-0.1 0.6-0.1 1.1 0q0.2-0.1 0.4-0.2 0.1-0.3 0.2-0.6-0.3 0.1-0.7 0.2c-0.7 0.1-0.8 0-1.5-0.4-0.5-0.6-0.9-1-1.1-1.7 0-0.8 0.1-1.1 0.6-1.6z"/>
	<path class="s55" d="m85.5 66.9q0.4 0 0.8 0 0.3 0.6 0.5 1.1c0.1 0.4 0.1 0.4 0.3 0.7 0.4 1.1 0.4 2.1 0.4 3.3q0 0.3 0 0.6c0 0.2 0 0.2 0 0.5q0.1 0.2 0.1 0.5c-0.1 0.4-0.1 0.4-0.5 1q-0.3 0-0.6 0 0-2.8 0-5.7-0.4-0.1-0.8-0.2-0.2-0.3-0.5-0.5c-0.6-0.6-0.6-0.6-1.2-0.5q-0.2 0.1-0.4 0.2c-0.2 0.6-0.3 1 0 1.6 0.4 0.7 0.7 1.1 1.4 1.5 0.4 0.1 0.4 0.1 0.8 0.1q0.3-0.1 0.7-0.1-0.1 0.4-0.2 0.8c-0.8 0.2-1.2 0.3-2.1-0.1-0.9-0.6-1.5-1.4-1.8-2.4-0.1-0.9-0.1-1.3 0.4-2 0.8-0.8 1.7-0.7 2.7-0.4z"/>
	<path class="s56" d="m142.8 57.5q-0.2 0.5-0.4 1c0.4-0.1 0.4-0.1 0.8-0.1 0.7-0.2 0.8-0.2 1.4 0.3-0.1 0.3-0.1 0.3-0.2 0.8-0.4 0.1-0.4 0.1-0.8 0.3-1.5 0.3-2.2 1.3-3 2.4q-0.1 0.2-0.2 0.4-0.6 0.8-1.1 1.6-0.5-0.1-1-0.2c0.1-0.9 0.4-1.4 0.9-2.1q0.2-0.3 0.4-0.6c0.3-0.5 0.3-0.5 0.5-0.7q-0.4-0.1-0.8-0.2c0.3-1.2 1.5-2 2.5-2.7 0.4-0.2 0.4-0.2 1-0.2z"/>
	<path class="s57" d="m107.1 77.5q0.4 0 0.7 0 0.2 0 0.4 0 0.7 0 1.4 0 0.5 0 0.9 0 1.3 0 2.5 0 1.3 0 2.5 0 2.5 0 5 0c0.1 0.4 0.1 0.4 0.2 0.8-0.2 0.2-0.2 0.2-0.8 0.2-0.4 0-0.4 0-0.7 0q-0.2 0-0.5 0-0.6 0-1.3 0-0.5 0-0.9 0-1.3 0-2.5 0-1.3 0-2.5 0-2.5 0-5 0c-0.1-0.4-0.1-0.4-0.2-0.8 0.2-0.2 0.2-0.2 0.8-0.2z"/>
	<path class="s58" d="m107.1 65.5q0.4 0 0.7 0 0.2 0 0.4 0 0.7 0 1.4 0 0.5 0 0.9 0 1.3 0 2.5 0 1.3 0 2.5 0 2.5 0 5 0c0.1 0.4 0.1 0.4 0.2 0.8-0.2 0.2-0.2 0.2-0.8 0.2-0.4 0-0.4 0-0.7 0q-0.2 0-0.5 0-0.6 0-1.3 0-0.5 0-0.9 0-1.3 0-2.5 0-1.3 0-2.5 0-2.5 0-5 0c-0.1-0.4-0.1-0.4-0.2-0.8 0.2-0.2 0.2-0.2 0.8-0.2z"/>
	<path class="s59" d="m106.5 62c4.6 0 9.1 0 13.8 0 0.2 0.4 0.2 0.4 0.4 0.8-0.2 0.2-0.2 0.2-0.8 0.2q-0.4 0-0.8 0-0.2 0-0.4 0-0.7 0-1.3 0-0.5 0-1 0-1.2 0-2.5 0-1.3 0-2.6 0-2.5 0-5 0 0.1-0.5 0.2-1z"/>
	<path class="s60" d="m100.8 144.2q0.4 0 0.8 0 0.6 1.2 1.1 2.4 0.2 0.4 0.4 0.8 0.2 0.6 0.5 1.2 0.1 0.3 0.3 0.7c0.7 1.5 0.7 1.5 0.7 2.2-1.2-0.1-2-0.6-2.8-1.5-0.9-1.3-1-2.5-1-4q0-0.3 0-0.5 0-0.7 0-1.3z"/>
	<path class="s61" d="m229.5 15.5c1.1 0.1 1.5 0.6 2.2 1.4 0.6-0.2 0.8-0.5 1.3-0.9 0.5-0.5 0.5-0.5 1.2-0.5 0 1.1-0.6 1.5-1.3 2.2 0.2 0.5 0.4 0.8 0.9 1.2q0.2 0.3 0.4 0.5c0 0.5 0 0.5-0.1 0.8-0.7-0.1-1-0.3-1.5-0.8q-0.1-0.1-0.3-0.3-0.1-0.1-0.2-0.3c-0.6 0.3-1 0.6-1.4 1-0.6 0.4-0.6 0.4-1.2 0.4 0.1-1 0.7-1.5 1.4-2.1-0.2-0.6-0.4-0.9-0.9-1.3-0.5-0.5-0.5-0.5-0.5-1.3z"/>
	<path class="s62" d="m77.7 60.8c-0.7 0.6-0.7 0.6-1.1 0.8-1.1 0.7-1.5 1.6-2 2.8q-1.2-0.5-2.4-1c0.2-1.1 0.5-1.6 1.4-2.4 1.4-0.8 2.6-0.8 4.1-0.2z"/>
	<path class="s63" d="m87.5 77.1q-0.1 0.4-0.2 0.8-2 0.5-4 0.9-0.7 0.2-1.4 0.3-1 0.3-2 0.5c-0.3 0.1-0.3 0.1-0.6 0.1q-0.3 0.1-0.6 0.2-0.3 0-0.5 0.1c-0.5 0.1-1 0.1-1.5 0.1q0-0.4 0-0.8 3-0.8 6-1.5 0.4 0 0.8-0.1 0.6-0.2 1.2-0.3 0.4-0.1 0.7-0.2c0.7-0.1 1.4-0.1 2.1-0.1z"/>
	<path class="s64" d="m218.4 82.7c0.6 0.2 0.8 0.4 1.1 0.9 0.1 0.8 0.1 1.2-0.3 1.9-0.6 0.6-1 0.7-1.8 0.6-0.7-0.3-1.1-0.6-1.3-1.3-0.1-0.8 0.1-1.2 0.5-1.8 0.7-0.5 1-0.5 1.8-0.3z"/>
	<path class="s65" d="m106.9 69q0.3 0 0.5 0 0.3 0 0.6 0 0.3 0 0.6 0.1 0.3 0 0.6 0 1 0 2 0 0.6 0 1.3 0 1.6 0 3.3 0c0.1 0.4 0.1 0.4 0.1 0.8-0.1 0.2-0.1 0.2-0.5 0.2q-0.3 0-0.5 0-0.3 0-0.6 0-0.3 0-0.6 0-0.3 0-0.6 0-1 0-2 0-0.6 0-1.3 0-1.6 0-3.3 0c-0.1-0.4-0.1-0.4-0.2-0.8 0.2-0.2 0.2-0.2 0.6-0.3z"/>
	<path class="s66" d="m252.5 89.3c0.1 0.4 0.1 0.4 0.2 0.8-0.5 0.5-1.9 0.3-2.5 0.4q-0.4 0-0.7 0-2.9 0.2-5.8 0.1 0-0.3 0-0.7c6.7-0.7 6.7-0.7 8.8-0.6z"/>
	<path class="s67" d="m252.1 86.3q-0.1 0.4-0.2 0.8-1.5 0.1-2.9 0.3-0.5 0-1 0.1-0.7 0-1.4 0.1-0.3 0-0.5 0-1.5 0.1-3 0.1-0.1-0.4-0.2-0.8c0.8-0.4 1.8-0.3 2.7-0.4q0.4 0 0.7 0 2.9-0.2 5.8-0.2z"/>
	<path class="s52" d="m209.5 52.6c2.7 0 5.5 0 8.3 0 0.1 0.4 0.1 0.4 0.2 0.8-0.2 0.2-0.2 0.2-1 0.2q-0.5 0-1 0-0.3 0-0.6 0-0.8 0-1.7 0-0.5 0-1.1 0-1.5 0-2.9 0-0.1-0.5-0.2-1z"/>
	<path class="s68" d="m251.5 83.2q0 0.4 0 0.8c-1.1 0.2-2.3 0.3-3.4 0.4q-0.6 0-1.2 0-2.2 0.2-4.4 0.2 0-0.4 0-0.8c0.5-0.3 1-0.3 1.7-0.3q0.1 0 0.3 0 0.5-0.1 0.9-0.1 0.6 0 1.2-0.1 2.4-0.1 4.9-0.1z"/>
	<path class="s69" d="m135.5 75.9q0.3 0 0.6 0c0.9 0 1.6 0 2.4 0.4q-0.1 0.3-0.2 0.6-0.2 0-0.3 0c-3.1-0.1-5.8 0.1-8.7 1q-0.1-0.4-0.2-0.8c2-1.1 4.1-1.2 6.4-1.2z"/>
	<path class="s70" d="m191.7 100.9c3.1 0 6.3 0 9.6 0q0 0.3 0 0.7c-3.2 0-6.4 0-9.6 0q0-0.3 0-0.7z"/>
	<path class="s71" d="m137.5 83.4q0 0.4 0 0.8-0.2 0-0.3 0c-2.3 0.3-4.4 0.5-6.5 1.2q-0.8 0.2-1.6 0.3-0.1-0.3-0.2-0.7c2.8-1.3 5.6-1.7 8.6-1.6z"/>
	<path class="s19" d="m230.9 91.4c0 2.4-1.7 4.6-3.3 6.3-3.1 2.8-3.1 2.8-4.5 2.8 0-0.4 0-0.4 0.2-0.8 0.4-0.3 0.4-0.3 1-0.6 2.9-1.6 4.8-4 5.9-7.1 0.1-0.4 0.3-0.6 0.7-0.6z"/>
	<path class="s72" d="m282.3 127.9q0.3 0.1 0.6 0.2c0.2 0.4 0.2 0.4 0.4 1 0.5 1.4 1.2 2.1 2.6 2.7 0.9 0.4 1.8 0.4 2.7 0.4 0.1 0.4 0.1 0.4 0.2 0.8-2 0.2-3.4 0-4.9-1.3-1-0.8-1.7-1.9-1.8-3.2 0-0.4 0-0.4 0.2-0.6z"/>
	<path class="s73" d="m136.4 80.8q0.3 0 0.5 0c0.8 0 1.2 0 1.8 0.4q-0.1 0.3-0.2 0.6c-0.2 0-0.2 0-0.4 0q-1.1 0.1-2.1 0.1-0.4 0-0.7 0-2 0.1-4 0.3-0.1-0.4-0.2-0.8c1.7-0.6 3.5-0.6 5.3-0.6z"/>
	<path class="s74" d="m78 60q0.4 0.2 0.7 0.4-0.2 0.2-0.4 0.4-0.8 0-1.6-0.1c-1.4-0.1-2.2-0.1-3.3 0.7-0.5 0.6-0.9 1.1-1.2 1.8q-0.4 0-0.8 0c0-1.1 0.5-1.7 1.2-2.4 1.5-1.4 3.6-1.7 5.4-0.8z"/>
	<path class="s36" d="m87.1 11q0.4 0.1 0.8 0.2-0.1 0.2-0.2 0.4c-0.2 0.6-0.2 0.6-0.2 1.4 0.4 0.3 0.4 0.3 0.8 0.6q-0.1 0.2-0.2 0.5c-0.7-0.1-1.2-0.2-1.8-0.5 0 0.1 0 0.1-0.1 0.3-0.3 0.4-0.3 0.4-0.8 0.6q-0.2 0-0.4 0c0.1-0.7 0.4-1.2 0.7-1.7q-0.1-0.1-0.3-0.2-0.4-0.2-0.8-0.4 0.1-0.4 0.2-0.8c0.5 0.1 1 0.3 1.5 0.6q0.4-0.5 0.8-1z"/>
	<path class="s75" d="m135.7 78.4q0.4 0 0.7 0 0.3 0 0.6 0 0.3 0 0.6 0c0.5 0.1 0.9 0.2 1.3 0.5q-0.1 0.3-0.2 0.6-0.2 0-0.4 0c-2.4-0.1-4.8-0.1-7.2 0.2q0.1-0.4 0.2-0.8c1.5-0.4 2.9-0.5 4.4-0.5z"/>
	<path class="s76" d="m116.5 144.2q1.1 0 2.2 0 0 2.6 0 5.3c-0.5-0.5-0.6-0.8-0.8-1.4q-0.1-0.4-0.3-0.7-0.1-0.3-0.2-0.7-0.1-0.3-0.3-0.6c-0.6-1.7-0.6-1.7-0.6-1.9z"/>
	<path class="s77" d="m76.9 40c0.6 0.2 0.6 0.2 1 0.6 0.3 0.6 0.2 1.1 0 1.8-0.7 0.4-1 0.4-1.8 0.4-0.6-0.4-0.6-0.4-0.8-1.1 0-0.7 0-0.7 0.4-1.3 0.6-0.4 0.6-0.4 1.2-0.4z"/>
	<path class="s78" d="m106.3 81.2c2.5 0 5 0 7.5 0q0 0.4 0 0.8c-2.4 0-4.8 0-7.3 0q-0.1-0.4-0.2-0.8z"/>
	<path class="s79" d="m136 68.7c1.5 0.8 1.5 0.8 3.1 1.5q0 0.5 0 1c-0.7 0.4-1.3 0.5-2.2 0.4-0.5-0.4-0.7-0.9-0.9-1.5q0-0.7 0-1.4z"/>
	<path class="s17" d="m164.3 31.6q0.3 0 0.6 0 0.3 0 0.6 0c0.3 0 0.3 0 0.7 0 0.3 0 0.3 0 0.7 0q0.8 0 1.6 0 0.2 0.4 0.4 0.8c-0.2 0.2-0.2 0.2-0.7 0.2q-0.3 0-0.6 0-0.3 0-0.6 0-0.4 0-0.7 0-0.4 0-0.7 0-0.9 0-1.8 0c-0.1-0.4-0.1-0.4-0.2-0.8 0.2-0.2 0.2-0.2 0.7-0.2z"/>
	<path class="s80" d="m277.6 116.9q0.3 0 0.6 0c-0.1 1.1-0.4 2.1-0.8 3.1q-0.1 0.2-0.1 0.5c-0.3 0.6-0.5 1.1-0.9 1.7q-0.3 0-0.6 0c0.2-1.1 0.5-2.2 0.9-3.3q0.1-0.2 0.2-0.5c0.5-1.2 0.5-1.2 0.7-1.5z"/>
	<path class="s81" d="m257.8 22.6q0 1.4 0 2.9c-0.8-0.1-1.2-0.3-1.9-0.7q-0.3-0.1-0.5-0.3-0.2-0.1-0.4-0.2c2.1-1.7 2.1-1.7 2.8-1.7z"/>
	<path class="s82" d="m95.2 86.9c0.8 0.1 1.3 0.4 1.9 1.1 0.8 0.7 1.5 1.3 2.4 1.9q-0.1 0.4-0.2 0.7c-0.8-0.2-1.4-0.6-2-1.2q-0.8-0.8-1.7-1.5-0.2-0.2-0.4-0.4 0-0.3 0-0.6z"/>
	<path class="s83" d="m100.1 91.2c0.3 0.2 0.3 0.2 0.7 0.6 0.1 0.5 0.1 1 0.1 1.5q0 0.2 0 0.4 0 0.6 0 1.3 0 0.5 0 0.9 0 1.1-0.1 2.2-0.1 0-0.2 0c-0.6-2.3-0.6-4.5-0.5-6.9z"/>
	<path class="s84" d="m291.3 142.2q0.4 0.1 0.8 0.2c-0.4 1.5-0.9 2.9-1.6 4.4q-0.3 0-0.7 0c0.1-1.1 0.4-2 0.9-3q0.1-0.2 0.2-0.4 0.2-0.6 0.4-1.2z"/>
	<path class="s85" d="m292.7 143.6q0.4 0 0.8 0c-0.1 1-0.4 1.9-0.8 2.8q-0.1 0.4-0.3 0.7c-0.3 0.6-0.4 0.8-1.1 1-0.2-0.7-0.1-1 0.2-1.6q0.1-0.3 0.2-0.5 0.1-0.3 0.2-0.6 0.1-0.2 0.2-0.5 0.3-0.6 0.6-1.3z"/>
	<path class="s86" d="m201.7 128.9q0.3 0.2 0.6 0.4c0 0.4 0 0.4 0 0.8q0 0.2 0 0.5 0 0.2 0 0.5 0 0.2 0 0.5 0 0.6 0 1.2-0.5 0.1-1 0.2 0-1.9 0-3.9 0.2-0.1 0.4-0.2z"/>
	<path class="s87" d="m210.3 147.7q0.4 0 0.8 0 0 1.9 0 3.8-0.3 0.1-0.6 0.2-0.2-0.1-0.4-0.2 0-0.9 0-1.8 0-0.2 0-0.5 0-0.2 0-0.5 0-0.2 0-0.4c0-0.4 0-0.4 0.2-0.6z"/>
	<path class="s87" d="m201.5 147.7c0.4 0.1 0.4 0.1 0.8 0.2q0 1.8 0 3.6-0.4 0.1-0.8 0.2c-0.3-0.3-0.2-0.6-0.2-1q0-0.3 0-0.5 0-0.2 0-0.5 0-0.2 0-0.5 0-0.2 0-0.5 0-0.2 0-0.4c0-0.4 0-0.4 0.2-0.6z"/>
	<path class="s87" d="m210.3 141.5c0.4 0.1 0.4 0.1 0.8 0.2q0 1.7 0 3.5-0.4 0.1-0.8 0.2c-0.3-0.3-0.2-0.6-0.2-1q0-0.2 0-0.5 0-0.2 0-0.5 0-0.2 0-0.5 0-0.2 0-0.5 0-0.2 0-0.4c0-0.3 0-0.3 0.2-0.5z"/>
	<path class="s87" d="m201.5 141.5c0.4 0.1 0.4 0.1 0.8 0.2q0 1.7 0 3.5-0.4 0.1-0.8 0.2c-0.3-0.3-0.2-0.6-0.2-1q0-0.2 0-0.5 0-0.2 0-0.5 0-0.2 0-0.5 0-0.2 0-0.5 0-0.2 0-0.4c0-0.3 0-0.3 0.2-0.5z"/>
	<path class="s87" d="m192.7 141.5c0.3 0.1 0.3 0.1 0.7 0.2q0 1.7 0 3.5-0.3 0.1-0.7 0.2c-0.3-0.3-0.3-0.6-0.3-1q0-0.2 0-0.5 0-0.2 0-0.5 0-0.2 0-0.5 0-0.2 0-0.5 0-0.2 0-0.4c0.1-0.3 0.1-0.3 0.3-0.5z"/>
	<path class="s87" d="m174.8 141.5c0.4 0.1 0.4 0.1 0.8 0.2q0 1.7 0 3.5-0.4 0.1-0.8 0.2c-0.3-0.3-0.2-0.6-0.2-1q0-0.2 0-0.5 0-0.2 0-0.5 0-0.2 0-0.5 0-0.2 0-0.5 0-0.2 0-0.4c0-0.3 0-0.3 0.2-0.5z"/>
	<path class="s87" d="m210.3 122.8c0.4 0.1 0.4 0.1 0.8 0.2q0 1.8 0 3.5-0.4 0.1-0.8 0.2c-0.3-0.3-0.2-0.5-0.2-0.9q0-0.3 0-0.5 0-0.3 0-0.5 0-0.3 0-0.5 0-0.3 0-0.5 0-0.2 0-0.4c0-0.4 0-0.4 0.2-0.6z"/>
	<path class="s87" d="m201.5 122.8c0.4 0.1 0.4 0.1 0.8 0.2q0 1.8 0 3.5-0.4 0.1-0.8 0.2c-0.3-0.3-0.2-0.5-0.2-0.9q0-0.3 0-0.5 0-0.3 0-0.5 0-0.3 0-0.5 0-0.3 0-0.5 0-0.2 0-0.4c0-0.4 0-0.4 0.2-0.6z"/>
	<path class="s87" d="m192.7 122.8c0.3 0.1 0.3 0.1 0.7 0.2q0 1.8 0 3.5-0.3 0.1-0.7 0.2c-0.3-0.3-0.3-0.5-0.3-0.9q0-0.3 0-0.5 0-0.3 0-0.5 0-0.3 0-0.5 0-0.3 0-0.5 0-0.2 0-0.4c0.1-0.4 0.1-0.4 0.3-0.6z"/>
	<path class="s87" d="m174.8 122.8c0.4 0.1 0.4 0.1 0.8 0.2q0 1.8 0 3.5-0.4 0.1-0.8 0.2c-0.3-0.3-0.2-0.5-0.2-0.9q0-0.3 0-0.5 0-0.3 0-0.5 0-0.3 0-0.5 0-0.3 0-0.5 0-0.2 0-0.4c0-0.4 0-0.4 0.2-0.6z"/>
	<path class="s88" d="m196.2 95.4q0.3 0.1 0.6 0.2 0 0.2 0 0.4 0 0.3 0.1 0.6 0 0.3 0 0.5c0.1 0.6 0.1 0.6 0.2 1.2q0 0.2 0.1 0.4c-0.3 0.3-0.3 0.3-0.6 0.6-0.4-0.2-0.4-0.2-0.8-0.4-0.2-0.5-0.2-0.5-0.2-1q0.1-0.1 0.2-0.2 0.1-0.5 0.1-1.1c0.1-1 0.1-1 0.3-1.2z"/>
	<path class="s87" d="m192.5 147.7c0.4 0.1 0.4 0.1 0.9 0.2q0 1.7 0 3.4c-0.3 0.2-0.3 0.2-0.7 0.4-0.2-0.2-0.2-0.2-0.3-0.6q0-0.2 0-0.5 0-0.2 0-0.5 0-0.2 0-0.5 0-0.3 0-0.5 0.1-0.7 0.1-1.4z"/>
	<path class="s87" d="m175 135.2q0.3 0.1 0.6 0.2 0 1.8 0 3.7-0.5-0.1-1-0.2 0-0.8 0-1.6 0-0.3 0-0.5 0-0.6 0-1.2 0.2-0.2 0.4-0.4z"/>
	<path class="s87" d="m174.8 129.1q0.4 0 0.8 0 0 1.8 0 3.7-0.4 0-0.8 0c-0.4-0.3-0.2-0.9-0.2-1.4q0-0.2 0-0.4 0-0.3 0-0.5c0-1.2 0-1.2 0.2-1.4z"/>
	<path class="s87" d="m210.3 129.1q0.4 0 0.8 0 0 1.8 0 3.7-0.5 0-1 0 0-0.8 0-1.7 0-0.3 0-0.5 0-0.3 0-0.5 0-0.2 0-0.5c0-0.3 0-0.3 0.2-0.5z"/>
	<path class="s87" d="m192.5 129.1c0.4 0.1 0.4 0.1 0.9 0.2q0 1.6 0 3.3-0.4 0.1-0.9 0.2 0-1.8 0-3.7z"/>
	<path class="s89" d="m74.2 88.3c0.3 0.1 0.3 0.1 0.7 0.4 0.3 0.5 0.3 0.5 0.4 1.2q0.1 0.3 0.1 0.7c0.1 0.6 0.2 1.2 0.1 1.8q-0.4 0-0.7 0-0.3-0.7-0.5-1.5 0-0.2-0.1-0.4c-0.2-0.8-0.3-1.4 0-2.2z"/>
	<path class="s90" d="m198.7 95.4q0.3 0 0.6 0c0.3 0.8 0.5 1.5 0.4 2.3q-0.1 0.1-0.2 0.2-0.1 0.7-0.2 1.4-0.3 0-0.6 0 0-0.4 0-0.7c-0.1-0.7-0.1-0.7-0.4-0.9 0-0.8 0.2-1.5 0.4-2.3z"/>
	<path class="s91" d="m193.4 95.4q0.3 0 0.6 0c0.4 0.6 0.5 0.6 0.4 1.3q-0.1 0.3-0.1 0.5 0 0.2-0.1 0.5 0 0.2 0 0.4-0.1 0.6-0.2 1.2-0.3 0-0.6 0 0-0.3 0-0.5 0-0.3 0-0.6-0.1-0.3-0.1-0.7c0-0.6 0-0.6-0.2-1.1-0.1-0.5-0.1-0.5 0.3-1z"/>
	<path class="s23" d="m228 122.8q0.4 0 0.8 0 0 2 0 3.9-0.4-0.1-0.8-0.1 0-1.9 0-3.8z"/>
	<path class="s23" d="m219.1 122.8q0.4 0 0.8 0 0 1.9 0 3.8-0.4 0-0.8 0.1 0-1.9 0-3.9z"/>
	<path class="s23" d="m228 147.7q0.4 0 0.8 0 0 1.9 0 3.8-0.4 0-0.8 0 0-1.9 0-3.8z"/>
	<path class="s23" d="m219.1 147.7q0.4 0 0.8 0 0 1.9 0 3.8-0.4 0-0.8 0 0-1.9 0-3.8z"/>
	<path class="s23" d="m183.6 147.7q0.4 0 0.8 0 0 1.9 0 3.8-0.4 0-0.8 0 0-1.9 0-3.8z"/>
	<path class="s23" d="m228.2 141.5q0.3 0 0.6 0 0 1.9 0 3.9-0.4-0.1-0.8-0.2 0-0.9 0-1.8 0-0.2 0-0.5 0-0.2 0-0.5-0.1-0.2-0.1-0.4c0.1-0.3 0.1-0.3 0.3-0.5z"/>
	<path class="s23" d="m219.1 141.5q0.4 0.1 0.8 0.2 0 1.7 0 3.5-0.4 0.1-0.8 0.2 0-1.9 0-3.9z"/>
	<path class="s23" d="m183.8 141.5q0.3 0 0.6 0 0 1.9 0 3.9-0.4-0.1-0.8-0.2 0-0.9 0-1.8 0-0.2 0-0.5 0-0.2 0-0.5 0-0.2 0-0.4c0-0.3 0-0.3 0.2-0.5z"/>
	<path class="s23" d="m228 129.1q0.4 0 0.8 0 0 1.8 0 3.7-0.4 0-0.8 0 0-1.8 0-3.7z"/>
	<path class="s23" d="m219.1 129.1q0.4 0 0.8 0 0 1.8 0 3.7-0.4 0-0.8 0 0-1.8 0-3.7z"/>
	<path class="s23" d="m183.6 129.1q0.4 0 0.8 0 0 1.8 0 3.7-0.4 0-0.8 0 0-1.8 0-3.7z"/>
	<path class="s23" d="m183.6 122.8q0.4 0 0.8 0 0 1.9 0 3.8-0.4-0.1-0.8 0 0-1.9 0-3.8z"/>
	<path class="s92" d="m223.5 85.5c-0.2 1.7-1.2 3-2.4 4.2-0.4 0.1-0.4 0.1-0.8 0.2 0.3-0.8 0.6-1.3 1.2-1.9 0.7-0.7 1-1.3 1.4-2.3 0.4-0.2 0.4-0.2 0.6-0.2z"/>
	<path class="s17" d="m92.4 72.4c0.4 0.1 0.4 0.1 0.8 0.2q0 1.4 0 2.9-0.5 0-1 0 0-0.7 0-1.4c0-0.2 0-0.2 0-0.4q0-0.6 0-1.1 0.1-0.1 0.2-0.2z"/>
	<path class="s93" d="m201.3 135.4c0.6 0.6 0.9 1 1 1.9q0 0.3 0 0.6 0 0.3 0 0.6c0 0.2 0 0.2 0 0.4-0.4 0.1-0.4 0.1-0.8 0.2-0.2-0.2-0.2-0.2-0.2-0.5q0-0.3 0-0.5 0-0.2 0-0.5 0-0.2 0-0.5 0-0.2 0-0.5 0-0.6 0-1.2z"/>
	<path class="s23" d="m183.8 135.2q0.3 0.1 0.6 0.2 0 1.8 0 3.7-0.4-0.1-0.8-0.2 0-0.9 0-1.7 0-0.3 0-0.5 0-0.3 0-0.5 0-0.2 0-0.5c0-0.3 0-0.3 0.2-0.5z"/>
	<path class="s23" d="m228 135.4q0.4 0 0.8 0 0 1.8 0 3.7-0.4 0-0.8 0 0-1.8 0-3.7z"/>
	<path class="s94" d="m210.9 135.8q0.1 0 0.2 0 0 1.5 0 3.1-0.4 0.1-0.8 0.2c-0.3-0.4-0.3-0.8-0.4-1.3 0-0.8 0.5-1.4 1-2z"/>
	<path class="s95" d="m268.1 41c0.4 0 0.4 0 0.7 0 0.3 0 0.3 0 0.6 0q0.3 0 0.6 0c0.1 0.4 0.1 0.4 0.1 0.8-0.1 0.2-0.1 0.2-0.7 0.2-0.3 0-0.3 0-0.6 0-0.4 0-0.4 0-0.7 0q-0.2 0-0.5 0c-0.1-0.4-0.1-0.4-0.2-0.8 0.2-0.2 0.2-0.2 0.7-0.2z"/>
	<path class="s95" d="m264.2 41c0.3 0 0.3 0 0.7 0 0.3 0 0.3 0 0.6 0q0.3 0 0.5 0c0.1 0.4 0.1 0.4 0.2 0.8-0.2 0.2-0.2 0.2-0.7 0.2-0.3 0-0.3 0-0.7 0-0.3 0-0.3 0-0.6 0q-0.3 0-0.5 0c-0.1-0.4-0.1-0.4-0.2-0.8 0.2-0.2 0.2-0.2 0.7-0.2z"/>
	<path class="s96" d="m241.3 158.9c0.2 0.6 0.2 0.6 0 1.2-0.8 1.3-2 2.3-3.5 2.7q0-0.1 0-0.3 0.5-0.4 1-0.7c1.1-0.8 1.8-1.7 2.5-2.9z"/>
	<path class="s97" d="m291.7 141.3q0.2 0.1 0.4 0.2-0.4 0.3-0.8 0.5 0.2-0.3 0.4-0.7zm-0.6 0.7c0.3 0.7 0.2 0.8 0 1.5-0.1 0.2-0.1 0.2-0.2 0.4q-0.1 0.3-0.2 0.5-0.1 0.3-0.2 0.5-0.3 0.7-0.5 1.3-0.3-0.4-0.6-0.8 0.4-0.8 0.7-1.6c0.2-0.2 0.2-0.2 0.3-0.4 0.1-0.2 0.1-0.2 0.2-0.4q0.1-0.2 0.2-0.4c0.1-0.4 0.1-0.4 0.3-0.6z"/>
	<path class="s98" d="m219.3 135.2q0.3 0.1 0.6 0.2 0 1.7 0 3.5c-0.7-0.9-0.8-1.4-0.8-2.5q0-0.3 0-0.5c0-0.5 0-0.5 0.2-0.7z"/>
	<path class="s99" d="m251.5 94q0.4 0.1 0.8 0.2c0.3 1.6 0.4 3.2 0.4 4.9q-0.1 0-0.2 0 0-0.3-0.1-0.6c-0.1-0.8-0.1-0.8-0.3-1.4-0.3-1-0.4-2.1-0.6-3.1z"/>
	<path class="s43" d="m216 95.2q1.8 0 3.7 0 0 0.3 0 0.6-1.9 0-3.9 0 0.1-0.3 0.2-0.6z"/>
	<path class="s100" d="m216 94q1.8 0 3.7 0 0 0.3 0 0.6-1.9 0-3.9 0 0.1-0.3 0.2-0.6z"/>
	<path class="s101" d="m216 92.8q1.8 0 3.7 0 0 0.3 0 0.6-1.9 0-3.9 0 0.1-0.3 0.2-0.6z"/>
	<path class="s102" d="m174.6 147.9c0.2 0.1 0.2 0.1 0.4 0.2q0 0.6 0 1.2 0.3 0 0.6 0 0 1.1 0 2.2-0.4 0-0.8 0c-0.1-1.2-0.2-2.4-0.2-3.6z"/>
	<path class="s103" d="m228.6 95.8q0.1 0.2 0.2 0.5c-0.7 1.1-1.8 1.9-2.8 2.6 0-0.8 0.3-1 0.8-1.6q0.3-0.2 0.5-0.5c0.4-0.4 0.8-0.7 1.3-1z"/>
	<path class="s104" d="m266.6 42q0.3 0.1 0.6 0.2 0 1.2 0 2.5-0.4 0-0.8 0 0-0.6 0-1.2 0-0.4 0-0.7c0-0.6 0-0.6 0.2-0.8z"/>
	<path class="s105" d="m266.4 38.3q0.4 0 0.8 0 0 1.2 0 2.5-0.4 0-0.8 0 0-1.2 0-2.5z"/>
	<path class="s106" d="m206.2 80.6c0.3 0.9 0 1.2-0.4 1.9q-0.2 0.4-0.3 0.7-0.2 0.3-0.3 0.6-0.3 0-0.6 0c0.1-1 0.4-1.9 1-2.8q0.3-0.2 0.6-0.4z"/>
	<path class="s107" d="m196.2 95.4q0.3 0.1 0.6 0.2 0 1 0 2.1-0.4 0-0.8 0 0-0.5 0-1.1 0-0.3 0-0.6c0-0.4 0-0.4 0.2-0.6z"/>
	<path class="s108" d="m99.3 90.7c0.4 0.1 0.4 0.1 0.8 0.3q0 1.6 0 3.2-0.1 0-0.2 0-0.2-0.6-0.3-1.2-0.1-0.4-0.2-0.7c-0.1-0.6-0.2-1.1-0.1-1.6z"/>
	<path class="s109" d="m193.4 96.9q0.3 0 0.6 0 0 1.2 0 2.4-0.3 0-0.6 0 0-1.2 0-2.4z"/>
	<path class="s110" d="m231.1 89.7q0.2 0.2 0.4 0.4c0 0.4 0 0.4-0.2 1q0 0.2-0.1 0.5 0 0.2-0.1 0.4-0.3-0.2-0.6-0.4 0.1-0.4 0.1-0.8 0-0.3 0-0.5 0.1-0.2 0.1-0.4 0.2-0.1 0.4-0.2z"/>
	<path class="s111" d="m220.7 89.5c0.2 0.7 0.1 0.9-0.2 1.5q-0.3 0-0.6 0-0.1-0.2-0.2-0.4c0.3-0.6 0.4-0.7 1-1.1z"/>
	<path class="s112" d="m198.7 97.9q0.3 0 0.6 0 0 0.7 0 1.4-0.3 0-0.6 0 0-0.7 0-1.4z"/>
	<path class="s113" d="m193.2 137.3q0.1 0 0.2 0 0 0.8 0 1.6-0.3 0.1-0.7 0.2 0.2-0.9 0.5-1.8z"/>
	<path class="s114" d="m192.7 135.2q0.2 0.1 0.5 0.2c-0.2 0.8-0.2 0.8-0.5 1.5q-0.1 0-0.2 0c-0.1-1.2-0.1-1.2 0-1.5q0.1-0.1 0.2-0.2z"/>
	<path class="s115" d="m198.7 95.4q0.3 0 0.6 0 0 0.5 0 1.1-0.3 0-0.6 0 0-0.5 0-1.1z"/>
	<path class="s116" d="m217.2 96.3q0.7 0 1.4 0c-0.2 0.3-0.2 0.3-0.4 0.6q-0.5-0.1-1-0.2 0-0.2 0-0.4z"/>
	<path fill-rule="evenodd" class="s22" d="m241 219.4h-17.3c-0.4 0.1-1.2-0.1-1.2-1-0.1-2.2-0.7-7.3-3.1-9.9-0.3-0.6-0.9-1.3-1.6-2.1l1.5-1.9c0.7 0.6 1.3 1.2 1.8 1.7l12.2-8.1c-2.8-4.6-8.6-8.7-11.2-10.1l-6.8 13.3c0.3 0.2 1.3 1 2.4 1.9l-1.9 1.4c-2.7-2.2-6.5-4.1-11.2-4.1-5.8 0-17.4 3.7-18 18.1-0.1 0.3-0.4 0.8-1 0.8h-17.6c-0.3 0-0.9-0.3-1-1-0.1-11.6 8.1-36.5 37.6-37.4 12.7 0 36.4 8.4 37.4 37.4 0 0.3-0.1 0.9-1 1zm-6.4-19.3l-12.5 8.2c1.5 2.2 2.4 6.8 2.7 8.8h14.9c0-7.5-3.4-14.5-5.1-17zm-14.5-13.1c-2.1-1.2-7.9-3.7-14.5-3.6v14.9c1.4 0.1 4.8 0.5 7.6 2zm-16.7 11.3v-14.9c-6.9 0-12.6 2.4-14.5 3.6l7 13.2c2.1-1.2 5.9-1.8 7.5-1.9zm-15.2 8.1c0.5-0.7 2.3-2.8 5.6-5.2l-7-13.2c-2.2 1.2-7.5 4.8-11 10zm-3.8 10.7c0.3-4.3 1.9-7.6 2.6-8.7l-12.4-8.4c-4.2 5.8-5.2 13.8-5.2 17.1z"/>
	<path class="s117" d="m224.8 217.1h14.9c0-7.5-3.4-14.5-5.1-17l-12.5 8.2c1.5 2.2 2.4 6.8 2.7 8.8z"/>
	<path fill-rule="evenodd" class="s118" d="m233.3 198.1l-12.2 8.1c-0.5-0.5-1.1-1.1-1.8-1.7l3.7-4.9-5.3 3.6c-1.1-0.9-2.1-1.7-2.4-1.9l6.8-13.3c2.6 1.4 8.4 5.5 11.2 10.1z"/>
	<path class="s119" d="m205.6 183.4c6.6-0.1 12.4 2.4 14.5 3.6l-6.9 13.3c-2.8-1.5-6.2-1.9-7.6-2z"/>
	<path class="s120" d="m203.4 198.3v-14.9c-6.9 0-12.6 2.4-14.5 3.6l7 13.2c2.2-1.2 5.9-1.8 7.5-1.9z"/>
	<path class="s121" d="m193.8 201.3c-3.2 2.3-5.1 4.4-5.6 5.2l-12.3-8.5c3.4-5.1 8.7-8.8 11-10z"/>
	<path class="s6" d="m184.3 217.1c0.3-4.3 1.9-7.6 2.7-8.7l-12.5-8.4c-4.1 5.9-5.2 13.9-5.2 17.1z"/>
	<path fill-rule="evenodd" class="s122" d="m205.7 211.5q-0.6-0.1-1.2-0.1c-3.9 0-7.1 3.2-7.1 7.1 0 3.9 3.2 7.1 7.1 7.1 3.9 0 7.1-3.2 7.1-7.1 0-1.1-0.2-2.1-0.6-3.1l1.5-2c1 1.4 1.6 3.2 1.6 5.1 0 5.3-4.3 9.5-9.6 9.5-5.2 0-9.5-4.2-9.5-9.5 0-5.2 4.3-9.5 9.5-9.5 1.3 0 2.6 0.3 3.7 0.8z"/>
	<path fill-rule="evenodd" class="s122" d="m204.5 223.6c-2.8 0-5-2.3-5-5.1 0-2.8 2.2-5 5-5 2.8 0 5.1 2.2 5.1 5 0 2.8-2.3 5.1-5.1 5.1zm2.8-5.1c0-1.6-1.2-2.8-2.8-2.8-1.6 0-2.8 1.2-2.8 2.8 0 1.5 1.2 2.8 2.8 2.8 1.6 0 2.8-1.3 2.8-2.8z"/>
	<path fill-rule="evenodd" class="s122" d="m213.3 215.8l15.4-20.3c0.2-0.5 0.2-1.5-1.3-1.4l-20.9 14.3-2 1 2.2 1.5 16.3-11.3-11.9 15.7 1.5 2.3z"/>
</svg>