<svg version="1.2" xmlns="http://www.w3.org/2000/svg" viewBox="0 0 378 243" width="378" height="243">
	<title>stuff (1)-svg</title>
	<style>
		.s0 { fill: #3b5dfe } 
		.s1 { fill: #fefefe } 
		.s2 { fill: #ddf1fc } 
		.s3 { fill: #151516 } 
		.s4 { fill: #1b1b1b } 
		.s5 { fill: #92d4fe } 
		.s6 { fill: #fe582a } 
		.s7 { fill: #ddf1fd } 
		.s8 { fill: #fe5729 } 
		.s9 { fill: #def2fd } 
		.s10 { fill: #fdfdfd } 
		.s11 { fill: #fd582b } 
		.s12 { fill: #141718 } 
		.s13 { fill: #fe592b } 
		.s14 { fill: #92d3fc } 
		.s15 { fill: #93d5fe } 
		.s16 { fill: #0b0c0d } 
		.s17 { fill: #17191b } 
		.s18 { fill: #91d3fc } 
		.s19 { fill: #fe582b } 
		.s20 { fill: #3d5efc } 
		.s21 { fill: #1c1e1f } 
		.s22 { fill: #94d5fe } 
		.s23 { fill: #1d1f1f } 
		.s24 { fill: #dff2fd } 
		.s25 { fill: #9ad7fe } 
		.s26 { fill: #95d5fe } 
		.s27 { fill: #0f1011 } 
		.s28 { fill: #161617 } 
		.s29 { fill: #97d6fe } 
		.s30 { fill: #94d5ff } 
		.s31 { fill: #1a1d1f } 
		.s32 { fill: #9ad7ff } 
		.s33 { fill: #99d7fe } 
		.s34 { fill: #dcf1fd } 
		.s35 { fill: #fafafa } 
		.s36 { fill: #fcfcfc } 
		.s37 { fill: #d8ebf6 } 
		.s38 { fill: #1a1919 } 
		.s39 { fill: #d9ecf7 } 
		.s40 { fill: #171819 } 
		.s41 { fill: #fdfefe } 
		.s42 { fill: #ff5f33 } 
		.s43 { fill: #ffffff } 
		.s44 { fill: #ff5f34 } 
		.s45 { fill: #202424 } 
		.s46 { fill: #ff6034 } 
		.s47 { fill: #252728 } 
		.s48 { fill: #262829 } 
		.s49 { fill: #fafdfe } 
		.s50 { fill: #f9f9f9 } 
		.s51 { fill: #ff5d31 } 
		.s52 { fill: #140f0e } 
		.s53 { fill: #323435 } 
		.s54 { fill: #1b1c1d } 
		.s55 { fill: #121415 } 
		.s56 { fill: #fbfdfe } 
		.s57 { fill: #1f2224 } 
		.s58 { fill: #08090a } 
		.s59 { fill: #1b1d1d } 
		.s60 { fill: #141516 } 
		.s61 { fill: #c2d1d8 } 
		.s62 { fill: #ff5e32 } 
		.s63 { fill: #212324 } 
		.s64 { fill: #fbfafa } 
		.s65 { fill: #191b1b } 
		.s66 { fill: #dbf1fd } 
		.s67 { fill: #0d1019 } 
		.s68 { fill: #16181a } 
		.s69 { fill: #94d2f9 } 
		.s70 { fill: #252627 } 
		.s71 { fill: #f4faff } 
		.s72 { fill: #191a1b } 
		.s73 { fill: #f75c32 } 
		.s74 { fill: #2a2c2c } 
		.s75 { fill: #ff683f } 
		.s76 { fill: #0a0b0c } 
		.s77 { fill: #ff6c43 } 
		.s78 { fill: #34373d } 
		.s79 { fill: #ff673d } 
		.s80 { fill: #eaf7ff } 
		.s81 { fill: #ff6c44 } 
		.s82 { fill: #ff6940 } 
		.s83 { fill: #262828 } 
		.s84 { fill: #eef8ff } 
		.s85 { fill: #202223 } 
		.s86 { fill: #1f2122 } 
		.s87 { fill: #242e33 } 
		.s88 { fill: #222324 } 
		.s89 { fill: #252727 } 
		.s90 { fill: #ff6a42 } 
		.s91 { fill: #9bd8fe } 
		.s92 { fill: #212425 } 
		.s93 { fill: #9cd8fe } 
		.s94 { fill: #98d7fe } 
		.s95 { fill: #191c1e } 
		.s96 { fill: #d0e5fd } 
		.s97 { fill: #98d6fe } 
		.s98 { fill: #96d6fe } 
		.s99 { fill: #ff6b43 } 
		.s100 { fill: #151617 } 
		.s101 { fill: #91c8eb } 
		.s102 { fill: #1a1b1c } 
		.s103 { fill: #17191a } 
		.s104 { fill: #171919 } 
		.s105 { fill: #292a2b } 
		.s106 { fill: #2f3132 } 
		.s107 { fill: #1c1e1e } 
		.s108 { fill: #1c1d1e } 
		.s109 { fill: #111213 } 
		.s110 { fill: #ff663c } 
		.s111 { fill: #3a5dff } 
		.s112 { fill: #101212 } 
		.s113 { fill: #d3e7f1 } 
		.s114 { fill: #2a2c2d } 
		.s115 { fill: #22252e } 
		.s116 { fill: #28292a } 
		.s117 { fill: #f6f8fe } 
		.s118 { fill: #1d1e1f } 
		.s119 { fill: #97d5fc } 
		.s120 { fill: #121414 } 
		.s121 { fill: #181a1b } 
		.s122 { fill: #313435 } 
		.s123 { fill: #3b3d3d } 
		.s124 { fill: #353738 } 
		.s125 { fill: #293237 } 
		.s126 { fill: #2b3338 } 
		.s127 { fill: #2e3437 } 
		.s128 { fill: #3f4142 } 
		.s129 { fill: #363838 } 
		.s130 { fill: #343637 } 
		.s131 { fill: #333536 } 
		.s132 { fill: #353637 } 
		.s133 { fill: #363839 } 
		.s134 { fill: #323434 } 
		.s135 { fill: #323334 } 
		.s136 { fill: #313334 } 
		.s137 { fill: #33373a } 
		.s138 { fill: #272d31 } 
		.s139 { fill: #303233 } 
		.s140 { fill: #222424 } 
		.s141 { fill: #141616 } 
		.s142 { fill: #2d2f30 } 
		.s143 { fill: #1e1f20 } 
		.s144 { fill: #131515 } 
	</style>
	<path class="s0" d="m104.6 19q0.2 0 0.5 0c0.3 0 0.3 0 0.5 0q1 0 1.9 0 0.7 0 1.3 0 1.9 0 3.7 0 1.9 0 3.8 0 3.2 0 6.3 0 3.7 0 7.4 0 3.2 0 6.3 0 1.9 0 3.8 0 1.8 0 3.6 0 0.6 0 1.3 0 0.9 0 1.8 0 0.2 0 0.5 0c1.2 0 1.2 0 1.7 0.3q0.2 0.8 0.3 1.7 0.1 0.3 0.1 0.5c0.1 0.7 0.2 1.3 0.2 2 0.3 0 0.3 0 0.6 0q7.1 0 14.1-0.1 3.4 0 6.8 0 3 0 5.9 0 1.6 0 3.2 0 1.5 0 2.9 0 0.6 0 1.1 0c3.4-0.1 6 0.9 8.6 3.2 2.3 2.3 3 5.2 3.4 8.3q0.1 0.5 0.2 1 0.1 0.8 0.2 1.5 0.3 1.7 0.6 3.5 0 0.2 0.1 0.4c0.1 0.8 0.1 0.8 0.4 1.6 0.1-0.2 0.1-0.2 0.3-0.3 9.1-9.9 21.7-17.6 35.5-18.2 10.9-0.4 21.4 2.6 29.9 9.6q0.2 0.1 0.3 0.3c7.1 5.7 11.8 13.5 13.4 22.5q0.1 0.5 0.2 1.1c0.4 1.9 0.4 3.9 0.4 5.9q0 0.2 0 0.5c0 2.9-0.2 5.6-0.8 8.4q0 0.2-0.1 0.5c-1.6 7.9-5.4 15.4-10.5 21.5q-0.2 0.2-0.3 0.4c-2.3 2.8-4.8 5.5-7.5 7.9q-0.4 0.2-0.7 0.5c-1.5 1.4-3.2 2.6-4.9 3.8-0.8 0.6-1.5 1.1-2.2 1.9q0.3 0.1 0.6 0.2c0.7 0.2 1.3 0.5 2 0.8q0.3 0.2 0.7 0.4 0.4 0.2 0.8 0.4 0.2 0.1 0.4 0.2 1.6 0.7 3.3 1.5 0.2 0.2 0.5 0.3 1.7 0.8 3.3 1.7 0.6 0.2 1.1 0.5c6 3 6 3 7.1 4 0.1 1.6-0.2 3.1-0.6 4.6-0.1 0.3-0.1 0.3-0.2 0.7q-0.8 3-1.7 6.1-0.7 2.2-1.3 4.5-0.1 0.3-0.2 0.6-0.1 0.2-0.1 0.4-0.2 0.6-0.4 1.1 0.5 0.7 1 1.4c0.9 1.2 1.6 2.3 2.3 3.6 0.1 0.2 0.1 0.2 0.2 0.5 0.7 1.4 1 2.7 1.1 4.3q0.1 0.4 0.1 0.9c0 0.2 0 0.2 0 0.4q0 0.7 0.1 1.4 0.1 2.1 0.1 4.2c8.7 0 17.4 0 26.3 0q0.1-0.6 0.2-1.3 0.2-0.7 0.5-1.3 0.1-0.4 0.3-0.8 0.1-0.4 0.3-0.9 0.2-0.4 0.3-0.9 0.4-0.9 0.8-1.9 0.9-2.3 1.7-4.6 0.2-0.6 0.4-1.1 1.6-4.1 3.1-8.1 0.1-0.3 0.2-0.6 0.8-2.3 1.7-4.5 0.9-2.5 1.8-5 0.4-1 0.8-2.1 0.4-1.2 0.9-2.3 0.1-0.4 0.2-0.7c1.5-3.8 3.8-6.6 7.5-8.4 1.6-0.7 3.1-0.7 4.9-0.7q0.5 0 0.9 0 1.2 0 2.4 0 1 0 2.1 0 2.3 0 4.7 0 2.5 0 4.9 0 2.1 0 4.3 0 1.2 0 2.5 0 1.2 0 2.3 0 0.7 0 1.3 0c1.7 0 3.3 0.1 4.7 1.1 1.1 1.1 1.7 2.2 1.8 3.9-0.1 2.3-1 4.4-1.8 6.5q-0.2 0.7-0.4 1.3-0.3 0.6-0.5 1.3-0.6 1.4-1.1 2.8-0.7 1.7-1.3 3.5-1.8 4.7-3.6 9.5-0.6 1.6-1.2 3.1-0.3 1-0.7 1.9-0.2 0.7-0.5 1.3-1.6 4.4-3.2 8.8c4.2 0.1 8.5 0.1 12.9 0.2q0 0.5 0 0.9c-27.1 0-54.2 0-82.2 0q0.2 1.4 0.3 2.9 0.5 0 1.1 0 13.8 0 27.5 0 1.7 0 3.4 0c0.3 0 0.3 0 0.7 0q5.4 0 10.9 0 5.6 0 11.2 0 3.4 0 6.9 0 2.3 0 4.7 0 1.4 0 2.7 0 1.3 0 2.5 0 0.7 0 1.4 0 0.4 0 0.8 0c0.3 0 0.3 0 0.7 0 0.5 0 0.5 0 0.7 0.2-0.1 1.9-0.4 3.7-0.7 5.6q-0.1 0.4-0.1 0.9-0.2 1.4-0.4 2.7-0.2 0.8-0.3 1.7-1.2 8.6-2.6 17.1-1.1 7.2-2.1 14.3-1 6.9-2 13.8-0.2 0.7-0.3 1.5-0.1 1-0.3 2.1 0 0.3-0.1 0.6c-0.2 1.4-0.2 1.4-0.5 1.6q-0.4 0-0.9 0-0.3 0-0.7 0c-0.3 0-0.3 0-0.7 0q-0.3 0-0.7 0-1.3 0-2.5 0-0.9 0-1.8 0-1.9 0-3.8 0-2.8 0-5.6 0-4.5 0-9 0-4.4 0-8.8 0-0.3 0-0.6 0-1.3 0-2.7 0-11.2 0-22.5 0c0.1 0.2 0.1 0.2 0.1 0.4q0.1 0.3 0.2 0.5c0 0.3 0 0.3 0.1 0.6 0.1 0.5 0.1 0.5-0.1 1.6-6.4 0-12.8 0-19.4 0-0.2-1.1-0.2-1.1 0.7-2.9-7.4-0.1-14.7-0.1-22.3-0.2q0 1.4 0 2.9c-0.4 0.4-1.4 0.2-2 0.2q-0.3 0.1-0.6 0.1-0.9 0-1.9 0-0.6 0-1.3 0-1.3 0-2.7 0-1.7 0-3.5 0-1.3 0-2.7 0-0.6 0-1.2 0-1 0-1.9 0c-0.2 0-0.2 0-0.5 0-0.5 0-0.5 0-1.3-0.1-0.5-0.7-0.5-1-0.4-1.9q0-0.3 0-0.7c0-0.2 0-0.2 0-0.5q-0.3 0-0.5 0-1.2 0-2.3 0-0.4 0-0.8 0-0.4 0-0.7 0c-0.4 0-0.4 0-0.7 0-0.6 0-0.6 0-0.8-0.2-0.1-1.7-0.1-1.7 0.2-2.2-0.3 0-0.3 0-0.7 0q-15.6 0-31.1 0c-0.3 0-0.3 0-0.5 0q-5.1 0-10.2 0-2.6 0-5.1 0c-0.2 0-0.2 0-0.5 0q-8.1 0-16.2 0-8.3 0-16.6 0-1.2 0-2.4 0c-0.2 0-0.2 0-0.4 0q-3.8 0-7.5 0-3.7 0.1-7.5 0.1-2-0.1-4 0-1.9 0-3.8 0-0.6 0-1.3 0c-3.9 0-6.6-0.6-9.5-3.3-2.5-2.6-3.1-5.9-3.6-9.3q-0.1-0.5-0.2-0.9-0.2-1.2-0.3-2.3-0.3-1.9-0.6-3.7-0.1-0.7-0.2-1.3c-0.3-1.3-0.5-2.6-0.8-3.9-0.1-0.8-0.1-1.6-0.1-2.4-14.7 0-29.5 0-44.7 0-1.3-7.9-1.3-7.9-1.6-10.4q-0.1-0.7-0.2-1.3-0.1-0.7-0.2-1.4-0.4-2.2-0.7-4.5-0.1-0.5-0.1-1-0.8-4.9-1.5-9.9-0.1-0.4-0.1-0.8-0.3-1.7-0.5-3.4-0.5-3.1-1-6.3-0.4-2.5-0.7-5-0.1-0.3-0.1-0.6-1-6.5-2-13 0-0.3-0.1-0.6-0.2-1.4-0.4-2.7 0-0.3-0.1-0.6-0.1-0.5-0.1-1.1-1.3-8.6-2.6-17.2-1.1-7.5-2.2-14.9-1.4-8.6-2.6-17.2-0.2-1.3-0.4-2.6 0-0.3-0.1-0.5-0.5-3.8-1.1-7.6-0.1-0.5-0.1-0.9-0.4-2.2-0.7-4.5-0.1-0.7-0.2-1.5-0.1-0.4-0.2-0.7 0-0.3-0.1-0.7 0-0.2 0-0.5c-0.1-0.6-0.1-0.6-0.1-1.7 8.7 0 17.5 0 26.5 0-0.2-1.2-0.2-1.2-0.5-2.4q-0.1-0.7-0.2-1.4-0.1-0.4-0.1-0.7c-0.1-0.6-0.1-0.6-0.1-1.7 5 0 10 0 15.1 0-0.8-5.5-0.8-5.5-1.8-11-2.1-10.5-2.1-10.5-0.4-13.3 1.2-1.6 2.7-2.9 4.7-3.3q0.7 0 1.5 0 0.2 0 0.5 0 0.8 0 1.5 0 0.6 0 1.1 0 1.6 0 3.1 0 1.5 0 3.1 0 3 0 6 0 3.4 0 6.8 0 7 0 14 0-0.1-0.3-0.2-0.5c0-0.4 0-0.4-0.1-0.8q-0.1-0.3-0.2-0.7c-0.2-0.8-0.3-1.4-0.2-2.2 0.4-0.4 0.9-0.3 1.5-0.3z"/>
	<path class="s1" d="m68 31.1c12.2 0 24.5 0 37.1 0 0.4 2.2 0.8 4.5 1.1 6.9q0.1 0.2 0.3 0.4c4 0.1 4 0.1 8.2 0.2q-0.3 0.8-0.7 1.6c-0.2 1.4-0.1 2.8 0.6 4.1 0.8 1 1.7 1.7 3 2.1 0.5 0.1 0.5 0.1 1.1 0.1 0.3 0 0.3 0 0.6 0 0.4 0 0.4 0 0.7 0q0.4 0 0.8 0 1.2 0 2.4 0 0.9 0 1.8 0 1.7 0 3.5 0 2.1 0 4.2 0 2 0 3.9 0 0.9 0 1.7 0 1.2 0 2.4 0c0.3 0 0.3 0 0.7 0 1.2 0 2.1 0 3.1-0.7 1.1-1.3 1.2-2.1 1.2-3.7-0.1-1.2-0.7-1.9-1.4-2.8q-0.2-0.3-0.5-0.7c2.7 0 5.3-0.1 8.1-0.2-0.2-1.5-0.3-3-0.6-4.5-0.2-1-0.3-1.9-0.3-2.8 12.4 0 24.8 0 37.6 0 0.3 1.1 0.5 2.2 0.7 3.4q0.1 0.5 0.2 1 0 0.3 0 0.5 0.9 5.5 1.9 11 0.1 0.2 0.1 0.5 0.1 0.5 0.2 1 0.2 1 0.3 2.1c0.1 0.8 0.2 1 0.8 1.4q0.2 0.2 0.4 0.4 0.2 0.2 0.5 0.3 0.2 0.2 0.4 0.4 0.7 0.6 1.4 1.1 0.6 0.5 1.2 1.1 0.3 0.2 0.6 0.4 1 0.8 2 1.6 1.2 1.1 2.5 2.1 1.6 1.3 3.1 2.6 1.1 1 2.3 1.9 1.3 1.1 2.6 2.2 2 1.7 3.9 3.3 2.2 1.7 4.3 3.5 1.5 1.2 3 2.5 0.9 0.7 1.9 1.5c-0.4 0.3-0.4 0.3-0.9 0.5-1-0.5-1.7-1.2-2.5-1.8q-0.4-0.4-0.8-0.7c-0.2-0.2-0.2-0.2-0.4-0.3q-0.8-0.7-1.6-1.4-1.5-1.2-3-2.5-1.1-1-2.3-1.9-1.5-1.3-3-2.5-1.2-1-2.3-2-1.4-1.1-2.7-2.2-1.6-1.3-3.2-2.7-1.3-1-2.6-2-0.2-0.2-0.5-0.4-1.7-1.5-3.4-2.9c-0.6-0.6-0.6-0.6-1.3-1 0 0.2 0 0.2 0 0.4 2.3 12.6 2.3 12.6 3.1 17.9q0.3 2.1 0.7 4.2c0.5 2.5 0.9 5 1.3 7.5q0.4 2.3 0.7 4.6c0.1 0.2 0.1 0.2 0.1 0.5q0.7 3.9 1.4 7.9 0.6 3.6 1.2 7.2 0.1 0.4 0.1 0.7c0.1 0.3 0.1 0.3 0.1 0.6q0.1 0.3 0.1 0.6c0.1 0.4 0.1 0.4 0.1 1.3 1.3-1 2.6-2.1 3.9-3.2q1.2-1 2.5-2 1.2-1 2.4-2.1 1.4-1.4 3-2.6 1.1-0.9 2.1-1.8 0.2-0.1 0.4-0.3 0.4-0.3 0.8-0.7c0.2 0.5 0.2 0.5 0.1 1-0.5 1.5-0.5 1.5-1.3 2.1q-0.6 0.2-1.2 0.5c-0.7 0.3-1.1 0.9-1.6 1.6q-0.6 0.3-1.1 0.6-0.5 0.5-1 0.9-1.2 1.1-2.4 2.1-1.8 1.4-3.5 2.9-0.1 0.2-0.4 0.3-0.1 0.2-0.3 0.4c-0.4 0.3-0.4 0.3-0.8 0.6-0.5 0.2-0.5 0.2-1 0.8 0 2.1 0.4 4.2 0.8 6.2q0 0.4 0.1 0.9 0.2 1.2 0.4 2.4 0.1 0.8 0.3 1.5 1 6.4 2.2 12.8 0.6 3.2 1 6.5 0.4 2.1 0.8 4.2 0.7 4.2 1.4 8.4 0.3 2.2 0.7 4.5 0 0.2 0.1 0.4 0.7 4.2 1.4 8.3 0.7 4.1 1.4 8.3 0.6 3.5 1.2 7 0.3 1.7 0.6 3.3 0.1 1 0.3 2.1 0.1 0.6 0.2 1.2c0.1 0.2 0.1 0.2 0.1 0.4 1.3 7.8-1.8 15.6-3 23.3-37.6 0-75.3 0-114.1 0-0.8-4.4-1.5-8.9-2.2-13.5q-0.5-2.7-0.9-5.4c12.1 0 24.2 0 36.7 0q-2.1-14.3-4.3-28.7-1-6.5-1.9-13-1.1-7.4-2.3-14.9-1.2-7.8-2.3-15.7-0.1-0.5-0.2-1 0-0.3-0.1-0.6-0.2-1.3-0.3-2.6c-0.1-0.3-0.1-0.3-0.1-0.5q-1.1-7.1-2.1-14.2-0.5-3.2-1-6.3-0.3-2.2-0.6-4.5-0.1-0.5-0.2-1.1-1-6.4-2-12.9-0.1-0.9-0.2-1.8-0.4-2.6-0.8-5.3-0.2-1-0.4-2.1 0-0.5-0.1-1-0.1-0.2-0.1-0.4 0-0.2 0-0.4c-0.4-2-0.6-4-0.8-6.1-8.8 0-17.6 0-26.7 0-0.3-2.1-0.6-4.2-0.9-6.4-4.3 0-8.5 0-12.9 0q-1.2-6.8-2.4-13.5-0.1-0.7-0.2-1.3-0.1-0.9-0.3-1.8 0-0.2 0-0.5-0.1-0.3-0.1-0.5-0.1-0.2-0.1-0.4c-0.1-0.6 0-1.2 0-1.8z"/>
	<path class="s1" d="m102.7 57.8q0.8 0 1.7-0.1 1.3 0 2.7 0 0.5 0 1 0 0.7 0 1.4 0 0.4 0.1 0.8 0.1c0.6 0 0.6 0 0.8 0.2q0.2 0.7 0.2 1.3 0.1 0.4 0.2 0.9 0 0.4 0.1 0.9 0.1 0.5 0.1 1 0.2 1.1 0.4 2.1 0.4 2.9 0.8 5.8 0 0.3 0.1 0.6 0.8 5.8 1.7 11.6 1.3 8.4 2.6 16.9 1.2 8.2 2.4 16.4 1.2 7.8 2.4 15.7 0 0.4 0.1 0.9 0 0.3 0.1 0.5 0.1 1.2 0.3 2.3 0.1 0.3 0.1 0.5 0.7 4.9 1.4 9.7 0.1 0.4 0.1 0.8 0.8 5.1 1.6 10.2 0.1 0.6 0.2 1.1c0 0.3 0 0.3 0 0.6q0.2 1.1 0.4 2.2 0.1 0.6 0.2 1.2 1.4 9.3 2.7 18.6c0.1 0.2 0.1 0.2 0.1 0.4q0.2 1.1 0.3 2.1 0.3 1.9 0.6 3.7 0 0.3 0.1 0.7 0 0.5 0.1 1.1c0.1 0.7 0.2 1.3 0.2 2-28.8 0-57.6 0-87.2 0-0.8-3.8-0.8-3.8-1-5.1q0-0.2 0-0.4-0.1-0.7-0.2-1.4-0.1-0.5-0.2-1-0.1-1-0.3-2.1-0.2-1.7-0.5-3.4 0-0.2 0-0.5-0.1-0.6-0.2-1.2-0.1-0.8-0.3-1.7-0.7-4.9-1.4-9.9-0.1-0.4-0.1-0.8-0.3-1.6-0.5-3.3-0.5-3.1-1-6.3-0.4-2.5-0.7-5c-0.1-0.2-0.1-0.2-0.1-0.5q-1-6.6-2-13.1 0-0.3-0.1-0.5-0.2-1.4-0.4-2.8 0-0.3-0.1-0.5-0.1-0.6-0.1-1.1-1.4-8.7-2.6-17.3-1.1-7.4-2.2-14.8-1.4-8.6-2.6-17.3-0.2-1.3-0.4-2.6c0-0.2 0-0.2-0.1-0.5q-0.9-6.4-1.9-12.9-0.1-0.4-0.1-0.8-0.1-0.7-0.2-1.4c-0.1-0.3-0.1-0.3-0.1-0.7q-0.1-0.2-0.1-0.5-0.2-1.2-0.3-2.4c8.6 0 17.2 0 26 0 0.7 4.2 0.7 4.2 0.7 5.3 11.7 0 23.3 0 35.4 0q-0.4-2.6-0.7-5.3c5.9-0.2 11.7-0.2 17.6-0.2z"/>
	<path class="s2" d="m263.4 34q0.2 0.1 0.3 0.3c7.1 5.7 11.8 13.5 13.4 22.5q0.1 0.5 0.2 1.1c0.4 1.9 0.4 3.9 0.4 5.9 0 0.2 0 0.2 0 0.5 0 2.9-0.2 5.6-0.8 8.4 0 0.3 0 0.3-0.1 0.5-1.6 7.9-5.4 15.4-10.5 21.5q-0.2 0.2-0.3 0.4c-2.3 2.8-4.8 5.5-7.5 7.9-0.4 0.2-0.4 0.2-0.7 0.5-1.5 1.4-3.2 2.6-4.9 3.8-0.8 0.6-1.5 1.1-2.2 1.9q0.3 0.1 0.6 0.2c0.7 0.2 1.3 0.5 2 0.8q0.3 0.2 0.7 0.4c0.4 0.2 0.4 0.2 0.8 0.4q0.2 0.1 0.4 0.2 1.6 0.7 3.3 1.5 0.2 0.2 0.5 0.3 1.7 0.8 3.3 1.7 0.6 0.2 1.1 0.5c6.1 3 6.1 3 7.1 4 0.1 1.6-0.2 3.1-0.6 4.6q-0.1 0.3-0.2 0.7-0.8 3-1.7 6.1-0.4 1.3-0.8 2.6-0.1 0.3-0.1 0.7-0.2 0.6-0.4 1.2 0 0.2-0.1 0.5-0.1 0.3-0.1 0.5c-0.7 1.4-1.9 1.9-3.3 2.5q-0.2 0.1-0.5 0.2-0.9 0.4-1.8 0.8-0.6 0.3-1.3 0.5-1.2 0.6-2.4 1.1-1.5 0.6-2.9 1.3c-0.4 0.1-0.4 0.1-0.8 0.3q-0.7 0.3-1.4 0.6-1.8 0.9-3.6 1.5c-2.5 0.8-2.5 0.8-4.4 2.4-0.6 1.2-0.9 2.4-1.1 3.7-0.2 1-0.6 2-1 2.9-8.5 0-17 0-25.8 0-1-5.3-1-5.3-1.5-7.9q-0.1-0.6-0.2-1.3-0.1-0.6-0.2-1.3-0.4-2.4-0.8-4.8-0.1-0.3-0.1-0.5-0.7-4.3-1.5-8.5-1.3-7.6-2.5-15.2-0.1-0.4-0.1-0.8-0.2-0.8-0.3-1.6-0.3-2.1-0.7-4.2-0.1-0.4-0.2-0.9-0.1-0.8-0.3-1.7-0.1-0.4-0.1-0.7c-0.1-0.4-0.1-0.4-0.2-0.7 0-0.7 0.1-1 0.4-1.5q0.5-0.5 1.1-1 0.3-0.2 0.6-0.5 0.3-0.3 0.6-0.5c0.2-0.2 0.2-0.2 0.4-0.4 0.6-0.5 1.1-0.9 1.8-1.2 0.3-0.3 0.3-0.3 0.6-0.7 0.5-0.7 0.9-0.9 1.8-1.1 0.5-0.1 0.5-0.1 0.9-0.4 0.4-0.8 0.6-1.6 0.7-2.4-0.3 0.2-0.3 0.2-0.6 0.5q-1.9 1.6-3.8 3.2-1.4 1.2-2.8 2.4-1.2 1-2.4 2-1.4 1.2-2.8 2.4c-2.2 1.9-2.2 1.9-2.7 1.9q-0.9-4.4-1.6-8.8-0.7-4.7-1.5-9.3c-0.7-3.4-1.2-6.7-1.7-10.1q-0.4-2.9-1-5.8c-0.5-2.6-0.9-5.2-1.4-7.8q-0.2-1.4-0.4-2.9-0.1-0.3-0.1-0.6-0.4-2.7-1-5.3c-0.2-0.9-0.3-1.8-0.2-2.8 0.9 0.4 1.6 1 2.3 1.7q1.4 1.2 2.8 2.3 1.5 1.2 2.9 2.4 1.1 1 2.3 2 1.5 1.2 3.1 2.5 1.1 1 2.3 1.9 1.5 1.3 3 2.5 1.1 1 2.3 2 1.3 1.1 2.7 2.2 1.9 1.6 3.9 3.2 0.2 0.2 0.5 0.4 0.2 0.2 0.5 0.4 0.1 0.2 0.4 0.3c0.5 0.3 0.7 0.2 1.2 0q-2.4-2.1-4.9-4.1-3.2-2.6-6.3-5.3-1.4-1.2-2.8-2.3-1.1-0.9-2.1-1.7-1.3-1.2-2.7-2.3-0.3-0.2-0.6-0.5-0.8-0.6-1.6-1.2c-1.2-0.9-1.8-1.5-2-3q-0.1-0.5-0.2-1c0-0.2 0-0.2 0-0.5q-0.2-1.3-0.5-2.5-0.2-1.4-0.5-2.8-0.1-0.8-0.2-1.5-0.2-1.1-0.4-2.1c-0.1-0.3-0.1-0.3-0.1-0.7-0.3-1.9-0.3-1.9 0.2-2.8 0.3-0.4 0.3-0.4 0.7-0.8q0.2-0.2 0.4-0.4 0.2-0.2 0.5-0.5 0.2-0.2 0.4-0.4c14.1-14.7 35.7-20.3 63.5-6.5z"/>
	<path fill-rule="evenodd" class="s3" d="m104.6 19q0.2 0 0.5 0c0.3 0 0.3 0 0.5 0q1 0 1.9 0 0.7 0 1.3 0 1.9 0 3.7 0 1.9 0 3.8 0 3.2 0 6.3 0 3.7 0 7.4 0 3.2 0 6.3 0 1.9 0 3.8 0 1.8 0 3.6 0 0.6 0 1.3 0 0.9 0 1.8 0 0.2 0 0.5 0c1.2 0 1.2 0 1.7 0.3q0.2 0.8 0.3 1.7 0.1 0.3 0.1 0.5c0.1 0.7 0.2 1.3 0.2 2 0.3 0 0.3 0 0.6 0q7.1 0 14.1-0.1 3.4 0 6.8 0 3 0 5.9 0 1.6 0 3.2 0 1.5 0 2.9 0 0.6 0 1.1 0c3.4-0.1 6 0.9 8.6 3.2 2.1 2.1 2.9 4.8 3.3 7.7q0.1 0.7 0.2 1.5 0.1 0.5 0.2 1.1 0.4 2.7 0.9 5.5 0.1 0.4 0.2 0.9 0.3 1.7 0.6 3.3c0.6 3.8 1.3 7.6 1.7 11.4q-0.4-0.3-0.8-0.6-0.3-0.2-0.5-0.4-0.8-0.6-1.5-1.3-1.5-1.3-3-2.5-0.3-0.3-0.6-0.5-0.2-0.2-0.4-0.3c-1-0.7-1.4-1.3-1.6-2.5q0-0.2 0-0.5c-0.1-0.3-0.1-0.3-0.1-0.6q-0.1-0.9-0.3-1.8-0.1-0.6-0.2-1.2-0.1-1-0.3-2c-0.3-2.2-0.7-4.5-1.1-6.7-0.4-2-0.7-4-0.9-6-12.4 0-24.8 0-37.6 0 0.5 3.1 0.5 3.1 1.1 6.2q0 0.6 0 1.1c-0.5 0.5-1.4 0.3-2 0.3-0.2 0-0.2 0-0.5 0q-0.8 0-1.6 0.1-0.6 0-1.2 0-1.4 0-2.7 0.1 0.1 0.1 0.2 0.3c0.2 0.2 0.2 0.2 0.4 0.4 0.2 0.2 0.2 0.2 0.4 0.4 1 1.3 0.9 2.6 0.8 4.2-0.5 1-1.1 1.6-2.1 2.2-0.6 0.2-1 0.3-1.7 0.3q-0.3 0-0.6 0c-0.4 0-0.4 0-0.7 0q-0.4 0-0.8 0-1.2 0-2.4 0-0.4 0-0.9 0-2 0-3.9 0-2.3 0-4.6 0-2 0-4 0-0.9 0-1.7 0.1-1.2 0-2.4 0-0.3 0-0.7 0c-1.6 0-2.8-0.4-4.1-1.5-0.2-0.2-0.2-0.2-0.4-0.4q-0.1-0.2-0.3-0.5c-0.7-0.9-0.9-1.7-0.9-2.9q0-0.3 0-0.6c0.1-0.8 0.4-1.3 0.8-2q-0.4 0-0.8 0-1.3-0.1-2.6-0.1-0.6 0-1.2 0-0.8 0-1.6 0-0.3-0.1-0.6-0.1c-0.5 0-0.5 0-1.2-0.1-0.5-0.6-0.6-1-0.7-1.8q-0.1-0.4-0.1-0.7-0.1-0.4-0.2-0.7 0-0.4-0.1-0.8c-0.2-1.2-0.3-2.3-0.3-3.5-12.2 0-24.5 0-37.1 0 1.5 9.2 1.5 9.2 3.1 18.4q0 0.7 0 1.4c4.2 0 8.5 0 12.9 0 0.5 2.3 0.5 2.3 0.7 3.3q0 0.3 0.1 0.7c0.1 0.8 0.1 1.6 0.1 2.4 8.8 0 17.6 0 26.7 0 0.8 4.4 0.8 4.4 1.1 6.5q0 0.3 0 0.5 0.1 0.3 0.1 0.5 0.1 0.5 0.2 1 0.2 1.4 0.4 2.8 0.1 0.9 0.3 1.8 1.3 9 2.6 18 0.2 0.9 0.3 1.9c0.1 0.2 0.1 0.2 0.1 0.4q0.7 4.8 1.4 9.7 0.1 0.4 0.1 0.8 0.8 5.1 1.6 10.2 0.1 0.5 0.2 1.1c0 0.3 0 0.3 0 0.6q0.3 1.4 0.5 2.8 0 0.2 0.1 0.5 1.2 8.1 2.4 16.2 0 0.5 0.1 0.9 0 0.3 0.1 0.5 0.1 1.2 0.3 2.3c0 0.3 0 0.3 0.1 0.5q0.7 4.8 1.4 9.6 0.1 0.4 0.1 0.8 0.8 5.1 1.6 10.3 0.1 0.5 0.2 1.1 0 0.2 0 0.5 0.2 1.1 0.4 2.3 0.1 0.5 0.2 1.1 1.3 9.1 2.7 18.3 0.1 0.7 0.2 1.4 0.1 0.8 0.2 1.6 0.3 2.1 0.7 4.2c0.1 0.8 0.1 1.6 0.1 2.4-18.1 0.1-18.1 0.1-36.5 0.2 0.9 5.7 1.9 11.4 2.9 17.2q0 0.7 0 1.5c37.7 0 75.3 0 114.1 0q0.2-1.6 0.3-3.3 0.1-1 0.3-1.9 0-0.3 0-0.5 0.1-0.6 0.2-1.1 0.1-0.8 0.3-1.7 0.4-2.4 0.7-4.8 0.3-1.4 0.5-2.9 0.1-0.6 0.2-1.1c0.4-2.6 0.4-5 0-7.6q-0.1-0.5-0.2-1-0.1-0.9-0.2-1.8-0.1-0.2-0.1-0.5-0.1-0.2-0.1-0.5-0.1-0.5-0.2-1-0.6-3.6-1.3-7.2c-0.5-3-1-5.9-1.5-8.9q-0.6-4.4-1.5-8.8c-0.5-3-1-6.1-1.5-9.2q-0.4-3.3-1.1-6.5-0.5-2.3-0.8-4.7c-0.5-3.2-1-6.3-1.6-9.5q-1-5.3-1.8-10.7-0.1-0.6-0.2-1.3-0.2-0.8-0.3-1.7-0.1-0.3-0.1-0.5c-0.2-1-0.3-2-0.2-3 0.5-0.5 0.5-0.5 1.1-1.1q0.3-0.2 0.7-0.5 0.3-0.3 0.7-0.6 0.3-0.3 0.6-0.6 1.3-1 2.7-2.1 0.5 1.9 0.8 3.8 0 0.3 0.1 0.6 0.2 1 0.3 1.9 0.1 0.7 0.2 1.4 0.3 1.8 0.6 3.6 0.6 3.2 1.1 6.4c0 0.3 0 0.3 0.1 0.7q1 6.1 2.1 12.1 0.7 4.1 1.4 8.2 0.2 1.1 0.4 2.3 0.1 0.9 0.3 1.8 0.1 0.6 0.2 1.2c0.4 2.4 0.7 4.8 1.1 7.2 8.5 0 17 0 25.8 0q-0.1 0.5-0.2 0.9c-9.4 0-18.7 0-28.3 0q0 1.7 0 3.4 1.7 0 3.3 0c0.6 2.2 1 4.5 1.4 6.9 0.4-2 0.8-4 1-6 0.1-0.7 0.1-0.7 0.3-1.4 7 0 14 0 21.2 0q-0.1 0.4-0.3 0.9c-6.6 0-13.2 0-20 0-0.3 2.2-0.6 4.4-0.9 6.7-0.5 3.3-0.5 3.3-0.6 4.4-0.1 0.4-0.1 0.4-0.2 0.8q0 0.4-0.1 0.8-0.1 0.8-0.2 1.7-0.2 1.3-0.4 2.7-0.6 3.6-1.1 7.1-1.9 12.8-3.9 25.5 0 0.2 0 0.5-0.2 1.3-0.4 2.5-0.3 2.1-0.6 4.2-0.1 0.3-0.1 0.6-0.1 0.6-0.2 1.1c-0.2 1.2-0.2 1.2-0.4 1.7q2.7 0 5.5 0 0.3-0.4 0.5-0.9c0.9-0.9 2-1.6 3.1-2.2 2.8-1.5 4.2-3.1 5.3-6 1.6 0.1 3 0.5 4.5 0.9q0.7 0.3 1.4 0.5 0.3 0.1 0.7 0.2 1.6 0.5 3.2 0.9c0.5 0.2 0.5 0.2 0.7 0.4q0 0.7 0 1.4 0 0.4 0 0.8 0 0.5 0 0.9 0 0.5 0 0.9 0 1.1 0 2.2 4.6 0 9.1 0 2.1 0 4.3 0 2 0 4-0.1 0.8 0 1.6 0 1.1 0 2.2 0 0.3 0 0.6 0c1.4 0 2.3-0.3 3.5-0.9q0.8-0.5 1.6-0.8c1.2-0.5 1.9-1 2.5-2.2 0.2-0.5 0.2-0.5 0.4-0.9 0.6-0.2 0.6-0.2 1.1-0.2 0 1.3-0.6 2.3-1.5 3.3-1.1 0.9-2.2 1.4-3.6 1.8 4.6 0.1 9.1 0.2 13.8 0.2q-0.2-1.1-0.4-2.2-0.1-0.6-0.2-1.2-0.1-0.3-0.1-0.7 0-0.3-0.1-0.6 0-0.3-0.1-0.6-0.1-0.8-0.2-1.6 0.6-0.1 1.1-0.2 0.2 1.2 0.5 2.5 0 0.3 0.1 0.7 0.1 0.3 0.1 0.6 0.1 0.3 0.1 0.7c0.1 0.8 0.1 1.6 0.1 2.4 7.3 0 14.6 0 22 0 0.4-2.5 0.4-2.5 0.7-5.1q0.2-1.4 0.4-2.7c0.1-0.4 0.1-0.4 0.1-0.7q0.2-1.1 0.3-2.2 0.2-0.9 0.3-1.7 0.3-1.7 0.5-3.4 0.4-2.5 0.8-5 0.6-4.1 1.2-8.2 0.6-3.9 1.2-7.9 0-0.2 0-0.5 0.4-2.1 0.7-4.3 1.4-9.2 2.7-18.4c-17.9-0.1-17.9-0.1-36.2-0.2q0-0.4 0-0.9 14.3 0 28.6 0 1.7 0 3.4 0c0.3 0 0.3 0 0.7 0q5.4 0 10.9 0 5.6 0 11.2 0 3.4 0 6.9 0 2.3 0 4.7 0 1.4 0 2.7 0 1.3 0 2.5 0 0.7 0 1.4 0 0.4 0 0.8 0c0.3 0 0.3 0 0.7 0 0.5 0 0.5 0 0.7 0.2-0.1 1.9-0.4 3.7-0.7 5.6q-0.1 0.4-0.1 0.9-0.2 1.4-0.4 2.7-0.2 0.8-0.3 1.7-1.2 8.6-2.6 17.1-1.1 7.2-2.1 14.3-1 6.9-2 13.8-0.2 0.7-0.3 1.5-0.1 1-0.3 2.1 0 0.3-0.1 0.6c-0.2 1.4-0.2 1.4-0.5 1.6q-0.4 0-0.9 0-0.3 0-0.7 0c-0.3 0-0.3 0-0.7 0q-0.3 0-0.7 0-1.3 0-2.5 0-0.9 0-1.8 0-1.9 0-3.8 0-2.8 0-5.6 0-4.5 0-9 0-4.4 0-8.8 0-0.3 0-0.6 0-1.3 0-2.7 0-11.2 0-22.5 0c0.1 0.2 0.1 0.2 0.1 0.4q0.1 0.3 0.2 0.5c0 0.3 0 0.3 0.1 0.6 0.1 0.5 0.1 0.5-0.1 1.6-6.4 0-12.8 0-19.4 0-0.2-1.1-0.2-1.1 0.7-2.9-7.4-0.1-14.7-0.1-22.3-0.2q0 1.4 0 2.9c-0.4 0.4-1.4 0.2-2 0.2q-0.3 0.1-0.6 0.1-0.9 0-1.9 0-0.6 0-1.3 0-1.3 0-2.7 0-1.7 0-3.5 0-1.3 0-2.7 0-0.6 0-1.2 0-1 0-1.9 0c-0.2 0-0.2 0-0.5 0-0.5 0-0.5 0-1.3-0.1-0.5-0.7-0.5-1-0.4-1.9q0-0.3 0-0.7c0-0.2 0-0.2 0-0.5q-0.3 0-0.5 0-1.2 0-2.3 0-0.4 0-0.8 0-0.4 0-0.7 0c-0.4 0-0.4 0-0.7 0-0.6 0-0.6 0-0.8-0.2-0.1-1.7-0.1-1.7 0.2-2.2-0.3 0-0.3 0-0.7 0q-15.6 0-31.1 0c-0.3 0-0.3 0-0.5 0q-5.1 0-10.2 0-2.6 0-5.1 0c-0.2 0-0.2 0-0.5 0q-8.1 0-16.2 0-8.3 0-16.6 0-1.2 0-2.4 0c-0.2 0-0.2 0-0.4 0q-3.8 0-7.5 0-3.7 0.1-7.5 0.1-2-0.1-4 0-1.9 0-3.8 0-0.6 0-1.3 0c-3.9 0-6.6-0.6-9.5-3.3-2.5-2.6-3.1-5.9-3.6-9.3q-0.1-0.5-0.2-0.9-0.2-1.2-0.3-2.3-0.3-1.9-0.6-3.7-0.1-0.7-0.2-1.3c-0.3-1.3-0.5-2.6-0.8-3.9-0.1-0.8-0.1-1.6-0.1-2.4-14.7 0-29.5 0-44.7 0-1.3-7.9-1.3-7.9-1.6-10.4q-0.1-0.7-0.2-1.3-0.1-0.7-0.2-1.4-0.4-2.2-0.7-4.5-0.1-0.5-0.1-1-0.8-4.9-1.5-9.9-0.1-0.4-0.1-0.8-0.3-1.7-0.5-3.4-0.5-3.1-1-6.3-0.4-2.5-0.7-5-0.1-0.3-0.1-0.6-1-6.5-2-13 0-0.3-0.1-0.6-0.2-1.4-0.4-2.7 0-0.3-0.1-0.6-0.1-0.5-0.1-1.1-1.3-8.6-2.6-17.2-1.1-7.5-2.2-14.9-1.4-8.6-2.6-17.2-0.2-1.3-0.4-2.6 0-0.3-0.1-0.5-0.5-3.8-1.1-7.6-0.1-0.5-0.1-0.9-0.4-2.2-0.7-4.5-0.1-0.7-0.2-1.5-0.1-0.4-0.2-0.7 0-0.3-0.1-0.7 0-0.2 0-0.5c-0.1-0.6-0.1-0.6-0.1-1.7 8.7 0 17.5 0 26.5 0-0.2-1.2-0.2-1.2-0.5-2.4q-0.1-0.7-0.2-1.4-0.1-0.4-0.1-0.7c-0.1-0.6-0.1-0.6-0.1-1.7 5 0 10 0 15.1 0-0.8-5.5-0.8-5.5-1.8-11-2.1-10.5-2.1-10.5-0.4-13.3 1.2-1.6 2.7-2.9 4.7-3.3q0.7 0 1.5 0 0.2 0 0.5 0 0.8 0 1.5 0 0.6 0 1.1 0 1.6 0 3.1 0 1.5 0 3.1 0 3 0 6 0 3.4 0 6.8 0 7 0 14 0-0.1-0.3-0.2-0.5c0-0.4 0-0.4-0.1-0.8q-0.1-0.3-0.2-0.7c-0.2-0.8-0.3-1.4-0.2-2.2 0.4-0.4 0.9-0.3 1.5-0.3zm-19.5 39q0.3 2.6 0.7 5.3c-11.7 0-23.4 0-35.4 0q-0.1-1.1-0.2-2.2c-0.3-1.5-0.3-1.5-0.5-3.1-8.6 0-17.2 0-26 0 1.1 8.1 1.1 8.1 2.3 16.3q0.4 2.5 0.8 5.1 0.1 0.3 0.1 0.6 0.9 5.6 1.7 11.2 1.1 7.7 2.3 15.4 1.3 8.5 2.5 17 1.2 8 2.4 16 1.2 7.8 2.4 15.6 0 0.5 0.1 1 0 0.2 0.1 0.4 0.1 1.2 0.3 2.4 0 0.2 0.1 0.4 1.1 7.9 2.3 15.7 0.2 0.9 0.3 1.8 0.4 2.7 0.8 5.5 0.2 0.9 0.3 1.8 0.2 1.2 0.4 2.4 0 0.4 0.1 0.7 0 0.4 0.1 0.7 0 0.3 0.1 0.6c0 0.5 0 0.5 0.3 1.2 28.8 0 57.6 0 87.2 0-0.2-2.4-0.5-4.7-0.9-7q-0.1-0.9-0.2-1.7-0.1-0.4-0.2-0.9-0.3-2.4-0.7-4.8c-0.1-0.2-0.1-0.2-0.1-0.5q-0.9-5.7-1.7-11.5-0.4-2.4-0.7-4.8 0-0.2-0.1-0.5-1-7.1-2.1-14.2-0.5-3.1-0.9-6.3-0.4-2.5-0.8-5 0-0.3-0.1-0.6-1-6.5-2-13c0-0.3 0-0.3 0-0.6q-0.2-1.4-0.5-2.7 0-0.3 0-0.6-0.1-0.5-0.2-1.1-1.3-8.6-2.6-17.2-1.1-7.9-2.3-15.7-0.9-5.5-1.7-11 0-0.3-0.1-0.6-0.4-2.9-0.8-5.7-0.2-1.1-0.3-2.1-0.1-0.5-0.2-1-0.1-0.7-0.2-1.4 0-0.3-0.1-0.7c0-0.6 0-0.6-0.3-0.8q-0.7-0.1-1.4-0.1-0.2 0-0.4 0-0.8 0-1.5 0-0.5 0-1 0-1.4 0-2.8 0-0.8 0.1-1.7 0.1c-5.7 0-11.3 0-17 0.2z"/>
	<path class="s4" d="m104.6 19q0.2 0 0.5 0c0.3 0 0.3 0 0.5 0q1 0 1.9 0 0.7 0 1.3 0 1.9 0 3.7 0 1.9 0 3.8 0 3.2 0 6.3 0 3.7 0 7.4 0 3.2 0 6.3 0 1.9 0 3.8 0 1.8 0 3.6 0 0.6 0 1.3 0 0.9 0 1.8 0 0.2 0 0.5 0c1.2 0 1.2 0 1.7 0.3q0.2 0.8 0.3 1.7 0.1 0.3 0.1 0.5c0.1 0.7 0.2 1.3 0.2 2 0.3 0 0.3 0 0.6 0q7.1 0 14.1-0.1 3.4 0 6.8 0 3 0 5.9 0 1.6 0 3.2 0 1.5 0 2.9 0 0.6 0 1.1 0c3.4-0.1 6 0.9 8.6 3.2 2.1 2.1 2.9 4.8 3.3 7.7q0.1 0.7 0.2 1.5 0.1 0.5 0.2 1.1 0.4 2.7 0.9 5.5 0.1 0.4 0.2 0.9 0.3 1.7 0.6 3.3c0.6 3.8 1.3 7.6 1.7 11.4q-0.4-0.3-0.8-0.6-0.3-0.2-0.5-0.4-0.8-0.6-1.5-1.3-1.5-1.3-3-2.5-0.3-0.3-0.6-0.5-0.2-0.2-0.4-0.3c-1-0.7-1.4-1.3-1.6-2.5q0-0.2 0-0.5c-0.1-0.3-0.1-0.3-0.1-0.6q-0.1-0.9-0.3-1.8-0.1-0.6-0.2-1.2-0.1-1-0.3-2c-0.3-2.2-0.7-4.5-1.1-6.7-0.4-2-0.7-4-0.9-6-12.4 0-24.8 0-37.6 0 0.5 3.1 0.5 3.1 1.1 6.2q0 0.6 0 1.1c-0.5 0.5-1.4 0.3-2 0.3-0.2 0-0.2 0-0.5 0q-0.8 0-1.6 0.1-0.6 0-1.2 0-1.4 0-2.7 0.1 0.1 0.1 0.2 0.3c0.2 0.2 0.2 0.2 0.4 0.4 0.2 0.2 0.2 0.2 0.4 0.4 1 1.3 0.9 2.6 0.8 4.2-0.5 1-1.1 1.6-2.1 2.2-0.6 0.2-1 0.3-1.7 0.3q-0.3 0-0.6 0c-0.4 0-0.4 0-0.7 0q-0.4 0-0.8 0-1.2 0-2.4 0-0.4 0-0.9 0-2 0-3.9 0-2.3 0-4.6 0-2 0-4 0-0.9 0-1.7 0.1-1.2 0-2.4 0-0.3 0-0.7 0c-1.6 0-2.8-0.4-4.1-1.5-0.2-0.2-0.2-0.2-0.4-0.4q-0.1-0.2-0.3-0.5c-0.7-0.9-0.9-1.7-0.9-2.9q0-0.3 0-0.6c0.1-0.8 0.4-1.3 0.8-2q-0.4 0-0.8 0-1.3-0.1-2.6-0.1-0.6 0-1.2 0-0.8 0-1.6 0-0.3-0.1-0.6-0.1c-0.5 0-0.5 0-1.2-0.1-0.5-0.6-0.6-1-0.7-1.8q-0.1-0.4-0.1-0.7-0.1-0.4-0.2-0.7 0-0.4-0.1-0.8c-0.2-1.2-0.3-2.3-0.3-3.5-12.2 0-24.5 0-37.1 0 1.5 9.2 1.5 9.2 3.1 18.4q0 0.7 0 1.4c4.2 0 8.5 0 12.9 0 0.5 2.3 0.5 2.3 0.7 3.3q0 0.3 0.1 0.7c0.1 0.8 0.1 1.6 0.1 2.4 8.8 0 17.6 0 26.7 0 0.2 0.8 0.2 1.3 0.2 2.1q0 0.3 0 0.6c0 0.2 0 0.2 0 0.4-0.3-0.2-0.3-0.2-0.7-0.6q-0.1-0.9-0.2-1.8c-8.5 0-17 0-25.8 0q0.2 1 0.4 2 0.1 1.6 0.3 3.3c-11.7 0-23.4 0-35.4 0-0.7-4-0.7-4-0.7-5.3-8.5 0.1-17 0.1-25.8 0.2q1.5 10.9 3.2 21.8 1.2 7.9 2.4 15.8 0.1 0.5 0.1 0.9 0.1 0.3 0.1 0.5 0.2 1.2 0.3 2.4 0.1 0.2 0.1 0.4 0.7 4.9 1.4 9.7 0.1 0.4 0.2 0.8 0.7 5.1 1.5 10.2 0.1 0.6 0.2 1.1 0 0.3 0.1 0.6 0.1 1.1 0.3 2.2 0.1 0.6 0.2 1.2 1.2 8.2 2.4 16.4 1.2 7.8 2.4 15.5 1.3 9 2.6 18 0.2 1.2 0.4 2.5 0 0.2 0.1 0.5 0.6 4.1 1.2 8.2 0.1 0.4 0.2 0.8 0 0.4 0.1 0.8c0.1 0.6 0.1 0.6 0.1 1.3 17.7 0 35.4 0 53.6 0q0 0.1 0 0.2c-17.8 0-35.7 0-54.1 0q-0.1 0.2-0.2 0.4-1.1-6.5-2-13.1-0.4-2.2-0.7-4.5-0.1-0.5-0.1-1-0.8-4.9-1.5-9.9-0.1-0.4-0.1-0.8-0.3-1.7-0.5-3.4-0.5-3.1-1-6.3-0.4-2.5-0.7-5-0.1-0.3-0.1-0.6-1-6.5-2-13 0-0.3-0.1-0.6-0.2-1.4-0.4-2.7 0-0.3-0.1-0.6-0.1-0.5-0.1-1.1-1.3-8.6-2.6-17.2-1.1-7.5-2.2-14.9-1.4-8.6-2.6-17.2-0.2-1.3-0.4-2.6 0-0.3-0.1-0.5-0.5-3.8-1.1-7.6-0.1-0.5-0.1-0.9-0.4-2.2-0.7-4.5-0.1-0.7-0.2-1.5-0.1-0.4-0.2-0.7 0-0.3-0.1-0.7 0-0.2 0-0.5c-0.1-0.6-0.1-0.6-0.1-1.7 8.7 0 17.5 0 26.5 0-0.2-1.2-0.2-1.2-0.5-2.4q-0.1-0.7-0.2-1.4-0.1-0.4-0.1-0.7c-0.1-0.6-0.1-0.6-0.1-1.7 5 0 10 0 15.1 0-0.8-5.5-0.8-5.5-1.8-11-2.1-10.5-2.1-10.5-0.4-13.3 1.2-1.6 2.7-2.9 4.7-3.3q0.7 0 1.5 0 0.2 0 0.5 0 0.8 0 1.5 0 0.6 0 1.1 0 1.6 0 3.1 0 1.5 0 3.1 0 3 0 6 0 3.4 0 6.8 0 7 0 14 0-0.1-0.3-0.2-0.5c0-0.4 0-0.4-0.1-0.8q-0.1-0.3-0.2-0.7c-0.2-0.8-0.3-1.4-0.2-2.2 0.4-0.4 0.9-0.3 1.5-0.3z"/>
	<path class="s5" d="m308.8 158.6c12.1 0 24.2 0 36.7 0-0.5 4.9-0.5 4.9-0.8 6.9q-0.1 0.4-0.2 0.8-0.1 1.2-0.3 2.4-0.2 0.8-0.3 1.7-0.4 2.6-0.8 5.3-0.2 1.3-0.4 2.6 0 0.2-0.1 0.5-0.3 2.5-0.7 4.9-0.2 1.2-0.4 2.3-0.9 5.9-1.7 11.9-0.1 0.2-0.1 0.5-0.4 2.6-0.8 5.1c-0.7 5.2-1.5 10.3-2.3 15.4-12.1 0-24.3 0-36.7 0 0-1.1 0-1.9 0.1-3q0.1-0.4 0.2-0.8 0-0.4 0.1-0.9 0.1-0.4 0.2-0.9 0.1-1 0.3-2.1 0.4-2.4 0.7-4.8 0.1-0.6 0.2-1.1 1-6.8 2-13.5 0.7-5.1 1.6-10.3 0.4-2.5 0.7-5 0.2-1.8 0.5-3.5 0.5-2.6 0.8-5.3c0.2-1.5 0.5-2.9 0.7-4.4q0.3-1.9 0.5-3.8c0-0.5 0-0.5 0.3-0.9z"/>
	<path class="s2" d="m271.6 158.6c12 0 23.9 0 36.3 0-1.8 12.1-1.8 12.1-2.4 16.3q-0.1 0.4-0.2 0.9-1.8 12.1-3.6 24.3-0.3 2.1-0.6 4.2-0.4 2.7-0.8 5.3-0.2 1.3-0.4 2.7-0.2 1.3-0.4 2.5-0.1 0.5-0.1 0.9-0.1 0.6-0.2 1.3c-0.1 0.3-0.1 0.3-0.1 0.7-0.1 0.5-0.1 0.5-0.4 1.2-7.2 0-14.5 0-22 0-0.9-6-0.9-6-0.9-7.1q0.6 0 1.1 0-0.1-1.1-0.2-2.2c3.1-0.1 6.2-0.2 9.4-0.3q0.9-5.5 1.7-11 0.4-2.5 0.8-5c0-0.2 0-0.2 0-0.5q0.9-6.2 1.9-12.5 0.1-0.2 0.1-0.5 0.4-2.6 0.8-5.2 0-0.4 0.1-0.8 0.1-0.8 0.3-1.5 0-0.4 0.1-0.8 0-0.4 0.1-0.7c0.1-0.9 0.1-1.7 0.1-2.6q-0.2 0-0.5 0c-0.8 5.3-1.6 10.6-2.4 15.9q-1.2 8.5-2.5 17-0.1 0.7-0.3 1.4-0.2 1.3-0.4 2.6c0 0.4 0 0.4-0.1 0.8q0 0.4-0.1 0.7c0 0.3 0 0.3-0.1 0.7-0.1 0.5-0.1 0.5-0.3 1.1-2.9 0-5.9 0-8.9 0-0.2-0.8-0.3-1.5-0.4-2.3q0-0.4 0-0.8-0.1-0.4-0.1-0.8-0.1-1-0.2-1.9 0-0.3 0-0.5-0.4-3.3-0.7-6.7c0-0.3 0-0.3-0.1-0.6q-0.4-4-0.8-8-0.9-8.4-1.8-16.8-0.1-1.1-0.2-2.1-0.1-1.2-0.3-2.5 0-0.6-0.1-1.3c0-0.4 0-0.4-0.1-0.8 0-0.4 0-0.4-0.1-0.7 0-1.3 0-2.7 0-4z"/>
	<path class="s6" d="m234.3 89.8q0.2 0 0.5 0c3.1 0 6.7 0.8 9 3.1 0.6 0.7 0.8 1.4 1 2.3 0.1 0.6 0.3 1 0.6 1.6 0.8 1.8 0.6 4-0.1 5.8-0.8 1.9-1.8 3.6-2.9 5.3q0.3-0.1 0.6-0.1c1 0.1 1.7 0.5 2.6 1.2 0.2 0.3 0.2 0.3 0.4 0.6 0.9-0.2 1.7-0.4 2.5-0.7 1.4-0.4 2.3 0 3.6 0.6q0.4 0.2 0.8 0.5 0.3 0.1 0.5 0.2 2.9 1.5 5.9 2.9 1.2 0.6 2.4 1.2 0.6 0.3 1.2 0.6c6.6 3.3 6.6 3.3 7.6 4.3 0.1 1.6-0.2 3.1-0.6 4.6q-0.1 0.3-0.2 0.7-0.8 3-1.7 6.1-0.4 1.3-0.8 2.6-0.1 0.3-0.1 0.7-0.2 0.6-0.4 1.2 0 0.2-0.1 0.5-0.1 0.3-0.1 0.5c-0.7 1.4-1.9 1.9-3.3 2.5q-0.2 0.1-0.5 0.2-0.9 0.4-1.8 0.8-0.6 0.3-1.3 0.5-1.2 0.6-2.4 1.1-2.2 0.9-4.4 1.9-4.2 1.9-8.4 3.7c-0.7-0.8-1.2-1.7-1.8-2.7q-1.5-2.6-3.1-5.2-0.2-0.4-0.4-0.8-0.5-0.8-1-1.6-1.2-1.9-2.4-3.9-0.4-0.6-0.8-1.2-0.2-0.4-0.4-0.8-0.2-0.3-0.4-0.6c-0.3-0.6-0.3-0.6-0.6-1q-1.8 0.6-3.5 1.3c-2.8 1.2-6.1 2.1-9.1 1.4-2.6-1.7-3.2-5.2-3.9-8q-1.3-5.8-2.1-11.7-0.1-0.3-0.1-0.5c-0.2-1.1-0.2-2.1-0.2-3.2q0.5 0 0.9 0-0.1-1.3-0.2-2.7 2.3-0.5 4.7-1.1c0.4 0.7 0.4 0.7 0.6 1.5q0.1 0.4 0.3 0.7c0.3 0.1 0.3 0.1 0.6 0.3q0.1-0.5 0.2-0.9c0.6 1.8 1.1 3.7 1.6 5.6q0.2 0.8 0.4 1.6c0.5 1.9 0.9 3.8 1.2 5.7q0.4-0.2 0.8-0.4 0.3-0.1 0.6-0.3 0.6-0.2 1.2-0.5c0.9-0.4 1.8-0.8 2.8-1.2 1.6-0.6 2.6-1.2 3.3-2.8q0.3-0.7 0.6-1.5c0.2-0.3 0.2-0.3 0.4-0.7q-0.2 0-0.5 0c-1.4-0.3-2.6-1.1-3.4-2.4-1.4-2.3-1.3-5.3-0.8-7.8 0.4-1.5 1-2.8 1.9-4.1 0.2-0.6 0.2-0.6 0-1.1q-0.2-0.5-0.5-1c-0.5-1.2-0.5-2.9 0-4.1 0.8-1.2 1.6-1.4 3-1.3z"/>
	<path class="s2" d="m323 109.6c0.3 0 0.3 0 0.7 0q1.1 0 2.3 0 0.8 0 1.6 0 1.7 0 3.3 0 2.2 0 4.4 0 1.6 0 3.3 0 0.8 0 1.6-0.1 1.1 0 2.2 0.1c0.3-0.1 0.3-0.1 0.6-0.1 1.5 0.1 3.1 0.2 4.2 1.2 0.9 0.9 1.4 1.9 1.4 3.2-0.1 1.6-0.6 3.1-1.2 4.6q-0.1 0.4-0.3 0.8-0.4 1.1-0.8 2.2-0.4 1-0.7 2-0.9 2.2-1.7 4.4-0.4 1.2-0.9 2.3-0.5 1.4-1 2.9-1.5 3.7-2.9 7.4-0.1 0.3-0.2 0.6-0.5 1.4-1 2.7-0.9 2.4-1.7 4.7-0.4 1.1-0.9 2.2-0.6 1.6-1.2 3.2c-11.9 0-23.8 0-36 0 1.8-5.1 1.8-5.1 2.6-7.2q0.1-0.4 0.2-0.7 0.5-1.2 0.9-2.4 0.6-1.5 1.2-3 0.1-0.5 0.3-0.9 1.3-3.5 2.6-7 0.3-0.8 0.6-1.6 0.1-0.2 0.2-0.5 0.1-0.5 0.3-1 0.5-1.3 1-2.6c2.2-6.1 2.2-6.1 3.4-9.1 0.2-0.2 0.2-0.2 0.3-0.5 1.3-3.3 3.2-5.5 6.4-7.1 1.6-0.6 3.1-0.7 4.9-0.7z"/>
	<path class="s7" d="m175 56.2q0.3 0.1 0.5 0.1c2.6 0.7 4.8 2.2 6.9 3.9q0.2 0.2 0.4 0.4c4.5 3.7 7.4 9.6 8.7 15.2q0.1 0.4 0.2 0.9c1.3 5.9 0.4 11.9-2.7 17.2-1.7 2.5-4.2 4.4-7.2 5.2-4.3 0.6-8.1-0.4-11.7-2.8q-1.4-1.2-2.7-2.5-0.2-0.2-0.4-0.4c-5-4.7-8-12.3-8.3-19.1-0.1-5.7 0.9-11 5-15.3 3.1-3 7.1-3.8 11.3-2.8z"/>
	<path class="s7" d="m154.7 132.9c5.5 4.6 8.5 11 9.8 17.9q0.1 0.3 0.2 0.6c0.7 5.7-0.3 11.9-3.8 16.6-1.3 1.4-2.9 2.8-4.8 3.5q-0.3 0.1-0.5 0.2c-3.5 1.1-7.1 0.6-10.3-1-1.9-1-3.5-2.2-5-3.6q-0.2-0.2-0.5-0.4c-3.3-3.1-5.5-7.5-6.9-11.7q-0.1-0.4-0.2-0.8c-1.9-5.9-2-12.4 0.7-18.1 1.9-3.5 4.6-6 8.4-7.2 4.8-0.9 9.3 1 12.9 4z"/>
	<path class="s7" d="m193.3 132c3.9 3 6.6 6.8 8.6 11.2 0.2 0.3 0.2 0.3 0.3 0.6 0.7 1.6 1.1 3.3 1.5 5q0.1 0.4 0.2 0.8c1.2 5.3 0.9 11.6-2 16.3q-0.6 0.9-1.3 1.8c-0.2 0.3-0.2 0.3-0.3 0.5-1.6 2-4.2 3.4-6.7 3.9-4.5 0.5-8.4-0.6-11.9-3.5-6.1-5.1-9.9-12.5-10.6-20.4-0.5-5.8 0.6-11.2 4.4-15.7 4.9-5.3 12.3-4.5 17.8-0.5z"/>
	<path class="s7" d="m131.6 55.7c4.5-0.2 8.8 2.4 12 5.3 4.8 4.3 8.3 11.4 8.7 17.9 0.4 7.9 0.4 7.9-1.1 11.4q-0.1 0.2-0.2 0.4c-0.9 2.1-1.9 3.8-3.6 5.4q-0.2 0.2-0.4 0.4c-2.3 2.3-5.2 2.7-8.3 2.8-4.6-0.1-8.5-2.8-11.6-6-2.5-2.7-4.3-5.7-5.7-9-0.1-0.3-0.1-0.3-0.3-0.6-0.5-1.3-0.9-2.6-1.2-4q-0.1-0.3-0.2-0.6c-1.3-5.9-0.8-12.1 2.2-17.4 1.7-2.7 4.3-4.8 7.4-5.6 0.8-0.2 1.6-0.3 2.3-0.4z"/>
	<path class="s2" d="m220.4 158.6c6.5 0 13.1 0 19.8 0-0.5 2.5-0.5 2.5-0.8 3.4q-0.1 0.3-0.3 0.6-0.1 0.3-0.2 0.7c-1 2.6-1.9 5.3-2.7 8-0.8 2.6-0.8 2.6-1.3 3.7-0.7 1.7-1.2 3.5-1.8 5.3q-0.4 1.1-0.7 2.2-0.1 0.2-0.2 0.5-0.4 1.2-0.9 2.5c-0.4 1.2-0.8 2.3-1.2 3.5-0.1 0.3-0.1 0.3-0.2 0.7q-0.4 1-0.7 2.1-0.4 1.3-0.9 2.7-0.1 0.3-0.2 0.6-0.6 1.8-1.2 3.5-0.6 1.3-1 2.6-0.1 0.3-0.2 0.6-0.2 0.6-0.4 1.2-0.2 0.9-0.6 1.9-0.1 0.6-0.3 1.1-0.1 0.3-0.2 0.6-0.1 0.3-0.2 0.5 0 0.2-0.1 0.5-0.2 0.6-0.4 1.3 1.1 0.3 2.2 0.7c-0.3 1.3-0.6 2.4-1.5 3.5q-0.2 0.2-0.3 0.4c-1.1 1.3-2.4 2-3.9 2.8-1.8 1-1.8 1-3.2 2.6q-2.7 0-5.5 0 0.1-0.7 0.2-1.4 0.7-4.7 1.4-9.5 1.6-10.9 3.2-21.9 1.5-9.4 2.9-18.8 0-0.2 0-0.5 0.2-1.2 0.4-2.4 0.2-1.2 0.3-2.5 0.1-0.4 0.2-0.8 0-0.4 0.1-0.8 0-0.3 0.1-0.7c0.1-0.6 0.1-0.6 0.3-1z"/>
	<path class="s8" d="m88.4 190.4q2.7 0 5.4 0 1 5.6 2 11.2 0.2 1.2 0.4 2.5 0.2 1 0.3 1.9 0.1 0.5 0.2 1 0.1 0.6 0.2 1.2 0.1 0.4 0.1 0.8c0.1 0.6 0.1 0.6 0.1 1.2 37.8 0 75.7 0 114.6 0q-0.4 3.1-0.9 6.3-15.9 0-31.8 0c-0.2 0-0.2 0-0.4 0q-5.1 0-10.3 0-2.5 0-5 0-0.2 0-0.5 0-8.1 0-16.2 0-8.3 0-16.6 0-1.2 0-2.3 0c-0.3 0-0.3 0-0.5 0q-3.7 0-7.4 0-3.8 0-7.5 0-2 0-4.1 0-1.8 0-3.7 0-0.7 0-1.3 0c-3.8 0.1-6.5-0.4-9.4-2.9-1.8-2.1-2.5-4.6-2.9-7.2q-0.1-0.5-0.2-0.9-0.1-1.1-0.3-2.1-0.3-1.7-0.5-3.3-0.6-3.3-1.1-6.6-0.1-0.3-0.1-0.6-0.1-0.3-0.1-0.6-0.1-0.3-0.1-0.5c-0.1-0.5-0.1-0.5-0.1-1.4z"/>
	<path class="s2" d="m104.2 20.2c14.5 0 29 0 43.9 0 1 5.1 1 5.1 1.4 7.5 0.1 0.4 0.1 0.4 0.1 0.8q0.2 0.8 0.3 1.6 0.2 1.3 0.4 2.6 0.1 0.8 0.3 1.6 0 0.3 0.1 0.7c0 0.4 0 0.4 0.1 0.7q0 0.3 0.1 0.6c0.1 0.6 0.1 0.6 0.1 1.2-14.5 0-29 0-43.9 0-0.5-2-0.5-2-0.6-3q-0.1-0.3-0.2-0.6 0-0.4-0.1-0.8 0-0.3-0.1-0.7-0.1-0.8-0.3-1.6-0.2-1.2-0.4-2.3-0.1-0.8-0.3-1.6 0-0.3-0.1-0.7-0.3-1.8-0.6-3.6c0-0.3 0-0.3-0.1-0.7-0.1-0.6-0.1-0.6-0.1-1.7z"/>
	<path class="s2" d="m192.4 53.1c0.9 0.4 1.6 1 2.3 1.7q1.4 1.2 2.8 2.3 1.5 1.2 2.9 2.4 1.1 1 2.3 1.9 1.5 1.3 3.1 2.6 1.1 1 2.3 1.9 1.5 1.3 3 2.5 1.1 1 2.3 2 1.3 1.1 2.7 2.2c1.8 1.5 3.7 3.1 5.6 4.5-0.4 0.5-0.8 0.9-1.4 1.3-0.6 0.6-1.1 1.2-1.5 1.9-0.2 0.2-0.2 0.2-0.3 0.4-1 1.6-1.6 3.2-2.1 4.9q-0.1 0.3-0.2 0.5c-0.3 1.2-0.3 2.4-0.3 3.5 0 0.3 0 0.3 0 0.5 0 0.9 0 1.6 0.4 2.4 0.3 0.7 0.3 0.7 0.3 1.1-0.3 0.8-1 1.2-1.6 1.7q-0.2 0.2-0.4 0.4-1.6 1.3-3.2 2.6-1.1 0.9-2.2 1.9-1.2 1-2.4 2-1.4 1.2-2.8 2.4c-2.2 1.9-2.2 1.9-2.7 1.9q-0.9-4.4-1.6-8.8-0.7-4.7-1.5-9.3c-0.7-3.4-1.2-6.7-1.7-10.1q-0.4-2.9-1-5.8c-0.5-2.6-0.9-5.2-1.4-7.8q-0.2-1.4-0.4-2.9-0.1-0.3-0.1-0.6-0.4-2.7-1-5.3c-0.2-0.9-0.3-1.8-0.2-2.8z"/>
	<path class="s9" d="m80.4 74.9c4 2.4 6.7 6.9 7.9 11.3 1.1 4.5 0.2 8.8-2.1 12.8-2 3-5.3 4.9-8.7 5.8-4.7 0.9-9.4-0.5-13.3-3q-1.2-0.8-2.3-1.7c-0.3-0.3-0.3-0.3-0.6-0.6-1.7-1.5-3-3.3-4-5.2q-0.2-0.3-0.3-0.5c-0.8-1.6-1.3-3.2-1.7-4.9q-0.1-0.2-0.2-0.5c-0.5-3.7 0-8 2.1-11.1 0.3-0.3 0.3-0.3 0.5-0.6 1.1 0.3 1.8 0.9 2.6 1.6q1.5 1.4 3.2 2.7 1.6 1.3 3.2 2.6 0.2 0.2 0.4 0.4 0.1 0.1 0.3 0.3 1.1 0.9 2.1 1.8 0.3 0.2 0.6 0.4c0.6 0.5 1.2 0.8 1.9 1.1q0.1-0.2 0.2-0.4 1.2-1.8 2.4-3.6 0.5-0.7 0.9-1.4c1.6-2.4 3.2-4.9 4.9-7.3z"/>
	<path fill-rule="evenodd" class="s10" d="m82.3 72.2q1.1 0.9 2.1 1.8 0.3 0.3 0.6 0.5c3.5 3.4 5.7 7.9 6.8 12.7q0 0.2 0.1 0.5c0.9 4.9-0.3 9.8-3 13.9q-0.6 0.8-1.4 1.6-0.2 0.3-0.5 0.5c-3.4 3.4-7.9 4.7-12.6 4.7-6.1-0.1-11.2-2.9-15.6-7q-0.2-0.2-0.5-0.5c-3.1-2.9-5.1-7-6.1-11.1q-0.1-0.2-0.2-0.4c-1.2-4.7-0.4-9.7 2-13.8 0.6-1 1.2-1.9 1.9-2.7q0.2-0.2 0.4-0.4c6.7-7.3 18.8-6 26-0.3zm-1.9 2.7q-0.3 0.4-0.6 0.8-0.1 0.3-0.3 0.6-0.2 0.3-0.4 0.6-0.3 0.3-0.5 0.6-0.4 0.7-0.8 1.3-0.7 1-1.4 2-2.3 3.4-4.4 6.8c-0.8-0.4-1.5-0.7-2.1-1.2q-0.2-0.2-0.4-0.4-0.2-0.1-0.4-0.3-0.4-0.4-0.8-0.7-0.2-0.2-0.4-0.4-1.4-1.2-2.8-2.3-1.8-1.5-3.6-3c-1.1-0.9-2.2-1.8-3.3-2.6-1.2 0.4-1.5 1.4-2 2.4-1.5 3.5-1.7 7.7-0.5 11.4q0.1 0.3 0.2 0.6c0.9 2.8 2.4 5.3 4.5 7.4q0.3 0.3 0.5 0.6 0.3 0.3 0.6 0.5 0.2 0.2 0.4 0.4c3.5 3.4 8.3 5.1 13.2 5 1.3 0 2.5-0.2 3.8-0.7q0.3-0.1 0.6-0.2c2.1-0.8 3.9-1.9 5.4-3.6q0.2-0.2 0.3-0.4c2.7-2.7 3.6-6.7 3.6-10.4-0.2-4.4-2-8.3-4.8-11.7q-0.2-0.2-0.4-0.4c-0.8-1.1-1.8-1.9-3-2.7q-0.1 0-0.2 0z"/>
	<path class="s7" d="m255.8 164.8q0.2 0 0.4 0 1.8 12.7 3.6 25.4 0.4 3.4 0.9 6.7 0 0.6 0.1 1.2 0.1 0.9 0.3 1.7 0 0.3 0 0.5 0.2 1.5 0.4 2.9 0.1 0.4 0.1 0.7 0.1 0.6 0.2 1.2c0.1 0.2 0.1 0.2 0.1 0.5q0 0.3 0.1 0.5c0 0.8 0 1.6 0 2.3-7.6 0-15.3 0-23.1 0 0.4-1.3 0.8-2.6 1.3-3.9q0.1-0.3 0.2-0.5 0.2-0.5 0.4-1 0.6-1.4 1.1-2.9 0.2-0.2 0.3-0.5 1.2-3.3 2.5-6.5 1.6-4.1 3.2-8.1 1.7-4.4 3.4-8.8 2.3-5.7 4.5-11.4z"/>
	<path class="s11" d="m207.3 102.7c0.7 0.7 0.6 1.6 0.8 2.5q0 0.3 0.1 0.6 0.2 1 0.3 2.1 0.2 0.7 0.3 1.4 0.3 2 0.6 3.9 0.5 3.1 1 6.1 0.1 0.8 0.3 1.5 1 6.2 2.1 12.5 0.7 4 1.4 8.1 0.2 1.1 0.4 2.3 0.1 0.9 0.3 1.8 0.1 0.6 0.2 1.2c0.4 2.4 0.7 4.8 1.1 7.2 8.5 0 17 0 25.8 0q-0.1 0.5-0.2 0.9c-9.4 0-18.7 0-28.3 0q0 1.7 0 3.4 1.2 0 2.5 0 0.3 2 0.7 4.1 0.1 0.7 0.3 1.4 0.2 1 0.3 2 0.1 0.3 0.2 0.7c0.4 2.5 0.2 4.8-0.2 7.2q0 0.5-0.1 0.9-0.1 0.9-0.3 1.8-0.2 1.1-0.3 2.3c-0.5 3-0.9 6-1.5 8.9q-0.1 0-0.3 0 0-0.2 0-0.3c-1.2-7.7-1.2-7.7-2.6-15.4-0.5-2.8-0.9-5.5-1.4-8.3q-0.6-4.4-1.5-8.8c-0.5-3-1-6.1-1.5-9.2q-0.4-3.3-1.1-6.5-0.5-2.3-0.8-4.7c-0.5-3.2-1-6.3-1.6-9.5q-1-5.3-1.8-10.7-0.1-0.6-0.2-1.3-0.2-0.8-0.3-1.7-0.1-0.3-0.1-0.5c-0.2-1-0.3-2-0.2-3 0.5-0.5 0.5-0.5 1.1-1.1q0.3-0.2 0.7-0.5 0.3-0.3 0.7-0.6c0.3-0.3 0.3-0.3 0.6-0.6q0.7-0.5 1.3-1 0.6-0.5 1.2-1.1z"/>
	<path fill-rule="evenodd" class="s12" d="m322.8 108.7q0.5 0 0.9 0 1.2 0 2.4 0 1 0 2.1 0 2.3 0 4.7 0 2.5 0 4.9 0 2.1 0 4.3 0 1.2 0 2.5 0 1.2 0 2.3 0 0.7 0 1.3 0c1.7 0 3.3 0.1 4.7 1.1 1.1 1.1 1.7 2.2 1.8 3.9-0.1 2.3-1 4.4-1.8 6.5q-0.2 0.7-0.4 1.3-0.3 0.6-0.5 1.3-0.6 1.4-1.1 2.8-0.7 1.7-1.3 3.5-1.8 4.7-3.6 9.5-0.6 1.6-1.2 3.1-0.3 1-0.7 1.9-0.2 0.7-0.5 1.3-1.6 4.4-3.2 8.8c4.2 0.1 8.5 0.1 12.9 0.2q0 0.5 0 0.9c-27.2 0-54.4 0-82.4 0q0-0.4 0-0.9c8.7 0 17.4 0 26.3 0 0.1-0.6 0.1-0.6 0.2-1.3q0.2-0.7 0.5-1.3 0.1-0.4 0.3-0.8 0.1-0.4 0.3-0.9 0.2-0.4 0.3-0.9 0.4-0.9 0.8-1.9 0.9-2.3 1.7-4.6 0.2-0.6 0.4-1.1 1.6-4.1 3.1-8.2 0.1-0.2 0.2-0.5 0.8-2.3 1.7-4.5 0.9-2.5 1.8-5 0.4-1 0.8-2.1 0.4-1.2 0.9-2.3 0.1-0.4 0.2-0.7c1.5-3.8 3.8-6.6 7.5-8.4 1.6-0.7 3.1-0.7 4.9-0.7zm-8.7 4.4c-2.2 2.8-3.3 6.3-4.5 9.5q-0.4 1.2-0.8 2.4-0.8 2-1.5 3.9-1.2 3.1-2.3 6.2-0.4 1.1-0.8 2.1-0.1 0.3-0.2 0.5-0.6 1.7-1.2 3.4-0.3 0.7-0.5 1.4-0.2 0.5-0.4 0.9-0.9 2.6-1.9 5.2-0.1 0.3-0.2 0.5-0.5 1.2-0.9 2.4-0.2 0.4-0.3 0.9-0.2 0.4-0.3 0.7c-0.2 0.5-0.2 0.5-0.2 0.8 11.9 0 23.8 0 36 0 4.5-12 4.5-12 9-24q0.5-1.4 1-2.8 0.5-1.1 0.9-2.2 0.7-2 1.4-3.9 0.2-0.6 0.5-1.2 0.3-0.8 0.6-1.6c0.7-2 1.4-3.8 0.9-5.9-0.6-1.2-1.4-2-2.7-2.5-1.1-0.3-2.1-0.2-3.2-0.2-0.4 0-0.4 0-0.7 0q-1.2 0-2.3 0-0.8 0-1.6 0-1.7-0.1-3.4-0.1-2.2 0-4.3 0-1.7 0-3.3 0-0.8 0-1.6 0c-4.2 0-8.2 0.2-11.2 3.6z"/>
	<path class="s13" d="m149.9 24.4q7.2 0 14.4-0.1 3.4 0 6.8 0 2.9 0 5.8 0 1.6 0 3.1 0 1.5 0 3 0 0.5 0 1 0c3.4-0.1 5.8 0.8 8.3 3.1 2.5 2.7 2.8 6.2 3.3 9.7q0.2 0.8 0.3 1.6 0.2 1.2 0.4 2.3 0.3 2.5 0.8 4.9 0.3 1.8 0.6 3.6 0.4 2.8 0.9 5.6c0.2 0.7 0.2 1.1 0 1.8q-2.4-1.9-4.7-3.9c-0.6-0.6-0.6-0.6-1.3-1-0.9-0.7-1-1.5-1.1-2.6q0-0.2-0.1-0.5-0.1-0.9-0.3-1.9-0.1-0.6-0.2-1.2-0.1-1-0.2-2c-0.4-2.2-0.8-4.5-1.2-6.7-0.4-2-0.7-4-0.9-6-12.4 0-24.8 0-37.6 0q-0.1 0.2-0.3 0.4-0.2-1.5-0.4-2.9-0.1-0.4-0.1-0.9-0.1-0.4-0.1-0.8-0.1-0.3-0.2-0.7c0-0.6 0-1.2 0-1.8z"/>
	<path class="s1" d="m233.8 129c0.2 0.4 0.2 0.4 0.5 0.9q0.2 0.2 0.4 0.5 0.1 0.3 0.3 0.7 0.4 0.6 0.8 1.3 0.2 0.4 0.4 0.7 1 1.8 2.1 3.4 0.3 0.6 0.7 1.2 1.1 1.9 2.3 3.7 0.5 0.9 1 1.7 0.3 0.4 0.5 0.8c1.6 2.3 1.6 2.3 1.4 3.4q-0.1 0.4-0.2 0.8-0.1 0.2-0.1 0.5-0.2 0.6-0.4 1.3-0.1 0.2-0.2 0.4c-0.3 1.3-0.8 2.4-1.3 3.6-8.5 0-16.9 0-25.6 0 0.3-0.8 0.6-1.5 1.1-2.2 0.2-0.3 0.2-0.3 0.4-0.7q0.2-0.3 0.4-0.7 0.5-0.7 0.9-1.5 0.2-0.2 0.3-0.4 1.2-2 2.4-4 0.2-0.4 0.4-0.8 0.6-1 1.2-2.1 1.5-2.6 2.9-5.1 0.6-0.9 1.1-1.9 0.4-0.6 0.7-1.2 0.4-0.7 0.8-1.4c0.8-1.4 1.4-2.1 3-2.7q0.3-0.1 0.6-0.3c0.5-0.1 0.5-0.1 1.2 0.1z"/>
	<path class="s11" d="m70.3 24.3q0.5 0 1.1 0 1.5 0 3 0 1.5 0 3.1 0 3 0 5.9 0 3.4 0.1 6.8 0.1 6.9 0 13.8 0 0.2 1.3 0.5 2.6 0 0.3 0.1 0.7 0 0.4 0.1 0.7 0.1 0.4 0.1 0.7c0.1 0.6 0.1 0.6 0.1 2-12.2 0-24.4 0-36.9 0q-0.2 0.2-0.3 0.4 0-0.4 0-0.9-0.4 0-0.9 0 0.5 2.7 1 5.4 0.2 1.3 0.4 2.5 0.2 1.2 0.4 2.4 0.1 0.5 0.2 1c0.3 1.9 0.3 1.9 0.7 3.9q0 0.3 0.1 0.5 0.1 0.7 0.2 1.3c0.2 1.2 0.3 2.3 0.4 3.5q-2.6 0-5.4 0c-0.5-2-0.5-2-0.6-3q-0.1-0.4-0.1-0.7-0.1-0.4-0.2-0.8 0-0.3-0.1-0.7-0.2-1.3-0.4-2.5-0.2-1.6-0.5-3.2-0.1-0.4-0.1-0.8-0.5-2.8-1-5.7c-0.5-2.5-0.6-4.6 0.8-6.9 2.1-2.5 4.6-2.5 7.7-2.5z"/>
	<path class="s14" d="m60.2 51.5q1.2 0 2.4 0 2.4 0 4.7 0 2.7 0 5.3 0 5.5 0 10.9 0 0.3 1.4 0.5 2.7 0.1 0.5 0.1 0.9c1 5.9 1 5.9 1 7.6q-6.7 0-13.3 0-3.1 0-6.2 0-2.7 0-5.4 0-1.4 0-2.8 0-1.4 0-2.7 0-0.5 0-1 0-0.7 0-1.3 0-0.4 0-0.8 0c-0.6 0-0.6 0-0.8-0.2q-0.2-1-0.3-2 0-0.2-0.1-0.5-0.1-0.7-0.2-1.3-0.1-0.9-0.3-1.8 0-0.6-0.1-1.2-0.1-0.3-0.1-0.6-0.1-0.3-0.1-0.5 0-0.3-0.1-0.5c0-0.8 0-1.5 0-2.3 3.5-0.3 7.1-0.3 10.7-0.3z"/>
	<path class="s15" d="m146.3 151.4q0.4 0 0.8 0c0.3 0 0.3 0 0.5 0q0.7 0 1.4 0c2.6 0 4.9 0.3 7 2.1 2.8 3 3.6 6.6 4.6 10.4q0.1 0.4 0.2 0.8c0.1 0.3 0.1 0.3 0.2 0.7q0 0.3 0.1 0.6c0.1 0.7 0.1 1.1-0.1 1.7-0.4 0.4-0.7 0.8-1.1 1.1q-0.3 0.2-0.5 0.5c-1 0.9-2 1.7-3.3 2.2-0.3 0.1-0.3 0.1-0.5 0.2-3.5 1.1-7.2 0.6-10.4-1q-1-0.5-2-1.2-0.4-0.2-0.7-0.4c-1-0.8-1.8-1.4-2.3-2.6-0.1-0.9-0.2-1.9-0.2-2.8q0-0.4-0.1-0.9c-0.4-6.7-0.4-6.7 1.8-9.5 1.2-1.5 2.7-1.9 4.6-1.9z"/>
	<path class="s15" d="m185.9 151.4q0.4 0 0.9 0c0.2 0 0.2 0 0.4 0q0.7 0 1.4 0c2.7 0 5.1 0.4 7.1 2.3 2.8 3 3.6 6.4 4.5 10.3q0.2 0.8 0.4 1.5c0.4 1.7 0.4 1.7 0 2.5-0.4 0.5-0.8 0.9-1.3 1.3q-0.3 0.2-0.5 0.4c-2.9 2.2-6 2.8-9.6 2.5-3-0.5-6.9-2.3-8.9-4.7-0.3-1-0.4-1.9-0.4-2.9q0-0.3-0.1-0.6c-0.1-1.7-0.2-3.4-0.2-5q0-0.4 0-0.7c0-2.1 0.7-3.9 2.1-5.5 1.3-1 2.5-1.4 4.2-1.4z"/>
	<path class="s15" d="m175.1 78.6q0.8 0 1.7-0.1c2 0 3.6 0.1 5.3 1.3q0.3 0.2 0.7 0.5c3.4 3 4.3 7 5.2 11.2q0.2 0.7 0.3 1.4 0.1 0.3 0.2 0.6 0 0.3 0.1 0.5c0 1-0.8 1.5-1.4 2.1-3.2 2.7-6.2 3.3-10.2 3.1-3.2-0.4-6.1-2.2-8.4-4.3q-0.4-0.2-0.7-0.4c-0.2-0.6-0.2-0.6-0.2-1.4q-0.1-0.4-0.1-0.8-0.1-0.5-0.1-0.9 0-0.3 0-0.5c-0.7-7.4-0.7-7.4 1.2-10.3 1.8-2.1 3.8-2.1 6.4-2z"/>
	<path class="s15" d="m133.7 78.6c0.3 0 0.3 0 0.6 0q0.5 0 1.1 0 0.9 0 1.7 0c2.1 0 3.7 0 5.4 1.2q0.3 0.2 0.7 0.5c2.2 2 3.3 4.2 4.1 7q0.2 0.8 0.4 1.6 0.4 1.3 0.7 2.7 0.2 0.6 0.3 1.2c0.2 1.1 0.2 1.6-0.4 2.6-2 2.2-4.9 3.7-7.9 3.8-3.8 0.1-6.8-0.8-9.9-2.9q-0.3-0.2-0.6-0.4c-0.9-0.6-1.5-1.1-1.9-2.2q-0.2-1.3-0.2-2.7 0-0.4-0.1-0.9c-0.5-7.1-0.5-7.1 1.9-10.1 1.3-1.2 2.4-1.4 4.1-1.4z"/>
	<path class="s13" d="m192.4 53.1c0.9 0.4 1.6 1 2.3 1.7q1.7 1.4 3.3 2.8 0.3 0.2 0.6 0.4 0.2 0.1 0.4 0.3c1.4 0.9 1.7 1.9 1.9 3.5q0.1 0.4 0.1 0.9 0.1 0.4 0.2 0.9 0.2 1 0.3 2 0.2 1.6 0.5 3.2 0.3 2 0.6 3.9 0.8 5.2 1.7 10.3 0.2 1.5 0.5 3.1 0.7 4.2 1.4 8.4 0.1 0.4 0.1 0.7 0.3 1.4 0.6 2.8 0 0.3 0 0.5 0.2 0.7 0.3 1.3c0.1 0.7 0.1 1.3 0.1 2-0.5 0.5-0.9 0.9-1.4 1.3q-0.2 0.2-0.5 0.4-0.4 0.3-0.8 0.7-0.6 0.4-1.2 0.9c-1.6 1.4-1.6 1.4-2.1 1.4q-0.9-4.4-1.6-8.8-0.7-4.7-1.5-9.3c-0.7-3.4-1.2-6.7-1.7-10.1q-0.4-2.9-1-5.8c-0.5-2.6-0.9-5.2-1.4-7.8q-0.2-1.4-0.4-2.9-0.1-0.3-0.1-0.6-0.4-2.7-1-5.3c-0.2-0.9-0.3-1.8-0.2-2.8z"/>
	<path class="s15" d="m80.4 74.9c4.1 2.4 6.6 6.9 7.9 11.3 0.2 0.6 0.1 1.2 0.1 1.8q-0.3 0-0.6 0-2.9 0-5.8 0-1.4 0-2.9 0-1.5 0-2.9 0-0.5 0-1.1 0c-2.7 0-4 0.4-6 2.3q-0.5 0.4-1.1 0.8-0.4 0.3-0.9 0.7-2.1 1.7-4.3 3.3-1.2 1-2.4 2c-0.5 0.3-0.5 0.3-0.9 0.3-1.8-0.9-3-4.4-3.6-6.2q-0.3-1.1-0.6-2.3-0.1-0.2-0.2-0.5c-0.5-3.7 0-8 2.1-11.1 0.3-0.3 0.3-0.3 0.5-0.6 1.1 0.3 1.8 0.9 2.6 1.6q1.5 1.4 3.2 2.7 1.6 1.3 3.2 2.6 0.2 0.2 0.4 0.4 0.1 0.1 0.3 0.3 1.1 0.9 2.1 1.8 0.3 0.2 0.6 0.4c0.6 0.5 1.2 0.8 1.9 1.1q0.1-0.2 0.2-0.4 1.2-1.8 2.4-3.6 0.5-0.7 0.9-1.4c1.6-2.4 3.2-4.9 4.9-7.3z"/>
	<path class="s16" d="m234.3 89.8q0.2 0 0.5 0c3.1 0 6.7 0.8 9 3.1 0.6 0.7 0.8 1.4 0.9 2.3 0.2 0.6 0.4 1 0.7 1.6 0.8 1.8 0.6 4-0.1 5.8-0.8 1.9-1.8 3.6-2.9 5.3q0.3-0.1 0.6-0.1c1 0.1 1.7 0.5 2.6 1.2 0.4 0.6 0.4 0.6 0.4 1.5q-3.3 1.5-6.7 2.9-0.2 0.1-0.4 0.2-1.3 0.6-2.6 1.1c-0.3 0.2-0.3 0.2-0.7 0.3-0.3 0.1-0.3 0.1-0.6 0.3q-0.3 0.1-0.5 0.2c-0.5 0.1-0.5 0.1-1.4 0.1-0.1-1.1 0.2-1.7 0.8-2.7q0.2-0.4 0.4-0.7 0.2-0.3 0.3-0.6-0.2 0-0.6 0c-1.2-0.3-2.2-1-3-2-1.6-2.4-1.6-5.5-1.1-8.2 0.4-1.5 1-2.8 1.9-4.1 0.2-0.6 0.2-0.6 0-1.1q-0.2-0.5-0.5-1c-0.5-1.2-0.5-2.9 0-4.1 0.8-1.2 1.6-1.4 3-1.3z"/>
	<path class="s2" d="m238.2 209.6c8 0 16 0 24.3 0 0.4 3.5 0.4 3.5 0.4 5.1 1.6-0.4 1.6-0.4 3.1-0.7-0.5 1.5-1 2.4-2.4 3.2q-0.4 0.2-0.9 0.4-0.3 0.1-0.5 0.2-0.5 0.2-1 0.5c-0.5 0.2-0.5 0.2-0.9 0.4-0.6 0.2-0.9 0.3-1.5 0.3q-0.3 0-0.6 0-0.3 0-0.7 0-0.3 0-0.7 0-1.1 0-2.2 0-0.8 0-1.6-0.1-2.1 0-4.2 0-2.1 0-4.2 0-4.2 0-8.4 0 0-3.1 0-6.2 0.4 0.1 0.9 0.2 0.1-0.2 0.1-0.4 0.5-1.5 1-2.9z"/>
	<path class="s1" d="m118.9 38.5c0.3 0 0.3 0 0.7 0q1.2 0 2.4 0 0.9 0 1.7 0 1.7 0 3.5 0 2 0 4.1 0 1.9 0 3.9 0 0.8 0 1.6 0 1.2 0 2.3 0 0.4 0 0.7 0c1.5 0 2.8 0.3 3.9 1.4 1 1.1 1.4 1.9 1.3 3.4-0.1 0.9-0.6 1.6-1.4 2.2-0.6 0.2-1 0.3-1.7 0.3q-0.3 0-0.6 0-0.3 0-0.7 0-0.4 0-0.7 0-1.2 0-2.4 0c-0.5 0-0.5 0-0.9 0q-1.9 0-3.9 0-2.2 0-4.5 0.1-2 0-3.9 0-0.8 0-1.7 0-1.1 0-2.3 0c-0.3 0-0.3 0-0.7 0-1.5 0-2.4-0.3-3.6-1.3-1.1-1.1-1.4-2-1.4-3.6 0.1-1 0.5-1.5 1.2-2.1 1-0.4 2-0.4 3.1-0.4z"/>
	<path class="s17" d="m223.5 77.4c0.9 0.6 1.3 1.2 1.5 2.3 0.5 4.4-1 8.8-3.6 12.4-0.7 0.9-1.5 1.4-2.6 2q-0.2 0-0.4 0 0 0.2-0.1 0.6c-0.1 0.6-0.3 1.2-0.6 1.8q0.4 0.1 0.7 0.2c1.5 0.4 2.2 1.5 2.9 2.7 0.4 1.2 0.3 2.3 0 3.5-0.3 0.9-0.1 1.4 0.2 2.3 0.1 0.6 0 1.2 0 1.8-0.4-0.1-0.4-0.1-0.9-0.3-0.2-0.4-0.2-0.4-0.4-1q0-0.2-0.1-0.5c-0.1-0.2-0.1-0.2-0.1-0.5q-0.4 0.1-0.8 0.2-0.6 0.2-1.1 0.3-0.2 0-0.5 0.1-0.2 0.1-0.5 0.1-0.2 0.1-0.5 0.1c-0.4 0.1-0.4 0.1-1.3 0.1q0 0.3 0.1 0.5c0.1 0.7 0.1 1.4 0.1 2.2q-0.4 0-0.9 0c-0.2-0.8-0.4-1.5-0.5-2.3-0.2-1-0.6-1.5-1.3-2.2-0.9-1-0.9-2-0.9-3.3 0.1-1.3 0.6-2.2 1.6-3.1 0.7-0.5 0.7-0.5 1.5-0.6 0.8-0.2 0.8-0.2 1-0.8 0.4-1.3 0.6-2.5-0.1-3.8-1.1-3.3 0.3-7.3 1.7-10.3 1.2-2.3 3-5.2 5.9-4.5z"/>
	<path class="s18" d="m347.5 109.6c3.3-0.1 3.3-0.1 4.7 0.9 1 1 1.3 1.8 1.4 3.3 0 2.1-0.7 3.9-1.5 5.8q-0.2 0.6-0.4 1.2-0.5 1.3-1 2.6-0.8 2.2-1.7 4.3-0.1 0.4-0.2 0.8-0.3 0.8-0.6 1.6-0.8 2-1.5 3.9-2 5.4-4 10.7-1.7 4.6-3.4 9.2-2.1 0-4.3 0 1.5-4.2 3.1-8.5 0.6-1.7 1.3-3.4 0.1-0.4 0.3-0.8 2.7-7.4 5.5-14.8 0.9-2.3 1.7-4.6 0.4-1.1 0.8-2.2 0.2-0.5 0.4-1 0.2-0.6 0.5-1.2 0.1-0.4 0.2-0.7c0.7-2 0.7-3.8-0.2-5.7-0.1-0.3-0.1-0.3-0.2-0.6-0.2-0.4-0.2-0.4-0.9-0.5q0-0.2 0-0.3z"/>
	<path class="s19" d="m80.4 74.7c-0.3 0.8-0.6 1.4-1 2.1q-0.2 0.3-0.4 0.6c-0.2 0.3-0.2 0.3-0.4 0.6q-0.2 0.3-0.4 0.6-0.5 0.7-0.9 1.3-0.7 1.1-1.4 2.1-0.4 0.6-0.8 1.3-0.2 0.3-0.4 0.6-1.4 2-2.7 3.9c-0.5-0.5-0.8-0.8-1.1-1.5q-0.1-0.2-0.2-0.4-0.1-0.3-0.2-0.6-0.9-1.9-1.8-3.8c-1.2-2.4-2.3-4.8-3.4-7.3-0.1-0.2-0.1-0.2-0.3-0.5-0.1-0.3-0.1-0.3-0.2-0.6q-0.1-0.2-0.3-0.5c-0.1-0.4-0.1-0.4-0.1-0.8 5.2-2.3 11.6-0.2 16 2.9z"/>
	<path class="s2" d="m47 58q1.4 0 2.7 0 0.2 1 0.3 2 0.1 0.3 0.1 0.6 0.1 0.3 0.1 0.6 0.1 0.3 0.1 0.5c0.1 0.5 0.1 0.5 0.1 1.6 11.7 0 23.3 0 35.4 0q-0.4-2.6-0.7-5.3 1.3 0 2.7 0 0.2 1.6 0.4 3.1 0.1 0.5 0.2 1.1 0.1 0.7 0.2 1.5c0.1 0.2 0.1 0.2 0.1 0.4 0.1 0.7 0.2 1.3 0.2 1.9-13.5 0-26.9 0-40.8 0-1.1-6.9-1.1-6.9-1.1-8z"/>
	<path class="s20" d="m80.4 74.9c4.1 2.3 6.6 6.9 7.9 11.3 0.1 0.5 0.1 0.5 0.1 1.8-5.5 0-11 0-16.7 0q1.6-2.4 3.1-4.8 0.2-0.3 0.5-0.6 0.4-0.7 0.8-1.3 0.7-1 1.4-2.1 0.4-0.6 0.8-1.3 0.2-0.3 0.4-0.6 0.2-0.2 0.4-0.5 0.2-0.3 0.3-0.5 0.5-0.7 1-1.4z"/>
	<path fill-rule="evenodd" class="s21" d="m81.3 70.7q0.3 0.3 0.7 0.6c1.1 0.7 2.2 0.7 3.6 0.7 0.3 0 0.3 0 0.7 0q1.2 0 2.5 0 0.8 0 1.6 0 2 0 4 0 0 0.3 0 0.7c-3.3 0.1-6.7 0.1-10.2 0.2q1.4 1.4 2.9 2.9c0.5 0.6 0.9 1.1 1.3 1.8 0.2 0.2 0.2 0.2 0.3 0.4 1.8 2.8 3.2 5.9 3.7 9.2 0.3 1.4 0.4 2.5 1.6 3.4q0.2 0.2 0.4 0.3 0.6 0.5 1.2 0.9 0.3 0.3 0.6 0.6c0.8 0.6 1.6 1.4 2.4 2.1 0.9 0.9 1.9 1.8 2.9 2.6q0.6 0.5 1.2 1 0.1 0.1 0.3 0.2c2.4 2 2.4 2 2.7 3.4 0.1 0.5 0.1 0.5 0.1 1q0 0.3 0 0.5 0 0.6 0 1.1-0.3-0.1-0.7-0.2 0-0.4 0-0.7c-0.2-1.5-0.4-2.7-1.7-3.7q-0.5-0.3-1-0.7c-0.8-0.5-1.4-1.2-2.1-1.9q-0.4-0.4-0.9-0.8-0.2-0.2-0.4-0.4-1-0.9-2.1-1.8-0.6-0.6-1.2-1.1-0.4-0.3-0.8-0.7-1.1-0.8-2-1.8c0 0.4 0 0.4-0.1 0.9-0.3 5.1-1.8 9.2-5.5 12.9q-0.2 0.2-0.4 0.4c-3.7 3.5-8.5 4.4-13.4 4.3-5.1-0.1-10.3-2.5-13.9-6-0.6-0.5-0.6-0.5-1.2-1-0.7-0.6-1.3-1.3-1.9-2q-0.1-0.3-0.3-0.5c-1.9-2.5-3.8-5.4-4.3-8.6q-1.2 0.8-2.4 1.5-0.4 0.2-0.8 0.5-0.2 0.1-0.4 0.2-0.2 0.1-0.4 0.3-0.4 0.2-0.8 0.4-0.9 0.6-1.9 1.1c-0.3 0.1-0.3 0.1-0.6 0.3q-0.2 0.2-0.5 0.3c-0.4 0.3-0.4 0.3-0.5 0.8-0.1 0.5 0 1 0.1 1.5q0.1 0.6 0.1 1.2 0.1 0.4 0.1 0.8-0.3 0.1-0.6 0.3-0.2-0.9-0.4-1.7 0-0.3-0.1-0.5 0-0.3-0.1-0.5 0-0.2-0.1-0.4c0-0.6 0-1 0.2-1.6 0.5-0.4 0.9-0.6 1.4-0.9q0.2-0.1 0.4-0.3 0.7-0.3 1.3-0.7 0.5-0.3 0.9-0.5 0.7-0.4 1.3-0.7 1.1-0.7 2.2-1.4c0.7-0.4 0.7-0.4 1.2-0.4q-0.1-0.2-0.1-0.4c-0.3-1.7-0.4-3.2-0.4-4.9 0-0.4 0-0.4 0-0.8 0-3.9 1.1-7 3.2-10.4q-3.1 0-6.3 0-0.1-0.3-0.2-0.6 0.3 0 0.6 0 1.2 0 2.3 0 0.5 0 1 0c2.1 0.1 2.1 0.1 3.9-0.8 0.7-0.6 1.2-1.3 1.8-1.9 6.9-5.9 16.9-4.6 24 0zm-25.6 2.4c-1.3 1.6-2.4 3.4-3.1 5.4q-0.1 0.3-0.3 0.6c-1.4 4-1 9 0.5 13 0.1 0.2 0.1 0.2 0.2 0.4 1.2 3.2 3 6 5.4 8.5q0.2 0.2 0.4 0.5c3.7 3.8 9 6.6 14.3 6.8 5.2 0.2 10-0.8 13.8-4.5 2.1-2 3.5-4.4 4.4-7.1q0.1-0.3 0.3-0.6c0.9-3.3 0.8-7.5-0.3-10.7q-0.1-0.4-0.2-0.8c-1.8-6.1-6.3-11.4-11.9-14.4-1.5-0.8-3-1.4-4.7-1.9q-0.3-0.1-0.5-0.1c-6.6-1.9-13.6-0.1-18.3 4.9z"/>
	<path class="s22" d="m187 135.7c2.5 1.2 3.7 3.9 4.5 6.4q0.3 1.2 0.4 2.5 0 0.2 0.1 0.5c0.1 1.8-0.4 3.9-1.6 5.4-0.7 0.7-1.2 0.8-2.2 0.8-1.3-0.2-2.3-1.1-3.1-2-2.1-2.9-2.8-6.3-2.5-9.8 0.3-1.5 0.8-2.7 2-3.6 0.8-0.4 1.5-0.5 2.4-0.2z"/>
	<path class="s15" d="m174.6 62.7c2.3 1.1 3.6 3.5 4.4 5.8 0.4 1.3 0.5 2.6 0.5 4.1 0 0.3 0 0.3 0 0.6 0 1.8-0.3 3.1-1.4 4.5-0.9 0.7-1.8 0.7-2.9 0.6-2-1-3.4-3.1-4.2-5.2q-0.1-0.2-0.2-0.5c-0.5-1.4-0.5-2.7-0.6-4.2q0-0.3 0-0.5c0.1-1.7 0.4-3.1 1.5-4.3q0.1-0.2 0.3-0.4c0.7-0.7 1.6-0.6 2.6-0.5z"/>
	<path class="s15" d="m147.4 135.7c2 0.9 3.2 3.1 4.1 5 0.5 1.6 0.7 3 0.7 4.7q0 0.4 0 0.7c0 1.9-0.5 3.4-1.8 4.8-1 0.6-1.8 0.4-2.9 0.1-2.1-1-3.1-3.3-3.9-5.4-0.8-2.5-1.2-5.7 0-8.1 1.1-1.6 2-2.1 3.8-1.8z"/>
	<path class="s15" d="m134.9 62.7c2.5 1.3 3.7 3.6 4.6 6.1 0.6 2.4 0.8 5.4-0.3 7.7-0.4 0.6-0.8 1.1-1.4 1.5q-0.1 0.1-0.2 0.3c-1.1 0.2-2 0-3-0.6-2.1-1.5-3.1-4.2-3.8-6.6-0.1-1-0.1-1.9-0.2-2.8q0-0.3 0-0.6c0-1.6 0.3-2.9 1.4-4.1 0.9-0.9 1.7-1.3 2.9-0.9z"/>
	<path class="s23" d="m23.7 58.2q0.1 0 0.2 0 0 0.2 0 0.4 1.6 10.7 3.2 21.3 1.2 8 2.4 15.9 0.1 0.5 0.1 0.9 0.1 0.3 0.1 0.5 0.2 1.2 0.3 2.4c0.1 0.2 0.1 0.2 0.1 0.4q0.7 4.9 1.4 9.7 0.1 0.4 0.2 0.8 0.7 5.1 1.5 10.2 0.1 0.6 0.2 1.1 0 0.3 0.1 0.6 0.1 1.1 0.3 2.2 0.1 0.6 0.2 1.2 1.2 8.2 2.4 16.4 1.2 7.8 2.4 15.5 1.3 9 2.6 18 0.2 1.2 0.4 2.5 0 0.2 0.1 0.5 0.6 4.1 1.2 8.2 0.1 0.4 0.2 0.8 0 0.4 0.1 0.8c0.1 0.6 0.1 0.6 0.1 1.3 17.7 0 35.4 0 53.6 0q0 0.1 0 0.2c-17.8 0-35.7 0-54.1 0q-0.1 0.2-0.2 0.4-1.1-6.5-2-13.1-0.4-2.2-0.7-4.5-0.1-0.5-0.1-1-0.8-4.9-1.5-9.9-0.1-0.4-0.1-0.8-0.3-1.7-0.5-3.4-0.5-3.1-1-6.3-0.4-2.5-0.7-5-0.1-0.3-0.1-0.6-1-6.5-2-13 0-0.3-0.1-0.6-0.2-1.4-0.4-2.7 0-0.3-0.1-0.6-0.1-0.5-0.1-1.1-1.3-8.6-2.6-17.2-1.2-7.9-2.4-15.8-1.2-7.9-2.4-15.9-1.1-7.7-2.3-15.4 0-0.3-0.1-0.6-0.1-0.6-0.2-1.3c-0.1-0.7-0.2-1.3-0.2-2q0.2 0 0.5 0 0-0.7 0-1.4z"/>
	<path class="s1" d="m127.6 20.6q0.9 0 1.8 0.1 0.4 0 0.9 0 1.1 0.1 2.2 0.1c-0.4 0.9-0.9 1.6-1.4 2.4q-0.2 0.2-0.3 0.5-1.6 2.2-3.1 4.5-0.6 0.8-1.2 1.7-0.3 0.4-0.6 0.9c-0.6 0.8-1.1 1.7-1.6 2.6-1.3 2.5-1.3 2.5-2.5 3.2-2.1 0.6-4.3 0.3-6.4 0q1.3-2.1 2.7-4.1 0.3-0.5 0.6-0.9 0.2-0.3 0.3-0.5 0.8-1.1 1.6-2.3 0.9-1.3 1.9-2.7 0.1-0.2 0.3-0.4 0.3-0.4 0.6-0.9 0.1-0.2 0.2-0.4 0.2-0.2 0.3-0.4c0.4-0.5 0.4-0.5 0.7-1.2 0.8-1.4 1.3-2.1 3-2.2z"/>
	<path class="s24" d="m169.9 106.5c7.5 0 15 0 22.7 0 0.4 1.6 0.4 1.6 0.7 4.2-7.5 0-15 0-22.7 0-0.7-3.5-0.7-3.5-0.7-4.2z"/>
	<path class="s24" d="m129.8 106.5c7.5 0 15 0 22.7 0 0.5 1.6 0.5 1.6 0.7 4.2-7.4 0-14.8 0-22.5 0-0.4-1.1-0.4-1.1-0.9-4.2z"/>
	<path class="s10" d="m226.6 210.5c1.9 0.3 3.6 0.8 5.4 1.3q0.4 0.1 0.8 0.2c2 0.6 2 0.6 2.3 0.9 0 2.1 0 4.1 0 6.2-5.7 0-11.3 0-17.1 0 0.9-1.1 1.3-1.5 2.6-2.2 2.9-1.6 4.6-3.4 6-6.4z"/>
	<path class="s25" d="m37.7 99.6q0.3 0 0.5 0 0.8 0 1.5 0 0.5 0 1 0 1.3 0 2.6 0 0 0.2 0 0.5 0.3-0.3 0.6-0.5c1-0.1 2-0.1 3-0.1q0.8 0 1.5 0 0.5 0 1 0c0.4 0 0.4 0 0.8 0 1.3 0.2 1.9 0.7 2.7 1.6 0.4 0.9 0.5 1.4 0.4 2.3-0.3 0.6-0.5 1-1.1 1.4-0.7 0.2-1.2 0.2-1.9 0.2q-0.3 0-0.5 0-0.7 0-1.4 0-0.5 0-1 0-1 0-2.1 0-1.3 0-2.6 0.1-1 0-2.1 0-0.4 0-0.9 0-0.7 0-1.4 0c-0.4 0-0.4 0-0.8 0-1-0.2-1.7-0.7-2.4-1.4-0.5-0.8-0.6-1.6-0.5-2.5 0.7-1.5 1.6-1.6 3.1-1.6z"/>
	<path class="s26" d="m101.2 103.8q0.7 0 1.4 0 0.5 0 1 0 0.4 0 0.8 0c0.7 0 0.7 0 1.4 0.5q0-0.2 0-0.5 1.5 0 3 0 0.5 0 1 0 0.7 0 1.4 0 0.5 0 0.9-0.1c1.2 0.2 1.8 0.7 2.7 1.5 0.5 0.9 0.5 1.7 0.3 2.7-0.4 0.6-0.6 1-1.3 1.3q-0.7 0-1.4 0-0.3 0-0.5 0-0.7 0.1-1.4 0.1c-0.3 0-0.3 0-0.6 0q-1.3 0-2.6 0-1.1 0-2.2 0-1.3 0-2.7 0-0.5 0-1 0c-2.9 0.1-2.9 0.1-3.9-0.7-0.9-0.9-0.9-1.8-0.9-2.9 0.1-0.8 0.6-1.2 1.2-1.6 1-0.5 2.3-0.3 3.4-0.3z"/>
	<path class="s1" d="m213.5 154.8c9.3 0 18.5 0 28.1 0-0.7 2.5-0.7 2.5-0.9 2.9-7 0-14 0-21.2 0q-0.3 2.5-0.7 5.1c-0.2 2.3-0.2 2.3-0.4 3.4q-0.1 0-0.2 0-0.3-1.6-0.6-3.1-0.1-0.6-0.2-1.1-0.1-0.8-0.3-1.5 0-0.2 0-0.5c-0.2-0.6-0.3-1.2-0.3-1.9q-1.6 0.1-3.3 0 0-1.6 0-3.3z"/>
	<path class="s9" d="m181.7 178c7.5 0 15 0 22.7 0 0.4 2.4 0.4 2.4 0.4 4-7.5 0-15 0-22.7 0-0.4-2.7-0.4-2.7-0.4-4z"/>
	<path class="s9" d="m141.6 178c7.5 0 15 0 22.7 0q0.4 1.9 0.7 4c-7.5 0-15 0-22.7 0-0.5-1.6-0.5-1.6-0.7-4z"/>
	<path class="s27" d="m60.9 167.5q0.3 0 0.7 0 0.3 0 0.6 0 1.2 0 2.3 0 0.8 0 1.6 0 1.9 0 3.8 0 2.3 0 4.6 0 4 0 8 0 3.9 0 7.9 0c0.2 0 0.2 0 0.4 0q1.3 0 2.5 0 10 0 20.1 0 0.1 0.5 0.2 1.1c-0.7 0.5-0.8 0.5-1.6 0.5-0.3 0-0.3 0-0.6 0q-0.3 0-0.6 0-0.3 0-0.7 0-1.1 0-2.2 0-0.8 0-1.5 0-2 0-3.9 0-2.2 0-4.5 0-4 0-7.9 0-3.9 0-7.8 0-0.2 0-0.5 0-0.2 0-0.5 0-4.4 0-8.8 0-1.5 0-3.1 0-2.1 0-4.2 0-0.8 0-1.6 0-1 0-2.1 0-0.3 0-0.6 0c-1.4 0-1.4 0-1.6-0.3-0.1-0.5-0.1-0.5 0-1.1 0.4-0.4 1.1-0.2 1.6-0.2z"/>
	<path class="s28" d="m207.3 102.7c0.7 0.7 0.6 1.6 0.8 2.5q0 0.3 0.1 0.6 0.2 1 0.3 2.1 0.2 0.7 0.3 1.4 0.3 2 0.6 3.9 0.5 3.1 1 6.1 0.1 0.8 0.3 1.5 1 6.2 2.1 12.5 0.7 4 1.4 8.1 0.2 1.1 0.4 2.3 0.1 0.9 0.3 1.8 0.1 0.6 0.2 1.2c0.4 2.4 0.7 4.8 1.1 7.2 8.5 0 17 0 25.8 0q-0.1 0.5-0.2 0.9c-9.5 0-19 0-28.7 0q0-0.4 0-0.9 0.9 0 2 0-0.1-0.3-0.1-0.7-0.3-1.3-0.5-2.6-0.2-1-0.3-2-0.6-3.6-1.3-7.3-0.2-1.5-0.5-3.1 0-0.4-0.1-0.8-0.9-5.5-1.9-11 0-0.2 0-0.4-0.1-0.3-0.1-0.5-0.5-3-1-5.9-0.4-2.2-0.8-4.5-0.3-2.1-0.7-4.2-0.1-0.8-0.3-1.5-0.1-1.1-0.3-2.2-0.1-0.3-0.1-0.6c-0.2-1.1-0.3-2.2-0.3-3.4q0.3-0.2 0.5-0.5z"/>
	<path class="s29" d="m36.7 70.8q0.2 0 0.5 0c0.3 0 0.3 0 0.7 0q0.3 0 0.6 0 0.7 0 1.3 0 1.1 0 2.1 0 0.6 0 1.3 0 0.3 0 0.6 0c1.5 0 2.8 0.3 3.9 1.4 0.3 0.6 0.3 1 0.2 1.6q0.1 0.3 0.2 0.6c0 0.5 0 0.5-0.3 1.1-1.1 1.1-2.4 1-3.8 1.1q-0.4 0-0.7 0-0.7 0-1.3 0-1 0-2.1 0-0.6 0-1.3 0-0.3 0-0.6 0c-1.4 0-2.3-0.3-3.4-1.2-0.7-1-0.8-1.8-0.7-2.9 0.7-1.2 1.4-1.6 2.8-1.7z"/>
	<path class="s30" d="m97.9 69.5q0.3 0 0.7 0 0.7 0 1.4 0 1.1 0 2.2 0 0.7 0 1.4 0 0.4 0 0.7-0.1c1.6 0.1 2.4 0.5 3.6 1.6 0.5 0.8 0.5 1.6 0.3 2.6-0.4 0.8-0.7 1-1.5 1.3q-0.5 0-1 0.1-0.3 0-0.6 0-0.3 0-0.7 0c-0.3 0-0.3 0-0.7 0q-0.7 0-1.4 0-1.1 0-2.1 0-0.7 0-1.4 0c-0.3 0-0.3 0-0.7 0-1.1 0-2-0.1-3-0.8-0.5-0.6-0.5-0.6-0.9-1.3 0.1-0.5 0.1-0.5 0.2-0.9q-0.2 0-0.4 0c0.2-0.8 0.3-1.4 0.9-2 1-0.6 1.9-0.6 3-0.5z"/>
	<path class="s10" d="m223.1 78.3c0.9 0.8 0.9 1.8 0.9 3 0 4.1-1.5 8.3-4.4 11.1-0.6 0.5-0.7 0.5-1.6 0.5-0.9-0.5-1-0.8-1.3-1.8-0.5-3.5 0.8-7.7 2.9-10.6 2-2.4 2-2.4 3.5-2.2z"/>
	<path class="s10" d="m274.9 212.5c0.3 2.2 0.6 4.4 0.9 6.6-4.7 0-9.4 0-14.2 0 0.5-0.5 1-0.7 1.7-1q0.7-0.2 1.4-0.5 0.2-0.1 0.5-0.2c0.5-0.3 0.6-0.6 0.8-1.2q0.1-0.2 0.3-0.4 0.1-0.2 0.2-0.5c0.1-0.2 0.1-0.2 0.2-0.4 0.2-0.5 0.2-0.5 0.4-1.1 0.7-0.2 0.7-0.2 1.5-0.4q0.2-0.1 0.4-0.1 0.5-0.1 1-0.2 0.7-0.2 1.4-0.4 0.4-0.1 0.9-0.2 0.4-0.1 0.8-0.2c0.7-0.1 0.7-0.1 1.8 0.2z"/>
	<path class="s31" d="m291.6 167.9q0.4 0.2 0.7 0.3c0 1.6-0.1 3.1-0.4 4.7q-0.1 0.4-0.1 0.9-0.2 0.9-0.3 1.7-0.4 2.5-0.8 4.9 0 0.3-0.1 0.5-0.6 4.1-1.2 8.1 0 0.3-0.1 0.6-0.3 2.4-0.7 4.8-1 7.5-2.3 14.9c-3.2 0-6.5 0-9.8 0q0-0.4 0-0.9c2.9 0 5.9 0 8.9 0q0.1-1 0.3-2.1c0.4-3.1 0.8-6.2 1.3-9.3q0.4-2.6 0.8-5.2 0.1-0.3 0.1-0.6 0.7-4.3 1.3-8.6 0-0.3 0.1-0.5 0.4-2.8 0.8-5.6 0.1-1 0.3-2.1 0.1-0.7 0.2-1.4c0.7-4.7 0.7-4.7 1-5.1z"/>
	<path class="s32" d="m235.1 21.5c5-0.2 9.9 0.3 14.7 1.8 0.2 0 0.2 0 0.4 0.1 6.5 2 12.2 5.2 17.2 9.9q0.1 0.2 0.3 0.3c4.2 3.9 7.3 8.6 9.7 13.7q0.2 0.5 0.4 0.9 0.2 0.3 0.3 0.5 0.1 0.2 0.2 0.4c0.2 0.6 0.3 1 0.2 1.6-0.4-0.1-0.4-0.1-0.9-0.3-0.3-0.5-0.5-0.9-0.7-1.5-2-5-5-9.4-8.6-13.4-0.3-0.3-0.3-0.3-0.6-0.6-2.6-2.7-5.7-4.9-9-6.7q-0.2-0.1-0.4-0.2c-7.4-4-15-5.3-23.2-5.6q0-0.4 0-0.9z"/>
	<path class="s33" d="m105.1 20.4q0.4 0 0.7 0c0.6 2.1 0.9 4.3 1.2 6.4q0.4 2.6 0.9 5.2c0.4 1.4 0.4 2.7 0.6 4.2 2.3 0 4.7 0 7.1 0q0 0.1 0 0.2 1.3 0 2.6 0 0.5 0 0.9 0 0.7 0 1.3 0 0.4 0 0.8 0c0.6 0.1 0.6 0.1 0.8-0.2q0.8 0 1.6 0 0 0.2 0 0.4 0.5 0 1-0.1 0.3 0 0.5 0c0.5 0 0.5 0 0.7-0.3q0.5 0 0.9 0 0.3 0 0.6 0c0.4 0 0.4 0 0.7 0q0.3 0 0.7 0 1.1 0 2.3 0 0.7 0 1.5 0 2.1 0 4.2 0 2.1 0 4.2 0 4.1 0 8.3 0 0 0.4 0 0.9c-13.7 0-27.3 0-41.4 0-0.4-1.7-0.8-3.4-1.1-5.2q-0.1-0.3-0.1-0.7-0.2-0.7-0.3-1.4-0.2-1-0.3-2.1c-0.4-2.4-0.8-4.8-0.9-7.3z"/>
	<path class="s34" d="m61.1 51.8q2 0 4.2 0c-0.7 2.7-1.4 5.3-2.2 8q-0.2 0.4-0.3 0.9-0.3 1-0.6 2-2.1 0-4.3 0c0.5-2.3 0.5-2.3 0.8-3.2 0.1-0.2 0.1-0.2 0.2-0.5q0.1-0.3 0.2-0.7 1.1-3.2 2-6.5z"/>
	<path class="s35" d="m234.1 99.6c0.8 0.2 0.8 0.2 1.2 0.7 0.3 0.9 0.3 1.3 0 2.2-0.6 0.7-0.9 1.1-1.9 1.2q-0.7 0-1.4-0.1 0 0.4 0 0.7 0.2 0 0.4 0.1c1.4 0.3 2 1 2.9 2.1 1 1 2.2 1.4 3.6 1.6q0 0.2 0 0.4c-0.5 0.3-0.5 0.3-1.1 0.7-0.6 0.3-1.2 0.7-1.7 1.2-0.6 0.3-0.6 0.3-1.3 0.4-1.4-0.5-2.7-1.2-3.5-2.5-1-2.4-0.8-4.9-0.2-7.3q0.5 0 1.1 0 0.1-0.3 0.2-0.5c0.4-0.8 0.8-0.9 1.7-0.9z"/>
	<path class="s36" d="m218.2 97.6c1.1 0.5 1.8 1.3 2.2 2.5 0.1 1.2 0.1 2.2-0.7 3.3-0.7 0.5-1.2 0.6-2 0.8-0.4 0.1-0.4 0.1-0.8 0.2-1.1 0.2-1.8 0.3-2.8-0.3-0.8-0.8-1.2-1.8-1.3-2.9 0.1-1.4 0.7-2.3 1.7-3.2 1.1-0.8 2.4-0.9 3.7-0.4z"/>
	<path class="s37" d="m63.5 113.9c8.1 0 16.2 0 24.5 0 0.1 0.3 0.1 0.3 0.2 0.6-2.6 0-5.3 0-8 0 0.1 0.9 0.1 0.9 0.2 1.8-4.6 0-9.2 0-14 0q-0.1-0.8-0.2-1.5-1.3 0-2.7 0 0-0.5 0-0.9z"/>
	<path class="s38" d="m199 58.4c0.9 0.5 1.3 0.9 1.6 1.8q0.2 1.2 0.4 2.4 0.1 0.5 0.2 0.9 0.1 1.1 0.3 2.1 0.2 1.6 0.5 3.2 0.3 2 0.6 3.9 0.8 5.2 1.7 10.3 0.2 1.5 0.5 3.1 0.7 4.2 1.4 8.4 0.1 0.4 0.1 0.7 0.3 1.4 0.6 2.8 0 0.3 0 0.5 0.2 0.7 0.3 1.3c0.1 0.7 0.1 1.3 0.1 2-0.5 0.3-0.5 0.3-0.9 0.5q-0.1-0.4-0.1-0.7-0.6-3.3-1.1-6.7-0.3-1.7-0.6-3.4-1.2-7-2.4-14-0.9-5-1.7-10.1-0.2-1.1-0.4-2.2-0.2-1.3-0.4-2.6-0.1-0.5-0.2-1-0.1-0.7-0.2-1.3-0.1-0.4-0.2-0.8c-0.1-0.6-0.1-0.6-0.1-1.1z"/>
	<path class="s39" d="m260.1 71.8q0.4 0 0.8 0 0.4 0 0.8 0c0.4 0 0.4 0 0.8 0 0.4 0 0.4 0 0.7 0q0.4 0 0.7 0c0.6 0 0.6 0 0.8 0.2q0 0.7 0 1.4 0 0.3 0 0.7 0 0.5 0 0.9 0 1.5 0 3-3 0-6 0 0-1.4 0-3 0-0.4 0-0.9 0-0.4 0-0.7 0-0.4 0-0.8c0-1 0.5-0.8 1.4-0.8z"/>
	<path class="s1" d="m267.1 68.7c1.1 0.4 1.7 1.2 2.3 2.2 0.2 1.2 0.3 2.4-0.3 3.5-0.8 0.8-1.5 1.6-2.7 1.7q-0.3 0-0.5 0-0.3-0.1-0.6-0.1-0.2 0-0.4 0 0-0.4 0-0.8-0.1-0.5-0.1-1.1 0-0.2 0-0.5c0-0.9 0-0.9-0.3-1.6q-0.6-0.1-1.3-0.1-0.3 0-0.6-0.1-0.3 0-0.6 0c0.1-0.8 0.3-1.3 0.9-1.9q0.2-0.2 0.3-0.4c1.2-1.1 2.5-1 3.9-0.8z"/>
	<path fill-rule="evenodd" class="s40" d="m219.1 96.9c1.2 0.8 2 1.8 2.4 3.2 0.2 1 0.1 1.8-0.2 2.8-0.3 0.9-0.1 1.4 0.2 2.3 0.1 0.6 0 1.2 0 1.8-0.4-0.1-0.4-0.1-0.9-0.3-0.2-0.4-0.2-0.4-0.4-1q0-0.2-0.1-0.5-0.1-0.2-0.1-0.5-0.4 0.1-0.8 0.2-0.6 0.2-1.1 0.3-0.2 0-0.5 0.1-0.2 0.1-0.5 0.1c-0.2 0.1-0.2 0.1-0.5 0.1-0.4 0.1-0.4 0.1-1.3 0.1q0 0.3 0.1 0.5c0.1 0.7 0.1 1.4 0.1 2.2q-0.4 0-0.9 0c-0.2-0.8-0.4-1.5-0.5-2.3-0.2-1-0.6-1.5-1.3-2.2-0.9-1-0.9-2-0.9-3.3 0.1-1.3 0.7-2.1 1.6-3.1 1.8-1.2 3.6-1.6 5.6-0.5zm-5.3 1.8c-0.9 1.2-1.1 1.9-0.9 3.3 0.3 1.1 1 1.9 1.9 2.5 1.5 0.1 3.4-0.3 4.7-0.9 0.9-0.9 1-1.8 1-3-0.2-1.1-0.7-1.9-1.6-2.6-1.7-1.2-3.7-0.8-5.1 0.7z"/>
	<path class="s41" d="m134.8 20.7c0.2 0.1 0.2 0.1 0.5 0.1q0.3 0 0.6 0c0.2 0 0.2 0 0.4 0-0.7 1.3-1.5 2.5-2.3 3.7q-1.2 1.5-2.2 3.1-0.2 0.3-0.4 0.7-0.5 0.6-0.9 1.2-1.2 1.8-2.4 3.5c-0.1 0.2-0.1 0.2-0.3 0.5-0.2 0.2-0.2 0.2-0.3 0.4q-0.4 0.5-0.7 1.1-0.2 0.2-0.3 0.5-0.2 0.3-0.3 0.5c-0.4 0.4-0.4 0.4-0.9 0.5-0.5 0-1 0-1.5-0.1 0.3-0.8 0.7-1.5 1.1-2.2q0.3-0.3 0.5-0.6 0.2-0.3 0.4-0.6 0.2-0.3 0.5-0.7 0.4-0.6 0.9-1.3 0.5-0.8 1-1.5 1.9-2.7 3.7-5.4 0.3-0.3 0.5-0.7 0.2-0.3 0.5-0.6 0.1-0.3 0.3-0.6 0.2-0.2 0.4-0.5 0.2-0.2 0.4-0.5c0.3-0.4 0.3-0.4 0.8-0.5z"/>
	<path class="s42" d="m79 143c0.5 0 0.5 0 0.8 0.2q0.1 0.8 0.2 1.6 0 0.2 0.1 0.5 0.1 0.8 0.2 1.6 0.1 0.5 0.2 1.1 0.2 1.5 0.4 2.9 0.3 2.4 0.7 4.7 0.1 0.8 0.2 1.7 0.1 0.5 0.2 1 0 0.2 0 0.4 0.1 0.9 0.3 1.8c0.2 0.7 0.1 1.4 0.1 2.1-0.5 0.1-0.5 0.1-1.1 0.2-0.6-0.6-0.6-1.2-0.7-2.1q-0.1-0.2-0.1-0.5-0.1-0.8-0.3-1.7-0.1-0.5-0.1-1.1-0.2-1.3-0.4-2.5-0.2-1.6-0.5-3.1-0.2-1.2-0.4-2.4 0-0.6-0.1-1.2-0.1-0.8-0.3-1.6 0-0.3 0-0.5c-0.2-1-0.2-1.9-0.2-2.9 0.2-0.2 0.2-0.2 0.8-0.2z"/>
	<path class="s34" d="m67.5 51.8q1.3 0 2.7 0c-0.4 1.9-1 3.8-1.6 5.8q-0.2 0.6-0.3 1.2-0.4 1.1-0.7 2.3-0.1 0.2-0.2 0.5-0.2 0.5-0.3 1.1-1.5 0-2.9 0c1.7-6.1 1.7-6.1 2.5-8.7q0.1-0.3 0.2-0.6c0.4-1.1 0.4-1.1 0.6-1.6z"/>
	<path class="s9" d="m65.7 111.9c4.7 0 9.4 0 14.3 0 0.1 0.9 0.1 0.9 0.2 2-4.7 0-9.4 0-14.2 0q-0.2-1-0.3-2z"/>
	<path class="s43" d="m217.3 220.2c5.9 0 11.7 0 17.8 0q0 0.8 0 1.6c-5.9 0-11.8 0-17.8 0q0-0.8 0-1.6z"/>
	<path class="s44" d="m71.3 144.6c0.5 0.1 0.5 0.1 0.9 0.2 0.3 1 0.5 2 0.7 3q0.1 0.5 0.1 0.9 0.1 0.4 0.2 0.9 0 0.5 0.1 1 0.2 1 0.3 2 0.2 1.2 0.4 2.5 0.2 1 0.3 2 0.1 0.4 0.2 0.9c0.2 1.5 0.4 3 0.4 4.6-0.6 0.1-0.6 0.1-1.2 0.2-0.6-0.6-0.5-1-0.7-1.8q0-0.2 0-0.5-0.1-0.7-0.2-1.4-0.1-0.5-0.2-1-0.1-1-0.3-2.1-0.2-1.3-0.4-2.7-0.1-1.3-0.3-2.5-0.1-0.3-0.1-0.5-0.2-1.5-0.4-3.1-0.1-0.3-0.1-0.7-0.1-0.3-0.1-0.6 0-0.2-0.1-0.5c0-0.4 0-0.4 0.5-0.8z"/>
	<path class="s42" d="m108.9 144.6q0.6 0.1 1.1 0.2 0.9 5.4 1.8 10.8 0.1 0.6 0.2 1.2c0.3 1.9 0.6 3.8 0.5 5.8-0.6 0.1-0.6 0.1-1.1 0.2-0.5-0.7-0.6-1.5-0.7-2.3q-0.1-0.2-0.1-0.5-0.1-0.7-0.2-1.4-0.1-0.5-0.2-1-0.1-1-0.3-2.1-0.2-1.3-0.4-2.7-0.1-1-0.3-2 0-0.5-0.1-1c-0.5-3.3-0.5-3.3-0.4-5q0.1-0.1 0.2-0.2z"/>
	<path class="s1" d="m259.6 220.2c5.4 0 10.8 0 16.4 0 0.2 0.8 0.2 0.8 0.3 1.6-5.8 0-11.5 0-17.4 0 0.5-1.1 0.5-1.1 0.7-1.6z"/>
	<path class="s45" d="m49.3 51.5q2.2 0 4.4 0 0 0.2 0 0.3-2.1 0-4.2 0 0.1 0.9 0.3 1.9 0.1 0.9 0.3 1.8 0.1 0.6 0.1 1.3 0.2 0.9 0.3 1.8 0.1 0.3 0.1 0.6c0.1 0.9 0.3 1.7 0.2 2.6q-0.2 0-0.4 0c-0.1 0.2-0.1 0.2-0.2 0.4q-0.2-0.7-0.3-1.3 0-0.4-0.1-0.8c-0.1-0.8-0.1-0.8-0.1-2.1-8.6 0-17.2 0-26 0q0 0.8 0 1.6-0.3 0-0.5 0-0.1-1.1-0.2-2.3c8.7 0 17.5 0 26.5 0-0.2-1.2-0.2-1.2-0.5-2.4-0.2-1.5-0.2-1.9 0.3-3.4z"/>
	<path class="s32" d="m252.5 21.7c1.1 0.2 2.2 0.4 3.3 0.8 0.2 0.1 0.2 0.1 0.5 0.2 7 2.6 13.2 7.6 17.5 13.7q0.2 0.3 0.5 0.6c0.9 1.3 0.9 1.3 0.8 1.9q-0.1 0.2-0.2 0.4c-0.8-0.3-1.1-0.8-1.6-1.5-2.2-3.3-4.8-6.3-7.9-8.7-0.2-0.2-0.2-0.2-0.4-0.3-3.8-2.9-7.9-4.9-12.5-6.2q0-0.4 0-0.9z"/>
	<path class="s46" d="m86.7 146.6c0.5 0.1 0.5 0.1 1.1 0.2q0.2 1.3 0.4 2.7 0.1 0.4 0.2 0.9 0.5 2.8 0.8 5.6 0.3 1.9 0.6 3.7c0.3 1.9 0.3 1.9 0.2 2.7-0.2 0.2-0.2 0.2-0.5 0.4-0.4-0.1-0.4-0.1-0.8-0.2-0.5-1.4-0.7-2.7-0.9-4.2-0.1-0.3-0.1-0.3-0.1-0.7q-0.2-0.8-0.3-1.6-0.2-1.2-0.3-2.4-0.2-0.7-0.3-1.5 0-0.4-0.1-0.7-0.2-1.7-0.4-3.4-0.1-0.3-0.1-0.6c0-0.5 0-0.5 0.5-0.9z"/>
	<path class="s33" d="m259.8 37.7c0.7 0.4 1.3 0.8 1.8 1.4 0.2 0.8 0.3 1.4 0.2 2.2-0.5 1-1 1.6-2 2-1 0.1-1.4 0.1-2.3-0.4-1-0.8-1-0.8-1.3-1.4-0.1-1.2 0-2 0.7-3.1 0.8-0.9 1.8-0.8 2.9-0.7z"/>
	<path class="s42" d="m101.6 146.4c1 0.1 1 0.1 1.3 0.4q0.2 1 0.3 1.9 0 0.3 0.1 0.6 0.1 1 0.2 1.9 0.2 0.9 0.3 1.9 0.1 0.6 0.2 1.2 0.2 1.5 0.4 3.1 0.1 0.3 0.1 0.6 0.1 0.5 0.2 1.1c0.2 1.2 0.2 2.3 0.2 3.5-0.5 0.1-0.5 0.1-1.1 0.2-0.4-0.8-0.6-1.5-0.7-2.4q-0.1-0.4-0.1-0.8-0.1-0.4-0.1-0.9-0.1-0.4-0.2-0.8-0.1-1-0.2-1.9-0.2-1.2-0.4-2.3-0.1-0.9-0.3-1.8-0.1-0.7-0.2-1.3c-0.2-1.4-0.3-2.7-0.3-4q0.2-0.1 0.3-0.2z"/>
	<path class="s47" d="m133.6 113.1c0.3 0 0.3 0 0.6 0q0.3 0 0.6 0 1 0 2 0.1 0.7 0 1.4 0 1.9 0 3.7 0 1.9 0 3.7 0 3.7 0 7.4 0c0.1 0.4 0.1 0.4 0.2 0.9-0.5 0.5-1.5 0.2-2.1 0.2-0.3 0-0.3 0-0.7 0q-1 0-2 0.1-0.7 0-1.3 0-1.5 0-3 0-1.8 0-3.7 0-1.4 0-2.9 0-0.7 0-1.4 0-0.9 0-1.9 0-0.3 0-0.6 0c-0.5 0-0.5 0-1.3-0.1q-0.2-0.3-0.5-0.7c0.6-0.5 1-0.5 1.8-0.5z"/>
	<path class="s48" d="m172.1 113.2c6.9 0 13.8 0 20.9 0 0.1 0.3 0.1 0.3 0.3 0.7-0.9 0.5-1.6 0.5-2.6 0.5q-0.3 0-0.6 0-1 0-2 0-0.7 0-1.3 0-1.5 0-2.9 0-1.8-0.1-3.6-0.1-1.4 0-2.8 0-0.7 0-1.4 0-0.9 0-1.9 0-0.2 0-0.5 0c-1.3 0-1.3 0-1.8-0.2q0.1-0.5 0.2-0.9z"/>
	<path class="s49" d="m233.1 167.9q2 0 4 0-0.1 0.5-0.2 0.9-1.6 0-3.1 0c-0.1 0.7-0.1 0.7-0.2 1.4q-0.5 3.7-1 7.4-0.1 0.9-0.2 1.7c-0.5 3.4-1.1 6.6-2.4 9.8-0.2-0.7-0.2-1.1-0.1-1.9 0.3-1.3 0.5-2.7 0.7-4.1 0.9-7.1 0.9-7.1 1.4-9.3 0.2-1.2 0.4-2.4 0.5-3.7 0.1-0.8 0.2-1.4 0.6-2.2z"/>
	<path class="s50" d="m243.8 109c0.6 0.4 0.6 0.4 0.9 1.1-7 2.8-7 2.8-10.3 4.2 0.8-2.1 2.3-3.7 4.2-4.8 1.8-0.8 3.4-1.2 5.2-0.5z"/>
	<path class="s51" d="m64.7 148.6c0.3 0 0.3 0 0.6 0 0.6 2.9 1.1 5.8 1.5 8.7q0 0.3 0.1 0.6 0.1 0.7 0.2 1.5 0 0.4 0.1 0.8c0.1 0.8 0.1 1.6 0.1 2.4-0.6 0.1-0.6 0.1-1.1 0.2-0.5-0.7-0.6-1-0.7-1.8q0-0.3-0.1-0.7 0-0.4-0.1-0.7-0.1-0.4-0.1-0.8-0.1-0.8-0.3-1.6-0.1-1.3-0.3-2.5-0.2-0.8-0.3-1.6c0-0.4 0-0.4-0.1-0.8-0.2-1.2-0.3-2.3-0.2-3.5 0.2-0.2 0.2-0.2 0.7-0.2z"/>
	<path class="s52" d="m256.2 118.5c0.5 0 0.5 0 1.2 0.3 0.3 0.5 0.5 0.9 0.8 1.5q0.1 0.2 0.2 0.5 0.4 0.8 0.7 1.5 0.3 0.6 0.6 1.1 0.5 1.1 1 2.2 0.9 1.9 1.9 3.8 1.2 2.4 2.4 4.9 0.1 0.2 0.2 0.5 0.1 0.2 0.3 0.5 0.1 0.2 0.2 0.4c0.1 0.4 0.1 0.4 0.1 1.3q-0.4 0-0.9 0-2.2-4.4-4.4-9-1.4-2.9-2.9-5.8-0.1-0.3-0.3-0.7-0.2-0.3-0.3-0.6c-0.8-1.5-0.8-1.5-0.8-2.4z"/>
	<path class="s53" d="m41.7 178.6q0.1 0 0.2 0 0.4 2.2 0.7 4.5 0.1 0.7 0.2 1.5 0.2 1.1 0.3 2.1 0.1 0.4 0.1 0.7 0.1 0.3 0.1 0.7 0.1 0.2 0.1 0.5c0.1 0.5 0.1 0.5 0.1 1.2 17.7 0 35.4 0 53.6 0q0 0.1 0 0.2c-17.8 0-35.7 0-54.1 0q-0.1 0.2-0.2 0.4-0.2-1.4-0.4-2.8-0.1-0.4-0.2-0.9-0.2-1.4-0.4-2.7-0.1-0.7-0.2-1.3-0.1-0.4-0.2-0.8 0-0.3-0.1-0.7c-0.1-1-0.1-1.7 0.4-2.6z"/>
	<path class="s54" d="m183.9 184.6c6.9 0 13.8 0 20.9 0 0.1 0.5 0.1 0.5 0.3 0.9-7.1 0-14.2 0-21.4 0q0.1-0.4 0.2-0.9z"/>
	<path class="s54" d="m143.8 184.6c7 0 13.9 0 21 0 0.1 0.5 0.1 0.5 0.2 0.9-7.1 0-14.1 0-21.4 0q0.1-0.4 0.2-0.9z"/>
	<path fill-rule="evenodd" class="s55" d="m260.1 71.8q0.4 0 0.8 0 0.4 0 0.8 0c0.4 0 0.4 0 0.8 0 0.4 0 0.4 0 0.7 0q0.4 0 0.7 0c0.6 0 0.6 0 0.8 0.2q0 0.7 0 1.4 0 0.3 0 0.7 0 0.5 0 0.9 0 1.5 0 3-3 0-6 0 0-1.4 0-3 0-0.4 0-0.9 0-0.4 0-0.7 0-0.4 0-0.8c0-1 0.5-0.8 1.4-0.8zm-0.5 0.9q0 2.2 0 4.4 2.1 0 4.2 0 0-2.2 0-4.4-2.1 0-4.2 0z"/>
	<path class="s46" d="m94.7 150.6c1 0.1 1 0.1 1.3 0.4q0.1 0.6 0.2 1.2 0 0.4 0.1 0.8 0.1 0.4 0.1 0.8 0.1 0.8 0.3 1.6 0 0.4 0.1 0.8 0.1 1.1 0.3 2.2c0.1 0.3 0.1 0.3 0.1 0.6q0.1 0.6 0.2 1.1c0.1 0.9 0.2 1.6-0.1 2.5-0.5 0.1-0.5 0.1-1.1 0.2-0.5-2-0.9-3.9-1.2-6q-0.1-0.7-0.2-1.5-0.1-0.5-0.1-1-0.1-0.4-0.2-0.9c-0.1-0.9-0.1-1.7-0.1-2.6q0.1-0.1 0.3-0.2z"/>
	<path class="s56" d="m272.5 167.9c6.3 0 12.6 0 19.1 0q-0.1 0.5-0.2 0.9c-6.2 0-12.5 0-18.9 0q0-0.4 0-0.9z"/>
	<path class="s57" d="m63.5 113.9c8.1 0 16.2 0 24.5 0 0.1 0.3 0.1 0.3 0.2 0.6-8.1 0-16.3 0-24.7 0q0-0.3 0-0.6z"/>
	<path class="s58" d="m238.7 208.7c7.7 0 15.5 0 23.5 0q0 0.3 0 0.6c-7.8 0-15.7 0-23.8 0q0.1-0.3 0.3-0.6z"/>
	<path class="s59" d="m51.5 82.9q0.1 0 0.2 0 0 0.2 0 0.4c0.1 3.8 0.8 7.1 2 10.8q-0.3 0.2-0.7 0.4-0.2-0.7-0.5-1.4-0.2-0.4-0.3-0.8c-0.3-0.7-0.3-0.7-0.3-1.4q-1.2 0.8-2.4 1.5-0.4 0.2-0.8 0.5-0.2 0.1-0.4 0.2-0.2 0.1-0.4 0.3-0.4 0.2-0.8 0.4-0.9 0.6-1.9 1.1c-0.3 0.1-0.3 0.1-0.6 0.3q-0.2 0.2-0.5 0.3c-0.4 0.3-0.4 0.3-0.5 0.8-0.1 0.5 0 1 0.1 1.5q0.1 0.6 0.1 1.2 0.1 0.4 0.1 0.8c-0.3 0.2-0.3 0.2-0.6 0.3q-0.2-0.9-0.4-1.7 0-0.3-0.1-0.5 0-0.3-0.1-0.5 0-0.2-0.1-0.4c0-0.6 0-1 0.2-1.6 0.5-0.4 0.9-0.6 1.4-0.9q0.2-0.1 0.4-0.3 0.7-0.3 1.3-0.7 0.5-0.3 0.9-0.5 0.7-0.4 1.3-0.7 1.1-0.7 2.2-1.4c0.7-0.4 0.7-0.4 1.2-0.4q-0.1-0.3-0.1-0.5c-0.1-0.3-0.1-0.3-0.1-0.7q-0.1-0.3-0.2-0.6c-0.1-0.6-0.1-1.2-0.1-1.8q0.3 0 0.5 0 0-1.9 0-4z"/>
	<path class="s60" d="m84.9 133.7c7.7 0 15.4 0 23.3 0q-0.1 0.3-0.2 0.6c-7.6 0-15.3 0-23.1 0q0-0.3 0-0.6z"/>
	<path class="s58" d="m131.4 189.5q0 0.4 0 0.7c-11.5 0-22.9 0-34.7 0 0.6-0.6 0.9-0.5 1.7-0.5q0.5 0 0.9 0 0.5 0 1 0 0.5 0 1 0 1.3 0 2.7 0 1.4 0 2.8-0.1 2.7 0 5.4 0 3 0 6.1 0 4.7 0 9.5-0.1 0.2 0 0.5 0c2.5 0 2.5 0 3.1 0z"/>
	<path class="s61" d="m95.7 56.2q0.2 0.1 0.5 0.1c1.3 0.3 1.3 0.3 1.8 0.6q0.6 0 1.3 0 0.4 0 0.8 0 0.5 0.1 0.9 0.1 0.5 0 0.9 0 1.2 0 2.4 0 1.2 0 2.5 0 2.4 0.1 4.8 0.1 0 0.1 0 0.2c-8.8 0-17.6 0-26.7 0q0-0.1 0-0.2 0.2 0 0.5 0c1.4-0.1 2.4-0.3 3.7-0.9 2.3-0.6 4.3-0.5 6.6 0z"/>
	<path class="s62" d="m57.5 153c0.8 0.2 0.8 0.2 1.1 0.5 0.2 0.7 0.3 1.5 0.5 2.3q0 0.3 0.1 0.7c0.3 2 0.5 4 0.5 6.1-0.5 0.1-0.5 0.1-1.1 0.2-0.4-0.9-0.6-1.7-0.7-2.7-0.1-0.2-0.1-0.2-0.1-0.5q-0.1-0.5-0.1-1-0.2-0.7-0.3-1.4c-0.4-2.9-0.4-2.9-0.3-3.7q0.2-0.2 0.4-0.5z"/>
	<path class="s63" d="m68.5 66.8c0.4 0 0.4 0 0.7 0 2.8 0.1 5.3 0.6 7.9 1.7q-0.1 0.3-0.2 0.6-0.2 0-0.5-0.1c-6-1.7-11.3-1.8-16.9 1.2q-0.4 0.3-0.9 0.5-0.2-0.3-0.4-0.7c3.2-2 6.4-3.2 10.3-3.2z"/>
	<path class="s64" d="m220 104.5c0.4 0.7 0.5 0.9 0.5 1.7q0.1 0.3 0.1 0.6c0 0.2 0 0.2 0 0.4q-1.1 0.2-2.2 0.4-0.3 0.1-0.6 0.2-0.3 0-0.6 0.1c-0.3 0-0.3 0-0.5 0.1-0.5 0.1-0.5 0.1-1.2 0.1q-0.1-1.2-0.2-2.5 2.3-0.5 4.7-1.1z"/>
	<path class="s65" d="m23 57.3c7.9 0 15.7 0 23.8 0q-0.1 0.3-0.2 0.5c-7.6 0-15.1 0-22.9 0q0 0.9 0 1.8-0.3 0-0.5 0-0.1-1.1-0.2-2.3z"/>
	<path class="s66" d="m259.8 38.6c0.7 0.5 0.7 0.5 1.1 1.2 0.1 0.6 0 1.1-0.2 1.7-0.6 0.7-0.9 0.9-1.8 1-0.9-0.1-1.2-0.4-1.8-1.2-0.1-0.7-0.1-1 0-1.8 0.8-0.9 1.5-1.1 2.7-0.9z"/>
	<path class="s67" d="m259.4 155.3q0.3 0.1 0.6 0.2c-0.1 1-0.4 1.8-0.7 2.7q-0.2 0.4-0.3 0.8-0.2 0.4-0.4 0.8-0.1 0.4-0.3 0.8-0.9 2.1-1.8 4.2-0.5-0.1-0.9-0.2c0.1-1.1 0.4-2.1 0.9-3.1q0.1-0.2 0.2-0.5 0.2-0.5 0.4-1 0.3-0.8 0.7-1.6 0.2-0.5 0.4-1 0.1-0.3 0.2-0.5c0.3-0.7 0.5-1.1 1-1.6z"/>
	<path class="s68" d="m222.6 30.6c0.7 0.5 0.9 0.8 1.1 1.6 0 0.7 0 0.7-0.3 1.3-0.7 0.6-1.1 0.7-2.1 0.7-0.7-0.5-0.7-0.5-1.1-1.1-0.2-0.9-0.2-1.4 0.3-2.1 0.8-0.5 1.3-0.5 2.1-0.4z"/>
	<path class="s69" d="m225.5 74.7q-0.1 1.2-0.2 2.4 0 0.3 0 0.6-0.1 0.6-0.2 1.2-0.2 0.1-0.5 0.2-0.1-0.3-0.2-0.6c-0.5-0.8-0.6-0.8-1.5-1q-0.5-0.1-0.9-0.1 0.3-0.3 0.6-0.5-0.1-0.1-0.3-0.3c-0.3-0.4-0.3-0.4-0.3-0.8q0.7-0.3 1.4-0.6 0.4-0.1 0.8-0.3c0.7-0.2 0.7-0.2 1.3-0.2z"/>
	<path class="s47" d="m116.5 90.5q0.1 0 0.2 0 0.3 2.2 0.7 4.4 0.1 0.8 0.2 1.5 0.2 1.1 0.3 2.2 0.1 0.3 0.1 0.6 0.1 0.3 0.1 0.7 0.1 0.2 0.1 0.5 0.1 0.8 0.1 1.7-0.3 0-0.5 0-0.1 0.4-0.2 0.9-0.3-2.2-0.7-4.5-0.1-0.7-0.2-1.4-0.2-1.1-0.3-2.2-0.1-0.3-0.1-0.7c-0.1-0.3-0.1-0.3-0.1-0.6q-0.1-0.3-0.1-0.6c-0.1-1-0.1-1.6 0.4-2.5z"/>
	<path class="s70" d="m37.5 150.4q0.1 0 0.2 0 0.3 2.2 0.7 4.4 0.1 0.7 0.2 1.5 0.1 1 0.3 2.1 0.1 0.4 0.1 0.7 0.1 0.3 0.1 0.6 0 0.3 0.1 0.6 0.1 0.8 0 1.6-0.2 0-0.4 0-0.1 0.5-0.2 0.9-0.4-2.2-0.7-4.4-0.1-0.7-0.2-1.5-0.2-1.1-0.3-2.1-0.1-0.4-0.1-0.7c-0.1-0.3-0.1-0.3-0.1-0.6q-0.1-0.3-0.1-0.6c-0.1-1-0.1-1.7 0.4-2.5z"/>
	<path class="s71" d="m100.2 106.3c3.8 0 7.5 0 11.4 0q0 0.3 0 0.7c-3.8 0-7.5 0-11.4 0q0-0.4 0-0.7z"/>
	<path class="s72" d="m129.6 178.2q0.1 0 0.2 0 0.4 2.2 0.7 4.4 0.1 0.8 0.2 1.5 0.2 1.1 0.3 2.2 0.1 0.3 0.1 0.6 0.1 0.4 0.1 0.7 0.1 0.3 0.1 0.5c0.1 0.5 0.1 0.5 0.1 1.4-0.3 0.1-0.3 0.1-0.7 0.3q-0.5-2.8-0.9-5.7-0.2-0.7-0.3-1.4 0-0.5-0.1-0.9-0.1-0.4-0.1-0.9c-0.2-1-0.3-1.8 0.3-2.7z"/>
	<path class="s73" d="m217.3 92.5q0.6 0.1 1.1 0.2 0.2 0.7 0.4 1.4-0.2 0-0.4 0 0 0.3-0.1 0.6c-0.1 0.6-0.2 1-0.6 1.6-0.4 0.1-0.4 0.1-1 0.1q-0.3 0.1-0.5 0.1-0.3 0-0.5 0c1-3.4 1-3.4 1.6-4z"/>
	<path class="s74" d="m51.5 82.9q0.1 0 0.2 0 0 0.2 0 0.4c0.1 3.8 0.8 7.1 2 10.8q-0.3 0.2-0.7 0.4-0.2-0.7-0.5-1.4-0.2-0.4-0.3-0.8c-0.3-0.7-0.3-0.7-0.3-1.4q-0.3-0.1-0.6-0.2 0-0.4 0-0.7c0-1.1-0.1-2.1-0.3-3.1q0.3 0 0.5 0 0-1.9 0-4z"/>
	<path class="s75" d="m93.1 123q0.3 0.1 0.7 0.2 0.2 1.7 0.5 3.3 0 0.6 0.1 1.1 0.1 0.8 0.3 1.6 0 0.3 0 0.5c0.1 0.8 0.2 1.2 0 2q-0.3 0-0.5 0c-1.2-6.3-1.2-6.3-1.1-8.7z"/>
	<path class="s76" d="m69.7 129.2c2.8 0 5.6 0 8.5 0q0 0.3 0 0.7c-2.8 0-5.6 0-8.5 0q0-0.3 0-0.7z"/>
	<path class="s16" d="m52.8 129.2c2.8 0 5.6 0 8.5 0q0 0.3 0 0.7c-2.8 0-5.6 0-8.5 0q0-0.3 0-0.7z"/>
	<path class="s77" d="m106 123.9q0.3 0 0.7 0 0.4 2.1 0.8 4.2 0 0.3 0.1 0.6c0.2 1 0.2 1.9 0.2 3q-0.3 0-0.7 0-0.4-2.3-0.8-4.6 0-0.2-0.1-0.5c-0.1-0.9-0.2-1.8-0.2-2.7z"/>
	<path class="s78" d="m227.8 210.2c1.8 0.2 3.6 0.8 5.4 1.4q0.2 0.1 0.5 0.2 0.3 0 0.6 0.1c0.2 0.1 0.2 0.1 0.4 0.2 0.4 0.1 0.4 0.1 0.6 0.6q0 0.7 0 1.4 0 0.5 0 0.9 0 0.5 0 0.9 0 0.5 0 1 0 1.1 0 2.2-0.1 0-0.2 0c-0.1-2-0.2-4.1-0.2-6.2-3.8-1.1-3.8-1.1-7.6-2.2q0.2-0.2 0.5-0.5z"/>
	<path class="s79" d="m90 123.9q0.3 0.1 0.7 0.2c0.4 2.5 0.7 5 0.8 7.6q-0.3-0.1-0.6-0.3-0.2-1.3-0.5-2.7c0-0.4 0-0.4-0.1-0.8-0.2-1.4-0.4-2.7-0.3-4z"/>
	<path class="s24" d="m272.5 214.3c0.7 0.2 0.7 0.2 1.1 0.6 0.1 0.6 0.1 1-0.3 1.5-0.6 0.4-1 0.4-1.7 0.3-0.4-0.3-0.4-0.3-0.7-0.7 0.1-0.7 0.1-0.7 0.2-1.3 0.7-0.5 0.7-0.5 1.4-0.4z"/>
	<path class="s80" d="m37 73.4c2.6 0 5.2 0 7.8 0q0 0.3 0 0.6c-2.6 0-5.1 0-7.8 0q0-0.3 0-0.6z"/>
	<path class="s81" d="m102.9 124.5q0.3 0 0.7 0c0.3 0.7 0.3 1.4 0.4 2.1 0.2 1.2 0.2 1.2 0.4 2.3 0.1 0.6 0.1 1.1 0.1 1.7q0 0.3 0 0.6 0 0.2 0 0.5-0.4-0.1-0.7-0.3-0.2-1.3-0.5-2.7 0-0.3-0.1-0.7c0-0.4 0-0.4-0.1-0.8q-0.1-0.3-0.1-0.7c-0.1-0.6-0.1-1.3-0.1-2z"/>
	<path class="s24" d="m232.2 214.5c0.3 0.6 0.3 1.1 0.2 1.7-0.4 0.5-0.4 0.5-1.2 0.6-0.4-0.1-0.4-0.1-0.8-0.1-0.5-0.7-0.5-1-0.4-1.8 0.5-0.9 1.3-0.7 2.2-0.4z"/>
	<path class="s82" d="m96.4 124.8q0.4 0 0.7 0c0.6 2.2 1 4.5 0.9 6.9q-0.3-0.1-0.7-0.3-0.2-1.3-0.4-2.7-0.1-0.4-0.1-0.7-0.1-0.4-0.2-0.8 0-0.3-0.1-0.7c-0.1-0.6-0.1-1.1-0.1-1.7z"/>
	<path class="s72" d="m35.9 143.9q0.3 0.1 0.7 0.2c0.5 2.5 0.9 4.8 0.9 7.4q-0.3-0.1-0.5-0.3c-0.7-2.3-0.9-4.8-1.1-7.3z"/>
	<path class="s83" d="m29.9 99.8q0.1 0 0.2 0 0.2 1.5 0.5 3 0 0.4 0.1 0.8 0.1 0.4 0.1 0.8 0.1 0.4 0.1 0.8c0.1 0.6 0.1 1.2 0.1 1.8q-0.2 0-0.4 0-0.1 0.4-0.3 0.9-0.2-1.5-0.4-3-0.1-0.4-0.1-0.8-0.1-0.4-0.2-0.8 0-0.4-0.1-0.8c-0.1-1-0.1-1.7 0.4-2.7z"/>
	<path class="s84" d="m97.6 72c2.3 0 4.7 0 7.1 0q-0.1 0.4-0.2 0.7c-2.3 0-4.6 0-6.9 0q0-0.3 0-0.7z"/>
	<path class="s47" d="m23.7 58.2q0.1 0 0.2 0 0.2 1.5 0.4 3 0.1 0.4 0.2 0.8 0 0.4 0.1 0.8 0 0.4 0.1 0.8c0.1 0.6 0.1 1.1 0.1 1.7q-0.2 0-0.5 0-0.1 0.5-0.2 0.9-0.2-1.4-0.4-2.9-0.1-0.4-0.2-0.9 0-0.4-0.1-0.8 0-0.4-0.1-0.7c-0.1-0.7-0.1-0.7-0.1-1.3q0.2 0 0.5 0 0-0.7 0-1.4z"/>
	<path class="s85" d="m34.1 128.1q0.1 0 0.3 0 0.2 1.5 0.4 2.9 0.1 0.5 0.1 0.9 0.1 0.4 0.1 0.8 0.1 0.4 0.2 0.7c0 0.6 0.1 1.2 0 1.8q-0.3-0.1-0.6-0.2c-0.2-0.7-0.4-1.3-0.5-2q0-0.4-0.1-0.7c-0.5-3.1-0.5-3.1 0.1-4.2z"/>
	<path class="s86" d="m26.6 77.6q0.1 0 0.2 0 0.2 1.5 0.4 2.9 0.1 0.4 0.2 0.9 0 0.4 0.1 0.8 0 0.3 0.1 0.7c0.1 0.6 0.1 1.2 0.1 1.8q-0.4-0.1-0.7-0.2-0.4-1.8-0.7-3.6 0-0.4-0.1-0.7c-0.1-1-0.2-1.7 0.4-2.6z"/>
	<path class="s77" d="m86.9 125.4q0.3 0 0.6 0 0.3 1.2 0.5 2.4 0 0.3 0.1 0.7c0.2 1.1 0.4 2.1 0.3 3.2q-0.3 0-0.6 0c-0.4-1.4-0.6-2.8-0.7-4.3q-0.1-0.3-0.1-0.6-0.1-0.7-0.1-1.4z"/>
	<path class="s87" d="m49.3 51.5q2.2 0 4.4 0 0 0.2 0 0.3-2.1 0-4.2 0 0.1 0.6 0.2 1.3c0.2 1.3 0.3 2.6 0.2 4q-0.2 0.1-0.4 0.2-0.4-1.7-0.6-3.5-0.1-0.2-0.1-0.4c0-0.5 0-0.5 0.5-1.9z"/>
	<path class="s88" d="m73.1 67.2c1.4 0.3 2.7 0.8 4 1.3q-0.1 0.3-0.2 0.6-0.2 0-0.5-0.1c-1.8-0.5-3.7-0.9-5.6-1.2 0.8-0.7 1.3-0.7 2.3-0.6z"/>
	<path class="s89" d="m90.4 82.5q0.4 0 0.7 0c1.2 3.4 1.2 3.4 1.3 5.3q-0.3 0.2-0.6 0.5-0.1-0.3-0.2-0.6c-0.3-1.4-0.6-2.7-1-4.1-0.2-0.4-0.2-0.4-0.2-1.1z"/>
	<path class="s90" d="m100 126.3q0.3 0.1 0.7 0.2 0.1 1 0.3 2 0.1 0.3 0.1 0.5c0.2 0.9 0.3 1.8 0.2 2.7q-0.3 0-0.6 0-0.2-0.9-0.4-1.7 0-0.2-0.1-0.5c-0.2-1.1-0.2-2.1-0.2-3.2z"/>
	<path class="s91" d="m243.8 70.5q0.3 0.1 0.6 0.2c-0.1 0.8-0.5 1.2-1.1 1.8-0.6 0.6-0.6 0.6-1.1 1.3q-0.4-0.1-0.9-0.2c0.4-0.8 0.9-1.4 1.5-2.1q0.3-0.3 0.6-0.6 0.2-0.2 0.4-0.4z"/>
	<path class="s91" d="m213.1 48q-0.1 0.3-0.3 0.7c-0.6 0.2-0.6 0.2-1.4 0.5-0.3 0.1-0.3 0.1-0.7 0.2-0.7 0.1-1 0.2-1.6-0.1q0-0.3 0-0.6c2.9-1.1 2.9-1.1 4-0.7z"/>
	<path class="s89" d="m126.9 160.4q0.1 0 0.3 0 0.1 1.1 0.3 2.1 0 0.3 0.1 0.6 0 0.3 0.1 0.6c0 0.3 0 0.3 0.1 0.6q0 0.8 0 1.6-0.2 0-0.4 0-0.1 0.5-0.2 0.9-0.2-1-0.4-2.1c0-0.3 0-0.3-0.1-0.6q0-0.3-0.1-0.6 0-0.3-0.1-0.6c-0.1-1-0.1-1.7 0.4-2.5z"/>
	<path class="s89" d="m119.4 109.9q0.1 0 0.2 0 0.2 1 0.3 2.1 0.1 0.3 0.1 0.6 0.1 0.3 0.1 0.6c0.1 0.3 0.1 0.3 0.1 0.6q0.1 0.8 0.1 1.6-0.3 0-0.5 0-0.1 0.5-0.2 0.9-0.2-1.1-0.3-2.1c-0.1-0.4-0.1-0.4-0.1-0.7q-0.1-0.3-0.1-0.6-0.1-0.2-0.1-0.5c-0.1-1-0.1-1.7 0.4-2.5z"/>
	<path class="s25" d="m250.9 60q0.3 0 0.7 0c-0.1 1.4-0.7 2.5-1.4 3.8q-0.4-0.1-0.9-0.2 0.5-1.3 1.1-2.4 0.1-0.4 0.3-0.7c0.1-0.2 0.1-0.2 0.2-0.5z"/>
	<path class="s25" d="m235.8 43.5c-0.3 0.7-0.3 0.7-0.9 1q-0.4 0.2-0.8 0.3-0.3 0.2-0.7 0.3c-0.7 0.2-1 0.3-1.6 0 0.2-0.7 0.2-0.7 0.7-1q0.4-0.1 0.8-0.3 0.3-0.1 0.7-0.3c0.7-0.2 1.1-0.2 1.8 0z"/>
	<path class="s92" d="m47.7 73.4q2.3 0 4.7 0 0 0.1 0 0.2 1 0.1 2 0.2-0.1 0.2-0.2 0.4c-3.1-0.1-3.1-0.1-6.3-0.2q-0.1-0.3-0.2-0.6z"/>
	<path class="s93" d="m251.8 53.8q0.3 0 0.7 0 0 1.9 0 4-0.5 0-0.9 0 0-1 0-1.9-0.1-0.3-0.1-0.5 0-0.7 0.1-1.4 0.1-0.1 0.2-0.2z"/>
	<path class="s33" d="m225.1 50.9q0.3 0.1 0.6 0.2c-0.3 1.3-0.9 2.4-1.5 3.6q-0.3 0-0.7 0c0.1-1.4 0.6-2.8 1.6-3.8z"/>
	<path class="s33" d="m238 42.9q0.8 0 1.6 0 0.2 0 0.5-0.1c0.7 0 1.2 0.1 1.9 0.3q-0.1 0.4-0.2 0.9-1.8-0.1-3.6-0.2-0.1-0.5-0.2-0.9z"/>
	<path class="s33" d="m239.3 75.4q0.5 0 0.9 0c-0.1 0.9-0.6 1.4-1.1 2.1q-0.3 0.4-0.5 0.7-0.2 0.2-0.4 0.5-0.4-0.1-0.9-0.2c0.6-1.1 1.2-2.2 2-3.1z"/>
	<path class="s94" d="m223.1 56.9q0.3 0.1 0.6 0.2 0.2 1.9 0.3 3.8-0.5-0.1-0.9-0.2c-0.2-0.8-0.3-1.6-0.3-2.4q0-0.3 0-0.7c0.1-0.5 0.1-0.5 0.3-0.7z"/>
	<path class="s95" d="m84 51.3q0.1 0 0.2 0 0.2 1 0.3 2.1 0.1 0.3 0.1 0.6c0.2 0.9 0.3 1.7 0.3 2.7q-0.2 0-0.5 0-0.1 0.2-0.2 0.4-0.3-2.5-0.7-5.1 0.3 0 0.5 0 0-0.3 0-0.7z"/>
	<path class="s33" d="m206.8 49.8q0 0.4 0 0.9-0.7 0.4-1.4 0.7-0.2 0.2-0.4 0.3-0.5 0.3-1.1 0.5-0.3-0.1-0.6-0.2 0-0.3 0-0.7 0.7-0.4 1.4-0.8 0.2-0.1 0.4-0.2c0.6-0.3 1-0.5 1.7-0.5z"/>
	<path class="s33" d="m215.5 47.1q1.9 0 3.8 0-0.1 0.4-0.2 0.9-1.9 0-3.8 0 0.1-0.5 0.2-0.9z"/>
	<path class="s33" d="m244.4 44c1.4 0.3 2.3 1.1 3.4 2q-0.1 0.3-0.2 0.6c-0.9-0.3-1.6-0.6-2.3-1.1q-0.3-0.2-0.6-0.4-0.3-0.1-0.5-0.2 0.1-0.5 0.2-0.9z"/>
	<path class="s96" d="m255.8 164.8q0.2 0 0.4 0c0.3 1.1 0.3 2.1 0.3 3.1q-0.9 0-1.8 0 0.5-1.5 1.1-3.1z"/>
	<path class="s89" d="m43.3 95.2q0.2 0.1 0.4 0.2 0 0.2 0 0.5c0 1.3 0 2.6 0.2 3.9q-0.3 0.2-0.6 0.3-0.2-0.9-0.4-1.7 0-0.3-0.1-0.5c-0.2-0.9-0.3-1.6 0-2.5q0.2-0.1 0.5-0.2z"/>
	<path class="s33" d="m234 63.8c-0.1 0.7-0.2 0.9-0.7 1.4-0.9 0.5-1.4 0.9-2.4 0.7q-0.2 0-0.5-0.1c0.2-0.7 0.2-0.7 0.8-1q0.4-0.2 0.8-0.4 0.3-0.2 0.7-0.3c0.6-0.3 0.6-0.3 1.3-0.3z"/>
	<path class="s94" d="m249.3 48q0.4 0 0.7 0c0.4 0.5 0.4 0.5 0.8 1.1q0.2 0.4 0.4 0.7c0.4 0.7 0.4 1 0.4 1.7q-0.4 0-0.7 0c-0.4-0.4-0.7-0.9-0.9-1.4q-0.2-0.2-0.3-0.4-0.3-0.5-0.6-1 0.1-0.4 0.2-0.7z"/>
	<path class="s91" d="m235.8 80.9q0.4 0.1 0.9 0.2c-0.2 1.2-0.5 2.3-0.9 3.4q-0.5 0-0.9 0c0.1-1.3 0.4-2.4 0.9-3.6z"/>
	<path class="s33" d="m221.7 47.3c1.4 0 2.5 0.1 3.8 0.5q0 0.4 0 0.9-1.7-0.3-3.5-0.5-0.1-0.4-0.3-0.9z"/>
	<path class="s29" d="m233.3 52.2c0.7 0.1 0.9 0.2 1.3 0.7 0.2 0.3 0.2 0.3 0.4 0.6 0.2 0.3 0.2 0.3 0.5 0.6 0.3 0.6 0.3 0.6 0.3 1.5-0.7-0.1-0.9-0.2-1.4-0.7q-0.2-0.3-0.4-0.6-0.2-0.3-0.4-0.6c-0.3-0.6-0.3-0.6-0.3-1.5z"/>
	<path class="s97" d="m228.2 48.7c1.2 0.3 2.3 0.7 3.3 1.5q0 0.3 0 0.7c-1.3-0.1-2.4-0.7-3.5-1.4q0.1-0.4 0.2-0.8z"/>
	<path class="s29" d="m224.9 62.9c0.7 0.1 1.2 0.4 1.8 0.9q0.7 0.6 1.5 1.1 0 0.3 0 0.7c-1.3 0-2-0.8-3-1.6-0.3-0.4-0.3-0.4-0.3-1.1z"/>
	<path class="s29" d="m235.5 58q0.5 0 0.9 0c0.1 1.4-0.1 2.5-0.6 3.8q-0.4 0-0.7 0 0.2-1.9 0.4-3.8z"/>
	<path class="s98" d="m247.8 65.8q0.3 0 0.6 0c-0.1 1-0.4 1.5-1 2.2q-0.3 0.2-0.5 0.5c-0.5 0.4-0.5 0.4-1.1 0.4 0.1-0.9 0.5-1.4 1.1-2.1q0.2-0.3 0.4-0.6 0.3-0.2 0.5-0.4z"/>
	<path class="s98" d="m230 46.2c-0.1 0.9-0.6 1.3-1.3 2-0.3 0.2-0.3 0.2-0.6 0.5-0.6 0.4-0.6 0.4-1.2 0.4 0.1-0.9 0.5-1.2 1.1-1.8 0.2-0.3 0.2-0.3 0.4-0.5 0.6-0.5 0.8-0.6 1.6-0.6z"/>
	<path class="s47" d="m117.1 97.6q0.3 0 0.5 0 0.2 0.8 0.3 1.6 0.1 0.2 0.1 0.5c0.2 0.8 0.3 1.5 0.3 2.4q-0.3 0-0.5 0-0.1 0.4-0.2 0.9c-0.3-1.8-0.5-3.6-0.5-5.4z"/>
	<path class="s41" d="m262 72.9q0.9 0 1.8 0 0 1.3 0 2.7c-1.1-0.8-1.5-1.3-1.8-2.7z"/>
	<path class="s99" d="m84 127.4q0.3 0 0.6 0c0.4 1.5 0.5 2.8 0.5 4.3q-0.3-0.1-0.7-0.3c-0.2-1.3-0.5-2.6-0.4-4z"/>
	<path class="s100" d="m130.3 185.3q0.2 0 0.4 0 0.2 0.8 0.4 1.6 0 0.2 0 0.5c0.2 0.7 0.3 1.4 0.3 2.1q-0.3 0.1-0.7 0.3c-0.3-1.6-0.5-3-0.4-4.5z"/>
	<path class="s101" d="m234.7 86.9q0.3 0 0.6 0 0.1 1.5 0.2 2.9-1.1 0-2.2 0 0-0.1 0-0.2 0.7 0 1.4 0-0.1-0.3-0.1-0.5c0-0.4 0-0.4-0.1-0.7q0-0.3 0-0.7-0.1-0.3-0.1-0.5 0.1-0.2 0.3-0.3z"/>
	<path class="s102" d="m125.4 152.6q0.2 0 0.4 0c0.4 1.5 0.5 2.9 0.5 4.4-0.7-0.6-0.8-1-0.9-1.9q-0.1-1.3 0-2.5z"/>
	<path class="s76" d="m51.5 81.4q0.1 0 0.2 0-0.1 2.7-0.2 5.5-0.2 0-0.5 0 0-1.1 0-2.2 0-0.4 0-0.7 0-0.3 0-0.6 0-0.3 0-0.6c0-0.6 0.2-0.9 0.5-1.4z"/>
	<path class="s102" d="m24.3 65.3q0.3 0 0.5 0c0.3 1.5 0.5 2.9 0.4 4.5-0.7-0.6-0.8-1-0.8-1.9q-0.1-1.3-0.1-2.6z"/>
	<path class="s103" d="m127.4 165.9q0.2 0 0.4 0c0.4 1.5 0.5 2.9 0.5 4.5q-0.3-0.1-0.5-0.2c-0.4-1.4-0.5-2.8-0.4-4.3z"/>
	<path class="s104" d="m119.8 115.4q0.2 0 0.5 0c0.3 1.5 0.5 2.9 0.4 4.5q-0.2-0.1-0.4-0.3c-0.5-1.3-0.5-2.7-0.5-4.2z"/>
	<path class="s105" d="m70.6 108.1q2.5 0.1 5.1 0.2 0 0.1 0 0.2-0.9 0-2 0 0 0.2 0 0.5c-1.1 0-2-0.1-3.1-0.5q0-0.2 0-0.4z"/>
	<path class="s106" d="m38.6 158.2q0.1 0 0.2 0 0.1 0.6 0.2 1.2 0.1 0.4 0.1 0.7c0.1 0.6 0.2 1.2 0.1 1.8q-0.2 0-0.4 0-0.1 0.5-0.2 0.9c-0.3-1.5-0.5-3.2 0-4.6z"/>
	<path class="s107" d="m206.4 23.5q1.2 0 2.4 0 0 0.4 0 0.9-1.2 0-2.4 0 0-0.4 0-0.9z"/>
	<path class="s108" d="m202.6 23.5q1.2 0 2.5 0 0 0.4 0 0.9-1.3 0-2.5 0 0-0.4 0-0.9z"/>
	<path class="s109" d="m205.5 24.4q0.3 0.1 0.7 0.2 0 1.2 0 2.5-0.5 0-0.9 0 0-0.6 0-1.2 0-0.4 0-0.7c0-0.6 0-0.6 0.2-0.8z"/>
	<path class="s109" d="m205.5 20.6q0.3 0.1 0.7 0.2 0 1.2 0 2.5-0.5 0-0.9 0 0-0.6 0-1.2 0-0.4 0-0.7c0-0.6 0-0.6 0.2-0.8z"/>
	<path class="s110" d="m47 129.2q1.7 0 3.4 0 0 0.3 0 0.7-1.7 0-3.4 0 0-0.3 0-0.7z"/>
	<path class="s111" d="m64 129.2q1.6 0 3.3 0 0 0.3 0 0.7-1.7 0-3.3 0 0-0.3 0-0.7z"/>
	<path class="s112" d="m78 108.3q0 0.2 0 0.4c-0.9 0.3-1.6 0.3-2.5 0.3q-0.3 0-0.5 0-0.6 0-1.3 0 0-0.3 0-0.5c1.5-0.2 2.8-0.2 4.3-0.2z"/>
	<path class="s113" d="m221.5 31.5q0.6 0.1 1.1 0.2 0 0.6 0 1.2c-0.4 0.2-0.4 0.2-0.9 0.4q-0.3-0.2-0.6-0.4c0.2-1.1 0.2-1.1 0.4-1.4z"/>
	<path class="s114" d="m91.8 93.8q0.1 0.3 0.2 0.5 0.2 0 0.4 0c-0.1 1.1-0.2 2-0.6 3.1q-0.4-0.1-0.7-0.2 0.3-1.7 0.7-3.4z"/>
	<path class="s115" d="m227.8 210.2c0.7 0.1 0.7 0.1 1.5 0.3q0.4 0.1 0.8 0.2c0.7 0.2 1 0.3 1.4 0.9-0.5 0.2-0.7 0.1-1.3 0q-0.2-0.1-0.5-0.2-0.3-0.1-0.5-0.2-0.3 0-0.6-0.1-0.6-0.2-1.3-0.4 0.2-0.2 0.5-0.5z"/>
	<path class="s94" d="m201.5 53.1c0 0.5-0.2 0.8-0.5 1.2-1 0.8-1 0.8-1.5 0.8q-0.1-0.4-0.2-0.9c1.2-1.1 1.2-1.1 2.2-1.1z"/>
	<path class="s116" d="m51.9 78.3q0.1 0.2 0.3 0.4 0.2 0 0.4 0-0.1 0.5-0.2 1.1 0 0.3-0.1 0.6c-0.1 0.5-0.1 0.5-0.6 1.2q-0.2 0-0.4 0c0.1-1.2 0.3-2.2 0.6-3.3z"/>
	<path class="s117" d="m254.7 167.9q0.9 0 1.8 0 0.1 0.5 0.2 0.9-1.1 0-2.2 0 0.1-0.4 0.2-0.9z"/>
	<path class="s118" d="m41.2 176q0.2 0 0.3 0c0.2 1.2 0.2 2.5 0.2 3.7-0.5-0.4-0.7-0.5-0.7-1.2q0-0.3 0-0.7 0-0.3 0-0.6c0-0.6 0-0.6 0.2-1.2z"/>
	<path class="s21" d="m33.7 125.4q0.1 0 0.2 0c0.2 1.3 0.3 2.5 0.2 3.8-0.5-0.4-0.6-0.6-0.7-1.2q0-0.3 0-0.7 0-0.3 0-0.6c0.1-0.6 0.1-0.6 0.3-1.3z"/>
	<path class="s21" d="m118.9 107.2q0.1 0 0.2 0c0.3 1.3 0.3 2.5 0.3 3.8-0.5-0.4-0.7-0.6-0.8-1.3q0-0.3 0-0.6 0-0.3 0.1-0.7c0-0.5 0-0.5 0.2-1.2z"/>
	<path class="s119" d="m220.6 76.5c0.5 0.2 0.8 0.5 1.1 0.9-0.5 0.3-0.5 0.3-1.1 0.6q-0.5-0.5-1.1-1.1c0.7-0.4 0.7-0.4 1.1-0.4z"/>
	<path class="s21" d="m26.1 74.9q0.1 0 0.2 0c0.3 1.3 0.3 2.5 0.3 3.8-0.6-0.4-0.7-0.6-0.8-1.2q0-0.4 0-0.7 0-0.3 0-0.6c0.1-0.6 0.1-0.6 0.3-1.3z"/>
	<path class="s120" d="m68.4 66.9q0.6 0 1.3 0c0.3 0 0.3 0 0.7 0 0.7 0 1 0.1 1.6 0.4q0 0.2 0 0.3c-1.3 0-2.5-0.1-3.8-0.3q0.1-0.2 0.2-0.4z"/>
	<path class="s121" d="m128.7 176.2q0.3 0.1 0.7 0.2c0.2 0.7 0.2 1.1 0.2 1.8q0 0.3 0 0.6 0 0.3 0 0.5-0.2-0.1-0.4-0.2c-0.2-0.7-0.2-0.7-0.3-1.5q0-0.4-0.1-0.8 0-0.3-0.1-0.6z"/>
	<path class="s72" d="m36.6 148.4q0.3 0.1 0.6 0.2c0.3 0.7 0.3 1.1 0.3 1.8q0 0.3 0 0.6 0 0.2 0 0.5-0.3-0.1-0.5-0.3c-0.1-0.6-0.1-0.6-0.2-1.4q-0.1-0.4-0.1-0.8-0.1-0.3-0.1-0.6z"/>
	<path class="s121" d="m34.6 135q0.3 0.1 0.6 0.2c0.3 0.7 0.3 1.2 0.3 1.9q0 0.3 0 0.6 0 0.2 0 0.4-0.3-0.1-0.5-0.2c-0.1-0.7-0.1-0.7-0.2-1.5q-0.1-0.4-0.1-0.8-0.1-0.3-0.1-0.6z"/>
	<path class="s121" d="m121.1 125.7q0.4 0.1 0.7 0.2c0.2 0.7 0.3 1.1 0.3 1.8q-0.1 0.3-0.1 0.6 0 0.2 0 0.5-0.2-0.1-0.4-0.2c-0.1-0.7-0.1-0.7-0.3-1.5q0-0.4-0.1-0.8 0-0.3-0.1-0.6z"/>
	<path class="s122" d="m105.3 101.2q0.2 0 0.3 0 0.1 1.5 0.2 3.1-0.3-0.1-0.7-0.2-0.1-0.5-0.1-1-0.1-0.2-0.1-0.5c0-0.6 0.1-0.9 0.4-1.4z"/>
	<path class="s121" d="m27.7 88.9q0.3 0.1 0.6 0.3c0.3 0.6 0.3 1.1 0.3 1.8q0 0.3 0 0.6 0 0.2 0 0.5-0.3-0.2-0.5-0.3c-0.1-0.6-0.1-0.6-0.2-1.4q-0.1-0.4-0.1-0.8-0.1-0.3-0.1-0.7z"/>
	<path class="s121" d="m113.6 75.1q0.3 0.1 0.6 0.3c0.3 0.6 0.3 1.1 0.3 1.8q0 0.3 0 0.6 0 0.2 0 0.5-0.2-0.2-0.5-0.3c-0.1-0.6-0.1-0.6-0.2-1.4q-0.1-0.4-0.1-0.8-0.1-0.3-0.1-0.7z"/>
	<path class="s123" d="m116.5 90.5q0.1 0 0.2 0 0.1 1.3 0.2 2.7-0.2 0-0.4 0-0.1 0.4-0.2 0.9-0.1-0.7-0.2-1.3 0-0.4-0.1-0.7c0-0.7 0.1-1 0.5-1.6z"/>
	<path class="s124" d="m130.3 182.6q0.1 0 0.2 0 0.1 1.3 0.2 2.7-0.2 0-0.4 0-0.1 0.2-0.3 0.4 0-0.5-0.1-1 0-0.3-0.1-0.6c0-0.6 0.1-0.9 0.5-1.5z"/>
	<path class="s124" d="m37.5 150.4q0.1 0 0.2 0 0.1 1.3 0.2 2.6-0.2 0-0.4 0-0.1 0.3-0.3 0.5 0-0.6-0.1-1.1 0-0.3-0.1-0.6c0-0.6 0.1-0.9 0.5-1.4z"/>
	<path class="s124" d="m123.4 136.6q0.1 0 0.2 0 0.1 1.3 0.2 2.6-0.2 0-0.4 0-0.1 0.3-0.3 0.5 0-0.6-0.1-1.1 0-0.3-0.1-0.6c0-0.6 0.1-0.9 0.5-1.4z"/>
	<path class="s100" d="m122.7 134.8q0.2 0 0.5 0c0.2 0.7 0.2 1.1 0.2 1.8q0 0.3 0 0.6 0 0.2 0 0.5c-0.5-0.2-0.5-0.2-0.7-0.9q0-0.5 0-1.1 0-0.2 0-0.5 0-0.2 0-0.4z"/>
	<path class="s124" d="m122.7 132.1q0.1 0 0.2 0 0.1 1.3 0.3 2.7-0.3 0-0.5 0-0.1 0.2-0.2 0.4-0.1-0.5-0.2-1 0-0.3 0-0.6c0-0.7 0.1-1 0.4-1.5z"/>
	<path class="s124" d="m29.9 99.8q0.1 0 0.2 0 0.1 1.4 0.2 2.7-0.2 0-0.4 0-0.1 0.2-0.2 0.5-0.1-0.6-0.2-1.1 0-0.3 0-0.6c0-0.6 0.1-0.9 0.4-1.5z"/>
	<path class="s100" d="m29.2 98.1q0.3 0 0.5 0c0.2 0.6 0.2 1.1 0.2 1.8q0 0.3 0 0.6 0 0.2 0 0.5c-0.4-0.3-0.4-0.3-0.7-0.9q0-0.6 0-1.1 0-0.2 0-0.5 0-0.2 0-0.4z"/>
	<path class="s124" d="m29.2 95.4q0.1 0 0.3 0 0.1 1.3 0.2 2.7-0.2 0-0.5 0-0.1 0.2-0.2 0.4-0.1-0.5-0.1-1.1-0.1-0.2-0.1-0.5c0-0.7 0.1-1 0.4-1.5z"/>
	<path class="s100" d="m115.8 88.7q0.2 0 0.5 0c0.2 0.7 0.2 1.1 0.2 1.8q0 0.3 0 0.6 0 0.3 0 0.5c-0.5-0.2-0.5-0.2-0.7-0.9q0-0.5 0-1 0-0.3 0-0.6 0-0.2 0-0.4z"/>
	<path class="s124" d="m115.8 86q0.1 0 0.2 0 0.1 1.4 0.3 2.7-0.3 0-0.5 0-0.1 0.2-0.2 0.5-0.1-0.6-0.2-1.1 0-0.3 0-0.6c0-0.6 0.1-0.9 0.4-1.5z"/>
	<path class="s100" d="m115.1 84.3q0.3 0 0.5 0c0.2 0.6 0.2 1.1 0.2 1.8q0 0.3 0 0.6 0 0.2 0 0.5c-0.4-0.3-0.4-0.3-0.7-0.9q0-0.6 0-1.1 0-0.2 0-0.5 0-0.2 0-0.4z"/>
	<path class="s124" d="m115.1 81.6q0.1 0 0.3 0 0.1 1.3 0.2 2.7-0.2 0-0.5 0-0.1 0.2-0.2 0.4-0.1-0.5-0.1-1-0.1-0.3-0.1-0.6c0-0.7 0.1-1 0.4-1.5z"/>
	<path class="s125" d="m50.4 59.1q0.1 0 0.2 0 0.1 1.3 0.2 2.7-0.2 0-0.4 0-0.1 0.2-0.2 0.4-0.1-0.5-0.2-1 0-0.3-0.1-0.6c0-0.6 0.2-1 0.5-1.5z"/>
	<path class="s126" d="m85.1 58.4q0.1 0 0.2 0 0.1 1.4 0.2 2.7-0.2 0-0.4 0-0.1 0.2-0.2 0.5-0.1-0.6-0.2-1.1 0-0.3 0-0.6c-0.1-0.6 0.1-0.9 0.4-1.5z"/>
	<path class="s127" d="m84.4 54q0.1 0 0.2 0 0.2 1.3 0.3 2.7-0.2 0-0.5 0-0.1 0.2-0.2 0.4-0.1-0.5-0.1-1-0.1-0.3-0.1-0.6c0-0.7 0.1-1 0.4-1.5z"/>
	<path class="s128" d="m23.7 58.2q0.1 0 0.2 0 0.1 1.3 0.2 2.7-0.2 0-0.4 0-0.1 0.4-0.3 0.9-0.1-1.1-0.2-2.2 0.2 0 0.5 0 0-0.7 0-1.4z"/>
	<path class="s129" d="m43 187.5q0.1 0 0.3 0 0.1 1.2 0.2 2.5-0.2 0-0.5 0-0.1 0.2-0.2 0.4-0.1-0.5-0.1-0.9-0.1-0.3-0.1-0.6c0-0.6 0.1-0.9 0.4-1.4z"/>
	<path class="s130" d="m129.6 178.2q0.1 0 0.2 0 0.1 1.3 0.2 2.7-0.3-0.2-0.6-0.3c-0.3-1.4-0.3-1.4 0-2.1q0.1-0.1 0.2-0.3z"/>
	<path class="s131" d="m128.9 173.7q0.1 0 0.3 0 0.1 1.3 0.2 2.7-0.3-0.1-0.7-0.2c-0.3-1.4-0.3-1.4 0-2.1q0.1-0.2 0.2-0.4z"/>
	<path class="s131" d="m128.3 169.3q0.1 0 0.2 0 0.1 1.3 0.2 2.6-0.3-0.1-0.7-0.2c-0.2-1.4-0.2-1.4 0-2.1q0.1-0.1 0.3-0.3z"/>
	<path class="s132" d="m36.8 145.9q0.1 0 0.2 0 0.1 1.3 0.2 2.7-0.3-0.1-0.6-0.2c-0.3-1.5-0.3-1.5 0-2.1q0.1-0.2 0.2-0.4z"/>
	<path class="s132" d="m36.1 141.5q0.1 0 0.3 0 0.1 1.3 0.2 2.6-0.4-0.1-0.7-0.2c-0.3-1.4-0.3-1.4 0-2.1q0.1-0.2 0.2-0.3z"/>
	<path class="s131" d="m35.5 137q0.1 0 0.2 0 0.1 1.3 0.2 2.7-0.3-0.1-0.7-0.2c-0.2-1.5-0.2-1.5 0-2.1q0.1-0.2 0.3-0.4z"/>
	<path class="s130" d="m34.8 132.6q0.1 0 0.2 0 0.1 1.3 0.2 2.6-0.3-0.1-0.6-0.2c-0.3-1.4-0.3-1.4 0-2.1q0.1-0.2 0.2-0.3z"/>
	<path class="s131" d="m122 127.7q0.1 0 0.3 0 0.1 1.3 0.2 2.6-0.3-0.1-0.7-0.2c-0.3-1.4-0.3-1.4 0-2.1q0.1-0.2 0.2-0.3z"/>
	<path class="s131" d="m121.4 123.2q0.1 0 0.2 0 0.1 1.3 0.2 2.7-0.3-0.1-0.7-0.2c-0.2-1.5-0.2-1.5 0-2.1q0.1-0.2 0.3-0.4z"/>
	<path class="s131" d="m120.7 118.8q0.1 0 0.2 0 0.1 1.3 0.2 2.6-0.3-0.1-0.6-0.2c-0.3-1.4-0.3-1.4 0-2.1q0.1-0.2 0.2-0.3z"/>
	<path class="s132" d="m28.6 90.9q0.1 0 0.2 0 0.1 1.4 0.2 2.7-0.3-0.1-0.7-0.2c-0.2-1.4-0.2-1.4 0-2.1q0.1-0.2 0.3-0.4z"/>
	<path class="s131" d="m27.9 86.5q0.1 0 0.2 0 0.1 1.3 0.2 2.7-0.3-0.2-0.6-0.3c-0.3-1.4-0.3-1.4 0-2.1q0.1-0.1 0.2-0.3z"/>
	<path class="s131" d="m27.2 82q0.1 0 0.3 0 0.1 1.4 0.2 2.7-0.4-0.1-0.7-0.2c-0.3-1.4-0.3-1.4 0-2.1q0.1-0.2 0.2-0.4z"/>
	<path class="s131" d="m114.5 77.1q0.1 0 0.2 0 0.1 1.4 0.2 2.7-0.3-0.1-0.7-0.2c-0.2-1.4-0.2-1.4 0-2.1q0.1-0.2 0.3-0.4z"/>
	<path class="s131" d="m113.8 72.7q0.1 0 0.2 0 0.1 1.3 0.2 2.7-0.3-0.1-0.6-0.3c-0.3-1.4-0.3-1.4 0-2.1q0.1-0.1 0.2-0.3z"/>
	<path class="s131" d="m113.1 68.2q0.1 0 0.3 0 0.1 1.4 0.2 2.7-0.3-0.1-0.7-0.2c-0.3-1.4-0.3-1.4 0-2.1q0.1-0.2 0.2-0.4z"/>
	<path class="s21" d="m76.9 68.7c0.9 0.1 1.5 0.2 2.2 0.9q-0.3 0.2-0.7 0.4c-0.8-0.4-0.8-0.4-1.5-0.9q0-0.2 0-0.4z"/>
	<path class="s133" d="m130.9 187.1q0.1 0 0.3 0 0.1 1.2 0.2 2.4-0.3 0.1-0.7 0.3c-0.3-2-0.3-2 0.2-2.7z"/>
	<path class="s131" d="m72.3 67.1q0.2 0.1 0.5 0.1 0.3 0 0.5 0.1 0.2 0 0.4 0c-0.2 0.2-0.2 0.2-0.4 0.3q0 0.2 0 0.4-1.2-0.1-2.5-0.2c0.9-0.7 0.9-0.7 1.5-0.7z"/>
	<path class="s134" d="m42.4 183.1q0.1 0 0.2 0 0 0.6 0 1.2 0 0.3 0 0.6c0 0.6 0 0.6-0.5 1.3q0-0.5-0.1-1.1 0-0.3-0.1-0.6c0-0.6 0.1-0.9 0.5-1.4z"/>
	<path class="s134" d="m41.7 178.6q0.1 0 0.2 0 0 0.6 0 1.2 0.1 0.3 0.1 0.7c-0.1 0.6-0.1 0.6-0.5 1.2q-0.1-0.5-0.2-1 0-0.3 0-0.6c-0.1-0.6 0.1-0.9 0.4-1.5z"/>
	<path class="s135" d="m41 174.2q0.1 0 0.2 0 0.1 0.6 0.1 1.2 0 0.3 0 0.6c-0.1 0.6-0.1 0.6-0.5 1.3q-0.1-0.5-0.1-1.1-0.1-0.3-0.1-0.6c0-0.6 0.1-0.9 0.4-1.4z"/>
	<path class="s53" d="m40.4 169.7q0.1 0 0.2 0 0 0.6 0 1.2 0 0.3 0 0.7c0 0.6 0 0.6-0.5 1.2q0-0.5-0.1-1 0-0.3-0.1-0.6c0-0.6 0.1-0.9 0.5-1.5z"/>
	<path class="s53" d="m39.7 165.3q0.1 0 0.2 0 0 0.6 0 1.2 0.1 0.3 0.1 0.6c-0.1 0.6-0.1 0.6-0.5 1.3q-0.1-0.5-0.2-1.1 0-0.3 0-0.6c-0.1-0.6 0.1-0.9 0.4-1.4z"/>
	<path class="s136" d="m126.9 160.4q0.1 0 0.3 0 0 0.6 0 1.2 0 0.3 0 0.6c0 0.6 0 0.6-0.5 1.3q-0.1-0.5-0.1-1.1-0.1-0.3-0.1-0.6c0-0.6 0.1-0.9 0.4-1.4z"/>
	<path class="s136" d="m126.3 155.9q0.1 0 0.2 0 0 0.6 0 1.2 0 0.3 0 0.7c0 0.6 0 0.6-0.5 1.2q0-0.5-0.1-1 0-0.3-0.1-0.6c0-0.6 0.1-0.9 0.5-1.5z"/>
	<path class="s134" d="m34.1 128.1q0.1 0 0.3 0 0 0.6 0 1.2 0 0.3 0 0.7c0 0.6 0 0.6-0.5 1.2q-0.1-0.5-0.1-1-0.1-0.3-0.1-0.6c0-0.7 0.1-1 0.4-1.5z"/>
	<path class="s136" d="m33.5 123.7q0.1 0 0.2 0 0 0.5 0 1.1 0 0.4 0 0.7c0 0.6 0 0.6-0.5 1.3q0-0.6-0.1-1.1 0-0.3-0.1-0.6c0-0.6 0.1-0.9 0.5-1.4z"/>
	<path class="s53" d="m32.8 119.2q0.1 0 0.2 0 0 0.6 0 1.2 0.1 0.3 0.1 0.7c-0.1 0.6-0.1 0.6-0.5 1.2q-0.1-0.5-0.2-1 0-0.3 0-0.6c-0.1-0.7 0.1-1 0.4-1.5z"/>
	<path class="s53" d="m32.1 114.8q0.1 0 0.2 0 0.1 0.5 0.1 1.1 0 0.4 0 0.7c-0.1 0.6-0.1 0.6-0.5 1.3q-0.1-0.6-0.1-1.1-0.1-0.3-0.1-0.6c0-0.6 0.1-0.9 0.4-1.4z"/>
	<path class="s136" d="m119.4 109.9q0.1 0 0.2 0 0 0.5 0 1.1 0 0.4 0 0.7c0 0.6 0 0.6-0.5 1.3q0-0.6-0.1-1.1 0-0.3-0.1-0.6c0-0.6 0.1-0.9 0.5-1.4z"/>
	<path class="s136" d="m118.7 105.4q0.1 0 0.2 0 0 0.6 0 1.2 0.1 0.3 0.1 0.7c-0.1 0.6-0.1 0.6-0.5 1.2q-0.1-0.5-0.2-1 0-0.3 0-0.6c0-0.7 0.1-1 0.4-1.5z"/>
	<path class="s136" d="m25.9 73.1q0.1 0 0.2 0 0 0.6 0 1.2 0.1 0.3 0.1 0.7c-0.1 0.6-0.1 0.6-0.5 1.3q-0.1-0.6-0.2-1.1 0-0.3 0-0.6c-0.1-0.6 0.1-0.9 0.4-1.5z"/>
	<path class="s136" d="m25.2 68.7q0.1 0 0.2 0 0.1 0.6 0.1 1.2 0 0.3 0 0.6c-0.1 0.6-0.1 0.6-0.5 1.3q-0.1-0.5-0.1-1.1-0.1-0.3-0.1-0.6c0-0.6 0.1-0.9 0.4-1.4z"/>
	<path class="s136" d="m112.5 63.8q0.1 0 0.2 0 0 0.6 0 1.2 0 0.3 0 0.6c0 0.6 0 0.6-0.5 1.3q0-0.5-0.1-1.1 0-0.2-0.1-0.5c0-0.7 0.1-1 0.5-1.5z"/>
	<path class="s136" d="m111.8 59.3q0.1 0 0.2 0 0 0.6 0 1.2 0.1 0.3 0.1 0.7c-0.1 0.6-0.1 0.6-0.5 1.3q-0.1-0.6-0.2-1.1 0-0.3 0-0.6c0-0.6 0.1-0.9 0.4-1.5z"/>
	<path class="s137" d="m43.5 97.8q0.1 0 0.2 0 0.1 1 0.2 2-0.3 0.2-0.6 0.3c-0.3-1.2-0.3-1.2-0.1-1.9 0.2-0.2 0.2-0.2 0.3-0.4z"/>
	<path class="s106" d="m26.6 77.6q0.1 0 0.2 0 0 1.2 0 2.4c-0.2 0.1-0.2 0.1-0.5 0.3-0.3-2-0.3-2 0.3-2.7z"/>
	<path class="s138" d="m49.7 54.7q0.1 0 0.2 0 0 1.2 0 2.4c-0.2 0.1-0.2 0.1-0.4 0.2-0.3-1.9-0.3-1.9 0.2-2.6z"/>
	<path class="s136" d="m92 85.8q0.1 0 0.2 0 0.1 1 0.2 2-0.3 0.2-0.6 0.5c-0.3-1.5-0.3-1.5 0-2.1q0.1-0.2 0.2-0.4z"/>
	<path class="s131" d="m64.8 67.6q0.3 0.2 0.5 0.4-0.9 0.1-1.8 0.2 0-0.2 0-0.4-0.2-0.1-0.4-0.2c0.6-0.2 1.1-0.3 1.7 0z"/>
	<path class="s139" d="m127.2 164.6q0.3 0.1 0.6 0.2 0 0.6 0 1.1-0.2 0-0.4 0-0.1 0.5-0.2 0.9 0-1.1 0-2.2z"/>
	<path class="s139" d="m125.2 151.3q0.3 0.1 0.6 0.2 0 0.5 0 1.1-0.2 0-0.4 0-0.1 0.4-0.2 0.9 0-1.1 0-2.2z"/>
	<path class="s139" d="m124.5 146.8q0.3 0.1 0.7 0.2 0 0.6 0 1.1-0.3 0-0.5 0-0.1 0.5-0.2 0.9 0-1.1 0-2.2z"/>
	<path class="s139" d="m123.8 142.3q0.3 0.2 0.7 0.3 0 0.5 0 1.1-0.2 0-0.5 0-0.1 0.4-0.2 0.9 0-1.1 0-2.3z"/>
	<path class="s139" d="m119.6 114.1q0.3 0.1 0.7 0.2 0 0.6 0 1.1-0.3 0-0.5 0-0.1 0.5-0.2 0.9 0-1.1 0-2.2z"/>
	<path class="s139" d="m31 110.1q0.3 0.1 0.7 0.2 0 0.5 0 1.1-0.2 0-0.5 0-0.1 0.5-0.2 0.9 0-1.1 0-2.2z"/>
	<path class="s139" d="m30.3 105.6q0.4 0.1 0.7 0.3 0 0.5 0 1.1-0.2 0-0.4 0-0.1 0.4-0.3 0.9 0-1.1 0-2.3z"/>
	<path class="s139" d="m117.6 100.7q0.3 0.1 0.7 0.3 0 0.5 0 1.1-0.3 0-0.5 0-0.1 0.4-0.2 0.9 0-1.1 0-2.3z"/>
	<path class="s139" d="m116.9 96.3q0.3 0.1 0.7 0.2 0 0.5 0 1.1-0.2 0-0.5 0-0.1 0.5-0.2 0.9 0-1.1 0-2.2z"/>
	<path class="s140" d="m92 87.6c0.3 0.2 0.3 0.2 0.7 0.4 0 0.7 0 0.7 0 1.4q-0.4 0-0.7 0 0-0.9 0-1.8z"/>
	<path class="s60" d="m51.5 81.4q0.1 0 0.2 0c0.1 1.4 0.1 1.4-0.3 1.9q-0.2 0.2-0.4 0.3 0.1-0.5 0.1-1 0.1-0.3 0.1-0.5c0.1-0.5 0.1-0.5 0.3-0.7z"/>
	<path class="s139" d="m24.1 64q0.3 0.1 0.7 0.2 0 0.6 0 1.1-0.2 0-0.5 0-0.1 0.5-0.2 0.9 0-1.1 0-2.2z"/>
	<path class="s141" d="m52.8 76.9c0.2 0.6 0.3 0.8 0 1.4-0.1 0.2-0.1 0.2-0.2 0.4q-0.2 0-0.4 0c0.1-1.3 0.1-1.3 0.6-1.8z"/>
	<path class="s118" d="m37.9 157.3q0.3 0.1 0.7 0.2-0.1 1-0.2 2-0.2 0-0.3 0-0.1-1.1-0.2-2.2z"/>
	<path class="s142" d="m77.1 108.1q1 0 2 0-0.1 0.3-0.2 0.6-0.5 0-0.9 0 0-0.2 0-0.4-0.5-0.1-0.9-0.2z"/>
	<path class="s143" d="m91.3 96.9q0.1 0 0.2 0-0.1 0.8-0.2 1.6-0.3 0-0.6 0c0.1-1.1 0.1-1.1 0.6-1.6z"/>
	<path class="s144" d="m91.3 84.9q0.4 0.1 0.7 0.3 0 0.6 0 1.3c-0.2 0.1-0.2 0.1-0.5 0.2q-0.1-0.9-0.2-1.8z"/>
</svg>