<svg version="1.1" id="Layer_1" xmlns="http://www.w3.org/2000/svg" xmlns:xlink="http://www.w3.org/1999/xlink" x="0px" y="0px" width="150px" height="28px" viewBox="0 0 150 28" style="enable-background:new 0 0 150 28;" xml:space="preserve">
<style type="text/css">
	.st0{fill:#9E1C33;}
</style>
<g>
	<g>
		<path class="st0" d="M145.6008,3.9214c0-0.3906,0.0977-0.7568,0.293-1.0986s0.4638-0.6113,0.8056-0.8086    s0.7099-0.2959,1.1044-0.2959c0.3886,0,0.7529,0.0967,1.0947,0.29c0.3398,0.1934,0.6093,0.4624,0.8085,0.8071    c0.1973,0.3447,0.2969,0.7134,0.2969,1.106c0,0.3887-0.0967,0.7529-0.289,1.0928s-0.458,0.6094-0.7978,0.8086    s-0.7109,0.2988-1.1132,0.2988c-0.4043,0-0.7773-0.1011-1.1191-0.3032s-0.6084-0.4722-0.7978-0.8101    C145.6955,4.6704,145.6008,4.3081,145.6008,3.9214z M145.9612,3.9214c0,0.3281,0.0811,0.6333,0.2431,0.9155    s0.3857,0.5073,0.6709,0.6753s0.5947,0.252,0.9287,0.252c0.3379,0,0.6494-0.085,0.9365-0.2549    c0.2851-0.1699,0.5078-0.396,0.666-0.6782s0.2373-0.5854,0.2373-0.9097c0-0.3223-0.0801-0.6255-0.2402-0.9097    c-0.1601-0.2842-0.3818-0.5107-0.667-0.6797c-0.2832-0.1689-0.5947-0.2534-0.9326-0.2534c-0.3281,0-0.6357,0.0825-0.9209,0.2476    c-0.2871,0.165-0.5117,0.3906-0.6758,0.6768S145.9612,3.5952,145.9612,3.9214z M148.7735,3.4058    c0,0.1621-0.0449,0.3037-0.1328,0.4248c-0.0898,0.1211-0.2168,0.2168-0.3828,0.2871l0.6181,1.0928h-0.5859l-0.5039-0.9521h-0.2666    v0.9521h-0.5215V2.6382h0.7881C148.4444,2.6382,148.7735,2.894,148.7735,3.4058z M147.5197,3.8364h0.2109    c0.164,0,0.29-0.0352,0.3779-0.1055c0.0879-0.0703,0.1318-0.167,0.1318-0.29c0-0.1426-0.0449-0.2412-0.1328-0.2959    c-0.0898-0.0547-0.2148-0.082-0.3769-0.082h-0.2109V3.8364z"/>
	</g>
	<g>
		<polygon class="st0" points="19.8029,12.1 20.7028,7.9 11.6033,7.9 12.4033,4.3 22.8027,4.3 23.7027,0 4.8037,0 0.0039,21.2     19.5029,21.2 20.4028,16.7 9.7034,16.7 10.7033,12.1   "/>
		<path class="st0" d="M45.1016,12.1c0.4-2,0.7-3.9,0.7-3.9c1.1999-6.6-5.3997-6.6-9.5995-6.7c-6.0997-0.2-11.2994-0.2-13.1993,7.3    c0,0-0.9999,3.9-1.1999,6.9c-0.3,6.1,6.1997,5.9,9.6995,6.1c3.4998,0.1,5.6997-0.6,5.6997-0.6l5.7997,6.8h8.7995L38.5019,12.1    H45.1016z M38.3019,8.5c0,0-0.5,3.6-1.7999,7.2c-0.6,1.7-2.5999,2.6-4.0998,2.6c-1.6999,0-3.5998-0.9-3.0998-3.4    c0,0,0.5-3.4,1.7999-7.2c0,0,1.0999-2.8,4.0998-2.6C35.2021,5.1,39.0019,4.5,38.3019,8.5z"/>
		<path class="st0" d="M63.3006,2.4l-3.0998,13.7c-0.6,2.5-3.6998,2.1-3.6998,2.1c-2.3999,0-2.3999-2.2-2.3999-2.2    c0.5-2.7,2.9998-13.5,2.9998-13.5h-7.6996c-0.6,2.2-2.4999,10.9-2.4999,10.9l7.0996,8.3C56.001,22,57.8009,22,58.8008,22    c5.8997-0.3,8.4996-2.6,8.9995-4.3c0.5-1.7,3.4998-15.2,3.4998-15.2h-7.9996C63.3006,2.5,63.3006,2.4,63.3006,2.4z"/>
		<polygon class="st0" points="74.0001,2.4 69.9003,21.2 77.5999,21.2 81.8996,2.4   "/>
		<polygon class="st0" points="98.7988,9.5 91.0992,9.5 91.9991,6 100.8987,6 101.7986,2.4 84.7995,2.4 80.6997,21.2 88.4993,21.2     90.3992,13.1 97.9988,13.1   "/>
		<path class="st0" d="M136.2968,2.4l-4.8997,4.8l-2.9998-4.8h-9.9995l6.1997,9.4l-6.2997,5.8l-1.8999-15.2h-9.3995L93.699,21.2    h5.4997l2.7999-4.2h8.1996l0.4,4.1h11.6994l5.3997-5.6l3.2998,5.6h9.5995l-6.5997-10l9.8995-8.7    C143.8964,2.4,136.2968,2.4,136.2968,2.4z M104.5985,13l4.2998-6.2l0.6,6.2H104.5985z"/>
	</g>
</g>
</svg>