<svg width="470" height="96" viewBox="0 0 470 96" fill="none" xmlns="http://www.w3.org/2000/svg">
<mask id="mask0_620_3324" style="mask-type:alpha" maskUnits="userSpaceOnUse" x="0" y="0" width="155" height="81">
<path fill-rule="evenodd" clip-rule="evenodd" d="M0.100098 0.199219H154.5V80.7992H0.100098V0.199219Z" fill="white"/>
</mask>
<g mask="url(#mask0_620_3324)">
<path fill-rule="evenodd" clip-rule="evenodd" d="M136.7 46.5992C132.9 50.3992 127.8 52.4992 122.4 52.4992H73.7L108.6 17.5992C112.4 14.0992 117.2 12.0992 122.4 12.0992C127.8 12.0992 132.9 14.1992 136.7 17.9992C144.6 25.8992 144.6 38.6992 136.7 46.5992ZM17.8 62.9992C14 59.1992 11.9 54.0992 11.9 48.6992C11.9 43.2992 14 38.1992 17.8 34.3992C21.6 30.5992 26.7 28.4992 32.1 28.4992H80.8L45.9 63.4992C42.1 66.9992 37.3 68.9992 32.1 68.9992C26.7 68.8992 21.6 66.7992 17.8 62.9992ZM145.1 9.59922C139 3.49922 131 0.199219 122.4 0.199219C113.8 0.199219 105.8 3.49922 99.7 9.59922L92.7 16.5992H32.1C23.5 16.5992 15.5 19.8992 9.4 25.9992C3.3 32.0992 0 40.1992 0 48.6992C0 57.2992 3.3 65.2992 9.4 71.3992C15.5 77.4992 23.5 80.7992 32.1 80.7992C40.7 80.7992 48.7 77.4992 54.8 71.3992L61.8 64.3992H122.4C131 64.3992 139 61.0992 145.1 54.9992C157.6 42.4992 157.6 22.0992 145.1 9.59922Z" fill="#0F192E"/>
</g>
<mask id="mask1_620_3324" style="mask-type:alpha" maskUnits="userSpaceOnUse" x="178" y="3" width="292" height="93">
<path fill-rule="evenodd" clip-rule="evenodd" d="M178.3 3.59766H469.4V95.8977H178.3V3.59766Z" fill="white"/>
</mask>
<g mask="url(#mask1_620_3324)">
<path fill-rule="evenodd" clip-rule="evenodd" d="M210 64.2969H186.2V40.4969C186.2 27.3969 196.9 16.6969 210 16.6969C223.1 16.6969 233.8 27.3969 233.8 40.4969C233.8 53.5969 223.1 64.2969 210 64.2969ZM210 8.79688C192.5 8.79688 178.3 22.9969 178.3 40.4969V95.9969H186.2V72.1969H210C227.5 72.1969 241.7 57.9969 241.7 40.4969C241.7 22.9969 227.5 8.79688 210 8.79688Z" fill="#0F192E"/>
</g>
<path fill-rule="evenodd" clip-rule="evenodd" d="M306.3 16.7008V36.5008H259.1C261 25.3008 270.8 16.7008 282.5 16.7008H306.3ZM250.8 40.5008C250.8 58.0008 265 72.2008 282.5 72.2008H314.2V64.3008H282.5C270.7 64.3008 261 55.7008 259.1 44.5008H314.3V8.80078H282.6C265 8.80078 250.8 23.0008 250.8 40.5008Z" fill="#0F192E"/>
<path fill-rule="evenodd" clip-rule="evenodd" d="M360.6 64.3008H336.8V44.5008H384C382.2 55.7008 372.4 64.3008 360.6 64.3008ZM360.6 8.80078H328.9V16.7008H360.6C372.4 16.7008 382.1 25.3008 384 36.5008H328.8V72.2008H360.5C378 72.2008 392.2 58.0008 392.2 40.5008C392.3 23.0008 378.1 8.80078 360.6 8.80078Z" fill="#0F192E"/>
<path fill-rule="evenodd" clip-rule="evenodd" d="M433.1 8.80078C415.6 8.80078 401.4 23.0008 401.4 40.5008V72.2008H409.3V40.5008C409.3 27.4008 420 16.7008 433.1 16.7008H452.9V8.80078H433.1Z" fill="#0F192E"/>
<path d="M468.8 6.99922C468.8 9.19922 467.1 10.8992 464.9 10.8992C462.7 10.8992 461 9.19922 461 6.99922C461 4.89922 462.7 3.19922 464.9 3.19922C467.1 3.19922 468.8 4.89922 468.8 6.99922ZM461.9 6.99922C461.9 8.69922 463.2 10.0992 464.9 10.0992C466.6 10.0992 467.8 8.69922 467.8 7.09922C467.8 5.39922 466.6 3.99922 464.9 3.99922C463.2 3.89922 461.9 5.29922 461.9 6.99922ZM464.3 8.99922H463.4V5.19922C463.7 5.09922 464.2 5.09922 464.9 5.09922C465.6 5.09922 465.9 5.19922 466.2 5.39922C466.4 5.59922 466.6 5.89922 466.6 6.19922C466.6 6.59922 466.3 6.89922 465.8 7.09922C466.2 7.19922 466.4 7.49922 466.5 7.99922C466.6 8.59922 466.7 8.79922 466.8 8.99922H465.8C465.7 8.89922 465.6 8.49922 465.5 8.09922C465.4 7.69922 465.2 7.49922 464.7 7.49922H464.3V8.99922ZM464.3 6.79922H464.7C465.2 6.79922 465.6 6.59922 465.6 6.19922C465.6 5.89922 465.3 5.59922 464.8 5.59922C464.6 5.59922 464.4 5.59922 464.3 5.59922V6.79922V6.79922Z" fill="#0F192E"/>
</svg>