<svg width="98" height="52" viewBox="0 0 98 52" fill="none" xmlns="http://www.w3.org/2000/svg" class="[&amp;_path]:!fill-black"><title>Vimeo</title><g clip-path="url(#clip0_2811_93414)"><path d="M27.227 22.0144C27.1517 23.6479 26.0058 25.8843 23.788 28.7236C21.4961 31.6886 19.5565 33.1711 17.9702 33.1711C16.9877 33.1711 16.1557 32.2684 15.4767 30.462C15.0225 28.8066 14.5695 27.1512 14.1164 25.4958C13.6124 23.6906 13.0713 22.7868 12.4919 22.7868C12.3656 22.7868 11.9242 23.0508 11.1687 23.5776L10.375 22.5609C11.2069 21.8335 12.0285 21.106 12.8361 20.3775C13.9461 19.423 14.7792 18.9215 15.3342 18.8708C16.6459 18.7451 17.4535 19.6386 17.757 21.5487C18.0849 23.6099 18.3109 24.8929 18.4383 25.3944C18.8172 27.1051 19.2332 27.9593 19.6874 27.9593C20.0408 27.9593 20.5703 27.4048 21.2771 26.2947C21.9828 25.1846 22.3617 24.3408 22.4127 23.7609C22.5135 22.8029 22.1346 22.3234 21.2771 22.3234C20.8728 22.3234 20.4568 22.4156 20.0292 22.5989C20.8577 19.8979 22.4416 18.5861 24.7776 18.661C26.5098 18.7117 27.3267 19.8299 27.227 22.0156V22.0144Z" fill="black"></path><path d="M37.6357 27.3046C36.9289 28.6337 35.9579 29.8384 34.7204 30.9174C33.0287 32.3722 31.3382 33.1007 29.6476 33.1007C28.8644 33.1007 28.2642 32.8494 27.8482 32.348C27.4322 31.8465 27.2364 31.194 27.2619 30.3906C27.2862 29.5629 27.5446 28.2833 28.0371 26.5518C28.5295 24.8203 28.7763 23.8912 28.7763 23.7655C28.7763 23.1142 28.548 22.7868 28.095 22.7868C27.9432 22.7868 27.5145 23.0508 26.8077 23.5776L25.9375 22.5609C26.7451 21.8335 27.5527 21.106 28.3603 20.3775C29.446 19.423 30.2536 18.9215 30.7843 18.8708C31.6163 18.7959 32.228 19.0391 32.6197 19.6028C33.0102 20.1665 33.155 20.8974 33.0554 21.7977C32.7263 23.324 32.3729 25.263 31.994 27.6135C31.9685 28.6902 32.3601 29.2274 33.1677 29.2274C33.5212 29.2274 34.1515 28.8562 35.0611 28.1127C35.8177 27.4936 36.4364 26.9115 36.9161 26.3662L37.6357 27.3069V27.3046ZM34.3415 13.9104C34.316 14.5352 34.0008 15.1358 33.3949 15.7099C32.7135 16.3589 31.9059 16.684 30.972 16.684C29.5341 16.684 28.8389 16.0603 28.8899 14.8107C28.9142 14.1617 29.2989 13.5357 30.0439 12.9363C30.789 12.338 31.6151 12.0371 32.5247 12.0371C33.0542 12.0371 33.4957 12.2446 33.8502 12.6562C34.2036 13.0688 34.367 13.4873 34.3427 13.9104H34.3415Z" fill="black"></path><path d="M61.2766 27.3047C60.5697 28.6338 59.5988 29.8385 58.3613 30.9175C56.6696 32.3723 54.9791 33.1008 53.2885 33.1008C51.598 33.1008 50.8518 32.1982 50.9028 30.3907C50.9271 29.5872 51.0858 28.6223 51.3755 27.4926C51.6652 26.3628 51.8239 25.4844 51.8494 24.8573C51.8749 23.9039 51.5841 23.4267 50.9758 23.4267C50.3176 23.4267 49.5332 24.206 48.6213 25.7622C47.6584 27.3946 47.1393 28.9762 47.064 30.5071C47.013 31.5884 47.1196 32.4172 47.3827 32.9936C45.6214 33.0444 44.3874 32.755 43.6841 32.1279C43.0538 31.5757 42.7653 30.6593 42.8151 29.3785C42.8394 28.575 42.9634 27.7715 43.187 26.968C43.4095 26.1646 43.5335 25.4487 43.559 24.8204C43.61 23.8913 43.2681 23.4267 42.5358 23.4267C41.9032 23.4267 41.2207 24.1437 40.4884 25.5743C39.7561 27.0049 39.3506 28.5001 39.2753 30.0563C39.2243 31.4627 39.3147 32.4415 39.5464 32.9936C37.8142 33.0444 36.5836 32.6812 35.856 31.9043C35.2523 31.2541 34.9765 30.265 35.0275 28.9381C35.0518 28.288 35.1665 27.3796 35.3751 26.2153C35.5837 25.051 35.6995 24.1437 35.7239 23.4924C35.7737 23.0417 35.6602 22.8169 35.3832 22.8169C35.2314 22.8169 34.8027 23.0716 34.0959 23.5789L33.1875 22.5621C33.3138 22.463 34.1075 21.7344 35.5733 20.3787C36.6335 19.4 37.3518 18.8986 37.7307 18.8732C38.3866 18.8225 38.9172 19.0922 39.3205 19.6825C39.7248 20.2727 39.9265 20.9574 39.9265 21.7356C39.9265 21.9869 39.901 22.2255 39.8511 22.4514C40.23 21.8751 40.6715 21.3713 41.1767 20.9448C42.3377 19.9407 43.6378 19.3747 45.0757 19.2502C46.312 19.1499 47.1949 19.4381 47.7268 20.1159C48.1543 20.6681 48.356 21.4601 48.3316 22.4895C48.5089 22.3396 48.6978 22.1759 48.9005 21.9996C49.4799 21.3217 50.0477 20.7822 50.6038 20.3799C51.5377 19.7021 52.5099 19.3251 53.5191 19.249C54.7311 19.1487 55.6013 19.4358 56.1308 20.1124C56.5838 20.6623 56.7866 21.4508 56.7368 22.4757C56.7113 23.1765 56.541 24.1956 56.2258 25.5351C55.9095 26.8735 55.7519 27.6424 55.7519 27.8419C55.7264 28.3675 55.7774 28.7306 55.9037 28.9301C56.03 29.1307 56.3324 29.2298 56.8121 29.2298C57.1655 29.2298 57.7958 28.8586 58.7054 28.1151C59.462 27.496 60.0808 26.9139 60.5605 26.3686L61.28 27.3093L61.2766 27.3047Z" fill="black"></path><path d="M75.4694 27.2665C74.7371 28.4712 73.2992 29.6736 71.1533 30.8771C68.4778 32.4068 65.7642 33.1711 63.0134 33.1711C60.9683 33.1711 59.5038 32.4933 58.6208 31.1376C57.9905 30.2084 57.6869 29.1041 57.7124 27.8233C57.7368 25.7898 58.6463 23.8578 60.4388 22.0237C62.4074 20.0155 64.7295 19.0115 67.4049 19.0115C69.8787 19.0115 71.1903 20.0144 71.3421 22.0179C71.4429 23.2952 70.7361 24.6105 69.2229 25.9628C67.6065 27.4406 65.5742 28.3801 63.127 28.7802C63.58 29.4061 64.2625 29.7197 65.1709 29.7197C66.9878 29.7197 68.9691 29.2609 71.115 28.3409C72.6538 27.6954 73.8658 27.0233 74.7499 26.3282L75.4694 27.2677V27.2665ZM66.8754 23.3333C66.8997 22.66 66.6228 22.3211 66.0434 22.3211C65.2868 22.3211 64.5186 22.8399 63.7376 23.8762C62.9567 24.9126 62.5523 25.9063 62.528 26.855C62.514 26.855 62.514 27.0175 62.528 27.3426C63.7631 26.893 64.8337 26.2071 65.741 25.2826C66.471 24.4837 66.8499 23.8336 66.8754 23.3333Z" fill="black"></path><path d="M85.7513 24.7418C85.6493 27.0485 84.7919 29.0428 83.1767 30.7224C81.5615 32.402 79.5546 33.2424 77.1573 33.2424C75.1632 33.2424 73.6487 32.6026 72.614 31.3242C71.8574 30.372 71.4403 29.1812 71.365 27.7529C71.2375 25.596 72.0196 23.6155 73.7125 21.8103C75.5293 19.8044 77.8131 18.8015 80.5638 18.8015C82.3297 18.8015 83.6668 19.3917 84.5764 20.5687C85.435 21.6477 85.8255 23.0391 85.7501 24.743L85.7513 24.7418ZM81.4734 24.6C81.4989 23.921 81.4039 23.2974 81.1895 22.7325C80.9752 22.1676 80.6646 21.8829 80.2626 21.8829C78.9753 21.8829 77.9151 22.5757 77.0831 23.9591C76.3752 25.0922 75.9963 26.2992 75.9464 27.5811C75.9209 28.2105 76.0345 28.7639 76.2871 29.2423C76.564 29.7956 76.9557 30.0723 77.4608 30.0723C78.5964 30.0723 79.5685 29.406 80.3761 28.0722C81.0574 26.9644 81.4224 25.8081 81.4734 24.6012V24.6Z" fill="black"></path></g><defs><clipPath id="clip0_2811_93414"><rect width="75.3846" height="21.2043" fill="white" transform="translate(10.375 12.0371)"></rect></clipPath></defs></svg>